<?xml version="1.0" encoding="utf-8"?>
<!-- Generator: Adobe Illustrator 23.0.1, SVG Export Plug-In . SVG Version: 6.00 Build 0)  -->
<svg version="1.1" id="Layer_1" xmlns="http://www.w3.org/2000/svg" xmlns:xlink="http://www.w3.org/1999/xlink" x="0px" y="0px"
	 viewBox="0 0 1920.8 936.8" style="enable-background:new 0 0 1920.8 936.8;" xml:space="preserve">
<style type="text/css">
	.st0{fill:#F2F1F1;}
	.st1{fill:#FDCA5E;}
	.st2{fill:#2C3335;}
	.st3{fill:none;}
	.st4{fill:#E5B349;}
	.st5{fill:#E4B043;}
	.st6{fill:#F8A230;}
</style>
<rect y="1.1" class="st0" width="1920.8" height="935.7"/>
<path class="st1" d="M553.9,15.3c26.1,8.6,52.2,16.8,79.7,19.6c23.8,2.6,47.9-0.2,70.5-8.3c15.7-5.7,29.2-14.6,41.5-25.4l1.3-1.1
	h-4.7c-0.1,0-0.2,0.1-0.2,0.1l0,0V0H507.3l3.7,1.1C525.4,5.5,539.5,10.6,553.9,15.3z M645.9,33.2c-15.6,0.1-30.8-3.5-46-6.5
	c17.5,2.8,34.9,6.3,52.8,6.3C650.4,33,648.1,33.1,645.9,33.2L645.9,33.2z M736.2,5.2l-0.4,0.6c-2.2,3-5.5,4.4-8.6,6.2
	c-0.4,0.3-0.9,0.5-1.3,0.8l0,0l0,0c0.3-0.4,0.6-0.8,0.9-1.2l0,0c0.3-0.4,0.7-0.8,1-1.1l0,0c0.3-0.4,0.7-0.7,1.1-1.1l0,0
	c0.4-0.3,0.8-0.7,1.2-1l0,0c0.4-0.3,0.8-0.6,1.2-0.9l0,0c0.4-0.3,0.8-0.5,1.3-0.8l0,0c0.9-0.5,1.8-0.9,2.8-1.3l0,0l0.6-0.2l0,0
	H736.2z M740.6,1.8c-0.4,1-1.2,1.7-2.3,2.1c-0.4,0.1-0.8,0.2-1.3,0.2l0,0c0.4-1.9,1.7-2.5,3.2-2.7l0.6-0.2l0,0
	C740.8,1.4,740.7,1.6,740.6,1.8z"/>
<path class="st1" d="M25.5,30.6C38.2,49,53.1,65.1,72.8,76.1c22.1,12.3,46,19.6,70.5,25.2l24.9,4.4c12.7,1.8,25.5,2.4,38.4,1.9
	c25.4-1,49.5-6.5,71.9-19.1c1.6-0.9,3.8-1.6,4.5-3c2.3-4.7,6.6-6.4,10.6-8.8c0-0.2,0.1-0.4,0.3-0.6l0,0l0,0c0.2-0.1,0.4-0.1,0.5-0.1
	c0-0.1,0-0.2,0.1-0.3c0.1-0.2,0.2-0.3,0.4-0.3c0.1-0.1,0.3-0.1,0.5-0.1c0-0.2,0.1-0.4,0.3-0.5c0.2-0.1,0.4-0.1,0.6-0.1
	c0-0.2,0.1-0.4,0.1-0.5c0.1-0.4,0.2-0.7,0.4-1l0,0c0.1-0.2,0.3-0.3,0.5-0.5c0.5-0.4,1.2-0.7,1.9-0.6c0-0.1,0-0.2,0.1-0.3
	c0.1-0.1,0.2-0.2,0.3-0.3c0.2-0.1,0.4-0.1,0.6,0c0.2-0.6,0.3-1.3,0.7-1.7c11.8-11,21.1-24,31.1-36.6C342.9,19.3,355.8,8.5,371,1
	l2.4-1.1H7.4C7.6,0.4,7.8,0.8,8,1.1C13.2,11.3,19.1,21.1,25.5,30.6z"/>
<path class="st2" d="M401.5,887c-0.8-0.5-1.4-1.2-2.5-1h-0.8c-0.8,0.2-1.4-0.2-1.9-0.8l-1.7-1.1l-1.6-1c-1.4-1.1-3.3-1.4-4.2-3
	c-1.2,0.1-2.3-0.6-2.8-1.7c-3.9-1.3-7.2-3.8-10.8-5.7c-15.2-8-30.5-15.9-45.7-24c-15.6-8.3-30.6-17.4-44.1-28.9
	c-8.4-7.3-15.7-15.6-23.4-23.6c-6.9-7.2-14.1-13.8-22.8-18.7c-12.9-7.3-26.9-9.5-41.4-8.6c-27,1.7-52.6,9.1-77.2,19.8
	C82,805.6,48,831.8,21.8,865c-8.3,10.3-15.6,21.4-21.7,33.1v38.7h455.6C439.8,917.9,421.6,901.2,401.5,887z M40.2,847
	c0,0.1,0,0.2,0,0.3C40.2,847.2,40.1,847.1,40.2,847L40.2,847z M39.6,847.7L39.6,847.7L39.6,847.7z M0.5,903L0.5,903L0.5,903H0.2
	c0.1-0.1,0.1-0.2,0.2-0.3l0,0C0.4,902.8,0.5,902.9,0.5,903L0.5,903z M1,901.9L1,901.9c0,0-0.1,0.1-0.2,0.1l0,0
	c-0.3-0.1-0.3-0.3,0-0.4l0,0c0,0,0.1,0,0.1,0.1l0,0C1,901.7,1,901.8,1,901.9L1,901.9L1,901.9z M1.4,900.9L1.4,900.9L1.4,900.9
	c-0.1,0-0.1-0.1-0.1-0.2c0-0.1,0.1-0.2,0.2-0.3l0,0l0,0l0.2,0.2L1.4,900.9z M2,899.8L2,899.8L2,899.8l-0.2-0.1l0.2-0.3l0,0l0,0
	c0.1,0.1,0.2,0.1,0.2,0.2S2.1,899.8,2,899.8L2,899.8z M2.6,898.6L2.6,898.6l-0.3-0.2l0.2-0.2l0,0l0.2,0.2L2.6,898.6z M3,897.8
	L3,897.8c-0.5-1.1,0.3-1.5,1.1-2.7l0,0l0,0C4.3,896.8,3.9,897.4,3,897.8L3,897.8z M15.3,878.2L15.3,878.2l-0.2-0.1l0.2-0.3l0,0
	c0.1,0.1,0.2,0.1,0.2,0.2S15.4,878.2,15.3,878.2z M17.1,876.3c-0.1,0.1-0.2,0.2-0.4,0.3c-0.1,0.1-0.3,0.2-0.4,0.3
	c-0.2,0.2-0.3,0.3-0.5,0.4l0,0c-0.1-0.1-0.2-0.2-0.2-0.3c0-0.2,0.1-0.4,0.3-0.5l0,0l0,0c0.2-0.4,0.6-1.1,0.9-1c0,0,0.1,0,0.1,0.1
	l0,0c0.1,0.1,0.1,0.1,0.2,0.2C17.2,875.9,17.2,876.1,17.1,876.3L17.1,876.3L17.1,876.3z M19.2,873.1L19.2,873.1l-0.5,0.9l-0.1,0.1
	c-0.2,0.4-0.4,0.7-0.8,1c-0.1,0-0.1,0-0.2,0s-0.1,0-0.2-0.1c-0.7-0.6,0.1-1.1,0.6-1.5l0.6-1l0,0c0.2-0.3,0.4-0.7,0.6-0.7l0,0
	c0.1,0,0.2,0.1,0.3,0.2c0.1,0.1,0.2,0.2,0.2,0.3C19.8,872.6,19.5,872.9,19.2,873.1L19.2,873.1z M22.8,868.4L22.8,868.4l-0.2,0.1
	h-0.1l0,0c0,0.1,0,0.2,0,0.4c-0.1,0.2-0.2,0.3-0.3,0.5c-0.1,0.1-0.2,0.2-0.3,0.3l0,0l0,0c0,0.1-0.1,0.2-0.1,0.3
	c-0.2,0.3-0.4,0.5-0.6,0.4c-0.1,0-0.1-0.1-0.2-0.1l-0.1-0.1c0,0,0-0.1-0.1-0.2c0-0.1,0-0.1,0-0.2c0.1-0.2,0.3-0.4,0.5-0.6l0.5-0.9
	l0.1-0.1c0.3-0.5,0.6-1,1.1-1.4c0.2-0.1,0.4-0.2,0.7-0.2C24,867.2,23.6,868.1,22.8,868.4L22.8,868.4z M24.6,865.8L24.6,865.8
	l-0.3,0.2l-0.2,0.2H24c-0.2-0.1-0.3-0.3-0.2-0.5c0.1-0.2,0.2-0.3,0.3-0.4l0,0c0.2-0.6,0.6-1,1.1-1.4c0.2-0.1,0.5-0.2,0.7-0.2
	C26.1,864.7,25.5,865.6,24.6,865.8L24.6,865.8z M28.6,861.3L28.6,861.3c-0.2,0.6-0.6,1-1.1,1.4c-0.2,0.1-0.4,0.2-0.6,0.2
	c-0.1,0.2-0.1,0.6-0.5,0.5c-0.1,0-0.1,0-0.2-0.1S26,863.1,26,863c0.1-0.2,0.2-0.3,0.3-0.5c0.2-0.5,0.5-0.9,0.9-1.2
	c0.1-0.1,0.1-0.2,0.2-0.2c0.2-0.1,0.4-0.2,0.6-0.3l0,0c0.1-0.2,0.2-0.5,0.4-0.5c0.1,0,0.2,0.1,0.3,0.1c0.1,0.1,0.1,0.1,0.1,0.2
	C28.8,861,28.7,861.2,28.6,861.3L28.6,861.3z M38.1,850.9C38.1,850.9,38,850.9,38.1,850.9c-0.1,0-0.2,0.1-0.3,0.1s-0.2,0-0.3,0.1
	s-0.1,0.2-0.1,0.4l0,0c-0.1,0-0.2,0-0.2,0c-0.2,0.1-0.2,0.2-0.2,0.5 M36.9,852l-0.9,0.5l0,0c-0.1,0.5-0.4,1-0.8,1.3
	c-0.4,0.4-0.8,0.7-1.2,0.9c0,0.1,0,0.1-0.1,0.2c0,0,0,0.1-0.1,0.1c-0.1,0.1-0.2,0.1-0.3,0.1h-0.1c0,0.3-0.2,0.6-0.6,0.6l0,0
	c0.1,0.4-0.2,0.9-0.6,1.1l-0.5,0.6c-0.3,0.8-0.9,1.4-1.6,1.8c-0.1,0.3-0.2,0.5-0.6,0.5c-0.1,0.2-0.2,0.8-0.6,0.4l-0.1-0.1
	c0-0.1-0.1-0.1-0.1-0.2c0-0.1,0.1-0.3,0.2-0.4c0-0.1,0.1-0.1,0.1-0.2l0.5-0.6c0.2-0.3,0.4-0.6,0.6-0.9c0.3-0.4,0.6-0.7,1.1-0.8
	l0.3-0.3l0.3-0.3l0.6-1.1c0.2-0.2,0.3-0.4,0.5-0.6l0.5-0.6c0.1-0.2,0.2-0.4,0.3-0.6c0.4-0.5,0.8-1,1.4-1.3c0.1-0.1,0.2-0.1,0.4-0.1
	c0,0,0,0,0-0.1l0.1-0.1l0.1-0.1l0.1-0.1H36h0.3h0.2h0.1L36.9,852L36.9,852L36.9,852c-0.2-0.2-0.4-0.3-0.2-0.6c0-0.1,0.1-0.1,0.2-0.1
	c0,0,0.1,0,0.2,0l0,0l0.1,0.1l0,0h0.1l0,0v-0.1l0,0l0,0l0,0c0-0.1,0-0.1,0.1-0.2l0,0c0-0.1,0.1-0.1,0.1-0.2c0.1-0.1,0.3-0.2,0.5-0.1
	v-0.1l0,0l-0.4-0.5h0.1v-0.1h0.2c0.3,0,0.1,0.3,0.2,0.5l0,0v0.1v0.1l0,0l0,0L36.9,852z M39.1,848.1L39.1,848.1c0.3,0,0.5,0,0.5-0.3
	c0,0.1,0,0.1-0.1,0.2c0,0,0,0,0.1-0.1c0,0,0,0,0-0.1c0,0.1-0.1,0.2-0.1,0.2C39.4,848.2,39.2,848.2,39.1,848.1z M40.1,847.6
	c-0.1,0-0.3,0-0.4,0h0.1h-0.1l0,0l0,0l0,0c0.3,0,0.5,0,0.6-0.3v0.1l0,0l0,0l0,0C40.2,847.5,40.1,847.6,40.1,847.6L40.1,847.6z
	 M46,841.9c0,0.1-0.1,0.2-0.1,0.2l-0.1,0.1h-0.1c-0.2,0-0.2-0.2-0.4-0.2l0,0l0,0c0.1,0.1,0.1,0.2,0.1,0.3v0.1l0,0v0.1
	c0,0.1-0.1,0.1-0.2,0.2c-0.1,0-0.3-0.1-0.4-0.2l0,0c0.1,0.1,0.1,0.3,0.1,0.5v0.1l0,0c-0.1,0.3-0.3,0.2-0.4,0.1l0,0
	c0,0.1,0.1,0.2,0,0.3l-0.1,0.1l0,0c0,0,0,0,0,0.1l-0.1,0.1c-0.1,0.1-0.2,0.1-0.3,0.1c0,0.1,0,0.2-0.1,0.2c0,0.1-0.1,0.2-0.1,0.2
	c-0.1,0.1-0.2,0.2-0.3,0.1v0.1c0,0,0,0.1-0.1,0.1l0,0v0.1l-0.1,0.1l-0.1,0.1c-0.1,0-0.2,0-0.2,0l0,0c0,0.1,0,0.1-0.1,0.2l0,0l0,0
	c0,0.1,0,0.1-0.1,0.2l0,0l0,0c0,0.1,0,0.2-0.1,0.3c0,0,0,0-0.1,0.1c0,0.1,0,0.1-0.1,0.2c-0.1,0.1-0.2,0.1-0.3,0.1
	c0,0.1-0.1,0.1-0.1,0.2l0,0c0,0.1-0.1,0.2-0.1,0.2c-0.2,0.2-0.3,0.1-0.4,0.1c-0.1-0.1-0.1-0.1-0.2-0.2c0.1,0,0.1,0,0.2,0l0,0
	c-0.1,0-0.1,0-0.2-0.1l-0.1-0.1v0.1v0.1l0,0c0,0.1,0,0.1,0,0.2v0.1c0,0-0.1,0.2-0.2,0.2v0.1c-0.1,0.1-0.2,0.2-0.3,0.1
	s-0.2-0.2-0.3-0.2c0.1,0,0.3,0,0.4-0.1l0,0l0,0c-0.1,0-0.2-0.1-0.3-0.1c0.1,0,0.3,0,0.4-0.1l0,0l0.1-0.1v-0.1l0,0v0.1l0,0l0,0l0,0
	v-0.1c0-0.1,0-0.1,0-0.2l0,0c0.1,0,0.2,0,0.3-0.1c0,0,0.1,0,0.1-0.1c0,0,0-0.1,0.1-0.1l0,0c0-0.1,0-0.2,0-0.2c0,0.1,0,0.1,0.1,0.2
	c0,0,0,0,0,0.1c0,0,0,0,0,0.1v-0.1h0.1l0,0l-0.1-0.1c-0.1-0.1-0.1-0.1-0.2-0.1c0.1,0,0.3,0,0.4-0.1l0.1-0.1l0,0v-0.1h-0.1l0.1-0.1
	v-0.1l0.6-0.5v-0.1h0.1l0.5-0.6l0.6-0.5l0,0l0,0l0.6-0.5v-0.1h0.1l0.2-0.4l0,0l0.1-0.1v0.1l0,0h0.1l0,0l-0.2-0.1l0.1-0.2
	c0.1,0,0.3,0,0.4-0.1l0,0V842l0,0l0,0l0,0v0.1V842l0,0l0,0h0.1l0,0l0,0v-0.1v-0.1c0.2,0,0.3-0.1,0.4-0.2v-0.1l0,0l0,0l0,0
	c0,0.1,0.1,0.1,0.1,0.2l0,0c0,0,0,0,0,0.1C45.9,841.8,45.9,841.9,46,841.9L46,841.9z M46.3,841.4L46.3,841.4L46.3,841.4
	c0,0.2-0.1,0.2-0.1,0.2c-0.1,0-0.3-0.2-0.4-0.2h0.1c0-0.1,0-0.2,0-0.3c0.2,0,0.3,0,0.5-0.2v-0.1C46.3,841,46.3,841.2,46.3,841.4
	L46.3,841.4z M46.3,840.9L46.3,840.9c0-0.1,0-0.2,0-0.2h0.3c0.1,0,0.1,0,0.2-0.1v-0.1v-0.1l0,0v0.1v0.1l0,0l0,0c0,0.1,0,0.2-0.1,0.3
	C46.6,841,46.5,841,46.3,840.9L46.3,840.9z M48,839.9L48,839.9L48,839.9c-0.2-0.1-0.4-0.2-0.5-0.3c0,0.1,0,0.2,0,0.3
	s-0.1,0.2-0.1,0.2c-0.1,0.1-0.1,0.1-0.2,0.1h-0.1l0,0c-0.1,0-0.2,0-0.3,0h0.1c0-0.1,0-0.1,0-0.2c0.1,0,0.2,0,0.3,0v-0.1
	c0-0.1,0-0.1,0.1-0.2c0-0.2,0-0.3,0.2-0.3l0.5,0.3C48,839.8,47.9,839.8,48,839.9L48,839.9z M50.8,838.2L50.8,838.2
	c-0.1,0-0.2,0-0.2,0H50.8c-0.2-0.1-0.3,0-0.5,0.1c-0.1,0.1-0.2,0.3-0.2,0.4l0,0l0,0l0,0H50c-0.2,0-0.3,0.2-0.3,0.3c0,0,0,0.1,0,0.2
	l0,0l0,0l0,0h-0.2l0.2,0.1l0,0h-0.6v-0.1h0.1c0,0,0,0,0-0.1l0.5,0.2c-0.1-0.1-0.3-0.2-0.2-0.4l0,0l0,0l0.1-0.1l0.1-0.1
	c0.1-0.1,0.2-0.1,0.3,0c0.1,0,0.2,0.1,0.2,0.2h0.1l0,0l0,0l0,0c0,0-0.2-0.3-0.2-0.4l0,0l0,0c0-0.1,0.1-0.1,0.2-0.1
	C50.4,838.1,50.6,838.1,50.8,838.2L50.8,838.2L50.8,838.2L50.8,838.2L50.8,838.2L50.8,838.2L50.8,838.2L50.8,838.2z M52,836.5
	l-0.7,1.2v0.1c-0.1,0-0.2,0-0.3,0l0,0l0,0c-0.1,0.1-0.2,0.2-0.2,0.4l0,0v0.1c-0.1-0.2-0.4-0.3-0.1-0.6l0,0l0,0
	c0.1-0.1,0.1-0.1,0.2-0.1c0.1,0,0.2,0.1,0.3,0.2c-0.1-0.2-0.2-0.4-0.2-0.6c0-0.1,0-0.2,0.1-0.3l0,0l0.1-0.1c0.3-0.2,0.7-0.4,1-0.5
	L52,836.5z M61.8,828.2L61.8,828.2c-0.2,0.5-0.6,1.2-1,1.2c-0.1,0-0.1,0-0.2,0c-0.1,0-0.2-0.1-0.2-0.2c-0.1-0.1-0.1-0.2-0.2-0.3
	c-0.2-0.5,0.7-0.9,1.2-1.2c0.3-0.2,0.5-0.5,0.9-0.1l0,0l0,0L61.8,828.2z M64.6,825.9c-0.2,0.6-0.6,1-1.2,1.1
	c-0.3,0.2-0.6,0.5-0.9,0.1l0,0c0,0,0.3-0.3,0.4-0.5l0,0c0.1-0.6,0.6-0.9,1.1-1.1c0.3-0.2,0.5-0.5,0.8-0.1l0,0
	C65,825.4,64.7,825.7,64.6,825.9L64.6,825.9z M68.4,823.1l-1,0.6c-0.2,0.5-0.6,0.9-1.2,1.1c-0.3,0.3-0.6,0.5-0.9,0.1l0,0
	c0,0,0.2-0.4,0.4-0.6c0.2-0.6,0.6-1,1.1-1.2c0.2-0.4,0.7-0.6,1.1-0.6c0.2-0.1,0.4-0.4,0.5-0.3c0.1,0,0.1,0.1,0.2,0.1
	c0,0.1,0.1,0.1,0.1,0.2C68.7,822.8,68.5,822.9,68.4,823.1L68.4,823.1z M103.9,799.6L103.9,799.6c0.9-1.2,2.3-2,3.8-2.2l0,0l0,0
	C106.9,798.8,105.8,799.1,103.9,799.6L103.9,799.6z M108.5,797.3L108.5,797.3c0,0.1-0.1,0.1-0.2,0.1s-0.1-0.1-0.1-0.1
	c-0.1-0.1,0-0.2,0.1-0.2s0.1,0.1,0.2,0.1l0,0C108.5,797.1,108.5,797.2,108.5,797.3L108.5,797.3L108.5,797.3z M109.4,796.8
	C109.3,796.8,109.3,796.7,109.4,796.8c-0.2-0.2-0.2-0.3,0-0.3s0.1,0.1,0.2,0.1l0,0l0,0l0,0v0.1l0,0l0,0l0,0l0,0
	C109.6,796.6,109.5,796.8,109.4,796.8L109.4,796.8z M110.8,796.1l-0.2,0.2l-0.2-0.1l0,0l0,0l0.2-0.2L110.8,796.1L110.8,796.1
	L110.8,796.1z M111.7,795.7l-0.2-0.1l0,0l0.2-0.2l0.2,0.2l0,0l0,0L111.7,795.7z M112.8,795.2l-0.2-0.1l0,0l0.2-0.3l0,0l0.2,0.2
	L112.8,795.2z M113.3,794.7L113.3,794.7c1.3-1.3,2.3-1.8,3.9-1.7l0,0l0,0C116.1,794.1,114.7,794.7,113.3,794.7L113.3,794.7z
	 M138.7,784.3L138.7,784.3c-0.4,0.4-1,0.7-1.6,0.6l-0.3-0.1l0,0c0.1-1.1,1.1-0.7,1.6-0.9l0,0c0.3-0.2,0.8-0.5,1-0.3l0.1,0.1
	c0,0.1,0.1,0.1,0.1,0.2C139.5,784.3,138.9,784.1,138.7,784.3L138.7,784.3z M140.9,783.6c-0.2,0-0.3-0.1-0.5-0.2l0,0h-0.1
	c0.1-0.1,0.2-0.3,0.3-0.3s0.2,0.2,0.3,0.2l0,0l0,0C140.9,783.4,140.9,783.5,140.9,783.6L140.9,783.6z M142.3,783
	c-0.1,0-0.2-0.2-0.3-0.3l0,0l0,0c0.1-0.1,0.1-0.2,0.2-0.2c0.2,0,0.3,0.1,0.5,0.2l0,0l0,0C142.6,782.8,142.4,783,142.3,783L142.3,783
	z M144.2,782.5c-0.2,0-0.3-0.1-0.4-0.2l0,0l0,0c0.1-0.1,0.2-0.2,0.3-0.2s0.2,0.2,0.3,0.2l0,0l0,0
	C144.3,782.3,144.2,782.4,144.2,782.5L144.2,782.5z M145.6,781.9l-0.2-0.3l0,0l0,0c0.1,0,0.3,0,0.4-0.1c0.1,0,0.1,0.1,0.2,0.2l0,0
	l0,0L145.6,781.9z M147.6,781.1l-0.2,0.2l0,0l0,0l0,0h-0.2c-0.1-0.1-0.2-0.1-0.2-0.2s0-0.1,0.2-0.2c0.2,0,0.3,0,0.5,0.1L147.6,781.1
	L147.6,781.1z M149,780.8c-0.1,0-0.2-0.2-0.3-0.3l0,0l0,0c0.1,0,0.1-0.2,0.2-0.1c0.2,0,0.3,0.1,0.4,0.2l0,0l0,0
	C149.2,780.6,149.1,780.7,149,780.8L149,780.8z M151.9,779.9c-0.2,0.4-0.7,0.6-1.1,0.4c-0.1,0-0.2-0.2-0.3-0.3l0,0l0,0l1.2-0.3l0,0
	c0.2-0.4,0.7-0.6,1.1-0.4c0,0,0.1,0,0.1,0.1l0,0l0,0c0,0.1,0.1,0.2,0.1,0.2L151.9,779.9z M154.4,779.1L154.4,779.1L154.4,779.1
	L154.4,779.1c0,0-0.1-0.1-0.2-0.2l0,0c0.1-0.1,0.3-0.1,0.4-0.1c0,0.1,0.1,0.1,0.2,0.2C154.8,779,154.6,779,154.4,779.1L154.4,779.1z
	 M156.8,778.6L156.8,778.6L156.8,778.6c-0.3,0-0.5,0-0.8-0.1l0,0l0,0c0.1-0.2,0.2-0.4,0.3-0.4c0.2,0,0.4,0.1,0.7,0.1
	C157,778.3,156.9,778.5,156.8,778.6L156.8,778.6z M158.7,778.1c-0.1,0-0.3-0.1-0.5-0.2l0,0l0,0c0.1-0.1,0.3-0.3,0.4-0.3
	c0.2,0.1,0.4,0.2,0.6,0.3l0,0l0,0C158.9,777.9,158.8,778.1,158.7,778.1L158.7,778.1z M193.3,771.8V771h6.9l0,0l0,0v0.7l0,0
	L193.3,771.8z"/>
<g>
	<path class="st3" d="M1920.5,657.3c0.1-0.1,0.2-0.3,0.3-0.4V608h-0.3V657.3z"/>
	<path class="st4" d="M1827.6,511.4c-0.1,0.8-0.3,1.7-0.4,2.6c1.8,2.3,4.3,2.5,6.9,2.5c22.1,0.7,44.2,1.4,66.3,2.2l20.1,0.7h0.3
		v-7.3h-0.3c-28.9-1.1-57.9-2.1-86.8-3.2C1831.4,508.8,1829.2,509.7,1827.6,511.4z"/>
	<path class="st4" d="M1830.6,490.9l-0.5,3.4c1.1,2.2,3.4,3.6,5.9,3.4c8.8,0,17.5,0,26.3,0.1l58.2,0.3h0.3v-7.5h-0.3
		c-21.5-0.1-43-0.3-64.5-0.3C1847.5,490.4,1839.1,489.5,1830.6,490.9z"/>
	<path class="st4" d="M1844.7,471.4c-2.1,0.1-4.3,0.3-4.5,3c-0.2,2,0.7,3.8,2.8,4.3c1.3,0.2,2.6,0.3,3.9,0.2
		c24.5-0.8,49.1-1.5,73.6-2h0.3v-7.4h-0.3c-16.8,0.4-33.6,0.8-50.4,1.1C1861.6,470.8,1853.1,471.1,1844.7,471.4z"/>
	<path class="st4" d="M1844.5,534.9c-2.7-0.1-4.6,1.2-4.9,3.8c-0.3,2.8,1.7,3.7,4.1,3.8c1,0,2,0.1,3,0.2c18.8,0.6,37.6,1.1,56.4,1.8
		c5.8,0.2,11.6,0.4,17.3,0.6h0.3v-7.7h-0.3c-12.3-0.3-24.6-0.7-36.8-1C1870.6,536,1857.5,535.4,1844.5,534.9z"/>
	<path class="st4" d="M1861.7,453.8c-2.2,0.1-5,0-5,3.4c0,2.6,1.6,3.8,4.1,4.1c5.5-0.2,10.9-0.3,16.4-0.5l43.3-1.7h0.3v-7.5h-0.3
		l-6.3,0.2C1896.7,452.5,1879.2,453.1,1861.7,453.8z"/>
	<path class="st4" d="M1873,435.4c-2.2,0.2-4,1-4,3.6c0,2.4,1.3,3.7,3.9,4l10.5-0.8c12.4-0.9,24.7-1.7,37.1-2.5h0.3v-7.6h-0.3
		l-19.1,1.3C1891.9,434,1882.5,434.7,1873,435.4z"/>
	<path class="st4" d="M1870.5,558.3c-0.1,2.6,1.1,4.4,4,4.6c0.6,0,1.2,0.1,1.7,0.1c12.9-0.2,25.8-0.3,38.7-0.5l5.5-0.1h0.3v-7.6
		h-0.3c-15.2,0.1-30.3,0.3-45.5,0.5C1872.9,555.3,1870.6,555.5,1870.5,558.3z"/>
	<path class="st4" d="M1887.3,578c-2.8-0.1-5,1-5.3,3.9c-0.3,2.5,1.6,3.5,3.9,3.6l34.5,0.9h0.3V579h-0.3l-10.8-0.3
		C1902.2,578.5,1894.8,578.2,1887.3,578z"/>
	<path class="st4" d="M1895.2,416.1c0.2,3.5,2.7,3.9,5.6,3.6c6.6-0.6,13.1-1.1,19.7-1.7h0.3v-7.6h-0.3c-6.8,0.5-13.6,1.1-20.3,1.7
		C1897.6,412.4,1895,412.8,1895.2,416.1z"/>
	<path class="st4" d="M1904.6,601.5c-2.3,0.2-4.5,0.7-4.5,3.6c0,2.3,1.2,3.7,3.8,4c0.6,0,1.3,0,2,0c4.9-0.4,9.7-0.7,14.6-1h0.3v-7.5
		h-0.3C1915.2,600.9,1909.9,601.2,1904.6,601.5z"/>
	<path class="st4" d="M1913.8,391.4c-0.2,2.1,1.4,4.1,3.5,4.3c0.1,0,0.3,0,0.4,0c0.9,0,1.8,0.1,2.8,0.1h0.3v-7.5h-1.9
		C1916.7,388.2,1913.8,387.9,1913.8,391.4z"/>
</g>
<path class="st5" d="M1913.1,694.1c-41.2,3-82.1,8.5-122.4,17.5c-43.1,9.7-85.1,23.5-125.5,41.3c-22.5,9.9-43.2,23.4-61.5,39.8
	c-2.9,2.5-5.5,5.4-7.8,8.5c-0.5,0.7-1.1,1.5-0.6,2.3c0.6,1.1,1.8,0.7,2.6,0.4c3-1,6-2.2,9.2-3.4c-0.3,1.8-1.7,2.1-2.6,2.7
	c-17.4,11.7-34,24.5-48.6,39.7c-17.6,18.4-32.8,38.4-41.3,62.8c-0.4,1.1-0.7,2.5-2.4,1.8c-1.9-0.8-0.9-2.2-0.5-3.3
	c5.7-18.2,15.4-34.2,27.1-49.1c5.2-6.7,10.8-13.1,16.3-19.7c1.1-1.3,2.1-2.6,3.1-4c0.7-0.9,1.7-2,1.1-3.2c-0.7-1.4-2.1-0.4-3.2-0.5
	c-1.5-0.1-3.2,1.4-4.5-0.8c-0.5-0.9-1.2,0.1-1.7,0.5c-22.8,22.3-41.5,47.3-50.2,78.6c-2.8,10.1-4.4,20.4-4.6,30.8h425.7V693.5h-0.3
	L1913.1,694.1z"/>
<path class="st5" d="M1812.1,699.7c-31.2,5.9-61.9,13.6-91.6,25c-13.5,5.1-26.8,11-39.7,17.4l0,0l0.8,0.7
	c16.4-6.2,32.9-12.4,49.6-17.6c41.6-13,84.2-21.6,127.4-27.2c20.5-2.7,41.2-4.3,61.8-5.7h0.3v-6h-0.3c-9.9,0.8-19.7,1.5-29.6,2.4
	C1864.5,691,1838.2,694.7,1812.1,699.7z"/>
<path class="st6" d="M74.7,176.3c-1.1-0.9-1.7-1.8-0.4-3l-8.3-1.6c-9.5,0.6-19,0.7-28.3,3c-12.7,3.1-25.2,6.6-37.6,10.5v8.5
	c14.6-4.7,29.1-9.8,44.2-12.8c9.5-1.8,19-2.6,28.6-1.3c1.5,0.2,3.1,0.2,4.7,0.3C77.7,177.5,75.8,177.2,74.7,176.3z"/>
<path class="st2" d="M1676.3,15.4c-1.1,1,0.6,2.3,1.3,3.4c13.8,22.8,29,44.7,45.5,65.6c32.4,41.3,68.5,79.3,105.2,116.7
	c29.6,30.1,59.8,59.6,91.6,87.3v-3.6l-10.3-9.7l1.1-1.1l9.3,8.7V0h-250.3l0.2,0.4c2,3.7,4,7.4,6.1,11.1
	C1676.6,12.6,1678.4,13.6,1676.3,15.4z M1777.2,140.8c0-0.2-0.1-0.4-0.2-0.6c0,0.1,0.1,0.2,0.2,0.2l0,0c0.5,0.4,1.6,0.2,1.4,1.4v0.2
	h-0.1C1777.5,142,1777.3,141.4,1777.2,140.8z M1778.6,141.9l1,0.3h0.1C1779.2,142.5,1778.7,142.6,1778.6,141.9L1778.6,141.9z
	 M1779.7,142.2L1779.7,142.2c0.1,0.5,0.3,0.8,0.7,0.9C1779.6,143.3,1779.3,143.2,1779.7,142.2L1779.7,142.2z M1780.5,143.9
	c0-0.1,0-0.1,0-0.2c0-0.1,0-0.3,0-0.4c0.1,0.4,0.3,0.5,0.7,0.5l0,0C1781,143.9,1780.9,144.4,1780.5,143.9L1780.5,143.9z
	 M1780.9,144.6c0-0.3,0.1-0.6,0.3-0.9c0,0.1,0,0.2,0.1,0.3c0.1,0.3,0.2,0.6,0.3,0.9v0.3c0,0.2,0,0.4-0.1,0.6c0,0.1-0.1,0.1-0.1,0.2
	C1781.3,145.6,1781,145.2,1780.9,144.6L1780.9,144.6z M1781.4,146.2L1781.4,146.2c0.5-0.2,0.8-0.1,0.8,0.1c0,0.1,0,0.1,0,0.2v0.1
	C1782.1,146.3,1781.8,146.2,1781.4,146.2L1781.4,146.2z M1783,147.7v-0.1l-0.8-0.5h1c0,0.2-0.1,0.4-0.1,0.5h0.1L1783,147.7z
	 M1783.7,148.1c0,0.1-0.1,0.2-0.1,0.4l0,0c-0.2-0.3-0.4-0.7-0.6-1l0.2-0.1h0.2c0.8,0.1,0.6,0.7,0.5,1.2l-0.3-0.1h0.2L1783.7,148.1z
	 M1784.2,148.6l0.5-0.1v0.5c0-0.1,0-0.1,0-0.1v-0.1L1784.2,148.6z M1784.7,149.1L1784.7,149.1c1.9,0.1,2.8,1.3,3.3,2.9h-0.1
	C1786.5,151.6,1785.3,150.5,1784.7,149.1L1784.7,149.1z M1788.8,152.5L1788.8,152.5c-0.2,0-0.3,0-0.4,0s-0.1-0.1-0.2-0.2
	L1788.8,152.5L1788.8,152.5L1788.8,152.5z M1789.2,153.2c-0.1-0.2-0.1-0.4,0-0.6h0.1c-0.1,0.3,0.1,0.6,0.4,0.8h-0.1
	C1789.5,153.5,1789.3,153.5,1789.2,153.2L1789.2,153.2z M1790.2,154.3c-0.1,0-0.2-0.1-0.3-0.2c-0.2-0.2-0.2-0.4-0.1-0.6
	c0-0.1,0.1-0.1,0.1-0.2h0.1c0,0.2,0.1,0.4,0.2,0.6c0.1,0.1,0.2,0.1,0.3,0.2l-0.1,0.1C1790.3,154.3,1790.3,154.3,1790.2,154.3
	L1790.2,154.3z M1790.7,154.9c-0.3-0.3-0.2-0.4-0.1-0.5s0.1-0.1,0.2-0.2h0.1c0,0.1,0,0.2,0,0.3c0,0.2,0.2,0.3,0.4,0.3l-0.1,0.1
	C1791.1,155.1,1790.9,155.2,1790.7,154.9L1790.7,154.9z M1791.2,155.4c0-0.2,0.1-0.4,0.2-0.5h0.2c0,0.1,0,0.1,0,0.2
	c0.2,0.8,1.2,1.3,1.3,2.1c0,0.1,0,0.1,0,0.2c0,0.2-0.1,0.4-0.3,0.5h-0.1c0.1-0.9-1.2-1.4-1.3-2.3
	C1791.2,155.6,1791.2,155.5,1791.2,155.4L1791.2,155.4z M1792.6,158c0.2-0.2,0.3-0.3,0.6,0.1c0.1,0.2,0.1,0.5,0,0.7h-0.1
	C1793.2,158.4,1793,158.1,1792.6,158L1792.6,158z M1793.5,158.8c0.1,0,0.1-0.1,0.2-0.1s0.2,0,0.3,0.2c0,0.2,0,0.4,0,0.6h-0.1v-0.1
	C1793.9,159.2,1793.8,158.9,1793.5,158.8L1793.5,158.8z M1794.2,159.6c0.8-0.3,0.7,0.2,0.6,0.9l0,0v-0.1
	C1794.8,160,1794.6,159.7,1794.2,159.6L1794.2,159.6z M1794.9,160.5c0.2-0.2,0.4-0.6,0.8-0.1s0,0.6-0.1,0.8l-0.3-0.3L1794.9,160.5z
	 M1796.5,160.9c0,0.3,0.1,0.6,0.2,0.9l-1.1-0.6L1796.5,160.9z M1796.8,162c1.4,0.6,2.6,1.7,3.3,3
	C1798.9,164.1,1797.5,163.4,1796.8,162L1796.8,162z M1800.9,166.6L1800.9,166.6c-0.1-0.1-0.1-0.3-0.2-0.4c-0.1-0.3-0.2-0.7-0.3-1
	c0.8,0.5,1.4,1.2,1.8,2C1801.7,167.4,1801.2,167.1,1800.9,166.6L1800.9,166.6z M1802.4,167.2L1802.4,167.2z M1802.8,168.1
	c-0.2-0.2-0.3-0.4-0.3-0.7l0.9,0.4v-0.1c-0.1,0.1-0.1,0.4-0.3,0.4S1803.1,168.3,1802.8,168.1L1802.8,168.1z M1803.4,168.7
	c-0.1-0.1-0.1-0.1-0.1-0.2c-0.1-0.1,0.1-0.5,0.2-0.8l0,0v0.1l0.8,0.6c-0.1,0.2-0.3,0.3-0.5,0.4
	C1803.7,168.9,1803.6,168.8,1803.4,168.7L1803.4,168.7z M1805,170.4l-0.5-0.4l0.8-0.6c-0.3,0.2-0.6,0.4-0.9,0.2l-0.2-0.1
	c-0.1-0.1-0.1-0.1-0.1-0.2c-0.1-0.2,0.1-0.6,0.2-0.9c0.1,0.5,0.3,1.1,1,0.9L1805,170.4z M1828.5,194.6c-0.2,0-0.3,0-0.5,0l-0.1-0.1
	c-0.2-0.3,0-0.4,0.2-0.6c-0.2,0.1-0.3,0.2-0.5,0.2c-0.1,0-0.1,0-0.2,0c-0.2-0.1-0.3-0.2-0.3-0.4s0.1-0.4,0.2-0.6l0,0l0.1-0.1
	l-0.1,0.1l0.7,0.7l0.5,0.7L1828.5,194.6z M1906.5,272.3l-33.3-32.4c-0.2-0.1-0.4-0.3-0.5-0.5l-0.8-0.8l-0.8-0.8l-0.8-0.8l-0.8-0.8
	c-0.2-0.3-0.6-0.4-0.8-0.7c-0.1-0.1-0.1-0.2-0.1-0.3c-0.4,0.1-0.6-0.4-0.8-0.8l-0.8-0.8l-0.8-0.8l-0.8-0.8l-0.8-0.8l-0.8-0.8
	l-0.8-0.8l-0.8-0.8l-0.8-0.8l-0.8-0.8l-0.8-0.8c-6.2-5.6-12.1-11.6-17.7-17.9l-0.8-0.8l-0.8-0.8l-0.8-0.8l-0.8-0.8l-0.8-0.8
	l-0.8-0.8l-0.8-0.8l-0.8-0.8l-0.8-0.8l-0.8-0.8c-0.2,0-0.8-0.1-0.3-0.7c0-0.1,0.1-0.1,0.2-0.1c0,0,0.1,0,0.2,0h0.1
	c0.2,0.1,0.4,0.5,0.6,0.6l0.8,0.8l0.8,0.8l0.8,0.8l0.8,0.8l0.7,0.8l0.8,0.8l0.8,0.8l0.8,0.8l0.8,0.8l0.4,0.4l0.4,0.4l15.6,15.4
	l2.2,2.2l0.8,0.8l0.8,0.8l0.8,0.8l0.8,0.8l0.8,0.8l0.8,0.8l0.8,0.8l0.8,0.8l0.8,0.8l0.8,0.8c0.2,0.2,0.5,0.4,0.5,0.6
	c0.4-0.1,0.6,0.4,0.9,0.8l0.8,0.8l0.8,0.8l0.8,0.8l0.8,0.8l0.8,0.8l33.6,31.7L1906.5,272.3z"/>
<path class="st6" d="M25.2,601.6c11-8,22.2-15.6,31.8-25.1c8.7-8.5,14.7-18.7,19.9-29.7c10.2-21.7,3.6-41.9-3.7-62.2
	c-5.6-15.6-13.3-30.3-18.4-46.1l-0.3-0.9l-1.2,7.8l-0.5-0.1c0.5-2.8,1.1-5.5,1.6-8.1c-3.3-10.6-5.3-21.3-3.5-32.6
	c3.4-19.7,18.6-35.3,38.3-39.1c7.9-1.5,16-2.2,23.8-4.2c23.3-6.1,36.9-21.9,44-44c3.5-10.7,4.3-22.1,2.4-33.3
	c-0.2-1.6-0.7-3.2-1.3-4.7c2.2,16.5,0.1,32.3-7.8,47.1c-0.2-2.6,1.3-4.6,2.1-7c7.5-21.1,6.7-41.5-4.7-61.2
	c-11.7-20.1-27.6-36.3-45.5-50.7c-1.4-1.3-3.1-2.2-4.9-2.6c-0.2,2,1.4,3.1,2,4.6l0.9,1.5c0.5,0.4,0.7,1,0.2,1.3s-0.6-0.6-0.9-0.9
	l-1-1.2c-1.4-1.2-2.8-2.6-4-4c-16-21.5-37-27.4-62.4-20.7c-10.7,2.9-21.3,6.1-32,9.3V625C7.2,615.9,15.8,608.5,25.2,601.6z
	 M90.9,360.6c7.9-1.5,16-2.1,23.7-4.3c1.1-0.3,2.2-0.7,3.3-1.1c3.2-1.3,6.4-2.7,9.4-4.4c5.7-3.6,10.7-8.2,14.9-13.5
	c1.4-1.7,2.7-3.6,4-5.5c0.6-1,1.1-2.3,2.7-2.1l0.1-0.1c0-0.1,0-0.3-0.1-0.4l0.3,0.1l-0.2,0.3v0.1c-4.8,7.7-10.2,14.8-17.8,19.7
	c-1.1,0.7-2.2,1.4-3.4,2c-6.6,4.8-14.3,6.7-22.1,8.1c-7.5,1.4-15.1,1.9-22.6,3.6C85.5,361.3,88.3,361.1,90.9,360.6L90.9,360.6z
	 M81.5,363.2l0.2,0.3c-0.1,0.1-0.2,0.2-0.3,0.2s-0.1-0.2-0.2-0.3L81.5,363.2z M79.8,363.7L80,364c-0.1,0.1-0.3,0.2-0.3,0.2
	s-0.1-0.2-0.2-0.3L79.8,363.7z M62.9,374.3L62.9,374.3c0.2-0.2,0.3-0.7,0.8-0.3c0.1,0.1,0.1,0.2,0,0.4l-0.1,0.1
	C63.4,374.7,63.2,374.7,62.9,374.3c0.1,0.9-0.4,1.5-1.6,2l-0.6,0.2L62.9,374.3L62.9,374.3z M59.7,377.4l0.5,0.4l-1.7,2.1l-0.5-0.3
	L59.7,377.4z M56.6,381.1l0.7,0.4l-2.5,3.4l-0.4-0.3L56.6,381.1z M53.6,386.7l-4,8.4C50.4,392,51.4,389,53.6,386.7L53.6,386.7z
	 M48.1,400.3L48.1,400.3l-1.6,10.8L46,411C46.7,407.3,47.5,403.6,48.1,400.3z"/>
</svg>
