<?xml version="1.0" encoding="utf-8"?>
<!-- Generator: Adobe Illustrator 23.0.1, SVG Export Plug-In . SVG Version: 6.00 Build 0)  -->
<svg version="1.1" id="Layer_1" xmlns="http://www.w3.org/2000/svg" xmlns:xlink="http://www.w3.org/1999/xlink" x="0px" y="0px"
	 viewBox="0 0 1920.8 936.8" style="enable-background:new 0 0 1920.8 936.8;" xml:space="preserve">
<style type="text/css">
	.st0{fill:#F2F1F1;}
	.st1{fill:#FDCA5E;}
	.st2{fill:#2C3335;}
	.st3{fill:none;}
	.st4{fill:#E5B349;}
	.st5{fill:#E4B043;}
	.st6{fill:#F8A230;}
</style>
<path class="st0" d="M1549.9,827.3c0.4-0.4,1.1-1.4,1.7-0.5c1.3,2.2,3,0.7,4.5,0.8c1.1,0.1,2.5-1,3.2,0.5c0.6,1.2-0.4,2.3-1.1,3.2
	c-1,1.3-2,2.7-3.1,4c-5.4,6.6-11,13-16.3,19.7c-11.7,14.9-21.3,30.9-27.1,49.1c-0.4,1.2-1.4,2.5,0.5,3.3c1.7,0.7,2-0.7,2.4-1.8
	c8.4-24.4,23.7-44.4,41.3-62.8c14.6-15.2,31.2-27.9,48.6-39.7c0.9-0.6,2.3-0.9,2.6-2.7c-3.3,1.2-6.2,2.4-9.2,3.4
	c-0.8,0.3-2,0.7-2.6-0.4c-0.5-0.8,0.1-1.6,0.6-2.3c2.3-3.1,4.9-6,7.8-8.5c18.2-16.4,39-29.9,61.5-39.8
	c40.4-17.8,82.4-31.6,125.5-41.3c40.3-9.1,81.2-14.5,122.4-17.5l7.4-0.6v-0.9c-20.6,1.5-41.3,3.1-61.8,5.7
	c-43.2,5.6-85.8,14.1-127.4,27.2c-16.8,5.2-33.2,11.4-49.6,17.6l0,0l-5.9,2.8l-0.4-0.7l5.5-2.8l0,0c12.9-6.5,26.2-12.3,39.7-17.4
	c29.7-11.4,60.4-19.1,91.6-25c26.1-5,52.4-8.6,78.8-10.9c9.8-0.9,19.7-1.6,29.6-2.4v-24.8c-0.4-0.6-0.6-1.4-0.6-2.1
	c-0.1-0.8,0.1-1.5,0.6-2.2v-49.2c-4.9,0.3-9.7,0.6-14.6,1c-0.7,0-1.4,0-2,0c-2.5-0.3-3.8-1.7-3.8-4c0-2.9,2.2-3.4,4.5-3.6
	c5.3-0.3,10.6-0.7,15.9-1v-14l-34.5-0.9c-2.3-0.1-4.2-1.1-3.9-3.6c0.3-3,2.5-4,5.3-3.9c7.5,0.2,14.9,0.5,22.4,0.7l10.8,0.3v-16.6
	l-5.5,0.1c-12.9,0.2-25.8,0.3-38.7,0.5c-0.6,0-1.2-0.1-1.7-0.1c-2.9-0.2-4.1-2-4-4.6s2.4-2.9,4.5-2.9c15.2-0.2,30.3-0.4,45.5-0.5
	v-9.7c-5.8-0.2-11.6-0.4-17.3-0.6c-18.8-0.7-37.6-1.2-56.4-1.8c-1,0-2-0.1-3-0.2c-2.4-0.1-4.5-1-4.1-3.8c0.3-2.6,2.2-3.9,4.9-3.8
	c13,0.5,26.1,1,39.2,1.4c12.3,0.4,24.5,0.7,36.8,1v-18l-20.1-0.7c-22.1-0.8-44.2-1.4-66.3-2.2c-2.6-0.1-5.2-0.2-6.9-2.5
	c0.1-0.9,0.3-1.7,0.4-2.6c1.6-1.7,3.8-2.6,6.1-2.5c28.9,1.1,57.9,2.1,86.8,3.2v-14l-58.2-0.3c-8.8,0-17.5-0.1-26.3-0.1
	c-2.5,0.2-4.8-1.2-5.9-3.4l0.5-3.4c8.4-1.3,16.9-0.5,25.3-0.5c21.5,0,43,0.1,64.5,0.3v-13.8c-24.6,0.5-49.1,1.2-73.6,2
	c-1.3,0.1-2.6,0-3.9-0.2c-2.1-0.5-3-2.3-2.8-4.3c0.2-2.7,2.4-2.9,4.5-3c8.5-0.3,16.9-0.6,25.4-0.8c16.8-0.4,33.6-0.8,50.4-1.1v-10.3
	l-43.3,1.7c-5.4,0.2-10.9,0.4-16.4,0.5c-2.5-0.2-4.1-1.5-4.1-4.1c0-3.4,2.7-3.3,5-3.4c17.5-0.7,35-1.3,52.5-2l6.3-0.2v-11.9
	c-12.4,0.8-24.7,1.7-37.1,2.5L1873,443c-2.6-0.3-3.9-1.7-3.9-4c0-2.6,1.9-3.4,4-3.6c9.4-0.7,18.9-1.4,28.3-2l19.1-1.3V418
	c-6.6,0.5-13.1,1.1-19.7,1.7c-2.9,0.3-5.4-0.2-5.6-3.6s2.4-3.7,5-3.9c6.8-0.6,13.6-1.1,20.3-1.7v-14.8c-0.9,0-1.8-0.1-2.8-0.1
	c-2.2,0-3.9-1.7-4-3.8c0-0.1,0-0.3,0-0.4c0-3.5,2.9-3.1,5-3.1h1.7V1.1h-0.5v282.3l-9.3-8.7l-1.1,1.1l10.3,9.7v3.6
	c-31.9-27.7-62-57.2-91.6-87.3c-36.8-37.4-72.9-75.4-105.3-116.7c-16.5-20.9-31.8-42.8-45.6-65.6c-0.6-1-2.4-2.4-1.3-3.4
	c2.1-1.8,0.3-2.8-0.4-4c-2.1-3.7-4.1-7.4-6.1-11.1H745.6c-12.4,10.9-25.9,19.8-41.5,25.5c-22.5,8.1-46.6,11-70.5,8.3
	c-27.5-2.8-53.7-11-79.7-19.6c-14.3-4.7-28.5-9.8-42.8-14.1h-5.4c1.6,0.5,3.2,0.9,4.8,1.4c13.5,4.4,27,8.9,40.5,13.5
	c14,4.7,28.1,9.2,42.3,13c14.8,3.9,29.8,7.1,45.2,7.6c1.4,0.1,2.8,0.4,4.2,0.7c-14.3-0.3-28.5-2.3-42.4-5.8
	c-9.5-2.4-19.1-4.6-28.4-7.6c-13.6-4.3-27.2-8.6-40.7-13.1c-10-3.5-20.2-6.8-30.4-9.7H375.7l0.1,0.1c-0.1,0.1-0.2,0.1-0.3,0.1
	c-0.1,0-0.1-0.1-0.2-0.2h-4.6c-15.2,7.5-28,18.3-38.9,32.1c-9.9,12.6-19.2,25.6-31.1,36.6c-0.4,0.4-0.5,1.1-0.7,1.7l0,0l0,0l0,0
	l-0.9,0.6l0,0l-0.2,0.6c0.1-0.2,0.1-0.4,0.2-0.5l0.9-0.6c0.2,0,0.5,0,0.7,0l0.9-0.7l0.5-0.4c0.4,0.4,0.1,0.6-0.3,0.7l0,0l-0.9,0.6
	l-0.2-0.3l0.2,0.3c-0.1,1.1-0.9,1.9-2,2.1l-0.9,0.6l-0.9,0.7l-0.9,0.6l0,0c-0.7,1.2-1.4,2.3-3,2.6l-0.9,0.7l-0.9,0.7l-0.9,0.6
	l-0.9,0.6l-0.9,0.6l-0.9,0.6l-0.9,0.6l0,0l-0.9,0.6l-0.3-0.4l0.9-0.7l0.9-0.7l0.9-0.6l0.9-0.6l0.9-0.7l0.9-0.6l0.9-0.6l0,0l0.9-0.6
	l0.3,0.4l-0.3-0.4l0.4-1.4l0,0c0-0.2,0.1-0.4,0.3-0.5l0,0c-0.2,0.1-0.3,0.3-0.3,0.6c-4,2.3-8.4,4.1-10.6,8.8c-0.7,1.4-2.9,2.1-4.5,3
	c-22.3,12.6-46.5,18.1-71.9,19.1c-12.8,0.5-25.7-0.1-38.4-1.9l-24.9-4.4c-24.5-5.6-48.4-13-70.5-25.2c-19.4-10.9-34.3-27-47-45.4
	C19.1,21.1,13.2,11.3,8,1.1H0v193.4c10.7-3.2,21.3-6.4,32-9.3c25.4-6.7,46.4-0.8,62.4,20.7c1.2,1.4,2.6,2.8,4,4l1.1,1.3
	c0.3,0.3,0.3,1.2,0.9,0.9s0.3-0.9-0.2-1.3l-0.9-1.5c-0.6-1.5-2.2-2.6-2-4.6c1.9,0.4,3.6,1.3,4.9,2.6c17.9,14.4,33.8,30.6,45.5,50.7
	c11.5,19.8,12.3,40.1,4.7,61.2c-0.8,2.3-2.4,4.4-2.1,7c7.9-14.8,10-30.5,7.8-47.1c0.6,1.5,1,3.1,1.3,4.7c1.9,11.1,1.1,22.5-2.4,33.3
	c-7.1,22.1-20.8,37.9-44,44c-7.8,2-15.9,2.7-23.8,4.2c-19.6,3.9-34.8,19.4-38.3,39.1c-1.8,11.3,0.2,22,3.5,32.6
	c0.3-1.4,0.6-2.9,0.8-4.2l-0.7,4.6l0.3,0.9c5.1,15.8,12.8,30.5,18.4,46.1c7.2,20.3,13.9,40.5,3.7,62.2
	c-5.3,11.1-11.3,21.2-19.9,29.7c-9.7,9.5-20.9,17.2-31.9,25.1c-9.4,6.8-18,14.3-25.2,23.1v312H1495c0.3-10.4,1.8-20.8,4.6-30.8
	C1508.4,874.6,1527,849.6,1549.9,827.3z M1908.9,329.5l11.2,10.4v2.6l-12.4-11.7L1908.9,329.5z M1905.1,325.9l-1.4,1.4l-40-39l1-0.6
	L1905.1,325.9z M1859.9,282.9L1859.9,282.9l1,1l0,0l0.9,0.9l0,0l1,1l0,0l0.9,0.8l0,0l1,1l-1,0.6c-0.3-0.1-0.6-0.3-0.7-0.6l-1-1l0,0
	l-1-0.9l0,0l-1-0.9l0,0l-1-1l0,0c-0.3-0.3-0.8-0.5-1-0.8s-0.1-0.4,0.2-0.8C1859.2,281.4,1859.5,282.5,1859.9,282.9L1859.9,282.9z
	 M1820.9,244l0.6,0.7l0.3,0.3l0,0c0.3,0.3,0.6,0.6,1,1l1,1l0.9,0.9l0.1,0.1l0.9,0.9l0.1,0.1l0.4,0.4l0.4,0.4l0,0l18.7,18.6l2.7,2.6
	l0,0l0,0l0,0l1,1l1,1l0,0l1,1l0,0l0,0h0.1l1,1l0,0l0.9,0.9l0,0l1,1l0,0l1,1l0,0l0.1,0.1l0.8,0.8l1,1l1,1l-1-1l-1-1l1,1l-0.5,0.4
	l0.6-0.3l1,1l0,0c0.4,0.4,1,0.8,0.3,1.3s-1-0.3-1.3-0.8l0,0l-0.9-0.9l0,0l-1-1l0,0l-1-1l0,0l-0.9-0.9l-1-0.9l-1-1l0,0l-0.9-0.9l0,0
	l-1-1l0,0l-0.9-0.9l0,0l-1-1l0.8-0.6l0,0l-0.8,0.6c-7.4-6.7-14.4-13.7-21.1-21.2l0,0l-1-1l0,0l-0.9-0.9l0,0l0,0l0,0l-1-1l0,0l-0.9-1
	c0.2-0.2,0.4-0.4,0.6-0.6l-0.7,0.6l0,0l0,0l0,0l-0.9-1l0,0l-1-0.9c0.2-0.2,0.4-0.4,0.7-0.6l0.6,0.6l-0.6-0.7l-1-1L1820.9,244z
	 M1816.3,239.5c-0.1,0-0.1,0-0.2-0.1C1816.2,239.5,1816.2,239.5,1816.3,239.5L1816.3,239.5z M1815.7,239.7c0.1-0.1,0.1-0.1,0.2-0.2
	c0.1,0,0.1,0,0.2-0.1c0.1,0,0.1,0,0.2,0.1c0.3,0.1,0.5,0.6,0.7,0.7l0,0l1,1l0,0l0.9,0.9l1,1l-1-1l-0.9-0.9l0,0l0.9,0.9l0,0l0.9,0.9
	l0,0l1,1c-0.2,0.2-0.5,0.4-0.7,0.6l-0.9-1l0,0l-0.9-1l-1-1l0,0l-0.9-0.9C1815.9,240.6,1815.1,240.4,1815.7,239.7L1815.7,239.7z
	 M1752.9,174c0-0.1,0-0.2,0-0.4C1752.9,173.8,1752.9,173.9,1752.9,174z M1762.4,183.8c0,0-0.1,0-0.2,0s-0.2,0-0.3,0
	c-0.2-0.1-0.3-0.3-0.3-0.6l1.4,0.3C1762.8,183.6,1762.7,183.7,1762.4,183.8L1762.4,183.8z M1767.8,191.3L1767.8,191.3z
	 M1769.8,193.3L1769.8,193.3L1769.8,193.3L1769.8,193.3L1769.8,193.3L1769.8,193.3L1769.8,193.3L1769.8,193.3L1769.8,193.3z
	 M1770.3,193.6l0.4,0.4L1770.3,193.6z M1770.7,194.1L1770.7,194.1c0.5,0.3,0.9,0.5,1.4,0.8L1770.7,194.1z M1781.2,204.1
	c0.1,0.1,0.1,0.1,0.2,0.1C1781.3,204.2,1781.2,204.2,1781.2,204.1L1781.2,204.1z M1787.1,211.7L1787.1,211.7L1787.1,211.7z
	 M1787.1,211.7C1787.1,211.6,1787.1,211.6,1787.1,211.7L1787.1,211.7C1787.2,211.6,1787.1,211.7,1787.1,211.7L1787.1,211.7z
	 M1808,232.5c0.1,0.1,0.2,0.1,0.3,0.1C1808.1,232.6,1808,232.6,1808,232.5L1808,232.5z M1808.9,233.4c0.1,0,0.1,0,0.2,0
	C1809,233.4,1808.9,233.4,1808.9,233.4L1808.9,233.4z M1801,224.4c0.1,0,0.3,0,0.4,0c-0.1,0.4,0.1,0.9,0.5,1c0.2,0,0.3,0,0.5,0
	c0.4,0.1,0.7,0.5,0.6,1l0,0c0.1,0,0.2,0,0.3,0c0.4,0.1,0.7,0.5,0.6,1l0,0h0.1c0.5,0,0.9,0.4,0.8,0.9h0.1c0.5,0.1,0.9,0.5,0.9,1h0.1
	c0.5,0,0.9,0.5,0.8,1l0,0c0.5,0,0.9,0.5,0.8,0.9l0.1-0.1l0,0l0,0l0,0v0.2l0,0l0,0l0.8,0.8c0,0,0.1-0.1,0.2-0.1l-0.1,0.1l0.9,0.9l0,0
	l0,0l0.1-0.1l0,0l-0.1,0.1l0,0l0,0l0.7,0.9h-0.2c-0.2,0.1-0.4,0.1-0.6,0c-0.1,0-0.1-0.1-0.1-0.1c0-0.1-0.1-0.1-0.1-0.2
	c0-0.2,0.1-0.4,0.3-0.6l0,0c-0.2,0.1-0.4,0.2-0.6,0.3c-0.1,0-0.1,0-0.2,0c-0.2-0.1-0.3-0.2-0.4-0.4c0-0.3,0.1-0.5,0.3-0.7l0,0v-0.1
	l0.1-0.1c-0.1,0-0.1,0-0.2,0.1l0,0c-0.2,0.1-0.3,0.3-0.4,0.4c-0.1,0-0.2,0-0.3-0.1l-0.2-0.2c0-0.1-0.1-0.2-0.1-0.3s0-0.2,0-0.4
	c0-0.1,0-0.2,0-0.3v-0.1l-0.1-0.1c-0.1,0.1-0.2,0.2-0.4,0.3c-0.3,0.1-0.6-0.1-0.8-0.4c-0.1-0.1-0.2-0.2-0.3-0.3l0,0l0,0l0,0
	l-0.9-0.9l0,0l-1-1l0,0l-0.9-1.2l-0.9-0.9l0,0l-1-1l0,0l-1-1c-0.2-0.3-0.8-0.4-0.8-0.7c0-0.1,0-0.2,0-0.2c0.1-0.1,0.2-0.2,0.3-0.3
	l0,0C1800.7,223.4,1801,223.8,1801,224.4L1801,224.4z M1800.2,223.4l-0.1,0.1l-0.3-0.3C1799.9,223.3,1800,223.4,1800.2,223.4
	L1800.2,223.4z M1788.4,211.9L1788.4,211.9l0.4,0.3c2.8,1.8,5.2,4,7.3,6.5c1.3,1.5,2.4,2.9,3.6,4.5c-0.8-0.5-1.5-1-2.2-1.5
	c-2.9-2.4-5.5-5.2-7.7-8.2l-1-1.3L1788.4,211.9L1788.4,211.9L1788.4,211.9z M1785.8,208.7c0.1,0,0.1,0,0.2,0l0.1-0.1
	c0.3-0.1,0.6,0,1,0.3c0.7,0.6,1.3,1.2,1,2h-0.1c-0.1,0-0.1,0-0.2,0h0.2h0.1c0.1,0,0.3,0.1,0.3,0.3s0,0.4,0,0.6
	c-0.4-0.1-0.8-0.2-1.2-0.3l0,0h-0.1c-0.1-1.1-1-2-2.2-2.1c0.1-0.2,0.4-0.3,0.6-0.5c0.1,0,0.1-0.1,0.1-0.2
	C1785.7,208.8,1785.7,208.7,1785.8,208.7c-0.1,0-0.1,0.1-0.1,0.1l0,0C1785.7,208.8,1785.7,208.7,1785.8,208.7L1785.8,208.7z
	 M1785,209.5L1785,209.5z M1785.7,208.7c-0.1-0.2-0.1-0.3-0.3-0.4C1785.6,208.4,1785.7,208.5,1785.7,208.7L1785.7,208.7z
	 M1784.5,207.4l0.3,0.3l0.1-0.3l0.6,0.5l-0.2,0.2l0.1,0.1c0.1,0.1,0.2,0.3,0.3,0.4c0.1,0.4-0.6,0.5-0.8,0.8c0.1-0.4,0-0.6-0.3-0.7
	l0,0l0,0l0,0c-0.1,0-0.2,0-0.3-0.1l0,0h-0.1C1784.3,208.3,1784.4,207.9,1784.5,207.4L1784.5,207.4z M1784.2,208.7L1784.2,208.7
	C1784.3,208.7,1784.2,208.7,1784.2,208.7L1784.2,208.7z M1782.1,205.2l-0.6-0.5l0,0l1-0.7L1782.1,205.2z M1782.5,203.9L1782.5,203.9
	L1782.5,203.9l-1,0.7l0.7-0.5c-0.2,0.2-0.5,0.2-0.8,0.1c-0.1,0-0.1-0.1-0.2-0.1c-0.1-0.1-0.1-0.1-0.2-0.2c-0.1-0.3,0.1-0.7,0.2-1.1
	c-0.2,0.2-0.3,0.3-0.6,0.4c-0.2,0.1-0.4,0-0.5-0.1s-0.1-0.1-0.2-0.2c0-0.1,0-0.1,0-0.2l0,0c0.1-0.3,0.2-0.5,0.3-0.8
	c-0.1,0.3-0.2,0.5-0.3,0.8l0,0l0,0c0.1-0.3,0.2-0.5,0.3-0.8l1,0.8l-0.1,0.1v0.1v-0.1v0.1C1781.4,203.5,1781.5,204.1,1782.5,203.9
	L1782.5,203.9z M1781.3,202.7L1781.3,202.7z M1780.2,201.8L1780.2,201.8L1780.2,201.8L1780.2,201.8L1780.2,201.8L1780.2,201.8
	c-0.1,0.2-0.2,0.5-0.3,0.6s-0.2,0.1-0.5-0.1c-0.2-0.3-0.4-0.6-0.4-0.9L1780.2,201.8L1780.2,201.8z M1778.9,201.3
	c0,0,0.1,0.1,0.1,0.2c0.1,0.3,0.2,0.7,0.4,0.9c0.2,0.2,0.4,0.2,0.5,0.1c-0.1,0.1-0.2,0.1-0.5-0.1c-0.2-0.3-0.4-0.6-0.4-0.9
	L1778.9,201.3C1778.8,201.3,1778.8,201.3,1778.9,201.3L1778.9,201.3z M1772.1,194.9c1.8,1,3.4,2,4.3,3.9l0,0c1,0.6,1.9,1.5,2.4,2.5
	l0,0c-0.1,0-0.2,0-0.3,0c-0.1,0-0.2,0-0.3,0.1c-0.1,0-0.2,0-0.3,0c-0.1,0-0.2,0-0.2,0c-0.1,0-0.2-0.1-0.2-0.1
	c-0.1,0-0.1-0.1-0.2-0.1c-0.1-0.1-0.1-0.1-0.2-0.2c-0.1-0.1-0.1-0.1-0.1-0.2l0,0c-0.1-0.2-0.2-0.3-0.2-0.5c-0.1-0.5-0.2-0.9-0.4-1.4
	l0,0C1774.8,197.7,1772.9,196.8,1772.1,194.9c-0.5-0.2-0.9-0.5-1.4-0.7l1.1-0.4l-1.1,0.4l0,0l1.1-0.4
	C1771.9,194.1,1772,194.5,1772.1,194.9L1772.1,194.9z M1770.9,193c0.1,0.1,0.2,0.2,0.3,0.4C1771.1,193.2,1771,193.1,1770.9,193
	c0.2,0.2,0.3,0.3,0.3,0.4c0,0.3-0.4,0.4-0.4,0.7l-0.4-0.4l-0.4-0.4C1770.1,193.1,1770.2,192.4,1770.9,193L1770.9,193z M1769.8,193.2
	c0-0.6-0.4-1-1-1l0,0h-0.1l0,0l0,0l0,0l0,0C1770.2,191.6,1770,192.3,1769.8,193.2L1769.8,193.2z M1768,191.2
	c0.1-0.1,0.2-0.2,0.4-0.3c0.1,0,0.2,0,0.4,0.3c0.1,0.3,0.1,0.6,0,0.9c0-0.1,0-0.2,0-0.2C1768.7,191.5,1768.3,191.2,1768,191.2
	L1768,191.2L1768,191.2z M1767.8,190.2c0.2,0.3,0,0.7,0,1.1c0-0.7-0.3-0.9-1-1C1767.2,190.2,1767.4,189.5,1767.8,190.2L1767.8,190.2
	z M1767.3,189.2c0,0.1,0,0.2,0,0.3C1767.4,189.3,1767.4,189.2,1767.3,189.2L1767.3,189.2z M1765.8,186.4v0.3
	c0.2,0.9,1.4,1.6,1.5,2.5c0,0.1,0,0.2,0,0.3c-0.1,0.3-0.2,0.6-0.5,0.9c0.1-1.1-1.4-1.8-1.5-2.8c0-0.1,0-0.2,0-0.2
	C1765.4,187,1765.6,186.7,1765.8,186.4L1765.8,186.4z M1765,185.6L1765,185.6z M1764.2,185.3c-0.2-0.2-0.3-0.5-0.3-0.7
	c0,0,0,0,0,0.1C1763.9,184.9,1764,185.2,1764.2,185.3c0.2,0.3,0.5,0.4,0.7,0.3l0,0l0,0l0,0l0,0l0,0l0,0c0,0.1,0,0.3,0,0.4
	c0.1,0.3,0.3,0.5,0.8,0.4c-0.2,0.1-0.3,0.3-0.4,0.4s-0.3,0.2-0.7-0.1s-0.3-0.5-0.1-0.6l0.2-0.2c0,0,0.1-0.1,0.1-0.2h-0.1l-0.2,0.2
	c-0.1,0.1-0.1,0.1-0.2,0.1h-0.2c-0.1,0-0.3-0.1-0.4-0.2c-0.3-0.3-0.3-0.5-0.2-0.7s0.1-0.1,0.2-0.2c0.1-0.1,0.1-0.2,0.2-0.3
	C1763.9,184.9,1764,185.1,1764.2,185.3L1764.2,185.3z M1763.5,184.5c0.1,0,0.3,0.1,0.4,0.1c-0.2,0-0.3,0.2-0.5,0.3s-0.4,0-0.5-0.2
	s-0.1-0.3,0-0.5c0-0.2,0.1-0.4,0.1-0.6c0,0.1,0,0.2,0,0.3c0-0.1,0-0.2,0-0.3c0,0.1,0,0.2,0,0.3
	C1763.1,184.1,1763.3,184.4,1763.5,184.5L1763.5,184.5z M1763,183.5L1763,183.5z M1761.6,183.2l1.4,0.3L1761.6,183.2z M1757.6,179.3
	c2.3,0.1,3.4,1.6,4,3.6v0.1c0,0.1,0,0.1,0,0.2l-0.2-0.1l0,0c-1.8-0.5-3.3-1.9-4-3.6L1757.6,179.3c-0.1,0.1-0.1,0.2-0.2,0.2
	S1757.6,179.4,1757.6,179.3L1757.6,179.3z M1757.4,178.6L1757.4,178.6z M1755.8,177.5l-0.1,0.1h0.1V177.5L1755.8,177.5h0.3
	c0.9-0.1,0.6,0.7,0.5,1.3l0.9-0.1v0.7l-0.7-0.3l0.7,0.3l0,0h0.1l-0.1,0.1v-0.1l0,0l-0.7-0.3l-0.4-0.2h0.3l-0.2-0.4
	c-0.1,0.1-0.1,0.3-0.1,0.4l0,0c-0.2-0.4-0.4-0.8-0.7-1.2L1755.8,177.5z M1755.5,177.5l-0.1,0.1L1755.5,177.5L1755.5,177.5l-1.1-0.6
	h1.2C1755.5,177.1,1755.5,177.3,1755.5,177.5L1755.5,177.5z M1754.5,176c0,0.1,0,0.2,0,0.2c0,0.2-0.1,0.4-0.1,0.6c0.1-0.7-0.3-1-1-1
	C1754.2,175.5,1754.4,175.6,1754.5,176L1754.5,176z M1753.6,175.5c0.1-0.2,0.1-0.5,0.1-0.8C1753.8,175,1753.7,175.2,1753.6,175.5
	L1753.6,175.5z M1753.3,172.9c0,0.1,0,0.2,0.1,0.4c0.1,0.4,0.3,0.7,0.3,1.1v0.4c0,0.3,0,0.5-0.1,0.8c-0.1,0.1-0.1,0.3-0.2,0.4
	c0-0.3-0.1-0.6-0.3-0.9c-0.1-0.3-0.2-0.6-0.3-0.9V174c0-0.1,0-0.2,0-0.4C1753,173.4,1753.1,173.1,1753.3,172.9L1753.3,172.9
	C1753.3,172.8,1753.3,172.9,1753.3,172.9L1753.3,172.9L1753.3,172.9z M1752.3,172.1L1752.3,172.1z M1748.3,168.8
	c0.6,0.5,1.9,0.2,1.7,1.6l-0.1,0.1l0,0l0.1-0.1c0,0.1,0,0.1,0,0.2l1.3,0.4l0,0c0,0,0,0,0,0.1l0,0l0,0c0,0.1,0.1,0.2,0.1,0.4
	c0.1,0.4,0.5,0.6,0.9,0.6h-0.1h0.1l0,0l0,0c0,0.6,0.3,0.9,0.9,0.8c-0.3,0.1-0.5,0.9-0.9,0.2c0-0.1-0.1-0.1-0.1-0.2
	c0-0.3,0-0.5,0.1-0.8c-0.7,0.3-1.1,0.2-1.2-0.1c0-0.3,0-0.7,0.2-1c-0.6,0.3-1.2,0.5-1.3-0.4l-0.2-0.1c-1.2,0.2-1.4-0.5-1.6-1.3
	c-0.1-0.3-0.1-0.5-0.2-0.8C1748.1,168.6,1748.2,168.7,1748.3,168.8L1748.3,168.8z M1674,745.8c0,0,0,0.2,0,0.3l-0.3,0.1
	c0-0.1-0.1-0.3-0.1-0.4C1673.7,745.7,1673.9,745.8,1674,745.8L1674,745.8z M72.9,179.6c-9.6-1.4-19.1-0.6-28.6,1.3
	c-15.1,3-29.6,8-44.2,12.8v-8.5c12.4-3.9,25-7.4,37.6-10.5c9.3-2.3,18.8-2.4,28.3-3l8.3,1.6c-1.3,1.2-0.7,2.1,0.4,3s3,1.2,2.8,3.6
	C75.9,179.8,74.4,179.9,72.9,179.6z M115.7,216.5c-0.8,0.4-0.7-0.6-1-1l-1.3-1.5l1.1-0.7l1,1.7l0,0
	C116,215.4,116.2,216.2,115.7,216.5z M57,426.9c0.9-3.6,2-7,4.6-9.6L57,426.9z M63,415.2l-0.4-0.3l2.6-4.1l0.8,0.5L63,415.2z
	 M67.2,409.5l-0.6-0.4l2-2.5l0.5,0.5L67.2,409.5z M70.4,405.3l-0.7,0.3l2.6-2.5C72.4,404.1,71.9,404.8,70.4,405.3z M72.4,403.1
	L72.4,403.1l-0.1-0.1L72.4,403.1L72.4,403.1z M73.3,403l-0.1,0.2c-0.1,0.1-0.1,0.1-0.2,0.2c-0.1,0-0.1,0.1-0.2,0.1s-0.3-0.1-0.4-0.3
	l0.1,0.1l-0.1-0.1c0.2-0.4,0.3-0.9,0.9-0.5C73.4,402.7,73.2,402.8,73.3,403L73.3,403z M391.4,879.1L391.4,879.1l1,0.7
	c-0.1,0.1-0.3,0.3-0.4,0.4c0.1-0.1,0.3-0.3,0.4-0.4l0.7,0.4l0,0c0.5,0.4,1.5,0.3,1.4,1.3l0,0l0,0c0.9-0.2,1.5,0.1,1.6,1.1
	c0.9-0.2,1.6,0.1,1.7,1.1l-1-0.1l-0.4,0.4l-1.7-1c0.1-0.2,0.3-0.3,0.4-0.5c-0.1,0.1-0.3,0.3-0.4,0.5l-1.6-1.1l0.4-0.5l0,0l-0.8-0.8
	l0,0l-0.7-0.4l0,0l-1-0.7l0,0l-0.5-0.5C390.8,878.6,391.1,878.8,391.4,879.1L391.4,879.1z M387.8,877.2c0.3-0.4,0.6,0,0.8,0.2
	c0.6,0.3,1.4,0.5,1.5,1.3l-1.3,0.2c0.2-0.6-0.6-0.6-0.6-1C388,877.6,387.5,877.5,387.8,877.2z M385,875.5c0.3-0.4,0.6,0,0.9,0.1
	c0.5,0.4,1.5,0.4,1.4,1.3c-0.4,0.1-0.8,0.2-1.2,0.2c0.2-0.6-0.5-0.6-0.6-1C385.2,876,384.7,875.9,385,875.5z M386.1,877.2
	L386.1,877.2z M382.2,873.8c0.1-0.2,0.3-0.2,0.4-0.1c0.1,0.1,0.3,0.2,0.4,0.3c0.5,0.2,0.9,0.4,1.3,0.8c0.1,0.1,0.2,0.3,0.3,0.5
	c-1,0.4-1.4-0.4-2-0.8C382.5,874.3,381.9,874.3,382.2,873.8L382.2,873.8z M379.5,872.2L379.5,872.2c0.2-0.2,0.4-0.2,0.5-0.1l0.3,0.3
	c0.3,0.1,0.6,0.2,0.9,0.4s0.6,0.5,0.8,0.7c-1,0.4-1.5-0.3-2.1-0.8C379.7,872.7,379.2,872.7,379.5,872.2z M378.7,871.6
	c0.1,0.1,0.1,0.2,0.2,0.4c0,0-0.1,0.1-0.2,0.2c-0.1-0.1-0.1-0.2-0.2-0.4C378.5,871.7,378.6,871.6,378.7,871.6z M375.6,870
	c0.2-0.2,0.5-0.2,0.6,0l0.2,0.2l0,0c0.3,0.1,0.6,0.2,0.9,0.4s0.6,0.4,0.8,0.8c-1,0.4-1.4-0.3-2-0.8L375.6,870L375.6,870z
	 M374.8,869.3L374.8,869.3c0.1,0.1,0.1,0.2,0.2,0.4c0,0-0.1,0.1-0.2,0.2l-0.1-0.2c0-0.1-0.1-0.1-0.1-0.2
	C374.6,869.5,374.7,869.4,374.8,869.3L374.8,869.3z M373.5,868.6c0.3,0.1,0.8,0.1,0.5,0.6c0,0.1-0.1,0.1-0.2,0.2h-0.1
	c-0.2-0.1-0.3-0.2-0.5-0.3l0,0l-2.1-1.2l0.4-0.4c0.4,0.1,0.8,0.3,1.2,0.4C373,868.1,373.3,868.3,373.5,868.6L373.5,868.6z
	 M370.6,867.2c0.1-0.1,0.2-0.2,0.3-0.1c0.2,0.1,0.4,0.2,0.5,0.3l-0.4,0.4C370.8,867.7,370.3,867.7,370.6,867.2L370.6,867.2z
	 M369.7,866.7c0.1,0,0.3,0.1,0.4,0.2l-0.2,0.2l-0.4-0.2C369.6,866.8,369.7,866.7,369.7,866.7L369.7,866.7z M368.7,866
	c0.1,0.1,0.1,0.2,0.2,0.4c0,0-0.1,0.1-0.2,0.2l-0.2-0.3L368.7,866z M367.7,865.5L367.7,865.5L367.7,865.5l0.2,0.1
	c-0.1,0.1-0.2,0.1-0.4,0.2c0,0-0.1-0.1-0.2-0.2C367.4,865.6,367.6,865.6,367.7,865.5L367.7,865.5z M367.2,865.3
	c-1.7-0.2-3.2-0.9-4.5-2c-0.2-0.1-0.8-0.1-0.4-0.6c0.1-0.1,0.3-0.2,0.4-0.1c0.1,0.1,0.3,0.2,0.4,0.3c1.2,0.5,2.4,1.2,3.5,2
	C366.9,865,367,865.2,367.2,865.3L367.2,865.3z M361.6,8.4c0.4-0.9,1.2-1.4,2.2-1.4h0.5c-0.1,0.3-0.2,0.6-0.4,0.9
	c-0.5,0.7-1.3,1-2.1,1.1l-1.6,0.6L360,9.1L361.6,8.4z M361.7,862.5l-0.2,0.2l-0.1-0.2c0-0.1-0.1-0.1-0.1-0.2c0,0,0.1-0.1,0.2-0.2
	L361.7,862.5z M360.7,861.9c-0.1,0.1-0.2,0.1-0.4,0.2c0,0-0.1-0.1-0.2-0.2c0.1-0.1,0.2-0.1,0.4-0.2l0,0c0,0,0,0,0.1,0L360.7,861.9z
	 M356.3,11.6l0.9-0.6c0.3-0.2,0.6-0.4,0.9-0.6l0.9-0.6l0.9-0.6l0.3,0.4l-0.9,0.6l-0.9,0.6l0,0l-0.9,0.6l-0.9,0.6l-0.5,0.3l-0.5,0.3
	l-0.3-0.4L356.3,11.6z M359.5,861.4c0,0-0.1,0.1-0.2,0.2c-0.1-0.1-0.1-0.2-0.2-0.4c0,0,0.1-0.1,0.2-0.2
	C359.4,861.1,359.4,861.3,359.5,861.4z M358.4,860.7l-0.2,0.4c-0.1-0.1-0.2-0.1-0.2-0.2c0-0.1,0.1-0.3,0.2-0.4L358.4,860.7z
	 M357.7,860c-2.8-0.5-5.4-1.6-7.7-3.2c-0.2-0.2-0.8-0.2-0.4-0.6c0.1-0.1,0.2-0.2,0.3-0.2c0.2,0,0.4,0.1,0.6,0.3L357.7,860z
	 M355.4,12.3l0.3,0.5c-0.2,0.1-0.6,0.4-0.6,0.3C354.6,12.6,355.1,12.4,355.4,12.3z M352.9,14.3c0.1,0,0.3-0.1,0.5-0.1l0,0
	c0.3-0.2,0.5-0.6,0.8,0c0,0,0.1,0,0,0.1s-0.3,0.3-0.4,0.4l0,0c-0.3,0.5-0.7,1-1.1,1.3c-0.5,0.3-1,0.6-1.5,0.7l-0.9,0.6l0.9-0.6
	l-0.4-0.5C351,15.2,351.9,14.5,352.9,14.3z M349.3,17.3c0-0.2,0.3-0.3,0.4-0.4l0,0l0.9-0.7l0.4,0.5l-0.9,0.6l0,0
	c-0.2,0.1-0.5,0.4-0.6,0.3S349.4,17.4,349.3,17.3C349.3,17.3,349.3,17.3,349.3,17.3L349.3,17.3z M348.8,855.5
	c0.1,0.1,0.2,0.1,0.2,0.2c0,0.1-0.1,0.3-0.2,0.4l-0.2-0.2L348.8,855.5z M346,20.2l0.3-0.3L346,20.2c-0.4,0.2-0.7,0.4-1,0.6
	C345.3,20.6,345.6,20.4,346,20.2z M345,20.8c0.3-0.3,0.6-0.5,1-0.6l0,0l0.3-0.3l0.5-0.4l0,0c0.3-0.5,0.6-1,1.1-1h0.3
	c0.1,0,0.2,0.2,0.2,0.3c-0.1,0.8-0.6,1-1.3,1.2l-0.9,0.6l0,0c-0.2,0.9-0.7,1.6-1.5,1.9c-0.1,0-0.3,0.1-0.4,0.1
	c-0.1-0.1-0.3-0.3-0.4-0.5C344.2,21.7,344.5,21.2,345,20.8L345,20.8z M347.8,855.3c0,0-0.1,0.1-0.2,0.2c-0.1-0.1-0.1-0.2-0.2-0.4
	l0,0l0.2-0.2l0,0C347.7,855.1,347.8,855.2,347.8,855.3L347.8,855.3z M346.8,854.7l-0.4,0.2l-0.2-0.2c0.1-0.1,0.2-0.1,0.4-0.2
	C346.7,854.5,346.8,854.6,346.8,854.7z M345.6,854.2l-0.1,0.1h-0.1l-0.2-0.3l0.2-0.2l0.1,0.2C345.6,854,345.6,854.1,345.6,854.2
	L345.6,854.2z M344.5,853.6c0,0-0.1,0.1-0.2,0.2c-0.1-0.1-0.1-0.2-0.2-0.4c0,0,0.1-0.1,0.2-0.2l0,0
	C344.4,853.4,344.5,853.5,344.5,853.6L344.5,853.6z M340,26.3L340,26.3l0.9-0.7l0.3,0.4v-0.1l-0.3-0.4l1-1.4
	c0.1,0.2,0.2,0.3,0.4,0.4L342,24l0.9-0.6l0,0l1.1-1.3c0.1,0.1,0.2,0.3,0.4,0.5l-1.2,1.3l-0.3,0.2l-0.5,0.5l0,0l-0.9,1l-0.2,0.3l0,0
	V26l0,0l-0.3,0.2l-0.6,0.5l-0.1-0.2l0.1,0.2c-0.2,0.6-0.4,1.3-1,1.6c-0.1,0-0.2,0.1-0.3,0.1c-0.2,0-0.6-0.2-0.6-0.3
	C338.5,27.2,339.3,26.8,340,26.3L340,26.3z M343.6,853.1c-2.3-0.7-4.4-1.8-6.3-3.3l0,0l0,0l-0.4-0.2c0.1-0.1,0.1-0.2,0.2-0.2
	s0.1,0,0.2,0.1l0.2,0.1l-0.1,0.1C339.7,850.4,341.8,851.5,343.6,853.1L343.6,853.1z M337,29.8L337,29.8l0.6-0.4l0.1,0.1
	c0.2,0.3-0.1,0.5-0.4,0.7l0,0c-0.3,0.6-0.4,1.3-1,1.6c-0.1,0.1-0.2,0.1-0.2,0.2c-0.2,0-0.5-0.2-0.5-0.3
	C335.5,30.7,336.2,30.2,337,29.8z M336.2,849.2c0,0-0.1,0.1-0.2,0.2c-0.1-0.1-0.1-0.2-0.2-0.4c0,0,0.1-0.1,0.2-0.2
	C336.1,849,336.2,849.1,336.2,849.2z M335,848.5l0.2,0.1l-0.2,0.2l-0.4-0.2c0.1-0.1,0.1-0.2,0.2-0.2
	C334.9,848.4,335,848.4,335,848.5L335,848.5z M334.6,32.9c0,0.1,0.1,0.2,0.1,0.3s-0.2,0.1-0.3,0.2l-0.1-0.3L334.6,32.9z
	 M333.8,847.7c0.1,0.1,0.1,0.2,0.2,0.4c0,0-0.1,0.1-0.2,0.2c-0.1-0.1-0.1-0.2-0.2-0.4L333.8,847.7L333.8,847.7z M332.9,34.6
	L332.9,34.6c0.2-0.1,0.6-0.4,0.6-0.3l0.1,0.1l0.1,0.1c0.1,0.2-0.2,0.4-0.5,0.6l0,0c-0.4,1.3-1.2,2.3-2.3,3c-0.2,0.1-0.4,0.2-0.6,0.3
	C330.6,36.8,331.5,35.4,332.9,34.6L332.9,34.6z M329.5,39.2c0,0.1,0.1,0.2,0.1,0.3s-0.1,0.1-0.2,0.2c0-0.1-0.1-0.2-0.1-0.3
	S329.4,39.3,329.5,39.2L329.5,39.2z M333.1,847.5c-1.5-0.2-2.9-0.8-3.9-1.9C330.7,845.8,332.1,846.5,333.1,847.5z M329.1,845.2
	c-0.1,0.1-0.1,0.2-0.2,0.2s-0.3-0.1-0.4-0.2l0.2-0.2L329.1,845.2z M328.5,40.6l0.1,0.2v0.1c0,0.1-0.2,0.1-0.3,0.2l-0.1-0.3
	L328.5,40.6z M327.7,844.4L327.7,844.4c0.1,0.1,0.1,0.2,0.2,0.4c0,0-0.1,0.1-0.2,0.2c-0.1-0.1-0.1-0.2-0.2-0.4
	C327.5,844.5,327.6,844.5,327.7,844.4z M325.6,43.8c-1.2,0.7-2,1.8-2.4,3.1C323.6,45.6,324.4,44.5,325.6,43.8l1.1-1.4L325.6,43.8
	l1.1-1.4c0.2-0.1,0.4-0.3,0.6-0.4c0,0,0.1,0.1,0.1,0.2l0.1,0.1c0.1,0.2-0.2,0.4-0.5,0.5l-0.3-0.4l0.2,0.4l-1,1.4l0,0l0,0l0,0v0.1
	c-0.3,1.3-1.2,2.3-2.3,3c-0.2,0.1-0.4,0.2-0.6,0.3c0-0.2,0.1-0.4,0.1-0.7C323.6,45.6,324.5,44.5,325.6,43.8L325.6,43.8z
	 M327.1,844.4c-1.2-0.2-2.3-0.7-3.2-1.5c-0.2-0.2-0.8-0.2-0.4-0.6c0.1-0.1,0.3-0.2,0.4-0.1c0.1,0.1,0.3,0.2,0.4,0.3
	c0.8,0.3,1.5,0.7,2.1,1.2C326.8,843.9,327,844.1,327.1,844.4L327.1,844.4z M322.7,841.6l0.2,0.4l-0.2,0.2l0,0l0,0v-0.1l0,0l0,0l0,0
	l0,0c0-0.1-0.1-0.1-0.1-0.2C322.7,841.8,322.7,841.7,322.7,841.6L322.7,841.6z M322.4,48.5l-0.2,0.3v-0.3H322.4z M321.2,49.8
	c0,0.1,0.2,0.2,0.1,0.3s-0.2,0.1-0.3,0.2l-0.1-0.3C321.1,49.9,321.1,49.8,321.2,49.8L321.2,49.8z M321.6,840.8
	c0.2,0.2,0.4,0.4,0.5,0.7c-0.9,0.4-1.4-0.3-2-0.8l0.4-0.4C320.9,840.4,321.3,840.6,321.6,840.8L321.6,840.8z M320.1,840.6
	L320.1,840.6l-0.5-0.5c0.1-0.2,0.4-0.2,0.6-0.1c0.1,0.1,0.2,0.2,0.3,0.3L320.1,840.6z M319.5,51.5L319.5,51.5l0.6-0.4
	c0.1,0.1,0.1,0.2,0.2,0.3c0.1,0.3-0.2,0.4-0.4,0.6l0,0c-0.2,0.3-0.3,1-0.7,0.8l-0.2-0.1C318.5,52.3,319.1,51.8,319.5,51.5
	L319.5,51.5z M318.9,839.4l0.2,0.2l-0.2,0.4c-0.1-0.1-0.2-0.1-0.2-0.2C318.7,839.6,318.8,839.5,318.9,839.4L318.9,839.4z
	 M315.8,837.8c0.1-0.1,0.2-0.2,0.3-0.2c0.2,0.1,0.4,0.2,0.5,0.3l0,0c0.3,0.2,0.6,0.3,0.9,0.4c0.3,0.2,0.6,0.5,0.7,0.8
	c-1,0.4-1.4-0.3-2-0.8l0,0C316,838.3,315.5,838.3,315.8,837.8L315.8,837.8z M313,836.1c0.2-0.2,0.4-0.2,0.5,0l0.3,0.3l0,0l1.3,0.8
	l0.5,0.3c-1.2,0.5-1.7-0.3-2.2-0.7l0,0C313.2,836.6,312.7,836.6,313,836.1L313,836.1z M311.8,835.1c0.4,0.2,0.7,0.5,1.1,0.8
	c-0.5,0.1-0.8,0.2-0.9,0.1c-0.2-0.1-0.4-0.3-0.6-0.5C311.2,835,311.6,835,311.8,835.1L311.8,835.1z M308.6,833.3
	c0.1-0.1,0.4-0.1,0.5,0s0.2,0.2,0.3,0.3l1,0.7c0.2,0.1,0.8,0.2,0.5,0.6c0,0.1-0.1,0.1-0.2,0.2c-0.2,0-0.4-0.2-0.6-0.4l-1-0.7
	l0.4-0.4L309,834C308.8,833.8,308.2,833.8,308.6,833.3L308.6,833.3z M307.4,832.3c0.3,0.2,0.5,0.4,0.7,0.7c-0.2,0.1-0.5,0.3-0.6,0.2
	c-0.4-0.2-0.7-0.5-1-0.8C307,832.4,307.3,832.3,307.4,832.3L307.4,832.3z M305.6,831.2c0.3,0.1,0.6,0.3,0.9,0.6
	c0.4,0.4-0.3,0.3-0.3,0.7c-0.3-0.2-0.6-0.5-0.9-0.8C304.9,831.2,305.5,831.2,305.6,831.2L305.6,831.2z M303.9,830.1
	c0.3,0.1,0.6,0.3,0.8,0.6c0.4,0.4-0.2,0.3-0.4,0.5c-0.3-0.2-0.5-0.4-0.8-0.7C303.3,830.1,303.8,830,303.9,830.1L303.9,830.1z
	 M302.4,829c0.3,0.2,0.5,0.4,0.8,0.7c-0.2,0.1-0.5,0.3-0.6,0.2c-0.4-0.2-0.7-0.5-1-0.8C302,829.1,302.3,828.9,302.4,829z
	 M301.6,828.5L301.6,828.5C301.6,828.6,301.6,828.6,301.6,828.5z M301.1,828.1c0.1,0.1,0.5,0.2,0.5,0.4v0.1l-0.1,0.1
	c-0.3,0.4-0.5,0-0.8-0.3L300,828l0.4-0.5L301.1,828.1z M296.5,824.9L296.5,824.9l0.2,0.1l0.5,0.3l0,0l0.6,0.4l0,0l1.2,0.9l0.5,0.3
	l0,0l-0.5-0.3l0.5,0.3l1,0.8l-0.4,0.5l-0.9-0.7l0,0l0,0l-1.6-1.2l0,0l-0.6-0.5l0,0l-0.6-0.4l0,0l-1-0.8l0.4-0.5L296.5,824.9z
	 M295,823.8c0.2,0,0.4,0.1,0.5,0.3l-0.4,0.5c-0.1-0.2-0.5-0.5-0.4-0.5C294.8,823.9,294.9,823.9,295,823.8L295,823.8z M290.6,820.3
	l0.9,0.8c0.5,0.2,1.3,0.7,1,1c-0.1,0.1-0.3,0.2-0.4,0.3c-0.4,0-0.7-0.6-1-0.8l0,0c0.3,0.2,0.6,0.7,0.9,0.8h0.1H292
	c-0.3-0.1-0.6-0.6-0.9-0.8l0,0l-0.9-0.8l0,0l0,0l0,0l-0.6-0.5l0.5-0.5L290.6,820.3l-0.4,0.4l0,0L290.6,820.3z M290,819.8l-0.5,0.5
	l-1.3-1l0.5-0.5L290,819.8z M285.9,83.3l0.3,0.4c-0.3,0.3-0.6,0.6-0.8,0C285.3,83.6,285.7,83.4,285.9,83.3z M283.6,814.6
	c0.3-0.4,0.9,0.5,1.3,1l0,0l0.5,0.5l1.3,1l0.6,0.5l-0.6-0.5l-1.3-1l1.3,1l0.6,0.5l0,0l0.5,0.3l1,0.9l-0.5,0.5l-0.8-0.8l-0.6-0.5l0,0
	l-0.6-0.5l0.5-0.4l-0.5,0.4l-0.2-0.2l-1.1-0.8l-0.2-0.2l-0.3-0.2l0,0c-0.3-0.3-0.8-0.5-1-0.8C283.3,815.1,283.4,814.7,283.6,814.6
	L283.6,814.6L283.6,814.6z M281,812.3c0.4-0.3,0.5,0.1,0.7,0.3l0.6,0.5l0.7,0.5l0,0c0.2,0.2,0.6,0.5,0.2,0.8s-0.6-0.1-0.8-0.3
	l-0.6-0.6l-0.6-0.5C281,812.8,280.6,812.6,281,812.3L281,812.3z M273.5,804.4l0.5,0.5l0.6,0.6c0.3,0.2,0.6,0.5,0.1,0.8
	c-0.1,0-0.4-0.2-0.6-0.4l-0.5-0.6l0,0l-0.5-0.6L273.5,804.4L273.5,804.4l0.5,0.5l0,0L273.5,804.4z M271,802.2
	c0.5-0.5,0.6,0.2,0.9,0.4l0,0l0.5,0.5l0.5,0.6l0.5,0.6l-0.4,0.4c-0.2-0.2-0.4-0.4-0.5-0.6l0.3-0.3l-0.3,0.3
	c-0.2-0.2-0.3-0.4-0.5-0.6l-0.5-0.5l0,0C271.1,802.8,270.7,802.5,271,802.2L271,802.2z M269.4,800l0.5,0.6l0,0
	c0.4,0.2,0.9,0.7,0.6,1c-0.6,0.6-0.8-0.3-1.2-0.6l0,0l-0.4-0.5l-1.3-1.5l-0.6-0.7C268.1,798.4,269,799.1,269.4,800z M264.6,794.8
	L264.6,794.8l0.5,0.6l0.5,0.6l0,0l0.6,0.6c0.3,0.2,0.6,0.5,0.2,0.8c0,0-0.1,0-0.2-0.1l-0.3-0.3l0,0l-0.5-0.6l-0.5-0.6l0,0l-0.5-0.6
	l0,0l-0.6-0.5l0.2-0.2l0.2-0.2L264.6,794.8L264.6,794.8l-0.5-0.5L264.6,794.8z M264.1,794.3l-0.2,0.2l-0.2,0.2l0,0l-0.5-0.5l0.5-0.4
	l-0.5-0.5l0.5,0.5L264.1,794.3z M263.1,794.1l-0.6-0.5L262,793l0.6-0.4l0.5,0.6l0.5,0.5L263.1,794.1z M261.6,792.2
	c0.2-0.2,0.3-0.2,0.4-0.2c0.2,0.1,0.3,0.3,0.4,0.4c-0.1-0.2-0.3-0.3-0.4-0.4c0.2,0.1,0.3,0.4,0.5,0.5l0,0l0,0l0.5,0.6l-0.5-0.6l0,0
	l-0.6,0.4C261.7,792.8,261.4,792.4,261.6,792.2L261.6,792.2z M255.9,786.3c-0.1-0.1-0.2-0.1-0.3-0.1
	C255.7,786.2,255.9,786.2,255.9,786.3L255.9,786.3z M255.6,786.2c0.1,0,0.2,0,0.3,0.1c0.1,0.1,0.2,0.2,0.3,0.3l0,0l0.2,0.1l0.4,0.4
	l0.6,0.5l0.5,0.5l0.6,0.5l0.6,0.6l0.6,0.6l-0.6,0.3l0.6-0.3c0.1,0.2,0.3,0.6,0.2,0.7c-0.4,0.3-0.6,0-0.8-0.3l-0.5-0.5l-0.5-0.6
	l-0.5-0.6L257,788l0.4-0.4L257,788l-0.6-0.5c-0.2-0.2-0.4-0.4-0.6-0.5l0,0c0-0.1-0.1-0.1-0.1-0.2c-0.1-0.1-0.2-0.2-0.3-0.4
	C255.5,786.3,255.6,786.3,255.6,786.2L255.6,786.2z M246.4,778.6l0.2,0.2c-0.1,0.1-0.2,0.1-0.4,0.2c0,0-0.1-0.1-0.2-0.2L246.4,778.6
	z M242.7,776.4L242.7,776.4c0.1-0.1,0.3-0.2,0.4-0.1c0.1,0.1,0.3,0.2,0.4,0.3l0,0l-0.3,0.3l0.4-0.4l1,0.7l0.7,0.5
	c0.2,0.2,0.3,0.3,0.4,0.5c-0.3,0.4-0.6,0.1-0.8-0.2l-0.7-0.5l0,0l-1-0.7C242.9,776.8,242.4,776.8,242.7,776.4L242.7,776.4z
	 M240.4,774.7c0.1,0.1,0.2,0.2,0.3,0.3l0.8,0.5c0.3,0.2,0.6,0.3,1,0.6c-1.2,0.4-1.7-0.3-2.2-0.7l-0.5-0.5
	C240,774.6,240.2,774.6,240.4,774.7L240.4,774.7z M239.1,774.1L239.1,774.1c0.1,0.1,0.1,0.2,0.2,0.4c0,0-0.1,0.1-0.2,0.2
	c-0.1-0.1-0.1-0.2-0.2-0.4C238.9,774.3,239,774.1,239.1,774.1L239.1,774.1z M238,773.5c0.1,0.1,0.1,0.2,0.2,0.4c0,0-0.1,0.1-0.2,0.2
	c-0.1-0.1-0.1-0.2-0.2-0.4C237.8,773.6,237.9,773.5,238,773.5L238,773.5z M236.9,772.9c0.1,0.1,0.1,0.3,0.2,0.4c0,0-0.1,0.1-0.2,0.2
	c-0.1-0.1-0.1-0.2-0.2-0.4C236.7,773.1,236.8,773,236.9,772.9L236.9,772.9z M235.7,772.4l0.2,0.3l-0.2,0.2c-0.1-0.1-0.1-0.2-0.2-0.4
	C235.6,772.5,235.7,772.5,235.7,772.4L235.7,772.4z M234.6,771.9l0.2,0.2l-0.2,0.4c-0.1-0.1-0.2-0.1-0.2-0.2
	C234.5,772.1,234.6,772,234.6,771.9L234.6,771.9z M229.6,769.9c0.1,0.1,0.2,0.1,0.2,0.2l0.1,0.1c0.4,0,0.7,0,1.1,0.1
	c1.2,0.3,2.3,0.8,3.3,1.5c-1.6-0.1-3.2-0.5-4.6-1.3C229.4,770.3,229.3,770,229.6,769.9L229.6,769.9z M224.8,768.7
	c0.1,0,0.1,0.1,0.1,0.2h-0.3L224.8,768.7C224.6,768.7,224.7,768.6,224.8,768.7L224.8,768.7z M224.6,768.7l-0.1,0.2L224.6,768.7z
	 M223.8,768.1c-2,0.4-4-0.1-5.6-1.3L223.8,768.1z M198.5,765.9L198.5,765.9l8.7,0.1v0.8h-8.8c-0.2-0.1-0.4-0.2-0.6-0.3
	c-1.3,0.4-2.7,0.4-4,0.1C195.3,765.9,196.9,765.6,198.5,765.9L198.5,765.9z M186.1,767.5l-9,1.6C179.9,767.7,183,767.2,186.1,767.5z
	 M171.7,351.2l-0.2,0.4c0-0.1-0.1-0.3-0.1-0.5L171.7,351.2z M143.2,102.1c0.1-0.2,0.2-0.5,0.1-0.8l24.9,4.4
	c-0.1,0.2-0.2,0.5-0.2,0.8L143.2,102.1z M146.5,375.8c6.5-4.2,12.4-9.4,17.2-15.5c1.6-2,3.1-4.1,4.6-6.3c0.7-1.1,1.3-2.6,3.1-2.4
	l0,0l0.1-0.1v0.1l0,0l0,0l0,0l0,0c-5.5,8.8-11.7,16.9-20.5,22.5c-1.3,0.8-2.6,1.6-3.9,2.3C146.8,376.2,146.7,376,146.5,375.8
	c-3.5,1.9-7.1,3.6-10.9,5C139.4,379.4,143,377.7,146.5,375.8z M160.5,772.7l-15,4.3l-0.1-0.7l14.8-4.3
	C160.3,772.2,160.4,772.5,160.5,772.7L160.5,772.7z M104.5,387.2c9.1-1.6,18.4-2.3,27.3-5c1.3-0.4,2.6-0.8,3.8-1.3
	c3.7-1.5,7.4-3.2,10.9-5.1c0.2,0.2,0.3,0.4,0.5,0.6c-7.6,5.5-16.4,7.7-25.4,9.3c-8.7,1.5-17.4,2.2-26,4.1
	C98.3,388.1,101.5,387.8,104.5,387.2z M142.1,777.6c-1.2,1.4-2.9,1.5-4.5,1.5L142.1,777.6z M136.7,780c0,0.1-0.3,0.1-0.4,0.2
	l-0.4-0.3c0.1-0.1,0.3-0.2,0.4-0.3C136.5,779.6,136.7,779.7,136.7,780L136.7,780z M135.2,780.5c-0.1,0.1-0.3,0.1-0.5,0.2
	c-0.1,0-0.2-0.2-0.4-0.3c0.2-0.1,0.3-0.2,0.5-0.2S135.1,780.4,135.2,780.5L135.2,780.5z M114.3,789.3c-0.1,0-0.2,0.1-0.2,0.1
	c-0.1,0-0.3-0.1-0.4-0.2l0.3-0.3L114.3,789.3z M113,789.9l-0.2,0.2l-0.2-0.1l0.2-0.3L113,789.9z M110.9,790.6c0-0.1,0.1-0.2,0.2-0.3
	l0,0c0.1-0.1,0.4-0.2,0.6-0.1c0.1,0,0.1,0.2,0.1,0.4L110.9,790.6L110.9,790.6z M110.8,790.6L110.8,790.6L110.8,790.6L110.8,790.6
	L110.8,790.6L110.8,790.6L110.8,790.6z M110.8,790.7c0,0.1,0,0.1,0,0.2c-0.2,0.5-0.6,0.4-1,0.3l0,0c0-0.1,0.1-0.2,0.2-0.3
	s0.2-0.1,0.3-0.2C110.5,790.7,110.7,790.7,110.8,790.7L110.8,790.7L110.8,790.7z M109.7,791.3L109.7,791.3L109.7,791.3L109.7,791.3
	c-0.1,0.5-0.3,0.7-0.7,0.6c-0.1,0-0.2,0-0.3-0.1C108.8,791.3,109.3,791.3,109.7,791.3L109.7,791.3z M108.5,792.2
	c-0.2,0.3-0.5,0.3-0.9,0.1c0.1-0.2,0.2-0.3,0.3-0.4c0.1-0.1,0.2-0.1,0.3-0.1h0.3l0,0h0.1l0,0l0,0h0.1h-0.1l0,0
	C108.6,792,108.5,792.1,108.5,792.2L108.5,792.2z M107.6,792.4L107.6,792.4L107.6,792.4L107.6,792.4L107.6,792.4z M107.6,792.4
	c0.1,0.2,0.1,0.4-0.2,0.4c-0.1,0-0.2-0.1-0.2-0.1L107.6,792.4z M106,793.2L106,793.2C106,793.2,106,793.1,106,793.2L106,793.2
	l0.3-0.1c0.1,0,0.1,0.2,0.1,0.2C106.3,793.5,106.1,793.5,106,793.2L106,793.2L106,793.2L106,793.2z M104.9,793.8L104.9,793.8
	C104.9,793.8,104.9,793.7,104.9,793.8L104.9,793.8l0.2-0.1c0,0,0,0,0.1,0c0,0,0.1,0.1,0.1,0.2C105.1,794,105,794,104.9,793.8
	L104.9,793.8L104.9,793.8z M104.2,794.2l-0.1,0.2l-0.3-0.2c0.1,0,0.1-0.1,0.2-0.1S104,794.2,104.2,794.2L104.2,794.2z M93.8,390.2
	l0.2,0.4c-0.1,0.1-0.3,0.2-0.4,0.2s-0.2-0.3-0.2-0.4L93.8,390.2z M91.8,390.9l0.2,0.4c-0.1,0.1-0.2,0.1-0.4,0.2
	c-0.1,0-0.2-0.2-0.2-0.4L91.8,390.9z M0.1,935.5v-38.7c6.1-11.7,13.4-22.8,21.7-33.1c26.2-33.1,60.2-59.3,98.9-76.2
	c24.7-10.7,50.2-18.1,77.2-19.8c14.5-0.9,28.5,1.3,41.4,8.6c8.7,4.9,15.9,11.6,22.8,18.7c7.6,8,14.9,16.4,23.4,23.6
	c13.5,11.5,28.5,20.6,44.1,28.9c15.2,8.1,30.5,16.1,45.7,24c3.6,1.9,6.9,4.4,10.8,5.7c0.5,1.1,1.6,1.8,2.8,1.7c0.9,1.7,2.8,2,4.2,3
	l1.6,1.1l1.7,1c0.5,0.5,1,1,1.9,0.8l0,0l0,0l-0.5-1l0,0l0.5,1c-0.8,0.2-1.3-0.3-1.9-0.8l0.4-0.4l1,0.1c1-0.4,1.1,0.3,1.2,1.1l0,0
	c1-0.2,1.7,0.5,2.5,1c20.2,14.1,38.4,30.8,54.2,49.7L0.1,935.5z"/>
<path class="st1" d="M553.9,15.3c26.1,8.6,52.2,16.8,79.7,19.6c23.8,2.6,47.9-0.2,70.5-8.3c15.7-5.7,29.2-14.6,41.5-25.4l1.3-1.1
	h-4.7c-0.1,0-0.2,0.1-0.2,0.1l0,0V0H507.3l3.7,1.1C525.4,5.5,539.5,10.6,553.9,15.3z M645.9,33.2c-15.6,0.1-30.8-3.5-46-6.5
	c17.5,2.8,34.9,6.3,52.8,6.3C650.4,33,648.1,33.1,645.9,33.2L645.9,33.2z M736.2,5.2l-0.4,0.6c-2.2,3-5.5,4.4-8.6,6.2
	c-0.4,0.3-0.9,0.5-1.3,0.8l0,0l0,0c0.3-0.4,0.6-0.8,0.9-1.2l0,0c0.3-0.4,0.7-0.8,1-1.1l0,0c0.3-0.4,0.7-0.7,1.1-1.1l0,0
	c0.4-0.3,0.8-0.7,1.2-1l0,0c0.4-0.3,0.8-0.6,1.2-0.9l0,0c0.4-0.3,0.8-0.5,1.3-0.8l0,0c0.9-0.5,1.8-0.9,2.8-1.3l0,0l0.6-0.2l0,0
	H736.2z M740.6,1.8c-0.4,1-1.2,1.7-2.3,2.1c-0.4,0.1-0.8,0.2-1.3,0.2l0,0c0.4-1.9,1.7-2.5,3.2-2.7l0.6-0.2l0,0
	C740.8,1.4,740.7,1.6,740.6,1.8z"/>
<path class="st1" d="M25.5,30.6C38.2,49,53.1,65.1,72.8,76.1c22.1,12.3,46,19.6,70.5,25.2l24.9,4.4c12.7,1.8,25.5,2.4,38.4,1.9
	c25.4-1,49.5-6.5,71.9-19.1c1.6-0.9,3.8-1.6,4.5-3c2.3-4.7,6.6-6.4,10.6-8.8c0-0.2,0.1-0.4,0.3-0.6l0,0l0,0c0.2-0.1,0.4-0.1,0.5-0.1
	c0-0.1,0-0.2,0.1-0.3c0.1-0.2,0.2-0.3,0.4-0.3c0.1-0.1,0.3-0.1,0.5-0.1c0-0.2,0.1-0.4,0.3-0.5c0.2-0.1,0.4-0.1,0.6-0.1
	c0-0.2,0.1-0.4,0.1-0.5c0.1-0.4,0.2-0.7,0.4-1l0,0c0.1-0.2,0.3-0.3,0.5-0.5c0.5-0.4,1.2-0.7,1.9-0.6c0-0.1,0-0.2,0.1-0.3
	c0.1-0.1,0.2-0.2,0.3-0.3c0.2-0.1,0.4-0.1,0.6,0c0.2-0.6,0.3-1.3,0.7-1.7c11.8-11,21.1-24,31.1-36.6C342.9,19.3,355.8,8.5,371,1
	l2.4-1.1H7.4C7.6,0.4,7.8,0.8,8,1.1C13.2,11.3,19.1,21.1,25.5,30.6z"/>
<path class="st2" d="M401.5,885.8c-0.8-0.5-1.4-1.2-2.5-1h-0.8c-0.8,0.2-1.4-0.2-1.9-0.8l-1.7-1.1l-1.6-1c-1.4-1.1-3.3-1.4-4.2-3
	c-1.2,0.1-2.3-0.6-2.8-1.7c-3.9-1.3-7.2-3.8-10.8-5.7c-15.2-8-30.5-15.9-45.7-24c-15.6-8.3-30.6-17.4-44.1-28.9
	C277,811.3,269.7,803,262,795c-6.9-7.2-14.1-13.8-22.8-18.7c-12.9-7.3-26.9-9.5-41.4-8.6c-27,1.7-52.6,9.1-77.2,19.8
	C82,804.4,48,830.6,21.8,863.8c-8.3,10.3-15.6,21.4-21.7,33.1v38.7h455.6C439.8,916.7,421.6,900,401.5,885.8z M40.2,845.8
	c0,0.1,0,0.2,0,0.3C40.2,846,40.1,845.9,40.2,845.8L40.2,845.8z M39.6,846.5L39.6,846.5L39.6,846.5z M0.5,901.8L0.5,901.8L0.5,901.8
	H0.2c0.1-0.1,0.1-0.2,0.2-0.3l0,0C0.4,901.6,0.5,901.7,0.5,901.8L0.5,901.8z M1,900.7L1,900.7c0,0-0.1,0.1-0.2,0.1l0,0
	c-0.3-0.1-0.3-0.3,0-0.4l0,0c0,0,0.1,0,0.1,0.1l0,0C1,900.5,1,900.6,1,900.7L1,900.7L1,900.7z M1.4,899.7L1.4,899.7L1.4,899.7
	c-0.1,0-0.1-0.1-0.1-0.2c0-0.1,0.1-0.2,0.2-0.3l0,0l0,0l0.2,0.2L1.4,899.7z M2,898.6L2,898.6L2,898.6l-0.2-0.1l0.2-0.3l0,0l0,0
	c0.1,0.1,0.2,0.1,0.2,0.2S2.1,898.6,2,898.6L2,898.6z M2.6,897.4L2.6,897.4l-0.3-0.2l0.2-0.2l0,0l0.2,0.2L2.6,897.4z M3,896.6
	L3,896.6c-0.5-1.1,0.3-1.5,1.1-2.7l0,0l0,0C4.3,895.6,3.9,896.2,3,896.6L3,896.6z M15.3,877L15.3,877l-0.2-0.1l0.2-0.3l0,0
	c0.1,0.1,0.2,0.1,0.2,0.2S15.4,877,15.3,877z M17.1,875.1c-0.1,0.1-0.2,0.2-0.4,0.3c-0.1,0.1-0.3,0.2-0.4,0.3
	c-0.2,0.2-0.3,0.3-0.5,0.4l0,0c-0.1-0.1-0.2-0.2-0.2-0.3c0-0.2,0.1-0.4,0.3-0.5l0,0l0,0c0.2-0.4,0.6-1.1,0.9-1c0,0,0.1,0,0.1,0.1
	l0,0c0.1,0.1,0.1,0.1,0.2,0.2C17.2,874.7,17.2,874.9,17.1,875.1L17.1,875.1L17.1,875.1z M19.2,871.9L19.2,871.9l-0.5,0.9l-0.1,0.1
	c-0.2,0.4-0.4,0.7-0.8,1c-0.1,0-0.1,0-0.2,0s-0.1,0-0.2-0.1c-0.7-0.6,0.1-1.1,0.6-1.5l0.6-1l0,0c0.2-0.3,0.4-0.7,0.6-0.7l0,0
	c0.1,0,0.2,0.1,0.3,0.2c0.1,0.1,0.2,0.2,0.2,0.3C19.8,871.4,19.5,871.7,19.2,871.9L19.2,871.9z M22.8,867.2L22.8,867.2l-0.2,0.1
	h-0.1l0,0c0,0.1,0,0.2,0,0.4c-0.1,0.2-0.2,0.3-0.3,0.5c-0.1,0.1-0.2,0.2-0.3,0.3l0,0l0,0c0,0.1-0.1,0.2-0.1,0.3
	c-0.2,0.3-0.4,0.5-0.6,0.4c-0.1,0-0.1-0.1-0.2-0.1l-0.1-0.1c0,0,0-0.1-0.1-0.2c0-0.1,0-0.1,0-0.2c0.1-0.2,0.3-0.4,0.5-0.6l0.5-0.9
	l0.1-0.1c0.3-0.5,0.6-1,1.1-1.4c0.2-0.1,0.4-0.2,0.7-0.2C24,866,23.6,866.9,22.8,867.2L22.8,867.2z M24.6,864.6L24.6,864.6l-0.3,0.2
	l-0.2,0.2H24c-0.2-0.1-0.3-0.3-0.2-0.5c0.1-0.2,0.2-0.3,0.3-0.4l0,0c0.2-0.6,0.6-1,1.1-1.4c0.2-0.1,0.5-0.2,0.7-0.2
	C26.1,863.5,25.5,864.4,24.6,864.6L24.6,864.6z M28.6,860.1L28.6,860.1c-0.2,0.6-0.6,1-1.1,1.4c-0.2,0.1-0.4,0.2-0.6,0.2
	c-0.1,0.2-0.1,0.6-0.5,0.5c-0.1,0-0.1,0-0.2-0.1s-0.2-0.2-0.2-0.3c0.1-0.2,0.2-0.3,0.3-0.5c0.2-0.5,0.5-0.9,0.9-1.2
	c0.1-0.1,0.1-0.2,0.2-0.2c0.2-0.1,0.4-0.2,0.6-0.3l0,0c0.1-0.2,0.2-0.5,0.4-0.5c0.1,0,0.2,0.1,0.3,0.1c0.1,0.1,0.1,0.1,0.1,0.2
	C28.8,859.8,28.7,860,28.6,860.1L28.6,860.1z M38.1,849.7C38.1,849.7,38,849.7,38.1,849.7c-0.1,0-0.2,0.1-0.3,0.1s-0.2,0-0.3,0.1
	s-0.1,0.2-0.1,0.4l0,0c-0.1,0-0.2,0-0.2,0c-0.2,0.1-0.2,0.2-0.2,0.5 M36.9,850.8l-0.9,0.5l0,0c-0.1,0.5-0.4,1-0.8,1.3
	c-0.4,0.4-0.8,0.7-1.2,0.9c0,0.1,0,0.1-0.1,0.2c0,0,0,0.1-0.1,0.1c-0.1,0.1-0.2,0.1-0.3,0.1h-0.1c0,0.3-0.2,0.6-0.6,0.6l0,0
	c0.1,0.4-0.2,0.9-0.6,1.1l-0.5,0.6c-0.3,0.8-0.9,1.4-1.6,1.8c-0.1,0.3-0.2,0.5-0.6,0.5c-0.1,0.2-0.2,0.8-0.6,0.4l-0.1-0.1
	c0-0.1-0.1-0.1-0.1-0.2c0-0.1,0.1-0.3,0.2-0.4c0-0.1,0.1-0.1,0.1-0.2l0.5-0.6c0.2-0.3,0.4-0.6,0.6-0.9c0.3-0.4,0.6-0.7,1.1-0.8
	l0.3-0.3l0.3-0.3l0.6-1.1c0.2-0.2,0.3-0.4,0.5-0.6l0.5-0.6c0.1-0.2,0.2-0.4,0.3-0.6c0.4-0.5,0.8-1,1.4-1.3c0.1-0.1,0.2-0.1,0.4-0.1
	c0,0,0,0,0-0.1l0.1-0.1l0.1-0.1l0.1-0.1H36h0.3h0.2h0.1L36.9,850.8L36.9,850.8L36.9,850.8c-0.2-0.2-0.4-0.3-0.2-0.6
	c0-0.1,0.1-0.1,0.2-0.1c0,0,0.1,0,0.2,0l0,0l0.1,0.1l0,0h0.1l0,0v-0.1l0,0l0,0l0,0c0-0.1,0-0.1,0.1-0.2l0,0c0-0.1,0.1-0.1,0.1-0.2
	c0.1-0.1,0.3-0.2,0.5-0.1v-0.1l0,0l-0.4-0.5h0.1v-0.1h0.2c0.3,0,0.1,0.3,0.2,0.5l0,0v0.1v0.1l0,0l0,0L36.9,850.8z M39.1,846.9
	L39.1,846.9c0.3,0,0.5,0,0.5-0.3c0,0.1,0,0.1-0.1,0.2c0,0,0,0,0.1-0.1c0,0,0,0,0-0.1c0,0.1-0.1,0.2-0.1,0.2
	C39.4,847,39.2,847,39.1,846.9z M40.1,846.4c-0.1,0-0.3,0-0.4,0h0.1h-0.1l0,0l0,0l0,0c0.3,0,0.5,0,0.6-0.3v0.1l0,0l0,0l0,0
	C40.2,846.3,40.1,846.4,40.1,846.4L40.1,846.4z M46,840.7c0,0.1-0.1,0.2-0.1,0.2l-0.1,0.1h-0.1c-0.2,0-0.2-0.2-0.4-0.2l0,0l0,0
	c0.1,0.1,0.1,0.2,0.1,0.3v0.1l0,0v0.1c0,0.1-0.1,0.1-0.2,0.2c-0.1,0-0.3-0.1-0.4-0.2l0,0c0.1,0.1,0.1,0.3,0.1,0.5v0.1l0,0
	c-0.1,0.3-0.3,0.2-0.4,0.1l0,0c0,0.1,0.1,0.2,0,0.3l-0.1,0.1l0,0c0,0,0,0,0,0.1l-0.1,0.1c-0.1,0.1-0.2,0.1-0.3,0.1
	c0,0.1,0,0.2-0.1,0.2c0,0.1-0.1,0.2-0.1,0.2c-0.1,0.1-0.2,0.2-0.3,0.1v0.1c0,0,0,0.1-0.1,0.1l0,0v0.1l-0.1,0.1l-0.1,0.1
	c-0.1,0-0.2,0-0.2,0l0,0c0,0.1,0,0.1-0.1,0.2l0,0l0,0c0,0.1,0,0.1-0.1,0.2l0,0l0,0c0,0.1,0,0.2-0.1,0.3c0,0,0,0-0.1,0.1
	c0,0.1,0,0.1-0.1,0.2c-0.1,0.1-0.2,0.1-0.3,0.1c0,0.1-0.1,0.1-0.1,0.2l0,0c0,0.1-0.1,0.2-0.1,0.2c-0.2,0.2-0.3,0.1-0.4,0.1
	c-0.1-0.1-0.1-0.1-0.2-0.2c0.1,0,0.1,0,0.2,0l0,0c-0.1,0-0.1,0-0.2-0.1l-0.1-0.1v0.1v0.1l0,0c0,0.1,0,0.1,0,0.2v0.1
	c0,0-0.1,0.2-0.2,0.2v0.1c-0.1,0.1-0.2,0.2-0.3,0.1s-0.2-0.2-0.3-0.2c0.1,0,0.3,0,0.4-0.1l0,0l0,0c-0.1,0-0.2-0.1-0.3-0.1
	c0.1,0,0.3,0,0.4-0.1l0,0l0.1-0.1v-0.1l0,0v0.1l0,0l0,0l0,0v-0.1c0-0.1,0-0.1,0-0.2l0,0c0.1,0,0.2,0,0.3-0.1c0,0,0.1,0,0.1-0.1
	c0,0,0-0.1,0.1-0.1l0,0c0-0.1,0-0.2,0-0.2c0,0.1,0,0.1,0.1,0.2c0,0,0,0,0,0.1c0,0,0,0,0,0.1v-0.1h0.1l0,0l-0.1-0.1
	c-0.1-0.1-0.1-0.1-0.2-0.1c0.1,0,0.3,0,0.4-0.1l0.1-0.1l0,0v-0.1h-0.1l0.1-0.1V844l0.6-0.5v-0.1h0.1l0.5-0.6l0.6-0.5l0,0l0,0
	l0.6-0.5v-0.1h0.1l0.2-0.4l0,0l0.1-0.1v0.1l0,0h0.1l0,0l-0.2-0.1l0.1-0.2c0.1,0,0.3,0,0.4-0.1l0,0v-0.1l0,0l0,0l0,0v0.1v-0.1l0,0
	l0,0h0.1l0,0l0,0v-0.1v-0.1c0.2,0,0.3-0.1,0.4-0.2v-0.1l0,0l0,0l0,0c0,0.1,0.1,0.1,0.1,0.2l0,0c0,0,0,0,0,0.1
	C45.9,840.6,45.9,840.7,46,840.7L46,840.7z M46.3,840.2L46.3,840.2L46.3,840.2c0,0.2-0.1,0.2-0.1,0.2c-0.1,0-0.3-0.2-0.4-0.2h0.1
	c0-0.1,0-0.2,0-0.3c0.2,0,0.3,0,0.5-0.2v-0.1C46.3,839.8,46.3,840,46.3,840.2L46.3,840.2z M46.3,839.7L46.3,839.7c0-0.1,0-0.2,0-0.2
	h0.3c0.1,0,0.1,0,0.2-0.1v-0.1v-0.1l0,0v0.1v0.1l0,0l0,0c0,0.1,0,0.2-0.1,0.3C46.6,839.8,46.5,839.8,46.3,839.7L46.3,839.7z
	 M48,838.7L48,838.7L48,838.7c-0.2-0.1-0.4-0.2-0.5-0.3c0,0.1,0,0.2,0,0.3s-0.1,0.2-0.1,0.2c-0.1,0.1-0.1,0.1-0.2,0.1h-0.1l0,0
	c-0.1,0-0.2,0-0.3,0h0.1c0-0.1,0-0.1,0-0.2c0.1,0,0.2,0,0.3,0v-0.1c0-0.1,0-0.1,0.1-0.2c0-0.2,0-0.3,0.2-0.3l0.5,0.3
	C48,838.6,47.9,838.6,48,838.7L48,838.7z M50.8,837L50.8,837c-0.1,0-0.2,0-0.2,0H50.8c-0.2-0.1-0.3,0-0.5,0.1
	c-0.1,0.1-0.2,0.3-0.2,0.4l0,0l0,0l0,0H50c-0.2,0-0.3,0.2-0.3,0.3c0,0,0,0.1,0,0.2l0,0l0,0l0,0h-0.2l0.2,0.1l0,0h-0.6V838h0.1
	c0,0,0,0,0-0.1l0.5,0.2c-0.1-0.1-0.3-0.2-0.2-0.4l0,0l0,0l0.1-0.1l0.1-0.1c0.1-0.1,0.2-0.1,0.3,0c0.1,0,0.2,0.1,0.2,0.2h0.1l0,0l0,0
	l0,0c0,0-0.2-0.3-0.2-0.4l0,0l0,0c0-0.1,0.1-0.1,0.2-0.1C50.4,836.9,50.6,836.9,50.8,837L50.8,837L50.8,837L50.8,837L50.8,837
	L50.8,837L50.8,837L50.8,837z M52,835.3l-0.7,1.2v0.1c-0.1,0-0.2,0-0.3,0l0,0l0,0c-0.1,0.1-0.2,0.2-0.2,0.4l0,0v0.1
	c-0.1-0.2-0.4-0.3-0.1-0.6l0,0l0,0c0.1-0.1,0.1-0.1,0.2-0.1c0.1,0,0.2,0.1,0.3,0.2c-0.1-0.2-0.2-0.4-0.2-0.6c0-0.1,0-0.2,0.1-0.3
	l0,0l0.1-0.1c0.3-0.2,0.7-0.4,1-0.5L52,835.3z M61.8,827L61.8,827c-0.2,0.5-0.6,1.2-1,1.2c-0.1,0-0.1,0-0.2,0
	c-0.1,0-0.2-0.1-0.2-0.2c-0.1-0.1-0.1-0.2-0.2-0.3c-0.2-0.5,0.7-0.9,1.2-1.2c0.3-0.2,0.5-0.5,0.9-0.1l0,0l0,0L61.8,827z M64.6,824.7
	c-0.2,0.6-0.6,1-1.2,1.1c-0.3,0.2-0.6,0.5-0.9,0.1l0,0c0,0,0.3-0.3,0.4-0.5l0,0c0.1-0.6,0.6-0.9,1.1-1.1c0.3-0.2,0.5-0.5,0.8-0.1
	l0,0C65,824.2,64.7,824.5,64.6,824.7L64.6,824.7z M68.4,821.9l-1,0.6c-0.2,0.5-0.6,0.9-1.2,1.1c-0.3,0.3-0.6,0.5-0.9,0.1l0,0
	c0,0,0.2-0.4,0.4-0.6c0.2-0.6,0.6-1,1.1-1.2c0.2-0.4,0.7-0.6,1.1-0.6c0.2-0.1,0.4-0.4,0.5-0.3c0.1,0,0.1,0.1,0.2,0.1
	c0,0.1,0.1,0.1,0.1,0.2C68.7,821.6,68.5,821.7,68.4,821.9L68.4,821.9z M103.9,798.4L103.9,798.4c0.9-1.2,2.3-2,3.8-2.2l0,0l0,0
	C106.9,797.6,105.8,797.9,103.9,798.4L103.9,798.4z M108.5,796.1L108.5,796.1c0,0.1-0.1,0.1-0.2,0.1s-0.1-0.1-0.1-0.1
	c-0.1-0.1,0-0.2,0.1-0.2s0.1,0.1,0.2,0.1l0,0C108.5,795.9,108.5,796,108.5,796.1L108.5,796.1L108.5,796.1z M109.4,795.6
	C109.3,795.6,109.3,795.5,109.4,795.6c-0.2-0.2-0.2-0.3,0-0.3s0.1,0.1,0.2,0.1l0,0l0,0l0,0v0.1l0,0l0,0l0,0l0,0
	C109.6,795.4,109.5,795.6,109.4,795.6L109.4,795.6z M110.8,794.9l-0.2,0.2l-0.2-0.1l0,0l0,0l0.2-0.2L110.8,794.9L110.8,794.9
	L110.8,794.9z M111.7,794.5l-0.2-0.1l0,0l0.2-0.2l0.2,0.2l0,0l0,0L111.7,794.5z M112.8,794l-0.2-0.1l0,0l0.2-0.3l0,0l0.2,0.2
	L112.8,794z M113.3,793.5L113.3,793.5c1.3-1.3,2.3-1.8,3.9-1.7l0,0l0,0C116.1,792.9,114.7,793.5,113.3,793.5L113.3,793.5z
	 M138.7,783.1L138.7,783.1c-0.4,0.4-1,0.7-1.6,0.6l-0.3-0.1l0,0c0.1-1.1,1.1-0.7,1.6-0.9l0,0c0.3-0.2,0.8-0.5,1-0.3l0.1,0.1
	c0,0.1,0.1,0.1,0.1,0.2C139.5,783.1,138.9,782.9,138.7,783.1L138.7,783.1z M140.9,782.4c-0.2,0-0.3-0.1-0.5-0.2l0,0h-0.1
	c0.1-0.1,0.2-0.3,0.3-0.3s0.2,0.2,0.3,0.2l0,0l0,0C140.9,782.2,140.9,782.3,140.9,782.4L140.9,782.4z M142.3,781.8
	c-0.1,0-0.2-0.2-0.3-0.3l0,0l0,0c0.1-0.1,0.1-0.2,0.2-0.2c0.2,0,0.3,0.1,0.5,0.2l0,0l0,0C142.6,781.6,142.4,781.8,142.3,781.8
	L142.3,781.8z M144.2,781.3c-0.2,0-0.3-0.1-0.4-0.2l0,0l0,0c0.1-0.1,0.2-0.2,0.3-0.2s0.2,0.2,0.3,0.2l0,0l0,0
	C144.3,781.1,144.2,781.2,144.2,781.3L144.2,781.3z M145.6,780.7l-0.2-0.3l0,0l0,0c0.1,0,0.3,0,0.4-0.1c0.1,0,0.1,0.1,0.2,0.2l0,0
	l0,0L145.6,780.7z M147.6,779.9l-0.2,0.2l0,0l0,0l0,0h-0.2c-0.1-0.1-0.2-0.1-0.2-0.2s0-0.1,0.2-0.2c0.2,0,0.3,0,0.5,0.1L147.6,779.9
	L147.6,779.9z M149,779.6c-0.1,0-0.2-0.2-0.3-0.3l0,0l0,0c0.1,0,0.1-0.2,0.2-0.1c0.2,0,0.3,0.1,0.4,0.2l0,0l0,0
	C149.2,779.4,149.1,779.5,149,779.6L149,779.6z M151.9,778.7c-0.2,0.4-0.7,0.6-1.1,0.4c-0.1,0-0.2-0.2-0.3-0.3l0,0l0,0l1.2-0.3l0,0
	c0.2-0.4,0.7-0.6,1.1-0.4c0,0,0.1,0,0.1,0.1l0,0l0,0c0,0.1,0.1,0.2,0.1,0.2L151.9,778.7z M154.4,777.9L154.4,777.9L154.4,777.9
	L154.4,777.9c0,0-0.1-0.1-0.2-0.2l0,0c0.1-0.1,0.3-0.1,0.4-0.1c0,0.1,0.1,0.1,0.2,0.2C154.8,777.8,154.6,777.8,154.4,777.9
	L154.4,777.9z M156.8,777.4L156.8,777.4L156.8,777.4c-0.3,0-0.5,0-0.8-0.1l0,0l0,0c0.1-0.2,0.2-0.4,0.3-0.4c0.2,0,0.4,0.1,0.7,0.1
	C157,777.1,156.9,777.3,156.8,777.4L156.8,777.4z M158.7,776.9c-0.1,0-0.3-0.1-0.5-0.2l0,0l0,0c0.1-0.1,0.3-0.3,0.4-0.3
	c0.2,0.1,0.4,0.2,0.6,0.3l0,0l0,0C158.9,776.7,158.8,776.9,158.7,776.9L158.7,776.9z M193.3,770.6v-0.8h6.9l0,0l0,0v0.7l0,0
	L193.3,770.6z"/>
<g>
	<path class="st3" d="M1920.5,657.3c0.1-0.1,0.2-0.3,0.3-0.4V608h-0.3V657.3z"/>
	<path class="st4" d="M1827.6,511.4c-0.1,0.8-0.3,1.7-0.4,2.6c1.8,2.3,4.3,2.5,6.9,2.5c22.1,0.7,44.2,1.4,66.3,2.2l20.1,0.7h0.3
		v-7.3h-0.3c-28.9-1.1-57.9-2.1-86.8-3.2C1831.4,508.8,1829.2,509.7,1827.6,511.4z"/>
	<path class="st4" d="M1830.6,490.9l-0.5,3.4c1.1,2.2,3.4,3.6,5.9,3.4c8.8,0,17.5,0,26.3,0.1l58.2,0.3h0.3v-7.5h-0.3
		c-21.5-0.1-43-0.3-64.5-0.3C1847.5,490.4,1839.1,489.5,1830.6,490.9z"/>
	<path class="st4" d="M1844.7,471.4c-2.1,0.1-4.3,0.3-4.5,3c-0.2,2,0.7,3.8,2.8,4.3c1.3,0.2,2.6,0.3,3.9,0.2
		c24.5-0.8,49.1-1.5,73.6-2h0.3v-7.4h-0.3c-16.8,0.4-33.6,0.8-50.4,1.1C1861.6,470.8,1853.1,471.1,1844.7,471.4z"/>
	<path class="st4" d="M1844.5,534.9c-2.7-0.1-4.6,1.2-4.9,3.8c-0.3,2.8,1.7,3.7,4.1,3.8c1,0,2,0.1,3,0.2c18.8,0.6,37.6,1.1,56.4,1.8
		c5.8,0.2,11.6,0.4,17.3,0.6h0.3v-7.7h-0.3c-12.3-0.3-24.6-0.7-36.8-1C1870.6,536,1857.5,535.4,1844.5,534.9z"/>
	<path class="st4" d="M1861.7,453.8c-2.2,0.1-5,0-5,3.4c0,2.6,1.6,3.8,4.1,4.1c5.5-0.2,10.9-0.3,16.4-0.5l43.3-1.7h0.3v-7.5h-0.3
		l-6.3,0.2C1896.7,452.5,1879.2,453.1,1861.7,453.8z"/>
	<path class="st4" d="M1873,435.4c-2.2,0.2-4,1-4,3.6c0,2.4,1.3,3.7,3.9,4l10.5-0.8c12.4-0.9,24.7-1.7,37.1-2.5h0.3v-7.6h-0.3
		l-19.1,1.3C1891.9,434,1882.5,434.7,1873,435.4z"/>
	<path class="st4" d="M1870.5,558.3c-0.1,2.6,1.1,4.4,4,4.6c0.6,0,1.2,0.1,1.7,0.1c12.9-0.2,25.8-0.3,38.7-0.5l5.5-0.1h0.3v-7.6
		h-0.3c-15.2,0.1-30.3,0.3-45.5,0.5C1872.9,555.3,1870.6,555.5,1870.5,558.3z"/>
	<path class="st4" d="M1887.3,578c-2.8-0.1-5,1-5.3,3.9c-0.3,2.5,1.6,3.5,3.9,3.6l34.5,0.9h0.3V579h-0.3l-10.8-0.3
		C1902.2,578.5,1894.8,578.2,1887.3,578z"/>
	<path class="st4" d="M1895.2,416.1c0.2,3.5,2.7,3.9,5.6,3.6c6.6-0.6,13.1-1.1,19.7-1.7h0.3v-7.6h-0.3c-6.8,0.5-13.6,1.1-20.3,1.7
		C1897.6,412.4,1895,412.8,1895.2,416.1z"/>
	<path class="st4" d="M1904.6,601.5c-2.3,0.2-4.5,0.7-4.5,3.6c0,2.3,1.2,3.7,3.8,4c0.6,0,1.3,0,2,0c4.9-0.4,9.7-0.7,14.6-1h0.3v-7.5
		h-0.3C1915.2,600.9,1909.9,601.2,1904.6,601.5z"/>
	<path class="st4" d="M1913.8,391.4c-0.2,2.1,1.4,4.1,3.5,4.3c0.1,0,0.3,0,0.4,0c0.9,0,1.8,0.1,2.8,0.1h0.3v-7.5h-1.9
		C1916.7,388.2,1913.8,387.9,1913.8,391.4z"/>
</g>
<path class="st5" d="M1913.1,693.8c-41.2,3-82.1,8.5-122.4,17.5c-43.1,9.7-85.1,23.5-125.5,41.3c-22.5,9.9-43.2,23.4-61.5,39.8
	c-2.9,2.5-5.5,5.4-7.8,8.5c-0.5,0.7-1.1,1.5-0.6,2.3c0.6,1.1,1.8,0.7,2.6,0.4c3-1,6-2.2,9.2-3.4c-0.3,1.8-1.7,2.1-2.6,2.7
	c-17.4,11.7-34,24.5-48.6,39.7c-17.6,18.4-32.8,38.4-41.3,62.8c-0.4,1.1-0.7,2.5-2.4,1.8c-1.9-0.8-0.9-2.2-0.5-3.3
	c5.7-18.2,15.4-34.2,27.1-49.1c5.2-6.7,10.8-13.1,16.3-19.7c1.1-1.3,2.1-2.6,3.1-4c0.7-0.9,1.7-2,1.1-3.2c-0.7-1.4-2.1-0.4-3.2-0.5
	c-1.5-0.1-3.2,1.4-4.5-0.8c-0.5-0.9-1.2,0.1-1.7,0.5c-22.8,22.3-41.5,47.3-50.2,78.6c-2.8,10.1-4.4,20.4-4.6,30.8h425.7V693.2h-0.3
	L1913.1,693.8z"/>
<path class="st5" d="M1812.1,699.7c-31.2,5.9-61.9,13.6-91.6,25c-13.5,5.1-26.8,11-39.7,17.4l0,0l0.8,0.7
	c16.4-6.2,32.9-12.4,49.6-17.6c41.6-13,84.2-21.6,127.4-27.2c20.5-2.7,41.2-4.3,61.8-5.7h0.3v-6h-0.3c-9.9,0.8-19.7,1.5-29.6,2.4
	C1864.5,691,1838.2,694.7,1812.1,699.7z"/>
<path class="st6" d="M74.7,176.3c-1.1-0.9-1.7-1.8-0.4-3l-8.3-1.6c-9.5,0.6-19,0.7-28.3,3c-12.7,3.1-25.2,6.6-37.6,10.5v8.5
	c14.6-4.7,29.1-9.8,44.2-12.8c9.5-1.8,19-2.6,28.6-1.3c1.5,0.2,3.1,0.2,4.7,0.3C77.7,177.5,75.8,177.2,74.7,176.3z"/>
<path class="st2" d="M1676.3,16.2c-1.1,1,0.6,2.3,1.3,3.4c13.8,22.8,29,44.7,45.5,65.6c32.4,41.3,68.5,79.3,105.2,116.7
	c29.6,30.1,59.8,59.6,91.6,87.3v-3.6l-10.3-9.7l1.1-1.1l9.3,8.7V0.8h-250.3l0.2,0.4c2,3.7,4,7.4,6.1,11.1
	C1676.6,13.4,1678.4,14.4,1676.3,16.2z M1777.2,141.6c0-0.2-0.1-0.4-0.2-0.6c0,0.1,0.1,0.2,0.2,0.2l0,0c0.5,0.4,1.6,0.2,1.4,1.4v0.2
	h-0.1C1777.5,142.8,1777.3,142.2,1777.2,141.6z M1778.6,142.7l1,0.3h0.1C1779.2,143.3,1778.7,143.4,1778.6,142.7L1778.6,142.7z
	 M1779.7,143L1779.7,143c0.1,0.5,0.3,0.8,0.7,0.9C1779.6,144.1,1779.3,144,1779.7,143L1779.7,143z M1780.5,144.7c0-0.1,0-0.1,0-0.2
	c0-0.1,0-0.3,0-0.4c0.1,0.4,0.3,0.5,0.7,0.5l0,0C1781,144.7,1780.9,145.2,1780.5,144.7L1780.5,144.7z M1780.9,145.4
	c0-0.3,0.1-0.6,0.3-0.9c0,0.1,0,0.2,0.1,0.3c0.1,0.3,0.2,0.6,0.3,0.9v0.3c0,0.2,0,0.4-0.1,0.6c0,0.1-0.1,0.1-0.1,0.2
	C1781.3,146.4,1781,146,1780.9,145.4L1780.9,145.4z M1781.4,147L1781.4,147c0.5-0.2,0.8-0.1,0.8,0.1c0,0.1,0,0.1,0,0.2v0.1
	C1782.1,147.1,1781.8,147,1781.4,147L1781.4,147z M1783,148.5v-0.1l-0.8-0.5h1c0,0.2-0.1,0.4-0.1,0.5h0.1L1783,148.5z M1783.7,148.9
	c0,0.1-0.1,0.2-0.1,0.4l0,0c-0.2-0.3-0.4-0.7-0.6-1l0.2-0.1h0.2c0.8,0.1,0.6,0.7,0.5,1.2l-0.3-0.1h0.2L1783.7,148.9z M1784.2,149.4
	l0.5-0.1v0.5c0-0.1,0-0.1,0-0.1v-0.1L1784.2,149.4z M1784.7,149.9L1784.7,149.9c1.9,0.1,2.8,1.3,3.3,2.9h-0.1
	C1786.5,152.4,1785.3,151.3,1784.7,149.9L1784.7,149.9z M1788.8,153.3L1788.8,153.3c-0.2,0-0.3,0-0.4,0c-0.1,0-0.1-0.1-0.2-0.2
	L1788.8,153.3L1788.8,153.3L1788.8,153.3z M1789.2,154c-0.1-0.2-0.1-0.4,0-0.6h0.1c-0.1,0.3,0.1,0.6,0.4,0.8h-0.1
	C1789.5,154.3,1789.3,154.3,1789.2,154L1789.2,154z M1790.2,155.1c-0.1,0-0.2-0.1-0.3-0.2c-0.2-0.2-0.2-0.4-0.1-0.6
	c0-0.1,0.1-0.1,0.1-0.2h0.1c0,0.2,0.1,0.4,0.2,0.6c0.1,0.1,0.2,0.1,0.3,0.2l-0.1,0.1C1790.3,155.1,1790.3,155.1,1790.2,155.1
	L1790.2,155.1z M1790.7,155.7c-0.3-0.3-0.2-0.4-0.1-0.5s0.1-0.1,0.2-0.2h0.1c0,0.1,0,0.2,0,0.3c0,0.2,0.2,0.3,0.4,0.3l-0.1,0.1
	C1791.1,155.9,1790.9,156,1790.7,155.7L1790.7,155.7z M1791.2,156.2c0-0.2,0.1-0.4,0.2-0.5h0.2c0,0.1,0,0.1,0,0.2
	c0.2,0.8,1.2,1.3,1.3,2.1c0,0.1,0,0.1,0,0.2c0,0.2-0.1,0.4-0.3,0.5h-0.1c0.1-0.9-1.2-1.4-1.3-2.3
	C1791.2,156.4,1791.2,156.3,1791.2,156.2L1791.2,156.2z M1792.6,158.8c0.2-0.2,0.3-0.3,0.6,0.1c0.1,0.2,0.1,0.5,0,0.7h-0.1
	C1793.2,159.2,1793,158.9,1792.6,158.8L1792.6,158.8z M1793.5,159.6c0.1,0,0.1-0.1,0.2-0.1s0.2,0,0.3,0.2c0,0.2,0,0.4,0,0.6h-0.1
	v-0.1C1793.9,160,1793.8,159.7,1793.5,159.6L1793.5,159.6z M1794.2,160.4c0.8-0.3,0.7,0.2,0.6,0.9l0,0v-0.1
	C1794.8,160.8,1794.6,160.5,1794.2,160.4L1794.2,160.4z M1794.9,161.3c0.2-0.2,0.4-0.6,0.8-0.1s0,0.6-0.1,0.8l-0.3-0.3L1794.9,161.3
	z M1796.5,161.7c0,0.3,0.1,0.6,0.2,0.9l-1.1-0.6L1796.5,161.7z M1796.8,162.8c1.4,0.6,2.6,1.7,3.3,3
	C1798.9,164.9,1797.5,164.2,1796.8,162.8L1796.8,162.8z M1800.9,167.4L1800.9,167.4c-0.1-0.1-0.1-0.3-0.2-0.4
	c-0.1-0.3-0.2-0.7-0.3-1c0.8,0.5,1.4,1.2,1.8,2C1801.7,168.2,1801.2,167.9,1800.9,167.4L1800.9,167.4z M1802.4,168L1802.4,168z
	 M1802.8,168.9c-0.2-0.2-0.3-0.4-0.3-0.7l0.9,0.4v-0.1c-0.1,0.1-0.1,0.4-0.3,0.4S1803.1,169.1,1802.8,168.9L1802.8,168.9z
	 M1803.4,169.5c-0.1-0.1-0.1-0.1-0.1-0.2c-0.1-0.1,0.1-0.5,0.2-0.8l0,0v0.1l0.8,0.6c-0.1,0.2-0.3,0.3-0.5,0.4
	C1803.7,169.7,1803.6,169.6,1803.4,169.5L1803.4,169.5z M1805,171.2l-0.5-0.4l0.8-0.6c-0.3,0.2-0.6,0.4-0.9,0.2l-0.2-0.1
	c-0.1-0.1-0.1-0.1-0.1-0.2c-0.1-0.2,0.1-0.6,0.2-0.9c0.1,0.5,0.3,1.1,1,0.9L1805,171.2z M1828.5,195.4c-0.2,0-0.3,0-0.5,0l-0.1-0.1
	c-0.2-0.3,0-0.4,0.2-0.6c-0.2,0.1-0.3,0.2-0.5,0.2c-0.1,0-0.1,0-0.2,0c-0.2-0.1-0.3-0.2-0.3-0.4s0.1-0.4,0.2-0.6l0,0l0.1-0.1
	l-0.1,0.1l0.7,0.7l0.5,0.7L1828.5,195.4z M1906.5,273.1l-33.3-32.4c-0.2-0.1-0.4-0.3-0.5-0.5l-0.8-0.8l-0.8-0.8l-0.8-0.8l-0.8-0.8
	c-0.2-0.3-0.6-0.4-0.8-0.7c-0.1-0.1-0.1-0.2-0.1-0.3c-0.4,0.1-0.6-0.4-0.8-0.8l-0.8-0.8l-0.8-0.8l-0.8-0.8l-0.8-0.8l-0.8-0.8
	l-0.8-0.8l-0.8-0.8l-0.8-0.8l-0.8-0.8l-0.8-0.8c-6.2-5.6-12.1-11.6-17.7-17.9l-0.8-0.8l-0.8-0.8l-0.8-0.8l-0.8-0.8l-0.8-0.8
	l-0.8-0.8l-0.8-0.8l-0.8-0.8l-0.8-0.8l-0.8-0.8c-0.2,0-0.8-0.1-0.3-0.7c0-0.1,0.1-0.1,0.2-0.1c0,0,0.1,0,0.2,0h0.1
	c0.2,0.1,0.4,0.5,0.6,0.6l0.8,0.8l0.8,0.8l0.8,0.8l0.8,0.8l0.7,0.8l0.8,0.8l0.8,0.8l0.8,0.8l0.8,0.8l0.4,0.4l0.4,0.4l15.6,15.4
	l2.2,2.2l0.8,0.8l0.8,0.8l0.8,0.8l0.8,0.8l0.8,0.8l0.8,0.8l0.8,0.8l0.8,0.8l0.8,0.8l0.8,0.8c0.2,0.2,0.5,0.4,0.5,0.6
	c0.4-0.1,0.6,0.4,0.9,0.8l0.8,0.8l0.8,0.8l0.8,0.8l0.8,0.8l0.8,0.8l33.6,31.7L1906.5,273.1z"/>
<path class="st6" d="M25.2,601.6c11-8,22.2-15.6,31.8-25.1c8.7-8.5,14.7-18.7,19.9-29.7c10.2-21.7,3.6-41.9-3.7-62.2
	c-5.6-15.6-13.3-30.3-18.4-46.1l-0.3-0.9l-1.2,7.8l-0.5-0.1c0.5-2.8,1.1-5.5,1.6-8.1c-3.3-10.6-5.3-21.3-3.5-32.6
	c3.4-19.7,18.6-35.3,38.3-39.1c7.9-1.5,16-2.2,23.8-4.2c23.3-6.1,36.9-21.9,44-44c3.5-10.7,4.3-22.1,2.4-33.3
	c-0.2-1.6-0.7-3.2-1.3-4.7c2.2,16.5,0.1,32.3-7.8,47.1c-0.2-2.6,1.3-4.6,2.1-7c7.5-21.1,6.7-41.5-4.7-61.2
	c-11.7-20.1-27.6-36.3-45.5-50.7c-1.4-1.3-3.1-2.2-4.9-2.6c-0.2,2,1.4,3.1,2,4.6l0.9,1.5c0.5,0.4,0.7,1,0.2,1.3s-0.6-0.6-0.9-0.9
	l-1-1.2c-1.4-1.2-2.8-2.6-4-4c-16-21.5-37-27.4-62.4-20.7c-10.7,2.9-21.3,6.1-32,9.3V625C7.2,615.9,15.8,608.5,25.2,601.6z
	 M90.9,360.6c7.9-1.5,16-2.1,23.7-4.3c1.1-0.3,2.2-0.7,3.3-1.1c3.2-1.3,6.4-2.7,9.4-4.4c5.7-3.6,10.7-8.2,14.9-13.5
	c1.4-1.7,2.7-3.6,4-5.5c0.6-1,1.1-2.3,2.7-2.1l0.1-0.1c0-0.1,0-0.3-0.1-0.4l0.3,0.1l-0.2,0.3v0.1c-4.8,7.7-10.2,14.8-17.8,19.7
	c-1.1,0.7-2.2,1.4-3.4,2c-6.6,4.8-14.3,6.7-22.1,8.1c-7.5,1.4-15.1,1.9-22.6,3.6C85.5,361.3,88.3,361.1,90.9,360.6L90.9,360.6z
	 M81.5,363.2l0.2,0.3c-0.1,0.1-0.2,0.2-0.3,0.2s-0.1-0.2-0.2-0.3L81.5,363.2z M79.8,363.7L80,364c-0.1,0.1-0.3,0.2-0.3,0.2
	s-0.1-0.2-0.2-0.3L79.8,363.7z M62.9,374.3L62.9,374.3c0.2-0.2,0.3-0.7,0.8-0.3c0.1,0.1,0.1,0.2,0,0.4l-0.1,0.1
	C63.4,374.7,63.2,374.7,62.9,374.3c0.1,0.9-0.4,1.5-1.6,2l-0.6,0.2L62.9,374.3L62.9,374.3z M59.7,377.4l0.5,0.4l-1.7,2.1l-0.5-0.3
	L59.7,377.4z M56.6,381.1l0.7,0.4l-2.5,3.4l-0.4-0.3L56.6,381.1z M53.6,386.7l-4,8.4C50.4,392,51.4,389,53.6,386.7L53.6,386.7z
	 M48.1,400.3L48.1,400.3l-1.6,10.8L46,411C46.7,407.3,47.5,403.6,48.1,400.3z"/>
</svg>
