<svg xmlns="http://www.w3.org/2000/svg" viewBox="0 0 1131.6 2438"><title>654</title><path d="M85.58,159.17c22.3-57,17.7-111.4-16.23-160.17H-2V318.08c9.1-13.74,18-27.61,26.47-41.72C47.13,238.62,69.61,200,85.58,159.17Z" transform="translate(4.6 1)" fill="#f2f1f1"/><path d="M38.62,482.59C63.2,428,100.15,381.68,133.93,333.07c25-36,50-72.57,69.73-111.55,13.5-26.66,23.6-57.62,25-87.14,1.54-33-5.83-67.16-14-99.63A266.8,266.8,0,0,0,202.84-1H128.16c21.53,40.15,27.05,83.27,19.09,129.8-9.5,55.52-33.41,104.18-63.61,150.59C55,323.37,26.17,367.19-2,411.45V632.93c.56-5.06,1.2-10.11,2-15.18C7,571.18,19.12,525.9,38.62,482.59Z" transform="translate(4.6 1)" fill="#f2f1f1"/><path d="M10.49,834.31C5.69,801.88.86,769.5-2,737v378.79A786.78,786.78,0,0,0,19.19,954.24C20.32,914.34,16.36,873.89,10.49,834.31Z" transform="translate(4.6 1)" fill="#f2f1f1"/><path d="M333.75,2248c149.35,132.87,321.5,174.37,515.06,125,47.5-12.1,92.41-32.56,139.08-47.51,41.81-13.38,84.26-23.12,128.49-22.18,3.57.07,7.11.21,10.62.4V-1h-36.52c-.25,3.42-2.32,5.9-5.88,6-4.18.11-5.41-3.4-6-6h-38.71c-.37,3.79-2.42,6.23-6.78,6.08a6.19,6.19,0,0,1-5-6.08H989.3c-.18,3.61-2.28,6.22-6,6.19S977.85,2.46,977.54-1H937.92c-.16,3.89-2.71,5.93-6.67,6.47-4-.16-6.74-2.32-7.08-6.2a2.44,2.44,0,0,1,0-.27H887.45c0,.23,0,.46-.08.69-.66,3.91-3.48,6-7.64,5.91C876,4.77,873.5,2.71,873.35-1h-36.6c-.24,5-3.72,7.37-8.36,6.55A6.78,6.78,0,0,1,822.67-1H786.24a8.93,8.93,0,0,1-.08,1.25c-.51,3.82-3.67,5.94-7.72,5.52s-5.62-3.52-6.47-6c0-.27.09-.52.14-.77H732.78c.08,3.14-1.26,5.85-4.9,6.61-4.5.95-6.2-2.13-7-5.95,0-.22,0-.44,0-.66H258.4a323.51,323.51,0,0,1,18.65,78.68c3.51,32.3,7.11,64.48-1.27,96.17-6,22.89-12,46.74-23.46,67.06-24.31,43-51.87,84.26-78.73,125.82-25.52,39.48-52.41,78.07-77.66,117.72C66.36,530.9,52.26,583.13,45.47,637c-6.42,50.91-2.29,102,5.66,152.61,11.43,72.7,19.78,145.77,11.42,219.12-8,69.81-20.65,138.75-47,204.91Q7.49,1233.92-2,1253.08v798.33c84.89,11,161.39,42.15,228.23,96.09C264.5,2178.38,297.11,2215.41,333.75,2248ZM929.68,92.82c5.09.13,7.31,2.85,7.67,6.5.38,3.88-1.93,6.81-6,7s-6.5-2.38-6.88-6.29C924.07,95.84,927,94,929.68,92.82Zm7.85,58c-.24,3.78-2.64,6.28-6.83,6.31-3.71-1.06-6.39-3.16-6-7.28.35-3.92,2.8-6.51,6.87-6.17S937.77,147,937.53,150.77Zm.38,49.32c-.09,3.9-1.76,6.84-5.95,7.39-3.57.47-5.63-2.13-6.42-5a6.39,6.39,0,0,1,4.73-8.3C934.47,193.11,936.62,196.3,937.91,200.09Zm-5.5,415.83c-4,.11-6.64-2.19-6.94-6.26s2.36-6.28,6.13-7.23c4.11-.22,7,1.84,7.72,5.61C940.24,613,937.25,615.79,932.41,615.92Zm58.36-6.46c-.22,4-2.24,6.55-6.67,6.51-4.19-1.06-5.48-4.2-5.05-8,.35-3.15,2.36-5.71,5.69-5.58C988.87,602.53,991,605.39,990.77,609.46Zm43.67-61.1c4.59-.94,6.07,2.78,6.71,6.51.76,4.48,0,8.36-4.77,10.22-4.83.21-6.28-3-6.87-6.74C1028.82,554,1029.18,549.45,1034.44,548.36Zm-5.31-43.71c.8-4.88,2.54-7.72,7-7,3.41.51,4.84,3.12,5,6.28.17,4.08-2,7.11-6,7.15C1030.81,511.07,1029.69,507.39,1029.13,504.65Zm7.39,111c-4.47.94-6.19-2.1-7-5.92,0-4,1.39-7.12,5.69-7.45,3.34-.25,5.54,2.13,6,5.23C1041.89,611.24,1040.73,614.74,1036.52,615.63Zm49.38-168.88c3.3,0,5.33,2.5,5.67,5.68.42,3.89-1.12,7.19-5.28,7.81-4.63.69-5.57-3.1-6.59-5.42C1079.9,449.7,1081.59,446.71,1085.9,446.75Zm-6.19-44c.21-4,2-6.7,6.48-6.58,4.22,1,5.84,4,5.22,7.85s-2.93,6.56-7.31,5.46C1080.87,408.63,1079.54,405.9,1079.71,402.72Zm12,100.28c.43,3.89-1.1,7.25-5.28,7.81-4.48.59-6-2.67-6.53-6.53.14-4,1.68-7.06,6.1-7C1089.28,497.4,1091.33,499.82,1091.68,503Zm-5.39,45.13c4.48.12,5.4,4.31,5.63,8,.27,4.49-.91,9-6.37,8.81-4.3-.14-5.19-4.32-5.72-8C1079.78,552.29,1080.77,548,1086.29,548.13Zm-.33,67.59c-4.31,0-5.42-3.65-6-6.39.79-4.88,2.53-7.72,7-7,3.4.51,4.83,3.12,5,6.28C1092.13,612.65,1090,615.68,1086,615.72Zm7.81-262.19a7.23,7.23,0,0,1-7.84,5.88c-4.47-.28-8.49-2.59-8.16-7.48.32-4.73,4.25-6.66,9.16-6.65C1091.36,346.08,1094.7,348.56,1093.77,353.53Zm-2.68-102.1c-.22,4-2.23,6.57-6.67,6.51-4.2-1.07-5.45-4.23-5.05-8,.33-3.17,2.26-5.73,5.66-5.56C1089.15,244.54,1091.32,247.35,1091.09,251.43Zm-4.63,56.86c-4.53,1.09-6-2.3-7.13-5,0-4.72,1.14-8,5.57-8.33,3.38-.28,5.59,2,6.18,5.1C1091.8,303.85,1090.63,307.28,1086.46,308.29ZM1091,201c-.29,4-2.35,6.51-6.81,6.36-4.17-1.13-5.37-4.34-4.91-8.11.39-3.13,2.5-5.69,5.8-5.49C1089.16,194,1091.27,196.91,1091,201Zm-.13-50.5c-.38,3.9-2.49,6.69-6.83,6.14-3.42-.43-4.75-3.19-4.92-6.33-.22-4.1,1.93-6.49,5.52-7.32C1089.15,143.83,1091.24,146.41,1090.85,150.48Zm-7.38-108.33c4.34-.67,6.67,1.83,7.13,5.83s-1.5,6.74-5.59,7.7c-4.27-.42-6.24-3-6.21-7.07C1078.82,45.51,1079.94,42.69,1083.47,42.15Zm1.73,50.17c4-.34,7.25,1.91,8,5.63,1,5.07-2.91,7.07-5.83,8.49-5.9.13-9.67-2.08-10.19-6.61C1076.61,94.78,1080.75,92.69,1085.2,92.32Zm-42.53,362.6a7.41,7.41,0,0,1-8,5.75c-4.38-.37-8-2.28-8.26-7.38,1.1-5,4.3-7.19,9-6.59S1043.55,450.14,1042.67,454.92Zm-6.38-45c-5,1.1-7.65-2.06-9.33-6.39.25-4.22,2.85-6.53,6.63-7.31,5-1,8.35,1.84,9.09,6.37C1043.36,406.7,1039.94,409.12,1036.29,409.92Zm4.32-107.55c-.37,3.9-2.48,6.7-6.83,6.14-3.43-.44-4.74-3.22-4.91-6.35-.23-4.08,1.75-6.59,5.47-7.3C1038.87,295.72,1041,298.28,1040.61,302.37Zm.12,49.29c.46,4-1.49,6.73-5.56,7.7-4.31-.39-6.19-3.05-6.17-7.06,0-3.09,1.07-5.94,4.62-6.47C1038,345.17,1040.27,347.68,1040.73,351.66ZM1035.21,258c-4.46.59-6-2.63-6.54-6.51.15-4,1.84-7,6.16-7,3.3,0,5.32,2.5,5.66,5.67C1040.91,254.06,1039.38,257.41,1035.21,258Zm5.17-56.87c-.29,4-2.34,6.51-6.81,6.36-4.17-1.13-5.37-4.34-4.9-8.1.39-3.14,2.5-5.7,5.8-5.5C1038.57,194.11,1040.68,197,1040.38,201.1Zm-5.82-94.71c-4.31-.39-6.19-3-6.16-7.06,0-3.09,1.07-5.94,4.62-6.47,4.33-.66,6.65,1.85,7.11,5.83S1038.63,105.42,1034.56,106.39Zm.22-64.2c3.37.42,5,2.9,5.24,6.09.26,4-1.72,7.25-5.78,7.39s-6-3.09-6.06-7C1028.66,44.62,1030.18,41.61,1034.78,42.19Zm-1.46,101c5-.73,8.32,2.08,8.74,6.76.36,4-3,6.48-6.72,7.08-5,.79-7.6-2.34-9-6.71A7.69,7.69,0,0,1,1033.32,143.19Zm-47.88,421.9c-5.71.48-6.11-4.46-6.88-8.58.39-3.7,1-7.72,5.47-8.09,5.89-.5,6.44,4.42,6.73,8.55C991,560.73,989.71,564.72,985.44,565.09Zm-.93-54c-4.17,0-5.81-3.36-5.82-7.37.58-3.95,2.28-6.78,6.84-6.05,3.4.54,4.86,3.12,5,6.29C990.69,508.08,988.55,511.16,984.51,511.13Zm1-50.78c-4.48.95-6.2-2.1-7-5.92,0-4,1.39-7.12,5.69-7.45,3.35-.25,5.54,2.14,6,5.23C990.92,456,989.77,459.46,985.56,460.35Zm-.29-50.42c-4.56.27-6.38-2.45-6.74-6.37-.29-3.13.79-6,4.08-6.89,4.32-1.22,6.88,1.35,7.59,5.16S989.37,408.76,985.27,409.93Zm-1.12-50.58c-4.17,0-5.81-3.36-5.82-7.37.58-4,2.28-6.78,6.83-6.05,3.41.54,4.87,3.11,5,6.28C990.32,356.3,988.18,359.38,984.15,359.35Zm.88-50.61c-4.56.26-6.38-2.45-6.74-6.37-.29-3.13.79-6,4.08-6.89,4.33-1.22,6.88,1.36,7.59,5.16S989.13,307.57,985,308.74Zm.14-50.81c-4.54,1.11-6-2.27-7.07-5-.05-4.73,1-8,5.51-8.36,3.38-.26,5.57,2,6.16,5.11C990.49,253.49,989.32,256.92,985.17,257.93Zm-.67-50.42c-4.63.69-5.57-3.1-6.59-5.42.2-5.12,1.89-8.1,6.2-8.07,3.3,0,5.33,2.5,5.67,5.68C990.2,203.59,988.66,206.89,984.5,207.51Zm.43-50.77c-4.51,1.08-6.23-2-7.08-5.79-.05-3.91,1.06-7.2,5.52-7.54,3.37-.27,5.57,2,6.16,5.11C990.24,152.31,989.08,155.75,984.93,156.74Zm-1.08-50.11c-4.62-1-6.33-3.78-6.06-7.77.22-3.17,1.71-5.8,5.2-6,4.35-.24,6.37,2.55,6.56,6.53S987.31,105.74,983.85,106.63Zm.46-64.3c3.39.49,5,3,5.12,6.2.23,4.08-1.9,7.19-5.9,7.3-4.29.12-5.47-3.59-6.07-6.2C978.13,44.6,979.73,41.68,984.31,42.33ZM933.2,565.5c-5.9-.81-8.31-4-8.24-8.7s2.18-8.45,7.36-8.39,7.26,3.8,7.43,8.43C939.94,561.78,936.79,564.25,933.2,565.5ZM932.2,410c-4.2.39-5.76-2.9-7.08-5.2.12-5.07,2.09-7.76,6.1-8.14,4.22-.4,6.45,2.65,6.87,6.24C938.54,406.73,936.21,409.61,932.2,410Zm6.13,44.68a6,6,0,0,1-5.68,5.84c-4.4.28-6.14-2.75-6.87-6.62.74-3.77,2.17-7.16,6.7-6.71C936.65,447.57,938.65,450.74,938.33,454.65ZM932,359.3c-4,.22-6.55-2.35-6.93-6.24-.39-4.09,2.1-6.36,6.06-7.23,4.18.06,6.41,2.77,6.8,6.42C938.35,356.12,936.06,359.07,932,359.3Zm.29,152c-4.15.18-6.37-2.52-7.25-6.47-.13-4.18,2-6.78,6.05-7.28s7.27,1.47,8,5.42C939.92,507.85,937.37,511.12,932.3,511.34ZM933,309.08c-5.21-.05-7.76-2.32-8.34-6.26-.61-4.12,1.61-7.08,5.65-7.56,4.76-.56,8.16,1.78,8.35,6.91C938.84,306.45,935.68,308.12,933,309.08Zm5.41-56.54c-.42,3.83-3.37,6.15-7.39,5.78s-6.16-2.87-6.51-6.85c.5-4.06,2.69-6.6,6.73-6.68C936.28,244.69,939,247.77,938.44,252.54ZM930.16,42.18c4.12-.14,7.18,1.84,7.81,5.73.79,4.92-1.94,8-7,8.08-4.1,0-6.55-2.56-6.92-6.58C923.66,45.15,926.11,42.9,930.16,42.18ZM882,616.19c-4-.32-6.75-2.16-7-6.3s2.22-6.77,6.05-7.19c4.83-.52,7.93,2.21,7.91,7.11C888.87,613.94,885.85,615.76,882,616.19Zm-.07-54.32c-4,.18-6.48-2.06-7.25-6.07,0-4.12,2.19-6.84,6-7.3,4.79-.57,8,2,8,7C888.72,559.61,885.78,561.7,881.9,561.87Zm-1.18-50.49c-3.91-.38-6.14-3.2-6.3-7.19.53-4.32,2.89-6.58,7.07-6.49s6.86,2.26,7,6.39C888.77,509.23,885.56,511.85,880.72,511.38Zm-5.78-56.86c1.28-4.65,2.83-7.85,7.17-7.33,3.88.47,6.26,3.16,6.07,7.07s-2.76,6.36-6.78,6.19C877.19,460.28,876.13,456.82,874.94,454.52Zm6.72-44.19c-4-.07-6.83-2.16-7.14-6.14-.39-5,2.58-7.73,7.5-7.53,4.09.18,6.37,2.94,6.39,6.95C888.43,407.81,885.71,409.79,881.66,410.33Zm-6.45-58.12c.42-3.66,2.52-6.7,6.76-6.18a6.44,6.44,0,0,1,6,7.11c-.22,3.94-2.82,6.07-6.74,6.28C877.33,358.49,874.75,356.24,875.21,352.21ZM881,309.09c-4.08,0-6.31-2.69-7-6.76,0-4.12,2.14-6.63,6.28-7s7.14,1.84,7.76,5.7C888.78,306,886,309.07,881,309.09Zm6.95-56.62c-.35,4-3.25,6.08-7.35,6.11-4-.72-6.54-3-6.64-7.06s2.35-6.69,6.48-6.76C885.4,244.66,888.35,247.54,887.93,252.47Zm-7.24-58.27c4.1-.27,6.43,2.53,6.91,6.23.54,4.09-2.16,6.21-6,7.18-4-.21-6.58-2.4-6.8-6.3S876.58,194.47,880.69,194.2Zm-.15-36.94c-4-.07-6.51-2.56-6.7-6.61-.2-4.22,2.71-6.06,5.45-7.06,5-.08,7.83,2.08,8.38,5.93C888.37,154.51,885.5,157.33,880.54,157.26Zm-6.41-57.94c.86-4.16,3.06-6.82,7.38-6.22A6.24,6.24,0,0,1,887,99.29c.18,4.1-2.1,7.06-6.31,7.06S874.64,103.12,874.13,99.32Zm7.23-56.75c3.9.34,6.31,3.08,6.13,7.15s-2.77,6.16-6.89,6.49c-3.91-.36-6.72-2.42-6.92-6.42C873.41,44.77,876.56,42.15,881.36,42.57ZM779.74,447.38c4.12.1,6.33,2.82,6.68,6.47.38,3.87-1.92,6.79-6,7s-6.5-2.38-6.85-6.28C773.24,450.48,775.71,448.21,779.74,447.38Zm-6-44.81c1.14-3.91,3.55-6.56,7.75-5.58a6.36,6.36,0,0,1,5,6.62c-.2,4-2.43,7-6.73,6.59C775.58,409.79,773.92,406.54,773.71,402.57Zm6-42.64c-4-.22-6.25-2.67-6.68-6.77.33-4,2.48-6.62,6.51-6.8,5-.22,7.8,2.73,7.39,7.57C786.59,357.81,783.76,360.17,779.7,359.93Zm57.7,199.69a6,6,0,0,1-5.72,5.81c-4.47.33-5.73-3.19-7.14-5.53.83-4.93,2.43-8.13,6.92-7.72C835.65,552.57,837.68,555.7,837.4,559.62Zm.54-54.06c-.34,3.95-3.24,6.07-7.33,6.11-4-.7-6.51-3-6.61-7.06s2.3-6.69,6.44-6.76C835.42,497.76,838.36,500.63,837.94,505.56Zm-7.09-44.79c-4,.1-6.64-2.19-6.93-6.27s2.35-6.28,6.12-7.23c4.11-.22,7,1.84,7.72,5.61C838.68,457.87,835.69,460.64,830.85,460.77Zm6.86-56c-.52,3.78-3.77,5.91-7.73,5.43s-6.24-2.84-6.3-6.93c.69-4.05,2.94-6.55,7-6.49C835.71,396.85,838.35,400.09,837.71,404.76Zm-13.15-52c.35-3.92,2.36-7.09,6.79-6.62,4.11.44,6,3.43,6.16,7.47-1.26,3.91-3.74,6.58-7.88,5.68A6.09,6.09,0,0,1,824.56,352.74Zm6.05-43.53c-4.17.18-6.33-2.6-7.3-6.57-.23-4.18,2.07-6.63,6.07-7.16s7.26,1.62,8,5.43C838.31,305.75,835.67,309,830.61,309.21Zm-.12-50.62c-4.16.2-6.36-2.51-7.24-6.45-.12-4.18,2-6.78,6.06-7.28s7.27,1.47,8,5.41C838.14,255.13,835.54,258.35,830.49,258.59Zm6.8-56.27c-.47,3.81-3.66,5.71-7.69,5.59-3.79-.85-6.55-2.79-6.23-7,.29-4,2.82-6.44,6.81-6.45C835.21,194.4,837.86,197.65,837.29,202.32Zm-.13-50.38c-.57,3.73-3.91,5.87-7.87,5.3s-6.21-3-6.14-7.14c.74-4,3-6.42,7.11-6.28C835.29,144,837.86,147.35,837.16,151.94ZM823.71,99.85c.8-3.85,2.44-7.15,6.95-6.65,4.1.46,6.43,3.41,6.06,7.48a6.19,6.19,0,0,1-5.94,5.74C826.5,106.67,824.35,103.92,823.71,99.85Zm6.1-57.45c4.2.39,6.87,2.42,7.08,6.62s-2.29,6.87-6.25,7.16c-5,.38-7.86-2.71-7.83-7.55C822.84,44.39,825.86,42.55,829.81,42.4ZM781.43,565.49c-5,.68-7.62-2.81-8.15-7.52s1.64-8,6.52-9.39c4.87.2,7.54,3,8.08,7.74S786.17,564.84,781.43,565.49Zm6-59.64c-.53,3.93-3.32,6-7.38,5.86-4-.67-6.74-2.7-6.56-6.89.21-5.09,3.63-7.43,8.3-6.67A6.57,6.57,0,0,1,787.46,505.85Zm-8.4-196.59c-3.9-.37-6.17-3.21-6.3-7.23.53-4.33,2.92-6.56,7.11-6.47s6.86,2.37,7.08,6.45C787.24,307.24,783.82,309.7,779.06,309.26Zm1.2-50.5c-4.15.31-6.43-2.14-7.46-6-.19-4.15,1.94-7,5.78-7.58,4.8-.73,8,1.87,8.22,6.84C787,256.2,784.22,258.46,780.26,258.76Zm6.42-56.22c-.49,3.89-3.79,5.86-7.74,5.38s-6.28-2.8-6.34-6.92c.7-4.06,3-6.55,7-6.48C784.67,194.6,787.26,197.87,786.68,202.54Zm-13.56-52.12c.6-4.1,2.61-6.83,7-6.47,3.4.27,5.37,2.92,5.68,6,.41,4-1.75,7.12-6,7.36C775.46,157.51,773.72,154.31,773.12,150.42Zm5.18-43.53c-3.81-.56-6-3.46-6-7.62.72-4.1,3.1-6.36,7.3-6.06,4,.28,6.76,2.64,6.8,6.71C786.45,105.05,783.1,107.6,778.3,106.89Zm.88-64.28c4.05.11,6.84,2.36,7.06,6.41.28,5.15-3,7.67-7.81,7.28-4.08-.33-5.61-3.66-6.42-6.13C772.67,44.79,775,42.5,779.18,42.61Zm-50.65,469.1c-4.55.56-5.55-3.2-6.49-5.6.3-5.06,1.79-8.14,6.28-7.91,3.32.16,5.28,2.56,5.6,5.77C734.32,507.92,732.68,511.19,728.53,511.71Zm.09-50.39c-4.67-.41-6.58-3-6.55-7.05,0-3.12,1.21-5.9,4.67-6.48,4.36-.73,6.6,1.86,7.07,5.81S732.11,460.17,728.62,461.32ZM728,410.8c-4.63-1-6.33-3.77-6.06-7.76.21-3.17,1.69-5.8,5.2-6,4.35-.24,6.36,2.54,6.55,6.53S731.45,409.92,728,410.8Zm.17-50.89c-4.37.47-6-2.76-6.43-6.66.24-4,1.73-7.06,6.22-6.84,3.31.17,5.27,2.57,5.6,5.78C734,356.14,732.31,359.46,728.17,359.91Zm-.62-50.5c-4.29.12-5.47-3.59-6.07-6.2.67-5,2.28-7.94,6.85-7.29,3.39.48,4.95,3,5.12,6.19C733.68,306.19,731.56,309.31,727.55,309.41Zm5.72-56.36c-.6,3.79-2.93,6.57-7.31,5.46-3.24-.83-4.54-3.58-4.39-6.76.19-4,1.83-6.78,6.44-6.54C732.23,246.16,733.89,249.18,733.27,253.05Zm-.07-51.12c-.38,3.9-2.49,6.69-6.83,6.14-3.42-.43-4.75-3.2-4.92-6.33-.21-4.09,1.73-6.65,5.94-7.24C731.5,195.28,733.59,197.86,733.2,201.93Zm-5-44.54c-4.49,1-6.19-2.13-7-5.95,0-3.94,1.22-7.17,5.65-7.43,3.34-.2,5.56,2.12,6.07,5.23C733.61,153,732.46,156.51,728.24,157.39ZM728,107c-4.55.26-6.38-2.45-6.74-6.37-.29-3.13.79-6,4.08-6.89,4.33-1.22,6.88,1.36,7.59,5.16S732.06,105.8,728,107Zm-.23-64c3.39.48,4.94,3,5.12,6.19.22,4.08-1.9,7.2-5.9,7.3-4.29.12-5.47-3.59-6.07-6.2C721.54,45.21,723.15,42.3,727.73,43ZM684.86,455c-.64,4.58-4.09,7.8-8.88,6.26-2.91-.94-5.11-4.13-7.16-5.91,2-5.82,5-8.45,9.8-7.7C682.54,448.23,685.42,451,684.86,455Zm-6.64-95.1c-4.48,1.07-6.22-2-7.06-5.76-.06-3.94,1.23-7.14,5.55-7.55,3.37-.33,5.53,2,6.08,5.1C683.46,355.41,682.39,358.87,678.22,359.86Zm4.88,43.06c.38,3.95-1.26,7.21-5.39,7.73-4.54.56-5.57-3.17-6.51-5.57.32-5.07,1.95-8.08,6.33-7.93C680.84,397.27,682.78,399.72,683.1,402.92Zm-5.55-93.51c-4.47.59-6-2.67-6.53-6.54.14-4,1.69-7.05,6.11-6.95,3.3.08,5.35,2.49,5.7,5.68C683.26,305.49,681.73,308.85,677.55,309.41Zm-.4-50.38c-4.3-.4-6.19-3-6.16-7.07,0-3.08,1.07-5.93,4.62-6.47,4.33-.65,6.65,1.85,7.11,5.84S681.23,258.06,677.15,259Zm7.34-108.54c.41,3.87-1.87,6.81-5.92,7s-6.52-2.36-6.9-6.24c-.39-4.08,2.07-6.36,6.07-7.22C681.89,144.13,684.11,146.85,684.49,150.49ZM670.49,49c.22-3.17,1.71-5.8,5.21-6,4.35-.24,6.37,2.55,6.55,6.53s-2,6.55-6.15,7.14C671.93,55.79,670.23,53,670.49,49Zm6.64,44.64c3.37.42,5,2.9,5.24,6.09.26,4-1.71,7.2-5.78,7.4-4.39.23-5.42-3.54-6.2-5.94C671,96.06,672.53,93.06,677.13,93.64Zm-1.69,101c5-.91,8.28,1.87,8.82,6.53.47,4-2.52,6.69-6.38,7.26-4.89.73-7.65-2.24-9.21-6.58C669.07,197.68,671.65,195.35,675.44,194.67ZM627.09,360.22c-4.54.6-6.13-2.68-6.65-6.62.14-4.08,1.73-7.15,6.22-7.06,3.36.07,5.44,2.52,5.8,5.76C632.89,356.25,631.36,359.66,627.09,360.22ZM626,309.72c-3.37,0-5.26-2.67-5.61-5.9-.44-4,1.29-6.84,4.79-7.91,5,.13,7.11,2.72,7.15,6.82S630.29,309.75,626,309.72Zm.22-50.58c-4.2.05-6-3.25-6-7.37.52-4,2.19-7,6.83-6.3,3.46.49,5,3.05,5.2,6.28C632.47,255.9,630.33,259.1,626.25,259.14Zm.2-50.49c-4.38-.38-6.31-3.07-6.28-7.15,0-3.15,1.1-6,4.71-6.57,4.4-.66,6.76,1.85,7.23,5.91S630.61,207.69,626.45,208.65Zm-1.69-64.32c4.4-.66,6.76,1.86,7.23,5.92s-1.5,6.85-5.66,7.8c-4.38-.38-6.31-3.06-6.28-7.15C620.07,147.76,621.15,144.88,624.76,144.33Z" transform="translate(4.6 1)" fill="#f2f1f1"/><path d="M1086.93,345.28c-4.91,0-8.84,1.92-9.16,6.65-.33,4.89,3.69,7.2,8.16,7.48a7.23,7.23,0,0,0,7.84-5.88C1094.7,348.56,1091.36,346.08,1086.93,345.28Z" transform="translate(4.6 1)" fill="#fdd134"/><path d="M677.88,208.46c3.86-.57,6.85-3.28,6.38-7.26-.54-4.66-3.81-7.44-8.82-6.53-3.79.68-6.37,3-6.77,7.21C670.23,206.22,673,209.19,677.88,208.46Z" transform="translate(4.6 1)" fill="#fdd43e"/><path d="M678.62,447.61c-4.84-.75-7.81,1.88-9.8,7.7,2,1.78,4.25,5,7.16,5.91,4.79,1.54,8.24-1.68,8.88-6.26C685.42,451,682.54,448.23,678.62,447.61Z" transform="translate(4.6 1)" fill="#fdd43e"/><path d="M932.32,548.41c-5.18-.06-7.29,3.75-7.36,8.39s2.34,7.89,8.24,8.7c3.59-1.25,6.74-3.72,6.55-8.66C939.58,552.21,937.41,548.46,932.32,548.41Z" transform="translate(4.6 1)" fill="#fdcd21"/><path d="M1033.59,396.22c-3.78.78-6.38,3.09-6.63,7.31,1.68,4.33,4.33,7.49,9.33,6.39,3.65-.8,7.07-3.22,6.39-7.33C1041.94,398.06,1038.63,395.19,1033.59,396.22Z" transform="translate(4.6 1)" fill="#fdd43d"/><path d="M779.8,548.58c-4.88,1.38-7,4.63-6.52,9.39s3.15,8.2,8.15,7.52c4.74-.65,7-4.32,6.45-9.17S784.67,548.78,779.8,548.58Z" transform="translate(4.6 1)" fill="#fdcd21"/><path d="M1035.41,446.7c-4.73-.6-7.93,1.6-9,6.59.3,5.1,3.88,7,8.26,7.38a7.41,7.41,0,0,0,8-5.75C1043.55,450.14,1040,447.28,1035.41,446.7Z" transform="translate(4.6 1)" fill="#fdd133"/><path d="M1035.34,157c3.77-.6,7.08-3.06,6.72-7.08-.42-4.68-3.74-7.49-8.74-6.76a7.69,7.69,0,0,0-7,7.13C1027.74,154.69,1030.33,157.82,1035.34,157Z" transform="translate(4.6 1)" fill="#fdd43d"/><path d="M1087.39,106.44c2.92-1.42,6.88-3.42,5.83-8.49-.77-3.72-4-6-8-5.63-4.45.37-8.59,2.46-8,7.51C1077.72,104.36,1081.49,106.57,1087.39,106.44Z" transform="translate(4.6 1)" fill="#fdd134"/><path d="M1085.55,564.89c5.46.17,6.64-4.32,6.37-8.81-.23-3.64-1.15-7.83-5.63-8-5.52-.15-6.51,4.16-6.46,8.72C1080.36,560.57,1081.25,564.75,1085.55,564.89Z" transform="translate(4.6 1)" fill="#fdd134"/><path d="M1036.38,565.09c4.75-1.86,5.53-5.74,4.77-10.22-.64-3.73-2.12-7.45-6.71-6.51-5.26,1.09-5.62,5.63-4.93,10C1030.1,562.05,1031.55,565.3,1036.38,565.09Z" transform="translate(4.6 1)" fill="#fdd134"/><path d="M984,548.42c-4.49.37-5.08,4.39-5.47,8.09.77,4.12,1.17,9.06,6.88,8.58,4.27-.37,5.59-4.36,5.32-8.12C990.47,552.84,989.92,547.92,984,548.42Z" transform="translate(4.6 1)" fill="#fdd134"/><path d="M829.38,295.48c-4,.53-6.3,3-6.07,7.16,1,4,3.13,6.75,7.3,6.57,5.06-.22,7.7-3.46,6.76-8.3C836.64,297.1,833.42,294.93,829.38,295.48Z" transform="translate(4.6 1)" fill="#fdce25"/><path d="M779.87,295.56c-4.19-.09-6.58,2.14-7.11,6.47.13,4,2.4,6.86,6.3,7.23,4.76.44,8.18-2,7.89-7.25C786.73,297.93,784,295.66,779.87,295.56Z" transform="translate(4.6 1)" fill="#fdce26"/><path d="M779.59,93.21c-4.2-.3-6.58,2-7.3,6.06,0,4.16,2.2,7.06,6,7.62,4.8.71,8.15-1.84,8.09-7C786.35,95.85,783.63,93.49,779.59,93.21Z" transform="translate(4.6 1)" fill="#fdce26"/><path d="M931,56c5.06-.06,7.79-3.16,7-8.08-.63-3.89-3.69-5.87-7.81-5.73-4,.72-6.5,3-6.11,7.23C924.42,53.43,926.87,56,931,56Z" transform="translate(4.6 1)" fill="#fdce25"/><path d="M830.64,56.18c4-.29,6.46-3,6.25-7.16s-2.88-6.23-7.08-6.62c-3.95.15-7,2-7,6.23C822.78,53.47,825.65,56.56,830.64,56.18Z" transform="translate(4.6 1)" fill="#fdce25"/><path d="M879.73,5.6c4.16.1,7-2,7.64-5.91,0-.23.06-.46.08-.69h-14.1C873.5,2.71,876,4.77,879.73,5.6Z" transform="translate(4.6 1)" fill="#fdce26"/><path d="M828.39,5.55C833,6.37,836.51,4,836.75-1H822.67A6.78,6.78,0,0,0,828.39,5.55Z" transform="translate(4.6 1)" fill="#fdce26"/><path d="M930.34,295.26c-4,.48-6.26,3.44-5.65,7.56.58,3.94,3.13,6.21,8.34,6.26,2.65-1,5.81-2.63,5.66-6.91C938.5,297,935.1,294.7,930.34,295.26Z" transform="translate(4.6 1)" fill="#fdce26"/><path d="M931.1,497.59c-4.09.5-6.18,3.1-6.05,7.28.88,3.95,3.1,6.65,7.25,6.47,5.07-.22,7.62-3.49,6.77-8.33C938.37,499.06,935.11,497.11,931.1,497.59Z" transform="translate(4.6 1)" fill="#fdce26"/><path d="M881.49,497.7c-4.18-.09-6.54,2.17-7.07,6.49.16,4,2.39,6.81,6.3,7.19,4.84.47,8-2.15,7.82-7.29C888.35,500,885.55,497.78,881.49,497.7Z" transform="translate(4.6 1)" fill="#fdce26"/><path d="M778.43,56.3c4.83.39,8.09-2.13,7.81-7.28-.22-4.05-3-6.3-7.06-6.41s-6.51,2.18-7.17,7.56C772.82,52.64,774.35,56,778.43,56.3Z" transform="translate(4.6 1)" fill="#fdce26"/><path d="M830.44,497.85c-4.14.07-6.53,2.59-6.44,6.76s2.58,6.36,6.61,7.06c4.09,0,7-2.16,7.33-6.11C838.36,500.63,835.42,497.76,830.44,497.85Z" transform="translate(4.6 1)" fill="#fdce26"/><path d="M880.24,295.34c-4.14.36-6.27,2.87-6.28,7,.71,4.07,2.94,6.77,7,6.76,5,0,7.8-3.14,7-8C887.38,297.18,884.32,295,880.24,295.34Z" transform="translate(4.6 1)" fill="#fdce26"/><path d="M880.42,244.76c-4.13.07-6.57,2.58-6.48,6.76s2.63,6.34,6.64,7.06c4.1,0,7-2.15,7.35-6.11C888.35,247.54,885.4,244.66,880.42,244.76Z" transform="translate(4.6 1)" fill="#fdce26"/><path d="M829.31,244.86c-4.09.5-6.18,3.1-6.06,7.28.88,3.94,3.08,6.65,7.24,6.45,5-.24,7.65-3.46,6.79-8.32C836.58,246.33,833.32,244.38,829.31,244.86Z" transform="translate(4.6 1)" fill="#fdce26"/><path d="M1091.41,404c.62-3.84-1-6.88-5.22-7.85-4.51-.12-6.27,2.6-6.48,6.58-.17,3.18,1.16,5.91,4.39,6.73C1088.48,410.55,1090.8,407.77,1091.41,404Z" transform="translate(4.6 1)" fill="#fdd236"/><path d="M982.61,396.67c-3.29.92-4.37,3.76-4.08,6.89.36,3.92,2.18,6.64,6.74,6.37,4.1-1.17,5.64-4.32,4.93-8.1S986.93,395.45,982.61,396.67Z" transform="translate(4.6 1)" fill="#fdd235"/><path d="M931.22,396.63c-4,.38-6,3.07-6.1,8.14,1.32,2.3,2.88,5.59,7.08,5.2,4-.36,6.34-3.24,5.89-7.1C937.67,399.28,935.44,396.23,931.22,396.63Z" transform="translate(4.6 1)" fill="#fdd131"/><path d="M882,396.66c-4.92-.2-7.89,2.55-7.5,7.53.31,4,3.11,6.07,7.14,6.14,4.05-.54,6.77-2.52,6.75-6.72C888.39,399.6,886.11,396.84,882,396.66Z" transform="translate(4.6 1)" fill="#fdcd1f"/><path d="M830.68,396.77c-4.06-.06-6.31,2.44-7,6.49.06,4.09,2.41,6.46,6.3,6.93s7.21-1.65,7.73-5.43C838.35,400.09,835.71,396.85,830.68,396.77Z" transform="translate(4.6 1)" fill="#fdcd21"/><path d="M779.71,410.2c4.3.43,6.53-2.59,6.73-6.59a6.36,6.36,0,0,0-5-6.62c-4.2-1-6.61,1.67-7.75,5.58C773.92,406.54,775.58,409.79,779.71,410.2Z" transform="translate(4.6 1)" fill="#fdd339"/><path d="M727.14,397c-3.51.2-5,2.83-5.2,6-.27,4,1.43,6.79,6.06,7.76,3.45-.88,5.89-3.1,5.69-7.23S731.49,396.8,727.14,397Z" transform="translate(4.6 1)" fill="#fdd235"/><path d="M671.2,405.08c.94,2.4,2,6.13,6.51,5.57,4.13-.52,5.77-3.78,5.39-7.73-.32-3.2-2.26-5.65-5.57-5.77C673.15,397,671.52,400,671.2,405.08Z" transform="translate(4.6 1)" fill="#fdd236"/><path d="M1033.62,345.83c-3.55.53-4.6,3.38-4.62,6.47,0,4,1.86,6.67,6.17,7.06,4.07-1,6-3.68,5.56-7.7S1038,345.17,1033.62,345.83Z" transform="translate(4.6 1)" fill="#fdd234"/><path d="M985.16,345.93c-4.55-.73-6.25,2.1-6.83,6.05,0,4,1.65,7.34,5.82,7.37s6.17-3.05,6-7.14C990,349,988.57,346.47,985.16,345.93Z" transform="translate(4.6 1)" fill="#fdd234"/><path d="M931.14,345.83c-4,.87-6.45,3.14-6.06,7.23.38,3.89,2.93,6.46,6.93,6.24s6.34-3.18,5.93-7.05C937.55,348.6,935.32,345.89,931.14,345.83Z" transform="translate(4.6 1)" fill="#fdd130"/><path d="M881.26,359.42c3.92-.21,6.52-2.34,6.74-6.28a6.44,6.44,0,0,0-6-7.11c-4.24-.52-6.34,2.52-6.76,6.18C874.75,356.24,877.33,358.49,881.26,359.42Z" transform="translate(4.6 1)" fill="#fdd133"/><path d="M829.63,359.27c4.14.9,6.62-1.77,7.88-5.68-.13-4-2-7-6.16-7.47-4.43-.47-6.44,2.7-6.79,6.62A6.09,6.09,0,0,0,829.63,359.27Z" transform="translate(4.6 1)" fill="#fdd133"/><path d="M779.53,346.36c-4,.18-6.18,2.8-6.51,6.8.43,4.1,2.65,6.55,6.68,6.77s6.89-2.12,7.22-6C787.33,349.09,784.51,346.14,779.53,346.36Z" transform="translate(4.6 1)" fill="#fdcd1f"/><path d="M728,346.41c-4.49-.22-6,2.85-6.22,6.84.42,3.9,2.06,7.13,6.43,6.66,4.14-.45,5.79-3.77,5.39-7.72C733.23,349,731.27,346.58,728,346.41Z" transform="translate(4.6 1)" fill="#fdd234"/><path d="M676.71,346.55c-4.32.41-5.61,3.61-5.55,7.55.84,3.79,2.58,6.83,7.06,5.76,4.17-1,5.24-4.45,4.57-8.21C682.24,348.52,680.08,346.22,676.71,346.55Z" transform="translate(4.6 1)" fill="#fdd236"/><path d="M1084.9,295c-4.43.36-5.62,3.61-5.57,8.33,1.13,2.71,2.6,6.1,7.13,5,4.17-1,5.34-4.44,4.62-8.24C1090.49,296.92,1088.28,294.67,1084.9,295Z" transform="translate(4.6 1)" fill="#fdd234"/><path d="M1034.34,294.86c-3.72.71-5.7,3.22-5.47,7.3.17,3.13,1.48,5.91,4.91,6.35,4.35.56,6.46-2.24,6.83-6.14C1041,298.28,1038.87,295.72,1034.34,294.86Z" transform="translate(4.6 1)" fill="#fdd235"/><path d="M982.37,295.48c-3.29.93-4.37,3.76-4.08,6.89.36,3.92,2.18,6.63,6.74,6.37,4.1-1.17,5.64-4.32,4.93-8.1S986.7,294.26,982.37,295.48Z" transform="translate(4.6 1)" fill="#fdd234"/><path d="M728.33,295.92c-4.57-.65-6.18,2.26-6.85,7.29.6,2.61,1.78,6.32,6.07,6.2,4-.1,6.13-3.22,5.9-7.3C733.28,298.93,731.72,296.4,728.33,295.92Z" transform="translate(4.6 1)" fill="#fdd234"/><path d="M677.13,295.92c-4.42-.1-6,2.95-6.11,6.95.52,3.87,2.06,7.13,6.53,6.54,4.18-.56,5.71-3.92,5.28-7.81C682.48,298.41,680.43,296,677.13,295.92Z" transform="translate(4.6 1)" fill="#fdd234"/><path d="M625.21,295.91c-3.5,1.07-5.23,3.9-4.79,7.91.35,3.23,2.24,5.87,5.61,5.9,4.26,0,6.37-2.92,6.33-7S630.24,296,625.21,295.91Z" transform="translate(4.6 1)" fill="#fdd545"/><path d="M1085,244.34c-3.4-.17-5.33,2.39-5.66,5.56-.4,3.81.85,7,5.05,8,4.44.06,6.45-2.53,6.67-6.51S1089.15,244.54,1085,244.34Z" transform="translate(4.6 1)" fill="#fdd234"/><path d="M626.66,346.54c-4.49-.09-6.08,3-6.22,7.06.52,3.94,2.11,7.22,6.65,6.62,4.27-.56,5.8-4,5.37-7.92C632.1,349.06,630,346.61,626.66,346.54Z" transform="translate(4.6 1)" fill="#fdd545"/><path d="M983.61,244.59c-4.46.35-5.56,3.63-5.51,8.36,1.08,2.71,2.53,6.09,7.07,5,4.15-1,5.32-4.44,4.6-8.23C989.18,246.58,987,244.33,983.61,244.59Z" transform="translate(4.6 1)" fill="#fdd234"/><path d="M931.27,244.79c-4,.08-6.23,2.62-6.73,6.68.35,4,2.57,6.49,6.51,6.85s7-1.95,7.39-5.78C939,247.77,936.28,244.69,931.27,244.79Z" transform="translate(4.6 1)" fill="#fdcd1f"/><path d="M1087,602.29c-4.5-.68-6.24,2.16-7,7,.56,2.74,1.67,6.42,6,6.39,4,0,6.17-3.07,6-7.15C1091.84,605.41,1090.41,602.8,1087,602.29Z" transform="translate(4.6 1)" fill="#fdd236"/><path d="M1035.24,602.26c-4.3.33-5.73,3.47-5.69,7.45.78,3.82,2.5,6.86,7,5.92,4.21-.89,5.37-4.39,4.76-8.14C1040.78,604.39,1038.58,602,1035.24,602.26Z" transform="translate(4.6 1)" fill="#fdd236"/><path d="M778.58,245.22c-3.84.57-6,3.43-5.78,7.58,1,3.82,3.31,6.27,7.46,6,4-.3,6.7-2.56,6.54-6.7C786.6,247.09,783.38,244.49,778.58,245.22Z" transform="translate(4.6 1)" fill="#fdcd1e"/><path d="M728,245.21c-4.61-.24-6.25,2.56-6.44,6.54-.15,3.18,1.15,5.93,4.39,6.76,4.38,1.11,6.71-1.67,7.31-5.46S732.23,246.16,728,245.21Z" transform="translate(4.6 1)" fill="#fdd234"/><path d="M675.61,245.49c-3.55.54-4.6,3.39-4.62,6.47,0,4,1.86,6.67,6.16,7.07,4.08-1,6-3.68,5.57-7.7S679.94,244.84,675.61,245.49Z" transform="translate(4.6 1)" fill="#fdd234"/><path d="M627,245.47c-4.64-.65-6.31,2.28-6.83,6.3,0,4.12,1.84,7.42,6,7.37s6.22-3.24,6-7.39C632.07,248.52,630.5,246,627,245.47Z" transform="translate(4.6 1)" fill="#fdd545"/><path d="M984.74,602.38c-3.33-.13-5.34,2.43-5.69,5.58-.43,3.81.86,6.95,5.05,8,4.43,0,6.45-2.54,6.67-6.51S988.87,602.53,984.74,602.38Z" transform="translate(4.6 1)" fill="#fdd236"/><path d="M931.6,602.43c-3.77,1-6.43,3-6.13,7.23s3,6.37,6.94,6.26c4.84-.13,7.83-2.89,6.91-7.88C938.62,604.27,935.71,602.21,931.6,602.43Z" transform="translate(4.6 1)" fill="#fdcd21"/><path d="M881,602.7c-3.83.42-6.33,3.07-6.05,7.19s3.07,6,7,6.3c3.88-.43,6.9-2.25,6.92-6.38C888.91,604.91,885.81,602.18,881,602.7Z" transform="translate(4.6 1)" fill="#fdcd21"/><path d="M1085.06,193.74c-3.3-.2-5.41,2.36-5.8,5.49-.46,3.77.74,7,4.91,8.11,4.46.15,6.52-2.41,6.81-6.36S1089.16,194,1085.06,193.74Z" transform="translate(4.6 1)" fill="#fdd236"/><path d="M1034.47,193.86c-3.3-.2-5.41,2.36-5.8,5.5-.47,3.76.73,7,4.9,8.1,4.47.15,6.52-2.41,6.81-6.36S1038.57,194.11,1034.47,193.86Z" transform="translate(4.6 1)" fill="#fdd236"/><path d="M984.11,194c-4.31,0-6,2.95-6.2,8.07,1,2.32,2,6.11,6.59,5.42,4.16-.62,5.7-3.92,5.28-7.81C989.44,196.52,987.41,194.05,984.11,194Z" transform="translate(4.6 1)" fill="#fdd236"/><path d="M930.27,194.17a6.39,6.39,0,0,0-4.73,8.3c.79,2.88,2.85,5.48,6.42,5,4.19-.55,5.86-3.49,5.95-7.39C936.62,196.3,934.47,193.11,930.27,194.17Z" transform="translate(4.6 1)" fill="#fdd33b"/><path d="M881.64,207.61c3.8-1,6.5-3.09,6-7.18-.48-3.7-2.81-6.5-6.91-6.23s-6.07,3.33-5.85,7.11S877.64,207.4,881.64,207.61Z" transform="translate(4.6 1)" fill="#fdd133"/><path d="M830.18,194.41c-4,0-6.52,2.43-6.81,6.45-.32,4.26,2.44,6.2,6.23,7,4,.12,7.22-1.78,7.69-5.59C837.86,197.65,835.21,194.4,830.18,194.41Z" transform="translate(4.6 1)" fill="#fdcd21"/><path d="M779.63,194.52c-4.07-.07-6.33,2.42-7,6.48.06,4.12,2.44,6.45,6.34,6.92s7.25-1.49,7.74-5.38C787.26,197.87,784.67,194.6,779.63,194.52Z" transform="translate(4.6 1)" fill="#fdcd21"/><path d="M727.39,194.5c-4.21.59-6.15,3.15-5.94,7.24.17,3.13,1.5,5.9,4.92,6.33,4.34.55,6.45-2.24,6.83-6.14C733.59,197.86,731.5,195.28,727.39,194.5Z" transform="translate(4.6 1)" fill="#fdd236"/><path d="M1034.83,244.5c-4.32,0-6,2.94-6.16,7,.52,3.88,2.08,7.1,6.54,6.51,4.17-.56,5.7-3.91,5.28-7.8C1040.15,247,1038.13,244.52,1034.83,244.5Z" transform="translate(4.6 1)" fill="#fdd236"/><path d="M624.88,194.93c-3.61.54-4.69,3.42-4.71,6.57,0,4.08,1.9,6.77,6.28,7.15,4.16-1,6.12-3.72,5.66-7.81S629.28,194.27,624.88,194.93Z" transform="translate(4.6 1)" fill="#fdd545"/><path d="M831.46,552.18c-4.49-.41-6.09,2.79-6.92,7.72,1.41,2.34,2.67,5.86,7.14,5.53a6,6,0,0,0,5.72-5.81C837.68,555.7,835.65,552.57,831.46,552.18Z" transform="translate(4.6 1)" fill="#fdd33b"/><path d="M1084.62,143c-3.59.83-5.74,3.22-5.52,7.32.17,3.14,1.5,5.9,4.92,6.33,4.34.55,6.45-2.24,6.83-6.14C1091.24,146.41,1089.15,143.83,1084.62,143Z" transform="translate(4.6 1)" fill="#fdd236"/><path d="M983.37,143.41c-4.46.34-5.57,3.63-5.52,7.54.85,3.8,2.57,6.87,7.08,5.79,4.15-1,5.31-4.43,4.6-8.22C988.94,145.39,986.74,143.14,983.37,143.41Z" transform="translate(4.6 1)" fill="#fdd234"/><path d="M931.55,143.63c-4.07-.34-6.52,2.25-6.87,6.17-.37,4.12,2.31,6.22,6,7.28,4.19,0,6.59-2.53,6.83-6.31S935.54,144,931.55,143.63Z" transform="translate(4.6 1)" fill="#fdd131"/><path d="M879.29,143.59c-2.74,1-5.65,2.84-5.45,7.06.19,4,2.68,6.54,6.7,6.61,5,.07,7.83-2.75,7.13-7.74C887.12,145.67,884.32,143.51,879.29,143.59Z" transform="translate(4.6 1)" fill="#fdcd1e"/><path d="M830.26,143.82c-4.08-.14-6.37,2.3-7.11,6.28-.07,4.18,2.28,6.58,6.14,7.14s7.3-1.57,7.87-5.3C837.86,147.35,835.29,144,830.26,143.82Z" transform="translate(4.6 1)" fill="#fdcd21"/><path d="M779.84,157.27c4.21-.24,6.37-3.34,6-7.36-.31-3-2.28-5.69-5.68-6-4.39-.36-6.4,2.37-7,6.47C773.72,154.31,775.46,157.51,779.84,157.27Z" transform="translate(4.6 1)" fill="#fdd339"/><path d="M726.92,144c-4.43.26-5.68,3.49-5.65,7.43.78,3.82,2.48,6.9,7,5.95,4.22-.88,5.37-4.39,4.75-8.15C732.48,146.13,730.26,143.81,726.92,144Z" transform="translate(4.6 1)" fill="#fdd234"/><path d="M671.67,151.3c.38,3.88,2.89,6.47,6.9,6.24s6.33-3.18,5.92-7c-.38-3.64-2.6-6.36-6.75-6.41C673.74,144.94,671.28,147.22,671.67,151.3Z" transform="translate(4.6 1)" fill="#fdd131"/><path d="M626.33,158.05c4.16-1,6.12-3.72,5.66-7.8s-2.83-6.58-7.23-5.92c-3.61.55-4.69,3.43-4.71,6.57C620,155,622,157.67,626.33,158.05Z" transform="translate(4.6 1)" fill="#fdd545"/><path d="M880.68,548.5c-3.84.46-6,3.18-6,7.3.77,4,3.21,6.25,7.25,6.07,3.88-.17,6.82-2.26,6.79-6.39C888.65,550.52,885.47,547.93,880.68,548.5Z" transform="translate(4.6 1)" fill="#fdcd21"/><path d="M1033,92.86c-3.55.53-4.6,3.38-4.62,6.47,0,4,1.85,6.67,6.16,7.06,4.07-1,6-3.68,5.57-7.7S1037.35,92.2,1033,92.86Z" transform="translate(4.6 1)" fill="#fdd234"/><path d="M931.37,106.32c4-.19,6.36-3.12,6-7-.36-3.65-2.58-6.37-7.67-6.5-2.68,1.19-5.61,3-5.19,7.21C924.87,103.94,927.38,106.5,931.37,106.32Z" transform="translate(4.6 1)" fill="#fdd130"/><path d="M880.66,106.35c4.21,0,6.49-3,6.31-7.06a6.24,6.24,0,0,0-5.46-6.19c-4.32-.6-6.52,2.06-7.38,6.22C874.64,103.12,876.36,106.35,880.66,106.35Z" transform="translate(4.6 1)" fill="#fdd238"/><path d="M830.78,106.42a6.19,6.19,0,0,0,5.94-5.74c.37-4.07-2-7-6.06-7.48-4.51-.5-6.15,2.8-6.95,6.65C824.35,103.92,826.5,106.67,830.78,106.42Z" transform="translate(4.6 1)" fill="#fdd132"/><path d="M725.3,93.72c-3.29.92-4.37,3.76-4.08,6.89.36,3.92,2.19,6.63,6.74,6.37,4.1-1.18,5.64-4.32,4.93-8.1S729.63,92.5,725.3,93.72Z" transform="translate(4.6 1)" fill="#fdd234"/><path d="M676.59,107.13c4.07-.2,6-3.36,5.78-7.4-.21-3.19-1.87-5.67-5.24-6.09-4.6-.58-6.12,2.42-6.74,7.55C671.17,103.59,672.2,107.36,676.59,107.13Z" transform="translate(4.6 1)" fill="#fdd234"/><path d="M1079.87,504.28c.52,3.86,2.05,7.12,6.53,6.53,4.18-.56,5.71-3.92,5.28-7.81-.35-3.18-2.4-5.6-5.71-5.68C1081.55,497.22,1080,500.27,1079.87,504.28Z" transform="translate(4.6 1)" fill="#fdd235"/><path d="M1085,55.68c4.09-1,6-3.67,5.59-7.7s-2.79-6.5-7.13-5.83c-3.53.54-4.65,3.36-4.67,6.46C1078.77,52.64,1080.74,55.26,1085,55.68Z" transform="translate(4.6 1)" fill="#fdd234"/><path d="M1034.24,55.67c4.06-.14,6-3.35,5.78-7.39-.2-3.19-1.87-5.67-5.24-6.09-4.6-.58-6.12,2.43-6.6,6.44C1028.29,52.58,1030.07,55.8,1034.24,55.67Z" transform="translate(4.6 1)" fill="#fdd234"/><path d="M983.53,55.83c4-.11,6.13-3.22,5.9-7.3-.17-3.19-1.73-5.71-5.12-6.2-4.58-.65-6.18,2.27-6.85,7.3C978.06,52.24,979.24,56,983.53,55.83Z" transform="translate(4.6 1)" fill="#fdd234"/><path d="M1035.12,511c4,0,6.17-3.07,6-7.15-.12-3.16-1.55-5.77-5-6.28-4.49-.68-6.23,2.16-7,7C1029.69,507.39,1030.81,511.07,1035.12,511Z" transform="translate(4.6 1)" fill="#fdd236"/><path d="M880.6,56.21c4.12-.33,6.71-2.39,6.89-6.49s-2.23-6.81-6.13-7.15c-4.8-.42-8,2.2-7.68,7.22C873.88,53.79,876.69,55.85,880.6,56.21Z" transform="translate(4.6 1)" fill="#fdcd1f"/><path d="M985.53,497.71c-4.56-.73-6.26,2.1-6.84,6.05,0,4,1.65,7.34,5.82,7.37s6.18-3.05,6-7.13C990.39,500.83,988.93,498.25,985.53,497.71Z" transform="translate(4.6 1)" fill="#fdd235"/><path d="M781.82,498.15c-4.67-.76-8.09,1.58-8.3,6.67-.18,4.19,2.59,6.22,6.56,6.89,4.06.11,6.85-1.93,7.38-5.86A6.57,6.57,0,0,0,781.82,498.15Z" transform="translate(4.6 1)" fill="#fdcd1f"/><path d="M727,56.44c4-.1,6.12-3.22,5.9-7.3-.18-3.18-1.73-5.71-5.12-6.19-4.58-.65-6.19,2.26-6.85,7.29C721.48,52.85,722.66,56.56,727,56.44Z" transform="translate(4.6 1)" fill="#fdd234"/><path d="M676.1,56.67c4.13-.59,6.33-3,6.15-7.14s-2.2-6.77-6.55-6.53c-3.5.2-5,2.83-5.21,6C670.23,53,671.93,55.79,676.1,56.67Z" transform="translate(4.6 1)" fill="#fdd234"/><path d="M983,92.86c-3.49.2-5,2.83-5.2,6-.27,4,1.44,6.79,6.06,7.77,3.46-.89,5.9-3.11,5.7-7.24S987.34,92.62,983,92.86Z" transform="translate(4.6 1)" fill="#fdd234"/><path d="M1084.6,5c3.56-.1,5.63-2.58,5.88-6h-11.9C1079.19,1.6,1080.42,5.11,1084.6,5Z" transform="translate(4.6 1)" fill="#fdd234"/><path d="M1033.09,5.08c4.36.15,6.41-2.29,6.78-6.08h-11.76A6.19,6.19,0,0,0,1033.09,5.08Z" transform="translate(4.6 1)" fill="#fdd236"/><path d="M983.3,5.19c3.72,0,5.82-2.58,6-6.19H977.54C977.85,2.46,979.55,5.17,983.3,5.19Z" transform="translate(4.6 1)" fill="#fdd235"/><path d="M931.25,5.47c4-.54,6.51-2.58,6.67-6.47H924.16a2.44,2.44,0,0,0,0,.27C924.51,3.15,927.28,5.31,931.25,5.47Z" transform="translate(4.6 1)" fill="#fdcd1f"/><path d="M728.32,498.2c-4.49-.23-6,2.85-6.28,7.91.94,2.4,1.94,6.16,6.49,5.6,4.15-.52,5.79-3.79,5.39-7.74C733.6,500.76,731.64,498.36,728.32,498.2Z" transform="translate(4.6 1)" fill="#fdd235"/><path d="M778.44,5.77c4,.42,7.21-1.7,7.72-5.52A8.93,8.93,0,0,0,786.24-1H772.11c-.05.25-.1.5-.14.77C772.82,2.25,774.31,5.33,778.44,5.77Z" transform="translate(4.6 1)" fill="#fdcd1e"/><path d="M727.88,5.61c3.64-.76,5-3.47,4.9-6.61H720.92c0,.22,0,.44,0,.66C721.68,3.48,723.38,6.56,727.88,5.61Z" transform="translate(4.6 1)" fill="#fdd235"/><path d="M1086.29,460.24c4.16-.62,5.7-3.92,5.28-7.81-.34-3.18-2.37-5.65-5.67-5.68-4.31,0-6,2.95-6.2,8.07C1080.72,457.14,1081.66,460.93,1086.29,460.24Z" transform="translate(4.6 1)" fill="#fdd236"/><path d="M984.27,447c-4.3.33-5.73,3.47-5.69,7.45.78,3.82,2.5,6.87,7,5.92,4.21-.89,5.36-4.39,4.75-8.14C989.81,449.12,987.62,446.73,984.27,447Z" transform="translate(4.6 1)" fill="#fdd236"/><path d="M925.78,453.87c.73,3.87,2.47,6.9,6.87,6.62a6,6,0,0,0,5.68-5.84c.32-3.91-1.68-7.08-5.85-7.49C928,446.71,926.52,450.1,925.78,453.87Z" transform="translate(4.6 1)" fill="#fdd33b"/><path d="M881.4,460.45c4,.17,6.58-2.26,6.78-6.19s-2.19-6.6-6.07-7.07c-4.34-.52-5.89,2.68-7.17,7.33C876.13,456.82,877.19,460.28,881.4,460.45Z" transform="translate(4.6 1)" fill="#fdd133"/><path d="M830,447.27c-3.77,1-6.43,3.05-6.12,7.23s3,6.37,6.93,6.27c4.84-.13,7.83-2.9,6.91-7.89C837.06,449.11,834.15,447.05,830,447.27Z" transform="translate(4.6 1)" fill="#fdcd21"/><path d="M773.6,454.56c.35,3.9,2.85,6.48,6.85,6.28s6.35-3.12,6-7c-.35-3.65-2.56-6.37-6.68-6.47C775.71,448.21,773.24,450.48,773.6,454.56Z" transform="translate(4.6 1)" fill="#fdd131"/><path d="M726.74,447.79c-3.46.58-4.65,3.36-4.67,6.48,0,4,1.88,6.64,6.55,7.05,3.49-1.15,5.67-3.68,5.19-7.72S731.1,447.06,726.74,447.79Z" transform="translate(4.6 1)" fill="#fdd236"/><path d="M1127,2437V2303.75c-3.51-.19-7-.33-10.62-.4-44.23-.94-86.68,8.8-128.49,22.18-46.67,14.95-91.58,35.41-139.08,47.51-193.56,49.33-365.71,7.83-515.06-125-36.64-32.59-69.25-69.62-107.52-100.5C159.39,2093.56,82.89,2062.4-2,2051.41V2437Z" transform="translate(4.6 1)" fill="#f8a230"/><path d="M-2,737V632.93C-5.85,667.79-5,702.45-2,737Z" transform="translate(4.6 1)" fill="#333"/><path d="M62.55,1008.7c8.36-73.35,0-146.42-11.42-219.12C43.18,739,39.05,687.88,45.47,637c6.79-53.84,20.89-106.07,50.46-152.52,25.25-39.65,52.14-78.24,77.66-117.72C200.45,325.17,228,284,252.32,240.91c11.47-20.32,17.41-44.17,23.46-67.06,8.38-31.69,4.78-63.87,1.27-96.17A323.51,323.51,0,0,0,258.4-1H202.84a266.8,266.8,0,0,1,11.78,35.75c8.19,32.47,15.56,66.66,14,99.63-1.38,29.52-11.48,60.48-25,87.14-19.74,39-44.71,75.54-69.73,111.55C100.15,381.68,63.2,428,38.62,482.59,19.12,525.9,7,571.18,0,617.75c-.77,5.07-1.41,10.12-2,15.18V737c2.86,32.46,7.69,64.84,12.49,97.27,5.87,39.58,9.83,80,8.7,119.93A786.78,786.78,0,0,1-2,1115.83v137.25q9.52-19.12,17.58-39.47C41.9,1147.45,54.59,1078.51,62.55,1008.7Z" transform="translate(4.6 1)" fill="#333"/><path d="M147.25,128.8c8-46.53,2.44-89.65-19.09-129.8H69.35c33.93,48.77,38.53,103.16,16.23,160.17-16,40.82-38.45,79.45-61.11,117.19C16,290.47,7.1,304.34-2,318.08v93.37c28.17-44.26,57-88.08,85.64-132.06C113.84,233,137.75,184.32,147.25,128.8Z" transform="translate(4.6 1)" fill="#333"/></svg>