<?xml version="1.0" encoding="utf-8"?>
<!-- Generator: Adobe Illustrator 23.0.1, SVG Export Plug-In . SVG Version: 6.00 Build 0)  -->
<svg version="1.1" id="Layer_1" xmlns="http://www.w3.org/2000/svg" xmlns:xlink="http://www.w3.org/1999/xlink" x="0px" y="0px"
	 viewBox="0 0 104.2 25.5" style="enable-background:new 0 0 104.2 25.5;" xml:space="preserve">
<style type="text/css">
	.st0{enable-background:new    ;}
	.st1{fill:#231F20;}
	.st2{fill:none;stroke:#231F20;stroke-width:0.5;stroke-miterlimit:10;}
</style>
<title>beekeeper_header</title>
<g class="st0">
	<path class="st1" d="M13.2,13.9c0,1.6-0.6,3-1.7,4.2c-1.2,1.2-2.6,1.7-4.2,1.7c-1.1,0-2-0.2-2.9-0.7c-0.9-0.5-1.6-1.2-2.1-2
		c-0.5-0.9-0.8-1.8-0.8-2.9v-1.5V4.2l1.6-0.4V10c1.2-1.3,2.6-2,4.3-2c1.6,0,3,0.6,4.1,1.7C12.7,10.9,13.2,12.3,13.2,13.9z
		 M11.5,13.8c0-1.1-0.4-2-1.2-2.9c-0.8-0.8-1.8-1.2-2.9-1.2c-1.2,0-2.2,0.4-3,1.2c-0.8,0.8-1.2,1.8-1.2,3s0.4,2.2,1.2,3
		s1.8,1.2,3,1.2c1.1,0,2.1-0.4,2.9-1.3C11.1,16,11.5,15,11.5,13.8z"/>
	<path class="st1" d="M25.3,10.9l-8.4,5.1c0.3,0.7,0.8,1.2,1.4,1.6s1.4,0.6,2.2,0.6c0.7,0,1.4-0.1,2-0.4s1.4-0.8,2.4-1.6v2.1
		c-1.5,1.1-3,1.6-4.5,1.6c-1.5,0-2.9-0.6-4-1.7c-1.1-1.1-1.7-2.5-1.7-4.1c0-1.7,0.6-3.1,1.7-4.2s2.5-1.7,4.2-1.7
		C22.6,8.1,24.2,9,25.3,10.9z M22.9,10.5c-0.6-0.5-1.4-0.7-2.3-0.7c-1.1,0-2.1,0.4-2.9,1.2c-0.8,0.8-1.2,1.7-1.2,2.9l0,0.5
		L22.9,10.5z"/>
	<path class="st1" d="M36.9,10.9l-8.4,5.1c0.3,0.7,0.8,1.2,1.4,1.6s1.4,0.6,2.2,0.6c0.7,0,1.4-0.1,2-0.4s1.4-0.8,2.4-1.6v2.1
		c-1.5,1.1-3,1.6-4.5,1.6c-1.5,0-2.9-0.6-4-1.7c-1.1-1.1-1.7-2.5-1.7-4.1c0-1.7,0.6-3.1,1.7-4.2s2.5-1.7,4.2-1.7
		C34.2,8.1,35.8,9,36.9,10.9z M34.5,10.5C33.8,10,33,9.8,32.1,9.8c-1.1,0-2.1,0.4-2.9,1.2c-0.8,0.8-1.2,1.7-1.2,2.9l0,0.5L34.5,10.5
		z"/>
	<path class="st1" d="M47.1,18.8l-1.3,1l-5.4-5.2v4.6l-1.7,0.4V4.2l1.7-0.4v9.6l4.8-5.3L46.6,9l-4.5,5L47.1,18.8z"/>
	<path class="st1" d="M58.6,10.9l-8.4,5.1c0.3,0.7,0.8,1.2,1.4,1.6s1.4,0.6,2.2,0.6c0.7,0,1.4-0.1,2-0.4s1.4-0.8,2.4-1.6v2.1
		c-1.5,1.1-3,1.6-4.5,1.6c-1.5,0-2.9-0.6-4-1.7C48.6,16.9,48,15.5,48,14c0-1.7,0.6-3.1,1.7-4.2s2.5-1.7,4.2-1.7
		C56,8.1,57.6,9,58.6,10.9z M56.2,10.5c-0.6-0.5-1.4-0.7-2.3-0.7c-1.1,0-2.1,0.4-2.9,1.2c-0.8,0.8-1.2,1.7-1.2,2.9l0,0.5L56.2,10.5z
		"/>
	<path class="st1" d="M70.2,10.9l-8.4,5.1c0.3,0.7,0.8,1.2,1.4,1.6c0.7,0.4,1.4,0.6,2.2,0.6c0.7,0,1.4-0.1,2-0.4s1.4-0.8,2.4-1.6
		v2.1c-1.5,1.1-3,1.6-4.5,1.6c-1.5,0-2.9-0.6-4-1.7c-1.2-1.1-1.7-2.5-1.7-4.1c0-1.7,0.6-3.1,1.7-4.2s2.5-1.7,4.2-1.7
		C67.6,8.1,69.2,9,70.2,10.9z M67.8,10.5c-0.6-0.5-1.4-0.7-2.3-0.7c-1.1,0-2.1,0.4-2.9,1.2s-1.2,1.7-1.2,2.9l0,0.5L67.8,10.5z"/>
	<path class="st1" d="M83.8,13.9c0,1.7-0.6,3.1-1.7,4.2s-2.6,1.7-4.3,1.7c-1.6,0-2.9-0.6-4.1-1.9v5.4l-1.6,0.4V8.6l1.6-0.4v2
		c0.5-0.7,1.1-1.2,1.8-1.5c0.7-0.4,1.5-0.5,2.4-0.5c1.6,0,3,0.6,4.2,1.7S83.8,12.3,83.8,13.9z M82,14c0-1.2-0.4-2.2-1.2-3
		s-1.8-1.2-3-1.2c-1.2,0-2.2,0.4-3,1.2c-0.8,0.8-1.2,1.8-1.2,3c0,1.2,0.4,2.2,1.2,3c0.8,0.8,1.8,1.2,2.9,1.2c1.1,0,2.1-0.4,3-1.2
		C81.6,16.1,82,15.2,82,14z"/>
	<path class="st1" d="M95.8,10.9l-8.4,5.1c0.3,0.7,0.8,1.2,1.4,1.6c0.7,0.4,1.4,0.6,2.2,0.6c0.7,0,1.4-0.1,2-0.4s1.4-0.8,2.4-1.6
		v2.1c-1.5,1.1-3,1.6-4.5,1.6c-1.5,0-2.9-0.6-4-1.7c-1.1-1.1-1.7-2.5-1.7-4.1c0-1.7,0.6-3.1,1.7-4.2s2.5-1.7,4.2-1.7
		C93.2,8.1,94.8,9,95.8,10.9z M93.4,10.5C92.8,10,92,9.8,91.1,9.8c-1.1,0-2.1,0.4-2.9,1.2c-0.8,0.8-1.2,1.7-1.2,2.9l0,0.5L93.4,10.5
		z"/>
	<path class="st1" d="M103.7,8.3l-0.7,1.6h-0.5c-0.5,0-1,0.2-1.5,0.5c-0.5,0.3-0.8,0.8-1.1,1.3c-0.3,0.5-0.4,1-0.5,1.4
		s-0.1,1-0.1,1.8v4.4l-1.7,0.4v-11l1.7-0.4v1.9c0.9-1.3,2.1-1.9,3.5-1.9L103.7,8.3z"/>
</g>
<g class="st0">
	<path class="st2" d="M13.2,13.9c0,1.6-0.6,3-1.7,4.2c-1.2,1.2-2.6,1.7-4.2,1.7c-1.1,0-2-0.2-2.9-0.7c-0.9-0.5-1.6-1.2-2.1-2
		c-0.5-0.9-0.8-1.8-0.8-2.9v-1.5V4.2l1.6-0.4V10c1.2-1.3,2.6-2,4.3-2c1.6,0,3,0.6,4.1,1.7C12.7,10.9,13.2,12.3,13.2,13.9z
		 M11.5,13.8c0-1.1-0.4-2-1.2-2.9c-0.8-0.8-1.8-1.2-2.9-1.2c-1.2,0-2.2,0.4-3,1.2c-0.8,0.8-1.2,1.8-1.2,3s0.4,2.2,1.2,3
		s1.8,1.2,3,1.2c1.1,0,2.1-0.4,2.9-1.3C11.1,16,11.5,15,11.5,13.8z"/>
	<path class="st2" d="M25.3,10.9l-8.4,5.1c0.3,0.7,0.8,1.2,1.4,1.6s1.4,0.6,2.2,0.6c0.7,0,1.4-0.1,2-0.4s1.4-0.8,2.4-1.6v2.1
		c-1.5,1.1-3,1.6-4.5,1.6c-1.5,0-2.9-0.6-4-1.7c-1.1-1.1-1.7-2.5-1.7-4.1c0-1.7,0.6-3.1,1.7-4.2s2.5-1.7,4.2-1.7
		C22.6,8.1,24.2,9,25.3,10.9z M22.9,10.5c-0.6-0.5-1.4-0.7-2.3-0.7c-1.1,0-2.1,0.4-2.9,1.2c-0.8,0.8-1.2,1.7-1.2,2.9l0,0.5
		L22.9,10.5z"/>
	<path class="st2" d="M36.9,10.9l-8.4,5.1c0.3,0.7,0.8,1.2,1.4,1.6s1.4,0.6,2.2,0.6c0.7,0,1.4-0.1,2-0.4s1.4-0.8,2.4-1.6v2.1
		c-1.5,1.1-3,1.6-4.5,1.6c-1.5,0-2.9-0.6-4-1.7c-1.1-1.1-1.7-2.5-1.7-4.1c0-1.7,0.6-3.1,1.7-4.2s2.5-1.7,4.2-1.7
		C34.2,8.1,35.8,9,36.9,10.9z M34.5,10.5C33.8,10,33,9.8,32.1,9.8c-1.1,0-2.1,0.4-2.9,1.2c-0.8,0.8-1.2,1.7-1.2,2.9l0,0.5L34.5,10.5
		z"/>
	<path class="st2" d="M47.1,18.8l-1.3,1l-5.4-5.2v4.6l-1.7,0.4V4.2l1.7-0.4v9.6l4.8-5.3L46.6,9l-4.5,5L47.1,18.8z"/>
	<path class="st2" d="M58.6,10.9l-8.4,5.1c0.3,0.7,0.8,1.2,1.4,1.6s1.4,0.6,2.2,0.6c0.7,0,1.4-0.1,2-0.4s1.4-0.8,2.4-1.6v2.1
		c-1.5,1.1-3,1.6-4.5,1.6c-1.5,0-2.9-0.6-4-1.7C48.6,16.9,48,15.5,48,14c0-1.7,0.6-3.1,1.7-4.2s2.5-1.7,4.2-1.7
		C56,8.1,57.6,9,58.6,10.9z M56.2,10.5c-0.6-0.5-1.4-0.7-2.3-0.7c-1.1,0-2.1,0.4-2.9,1.2c-0.8,0.8-1.2,1.7-1.2,2.9l0,0.5L56.2,10.5z
		"/>
	<path class="st2" d="M70.2,10.9l-8.4,5.1c0.3,0.7,0.8,1.2,1.4,1.6c0.7,0.4,1.4,0.6,2.2,0.6c0.7,0,1.4-0.1,2-0.4s1.4-0.8,2.4-1.6
		v2.1c-1.5,1.1-3,1.6-4.5,1.6c-1.5,0-2.9-0.6-4-1.7c-1.2-1.1-1.7-2.5-1.7-4.1c0-1.7,0.6-3.1,1.7-4.2s2.5-1.7,4.2-1.7
		C67.6,8.1,69.2,9,70.2,10.9z M67.8,10.5c-0.6-0.5-1.4-0.7-2.3-0.7c-1.1,0-2.1,0.4-2.9,1.2s-1.2,1.7-1.2,2.9l0,0.5L67.8,10.5z"/>
	<path class="st2" d="M83.8,13.9c0,1.7-0.6,3.1-1.7,4.2s-2.6,1.7-4.3,1.7c-1.6,0-2.9-0.6-4.1-1.9v5.4l-1.6,0.4V8.6l1.6-0.4v2
		c0.5-0.7,1.1-1.2,1.8-1.5c0.7-0.4,1.5-0.5,2.4-0.5c1.6,0,3,0.6,4.2,1.7S83.8,12.3,83.8,13.9z M82,14c0-1.2-0.4-2.2-1.2-3
		s-1.8-1.2-3-1.2c-1.2,0-2.2,0.4-3,1.2c-0.8,0.8-1.2,1.8-1.2,3c0,1.2,0.4,2.2,1.2,3c0.8,0.8,1.8,1.2,2.9,1.2c1.1,0,2.1-0.4,3-1.2
		C81.6,16.1,82,15.2,82,14z"/>
	<path class="st2" d="M95.8,10.9l-8.4,5.1c0.3,0.7,0.8,1.2,1.4,1.6c0.7,0.4,1.4,0.6,2.2,0.6c0.7,0,1.4-0.1,2-0.4s1.4-0.8,2.4-1.6
		v2.1c-1.5,1.1-3,1.6-4.5,1.6c-1.5,0-2.9-0.6-4-1.7c-1.1-1.1-1.7-2.5-1.7-4.1c0-1.7,0.6-3.1,1.7-4.2s2.5-1.7,4.2-1.7
		C93.2,8.1,94.8,9,95.8,10.9z M93.4,10.5C92.8,10,92,9.8,91.1,9.8c-1.1,0-2.1,0.4-2.9,1.2c-0.8,0.8-1.2,1.7-1.2,2.9l0,0.5L93.4,10.5
		z"/>
	<path class="st2" d="M103.7,8.3l-0.7,1.6h-0.5c-0.5,0-1,0.2-1.5,0.5c-0.5,0.3-0.8,0.8-1.1,1.3c-0.3,0.5-0.4,1-0.5,1.4
		s-0.1,1-0.1,1.8v4.4l-1.7,0.4v-11l1.7-0.4v1.9c0.9-1.3,2.1-1.9,3.5-1.9L103.7,8.3z"/>
</g>
</svg>
