<?xml version="1.0" encoding="utf-8"?>
<!-- Generator: Adobe Illustrator 23.0.1, SVG Export Plug-In . SVG Version: 6.00 Build 0)  -->
<svg version="1.1" id="Layer_1" xmlns="http://www.w3.org/2000/svg" xmlns:xlink="http://www.w3.org/1999/xlink" x="0px" y="0px"
	 viewBox="0 0 1920 937" style="enable-background:new 0 0 1920 937;" xml:space="preserve">
<style type="text/css">
	.st0{fill:#F2F1F1;}
	.st1{fill:#2C3335;}
	.st2{fill:#E4B043;}
	.st3{fill:#E8BD61;}
	.st4{fill:#E5B349;}
</style>
<title>default_background2</title>
<rect class="st0" width="1920" height="937"/>
<path class="st1" d="M432.1,919.9l-1.3,0.5c-0.6,0.5-1.3,0.7-2.1,0.5c-0.7-0.1-1.4-0.3-2-0.7l0,0l-3.8-0.7l-3.7-0.8
	c-3.2-1-6.9-0.3-9.8-2.7c-2.1,1-4.6,0.5-6.2-1.1c-8.1,0.4-15.8-2-23.6-2.9c-33.4-4-66.9-8-100.3-12.3c-34.2-4.4-68-10.6-100.5-22.3
	c-20.4-7.3-39.4-17.5-58.8-26.8c-17.4-8.3-35.2-15.4-54.5-18.5c-22.7-3.5-44.5-0.8-65.6,6.2v99.1h492.7c-18-6.6-36.4-12.4-55.4-17.3
	C435.5,919.6,433.8,918.9,432.1,919.9z"/>
<path class="st2" d="M1800.9,674.6c-17.6,6.7-34.8,14.2-51.6,22.7l1,0.9c21.3-8.1,42.7-16.1,64.5-22.9
	c34.5-10.7,69.7-19.3,105.2-25.8v-7.3h-0.2C1879.3,649.9,1839.5,659.9,1800.9,674.6z"/>
<path class="st2" d="M1729,713.9c-29.2,12.9-56.1,30.3-79.8,51.7c-3.8,3.3-7.2,7-10.1,11c-0.6,0.9-1.4,1.9-0.8,3
	c0.8,1.4,2.3,0.9,3.3,0.5c3.9-1.3,7.8-2.9,12-4.4c-0.4,2.3-2.2,2.7-3.4,3.5c-22.6,15.2-44.2,31.8-63.1,51.5
	c-22.8,23.9-42.6,49.8-53.6,81.6c-0.5,1.5-0.9,3.3-3.1,2.4c-2.5-1-1.2-2.8-0.7-4.3c7.5-23.6,20-44.4,35.2-63.7
	c6.8-8.7,14.1-17,21.1-25.5c1.4-1.7,2.7-3.4,4-5.1c0.9-1.2,2.2-2.6,1.4-4.2c-0.9-1.8-2.8-0.5-4.2-0.6c-2-0.1-4.2,1.8-5.8-1
	c-0.7-1.2-1.6,0.1-2.2,0.7c-29.7,29-53.9,61.4-65.2,102.1c-2.2,7.9-3.8,15.9-4.8,24.1H1920V654.5c-9.3,1.8-18.7,3.8-28,5.9
	C1836.1,672.9,1781.5,690.9,1729,713.9z"/>
<polygon class="st3" points="1601.2,684.9 1601.7,685.8 1609.3,682.2 1608.3,681.3 "/>
<path class="st3" d="M1599,686c0,0.2,0,0.4,0.1,0.5l0.4-0.1c0-0.1,0-0.3-0.1-0.3C1599.3,686,1599.1,686,1599,686z"/>
<path class="st4" d="M1820.1,242.8c-0.2,1.2-0.3,2.4-0.5,3.5c2.4,3.2,6,3.4,9.6,3.5c30.3,1,60.5,1.9,90.8,3v-10.1
	c-30.5-1.1-60.9-2.2-91.4-3.4C1825.4,239.2,1822.3,240.5,1820.1,242.8z"/>
<path class="st4" d="M1824.3,214.4l-0.7,4.7c1.7,3.3,4.4,4.7,8.2,4.7c12.1-0.1,24.2,0.1,36.3,0.1l51.8,0.3V214
	c-20.2-0.1-40.4-0.2-60.6-0.2C1847.7,213.8,1836,212.6,1824.3,214.4z"/>
<path class="st4" d="M1843.8,187.5c-2.8,0.1-5.9,0.4-6.2,4.2c-0.2,2.8,0.9,5.2,3.9,5.9c1.8,0.3,3.5,0.4,5.3,0.3
	c24.4-0.8,48.8-1.5,73.2-2.1v-10.2l-41.1,0.9C1867.2,186.7,1855.5,187.1,1843.8,187.5z"/>
<path class="st4" d="M1843.5,275.4c-3.8-0.1-6.3,1.7-6.8,5.3c-0.5,3.9,2.3,5.1,5.7,5.3c1.4,0.1,2.8,0.2,4.2,0.2
	c24.4,0.8,48.9,1.5,73.4,2.3V278l-22.3-0.6C1879.6,276.8,1861.6,276,1843.5,275.4z"/>
<path class="st4" d="M1860.5,167.9c0,3.6,2.3,5.3,5.7,5.6c7.6-0.2,15.1-0.4,22.6-0.7l31.2-1.2v-10.4l-52.6,2
	C1864.2,163.3,1860.5,163.3,1860.5,167.9z"/>
<path class="st4" d="M1877.4,142.7c0,3.3,1.8,5.1,5.4,5.6l14.5-1.1c7.6-0.5,15.1-1.1,22.7-1.6v-10.5c-12.3,0.8-24.7,1.7-37,2.7
	C1880,138,1877.4,139.1,1877.4,142.7z"/>
<path class="st4" d="M1885,314c0.8,0,1.6,0.1,2.4,0.1l32.6-0.4v-10.6l-34.3,0.4c-2.8,0-6,0.3-6.2,4.1
	C1879.3,311.2,1881,313.7,1885,314z"/>
<path class="st4" d="M1895.5,340.4c-0.3,3.5,2.2,4.8,5.4,5l19.1,0.5v-10.3l-17.2-0.5C1898.9,334.8,1895.8,336.3,1895.5,340.4z"/>
<path class="st4" d="M1913.6,111.1c0.3,4.2,3,5.2,6.4,5.1v-10.5C1916.6,106,1913.3,106.7,1913.6,111.1z"/>
</svg>
