<?xml version="1.0" encoding="utf-8"?>
<!-- Generator: Adobe Illustrator 23.0.3, SVG Export Plug-In . SVG Version: 6.00 Build 0)  -->
<svg version="1.1" id="Layer_1" xmlns="http://www.w3.org/2000/svg" xmlns:xlink="http://www.w3.org/1999/xlink" x="0px" y="0px"
	 viewBox="0 0 1920.8 936.8" style="enable-background:new 0 0 1920.8 936.8;" xml:space="preserve">
<style type="text/css">
	.st0{fill:#F2F1F1;}
	.st1{fill:#FDCA5E;}
	.st2{fill:#2C3335;}
	.st3{fill:none;}
	.st4{fill:#E5B349;}
	.st5{fill:#E4B043;}
	.st6{fill:#F8A230;}
	.st7{stroke:#000000;stroke-width:4.436;stroke-miterlimit:10;}
	.st8{fill:#FECD1C;stroke:#000000;stroke-width:2.218;stroke-miterlimit:10;}
	.st9{fill:#3B484A;}
	.st10{fill:#FECD1C;stroke:#000000;stroke-width:1.109;stroke-miterlimit:10;}
	.st11{fill:#EFEFEF;stroke:#000000;stroke-width:1.109;stroke-miterlimit:10;}
	.st12{fill:#D8D8D8;stroke:#000000;stroke-width:1.109;stroke-miterlimit:10;}
	.st13{fill:#3B484A;stroke:#000000;stroke-width:1.109;stroke-miterlimit:10;}
	.st14{fill:#F9A230;}
	.st15{fill:#333E40;}
	.st16{fill:#FDCB1C;stroke:#FDCB1C;stroke-width:1.6635;stroke-miterlimit:10;}
	.st17{fill:#323D3F;stroke:#323D3F;stroke-width:1.6635;stroke-miterlimit:10;}
	.st18{fill:#FDCC1C;stroke:#FDCB1C;stroke-width:1.6635;stroke-miterlimit:10;}
	.st19{fill:#010000;stroke:#000000;stroke-width:1.109;stroke-miterlimit:10;}
	.st20{fill:#010100;stroke:#000000;stroke-width:2.218;stroke-miterlimit:10;}
	.st21{fill:#010100;stroke:#000000;stroke-width:2.7725;stroke-miterlimit:10;}
</style>
<rect y="1.1" class="st0" width="1920.8" height="935.7"/>
<path class="st1" d="M553.9,15.3c26.1,8.6,52.2,16.8,79.7,19.6c23.8,2.6,47.9-0.2,70.5-8.3c15.7-5.7,29.2-14.6,41.5-25.4l1.3-1.1
	h-4.7c-0.1,0-0.2,0.1-0.2,0.1l0,0V0H507.3l3.7,1.1C525.4,5.5,539.5,10.6,553.9,15.3z M645.9,33.2c-15.6,0.1-30.8-3.5-46-6.5
	c17.5,2.8,34.9,6.3,52.8,6.3C650.4,33,648.1,33.1,645.9,33.2L645.9,33.2z M736.2,5.2l-0.4,0.6c-2.2,3-5.5,4.4-8.6,6.2
	c-0.4,0.3-0.9,0.5-1.3,0.8l0,0l0,0c0.3-0.4,0.6-0.8,0.9-1.2l0,0c0.3-0.4,0.7-0.8,1-1.1l0,0c0.3-0.4,0.7-0.7,1.1-1.1l0,0
	c0.4-0.3,0.8-0.7,1.2-1l0,0c0.4-0.3,0.8-0.6,1.2-0.9l0,0c0.4-0.3,0.8-0.5,1.3-0.8l0,0c0.9-0.5,1.8-0.9,2.8-1.3l0,0l0.6-0.2l0,0
	H736.2z M740.6,1.8c-0.4,1-1.2,1.7-2.3,2.1c-0.4,0.1-0.8,0.2-1.3,0.2l0,0c0.4-1.9,1.7-2.5,3.2-2.7l0.6-0.2l0,0
	C740.8,1.4,740.7,1.6,740.6,1.8z"/>
<path class="st2" d="M401,887c-0.8-0.5-1.4-1.2-2.5-1h-0.8c-0.8,0.2-1.4-0.2-1.9-0.8l-1.7-1.1l-1.6-1c-1.4-1.1-3.3-1.4-4.2-3
	c-1.2,0.1-2.3-0.6-2.8-1.7c-3.9-1.3-7.2-3.8-10.8-5.7c-15.2-8-30.5-15.9-45.7-24c-15.6-8.3-30.6-17.4-44.1-28.9
	c-8.4-7.3-15.7-15.6-23.4-23.6c-6.9-7.2-14.1-13.8-22.8-18.7c-12.9-7.3-26.9-9.5-41.4-8.6c-27,1.7-52.6,9.1-77.2,19.8
	c-38.6,16.9-72.6,43.1-98.8,76.3C13,875.3,5.7,886.4-0.4,898.1v38.7h455.6C439.3,917.9,421.1,901.2,401,887z M39.7,847
	c0,0.1,0,0.2,0,0.3C39.7,847.2,39.6,847.1,39.7,847L39.7,847z M39.1,847.7L39.1,847.7L39.1,847.7z M0,903L0,903L0,903h-0.3
	c0.1-0.1,0.1-0.2,0.2-0.3l0,0C-0.1,902.8,0,902.9,0,903L0,903z M0.5,901.9L0.5,901.9c0,0-0.1,0.1-0.2,0.1l0,0
	c-0.3-0.1-0.3-0.3,0-0.4l0,0c0,0,0.1,0,0.1,0.1l0,0C0.5,901.7,0.5,901.8,0.5,901.9L0.5,901.9L0.5,901.9z M0.9,900.9L0.9,900.9
	L0.9,900.9c-0.1,0-0.1-0.1-0.1-0.2c0-0.1,0.1-0.2,0.2-0.3l0,0l0,0l0.2,0.2L0.9,900.9z M1.5,899.8L1.5,899.8L1.5,899.8l-0.2-0.1
	l0.2-0.3l0,0l0,0c0.1,0.1,0.2,0.1,0.2,0.2S1.6,899.8,1.5,899.8L1.5,899.8z M2.1,898.6L2.1,898.6l-0.3-0.2l0.2-0.2l0,0l0.2,0.2
	L2.1,898.6z M2.5,897.8L2.5,897.8c-0.5-1.1,0.3-1.5,1.1-2.7l0,0l0,0C3.8,896.8,3.4,897.4,2.5,897.8L2.5,897.8z M14.8,878.2
	L14.8,878.2l-0.2-0.1l0.2-0.3l0,0c0.1,0.1,0.2,0.1,0.2,0.2S14.9,878.2,14.8,878.2z M16.6,876.3c-0.1,0.1-0.2,0.2-0.4,0.3
	c-0.1,0.1-0.3,0.2-0.4,0.3c-0.2,0.2-0.3,0.3-0.5,0.4l0,0c-0.1-0.1-0.2-0.2-0.2-0.3c0-0.2,0.1-0.4,0.3-0.5l0,0l0,0
	c0.2-0.4,0.6-1.1,0.9-1c0,0,0.1,0,0.1,0.1l0,0c0.1,0.1,0.1,0.1,0.2,0.2C16.7,875.9,16.7,876.1,16.6,876.3L16.6,876.3L16.6,876.3z
	 M18.7,873.1L18.7,873.1l-0.5,0.9l-0.1,0.1c-0.2,0.4-0.4,0.7-0.8,1c-0.1,0-0.1,0-0.2,0s-0.1,0-0.2-0.1c-0.7-0.6,0.1-1.1,0.6-1.5
	l0.6-1l0,0c0.2-0.3,0.4-0.7,0.6-0.7l0,0c0.1,0,0.2,0.1,0.3,0.2c0.1,0.1,0.2,0.2,0.2,0.3C19.3,872.6,19,872.9,18.7,873.1L18.7,873.1z
	 M22.3,868.4L22.3,868.4l-0.2,0.1H22l0,0c0,0.1,0,0.2,0,0.4c-0.1,0.2-0.2,0.3-0.3,0.5c-0.1,0.1-0.2,0.2-0.3,0.3l0,0l0,0
	c0,0.1-0.1,0.2-0.1,0.3c-0.2,0.3-0.4,0.5-0.6,0.4c-0.1,0-0.1-0.1-0.2-0.1l-0.1-0.1c0,0,0-0.1-0.1-0.2c0-0.1,0-0.1,0-0.2
	c0.1-0.2,0.3-0.4,0.5-0.6l0.5-0.9l0.1-0.1c0.3-0.5,0.6-1,1.1-1.4c0.2-0.1,0.4-0.2,0.7-0.2C23.5,867.2,23.1,868.1,22.3,868.4
	L22.3,868.4z M24.1,865.8L24.1,865.8l-0.3,0.2l-0.2,0.2h-0.1c-0.2-0.1-0.3-0.3-0.2-0.5c0.1-0.2,0.2-0.3,0.3-0.4l0,0
	c0.2-0.6,0.6-1,1.1-1.4c0.2-0.1,0.5-0.2,0.7-0.2C25.6,864.7,25,865.6,24.1,865.8L24.1,865.8z M28.1,861.3L28.1,861.3
	c-0.2,0.6-0.6,1-1.1,1.4c-0.2,0.1-0.4,0.2-0.6,0.2c-0.1,0.2-0.1,0.6-0.5,0.5c-0.1,0-0.1,0-0.2-0.1s-0.2-0.2-0.2-0.3
	c0.1-0.2,0.2-0.3,0.3-0.5c0.2-0.5,0.5-0.9,0.9-1.2c0.1-0.1,0.1-0.2,0.2-0.2c0.2-0.1,0.4-0.2,0.6-0.3l0,0c0.1-0.2,0.2-0.5,0.4-0.5
	c0.1,0,0.2,0.1,0.3,0.1c0.1,0.1,0.1,0.1,0.1,0.2C28.3,861,28.2,861.2,28.1,861.3L28.1,861.3z M37.6,850.9
	C37.6,850.9,37.5,850.9,37.6,850.9c-0.1,0-0.2,0.1-0.3,0.1s-0.2,0-0.3,0.1s-0.1,0.2-0.1,0.4l0,0c-0.1,0-0.2,0-0.2,0
	c-0.2,0.1-0.2,0.2-0.2,0.5 M36.4,852l-0.9,0.5l0,0c-0.1,0.5-0.4,1-0.8,1.3c-0.4,0.4-0.8,0.7-1.2,0.9c0,0.1,0,0.1-0.1,0.2
	c0,0,0,0.1-0.1,0.1c-0.1,0.1-0.2,0.1-0.3,0.1h-0.1c0,0.3-0.2,0.6-0.6,0.6l0,0c0.1,0.4-0.2,0.9-0.6,1.1l-0.5,0.6
	c-0.3,0.8-0.9,1.4-1.6,1.8c-0.1,0.3-0.2,0.5-0.6,0.5c-0.1,0.2-0.2,0.8-0.6,0.4l-0.1-0.1c0-0.1-0.1-0.1-0.1-0.2
	c0-0.1,0.1-0.3,0.2-0.4c0-0.1,0.1-0.1,0.1-0.2l0.5-0.6c0.2-0.3,0.4-0.6,0.6-0.9c0.3-0.4,0.6-0.7,1.1-0.8l0.3-0.3l0.3-0.3l0.6-1.1
	c0.2-0.2,0.3-0.4,0.5-0.6l0.5-0.6c0.1-0.2,0.2-0.4,0.3-0.6c0.4-0.5,0.8-1,1.4-1.3c0.1-0.1,0.2-0.1,0.4-0.1c0,0,0,0,0-0.1l0.1-0.1
	l0.1-0.1l0.1-0.1h0.2h0.3H36h0.1L36.4,852L36.4,852L36.4,852c-0.2-0.2-0.4-0.3-0.2-0.6c0-0.1,0.1-0.1,0.2-0.1c0,0,0.1,0,0.2,0l0,0
	l0.1,0.1l0,0h0.1l0,0v-0.1l0,0l0,0l0,0c0-0.1,0-0.1,0.1-0.2l0,0c0-0.1,0.1-0.1,0.1-0.2c0.1-0.1,0.3-0.2,0.5-0.1v-0.1l0,0l-0.4-0.5
	h0.1v-0.1h0.2c0.3,0,0.1,0.3,0.2,0.5l0,0v0.1v0.1l0,0l0,0L36.4,852z M38.6,848.1L38.6,848.1c0.3,0,0.5,0,0.5-0.3
	c0,0.1,0,0.1-0.1,0.2c0,0,0,0,0.1-0.1c0,0,0,0,0-0.1c0,0.1-0.1,0.2-0.1,0.2C38.9,848.2,38.7,848.2,38.6,848.1z M39.6,847.6
	c-0.1,0-0.3,0-0.4,0h0.1h-0.1l0,0l0,0l0,0c0.3,0,0.5,0,0.6-0.3v0.1l0,0l0,0l0,0C39.7,847.5,39.6,847.6,39.6,847.6L39.6,847.6z
	 M45.5,841.9c0,0.1-0.1,0.2-0.1,0.2l-0.1,0.1h-0.1c-0.2,0-0.2-0.2-0.4-0.2l0,0l0,0c0.1,0.1,0.1,0.2,0.1,0.3v0.1l0,0v0.1
	c0,0.1-0.1,0.1-0.2,0.2c-0.1,0-0.3-0.1-0.4-0.2l0,0c0.1,0.1,0.1,0.3,0.1,0.5v0.1l0,0c-0.1,0.3-0.3,0.2-0.4,0.1l0,0
	c0,0.1,0.1,0.2,0,0.3l-0.1,0.1l0,0c0,0,0,0,0,0.1l-0.1,0.1c-0.1,0.1-0.2,0.1-0.3,0.1c0,0.1,0,0.2-0.1,0.2c0,0.1-0.1,0.2-0.1,0.2
	c-0.1,0.1-0.2,0.2-0.3,0.1v0.1c0,0,0,0.1-0.1,0.1l0,0v0.1l-0.1,0.1l-0.1,0.1c-0.1,0-0.2,0-0.2,0l0,0c0,0.1,0,0.1-0.1,0.2l0,0l0,0
	c0,0.1,0,0.1-0.1,0.2l0,0l0,0c0,0.1,0,0.2-0.1,0.3c0,0,0,0-0.1,0.1c0,0.1,0,0.1-0.1,0.2c-0.1,0.1-0.2,0.1-0.3,0.1
	c0,0.1-0.1,0.1-0.1,0.2l0,0c0,0.1-0.1,0.2-0.1,0.2c-0.2,0.2-0.3,0.1-0.4,0.1c-0.1-0.1-0.1-0.1-0.2-0.2c0.1,0,0.1,0,0.2,0l0,0
	c-0.1,0-0.1,0-0.2-0.1l-0.1-0.1v0.1v0.1l0,0c0,0.1,0,0.1,0,0.2v0.1c0,0-0.1,0.2-0.2,0.2v0.1c-0.1,0.1-0.2,0.2-0.3,0.1
	s-0.2-0.2-0.3-0.2c0.1,0,0.3,0,0.4-0.1l0,0l0,0c-0.1,0-0.2-0.1-0.3-0.1c0.1,0,0.3,0,0.4-0.1l0,0l0.1-0.1v-0.1l0,0v0.1l0,0l0,0l0,0
	v-0.1c0-0.1,0-0.1,0-0.2l0,0c0.1,0,0.2,0,0.3-0.1c0,0,0.1,0,0.1-0.1c0,0,0-0.1,0.1-0.1l0,0c0-0.1,0-0.2,0-0.2c0,0.1,0,0.1,0.1,0.2
	c0,0,0,0,0,0.1c0,0,0,0,0,0.1v-0.1h0.1l0,0l-0.1-0.1c-0.1-0.1-0.1-0.1-0.2-0.1c0.1,0,0.3,0,0.4-0.1l0.1-0.1l0,0v-0.1h-0.1l0.1-0.1
	v-0.1l0.6-0.5v-0.1h0.1l0.5-0.6l0.6-0.5l0,0l0,0l0.6-0.5v-0.1H44l0.2-0.4l0,0l0.1-0.1v0.1l0,0h0.1l0,0l-0.2-0.1l0.1-0.2
	c0.1,0,0.3,0,0.4-0.1l0,0V842l0,0l0,0l0,0v0.1V842l0,0l0,0h0.1l0,0l0,0v-0.1v-0.1c0.2,0,0.3-0.1,0.4-0.2v-0.1l0,0l0,0l0,0
	c0,0.1,0.1,0.1,0.1,0.2l0,0c0,0,0,0,0,0.1C45.4,841.8,45.4,841.9,45.5,841.9L45.5,841.9z M45.8,841.4L45.8,841.4L45.8,841.4
	c0,0.2-0.1,0.2-0.1,0.2c-0.1,0-0.3-0.2-0.4-0.2h0.1c0-0.1,0-0.2,0-0.3c0.2,0,0.3,0,0.5-0.2v-0.1C45.8,841,45.8,841.2,45.8,841.4
	L45.8,841.4z M45.8,840.9L45.8,840.9c0-0.1,0-0.2,0-0.2h0.3c0.1,0,0.1,0,0.2-0.1v-0.1v-0.1l0,0v0.1v0.1l0,0l0,0c0,0.1,0,0.2-0.1,0.3
	C46.1,841,46,841,45.8,840.9L45.8,840.9z M47.5,839.9L47.5,839.9L47.5,839.9c-0.2-0.1-0.4-0.2-0.5-0.3c0,0.1,0,0.2,0,0.3
	s-0.1,0.2-0.1,0.2c-0.1,0.1-0.1,0.1-0.2,0.1h-0.1l0,0c-0.1,0-0.2,0-0.3,0h0.1c0-0.1,0-0.1,0-0.2c0.1,0,0.2,0,0.3,0v-0.1
	c0-0.1,0-0.1,0.1-0.2c0-0.2,0-0.3,0.2-0.3l0.5,0.3C47.5,839.8,47.4,839.8,47.5,839.9L47.5,839.9z M50.3,838.2L50.3,838.2
	c-0.1,0-0.2,0-0.2,0H50.3c-0.2-0.1-0.3,0-0.5,0.1c-0.1,0.1-0.2,0.3-0.2,0.4l0,0l0,0l0,0h-0.1c-0.2,0-0.3,0.2-0.3,0.3
	c0,0,0,0.1,0,0.2l0,0l0,0l0,0H49l0.2,0.1l0,0h-0.6v-0.1h0.1c0,0,0,0,0-0.1l0.5,0.2c-0.1-0.1-0.3-0.2-0.2-0.4l0,0l0,0l0.1-0.1
	l0.1-0.1c0.1-0.1,0.2-0.1,0.3,0c0.1,0,0.2,0.1,0.2,0.2h0.1l0,0l0,0l0,0c0,0-0.2-0.3-0.2-0.4l0,0l0,0c0-0.1,0.1-0.1,0.2-0.1
	C49.9,838.1,50.1,838.1,50.3,838.2L50.3,838.2L50.3,838.2L50.3,838.2L50.3,838.2L50.3,838.2L50.3,838.2L50.3,838.2z M51.5,836.5
	l-0.7,1.2v0.1c-0.1,0-0.2,0-0.3,0l0,0l0,0c-0.1,0.1-0.2,0.2-0.2,0.4l0,0v0.1c-0.1-0.2-0.4-0.3-0.1-0.6l0,0l0,0
	c0.1-0.1,0.1-0.1,0.2-0.1c0.1,0,0.2,0.1,0.3,0.2c-0.1-0.2-0.2-0.4-0.2-0.6c0-0.1,0-0.2,0.1-0.3l0,0l0.1-0.1c0.3-0.2,0.7-0.4,1-0.5
	L51.5,836.5z M61.3,828.2L61.3,828.2c-0.2,0.5-0.6,1.2-1,1.2c-0.1,0-0.1,0-0.2,0c-0.1,0-0.2-0.1-0.2-0.2c-0.1-0.1-0.1-0.2-0.2-0.3
	c-0.2-0.5,0.7-0.9,1.2-1.2c0.3-0.2,0.5-0.5,0.9-0.1l0,0l0,0L61.3,828.2z M64.1,825.9c-0.2,0.6-0.6,1-1.2,1.1
	c-0.3,0.2-0.6,0.5-0.9,0.1l0,0c0,0,0.3-0.3,0.4-0.5l0,0c0.1-0.6,0.6-0.9,1.1-1.1c0.3-0.2,0.5-0.5,0.8-0.1l0,0
	C64.5,825.4,64.2,825.7,64.1,825.9L64.1,825.9z M67.9,823.1l-1,0.6c-0.2,0.5-0.6,0.9-1.2,1.1c-0.3,0.3-0.6,0.5-0.9,0.1l0,0
	c0,0,0.2-0.4,0.4-0.6c0.2-0.6,0.6-1,1.1-1.2c0.2-0.4,0.7-0.6,1.1-0.6c0.2-0.1,0.4-0.4,0.5-0.3c0.1,0,0.1,0.1,0.2,0.1
	c0,0.1,0.1,0.1,0.1,0.2C68.2,822.8,68,822.9,67.9,823.1L67.9,823.1z M103.4,799.6L103.4,799.6c0.9-1.2,2.3-2,3.8-2.2l0,0l0,0
	C106.4,798.8,105.3,799.1,103.4,799.6L103.4,799.6z M108,797.3L108,797.3c0,0.1-0.1,0.1-0.2,0.1s-0.1-0.1-0.1-0.1
	c-0.1-0.1,0-0.2,0.1-0.2s0.1,0.1,0.2,0.1l0,0C108,797.1,108,797.2,108,797.3L108,797.3L108,797.3z M108.9,796.8
	C108.8,796.8,108.8,796.7,108.9,796.8c-0.2-0.2-0.2-0.3,0-0.3s0.1,0.1,0.2,0.1l0,0l0,0l0,0v0.1l0,0l0,0l0,0l0,0
	C109.1,796.6,109,796.8,108.9,796.8L108.9,796.8z M110.3,796.1l-0.2,0.2l-0.2-0.1l0,0l0,0l0.2-0.2L110.3,796.1L110.3,796.1
	L110.3,796.1z M111.2,795.7l-0.2-0.1l0,0l0.2-0.2l0.2,0.2l0,0l0,0L111.2,795.7z M112.3,795.2l-0.2-0.1l0,0l0.2-0.3l0,0l0.2,0.2
	L112.3,795.2z M112.8,794.7L112.8,794.7c1.3-1.3,2.3-1.8,3.9-1.7l0,0l0,0C115.6,794.1,114.2,794.7,112.8,794.7L112.8,794.7z
	 M138.2,784.3L138.2,784.3c-0.4,0.4-1,0.7-1.6,0.6l-0.3-0.1l0,0c0.1-1.1,1.1-0.7,1.6-0.9l0,0c0.3-0.2,0.8-0.5,1-0.3l0.1,0.1
	c0,0.1,0.1,0.1,0.1,0.2C139,784.3,138.4,784.1,138.2,784.3L138.2,784.3z M140.4,783.6c-0.2,0-0.3-0.1-0.5-0.2l0,0h-0.1
	c0.1-0.1,0.2-0.3,0.3-0.3s0.2,0.2,0.3,0.2l0,0l0,0C140.4,783.4,140.4,783.5,140.4,783.6L140.4,783.6z M141.8,783
	c-0.1,0-0.2-0.2-0.3-0.3l0,0l0,0c0.1-0.1,0.1-0.2,0.2-0.2c0.2,0,0.3,0.1,0.5,0.2l0,0l0,0C142.1,782.8,141.9,783,141.8,783L141.8,783
	z M143.7,782.5c-0.2,0-0.3-0.1-0.4-0.2l0,0l0,0c0.1-0.1,0.2-0.2,0.3-0.2s0.2,0.2,0.3,0.2l0,0l0,0
	C143.8,782.3,143.7,782.4,143.7,782.5L143.7,782.5z M145.1,781.9l-0.2-0.3l0,0l0,0c0.1,0,0.3,0,0.4-0.1c0.1,0,0.1,0.1,0.2,0.2l0,0
	l0,0L145.1,781.9z M147.1,781.1l-0.2,0.2l0,0l0,0l0,0h-0.2c-0.1-0.1-0.2-0.1-0.2-0.2s0-0.1,0.2-0.2c0.2,0,0.3,0,0.5,0.1L147.1,781.1
	L147.1,781.1z M148.5,780.8c-0.1,0-0.2-0.2-0.3-0.3l0,0l0,0c0.1,0,0.1-0.2,0.2-0.1c0.2,0,0.3,0.1,0.4,0.2l0,0l0,0
	C148.7,780.6,148.6,780.7,148.5,780.8L148.5,780.8z M151.4,779.9c-0.2,0.4-0.7,0.6-1.1,0.4c-0.1,0-0.2-0.2-0.3-0.3l0,0l0,0l1.2-0.3
	l0,0c0.2-0.4,0.7-0.6,1.1-0.4c0,0,0.1,0,0.1,0.1l0,0l0,0c0,0.1,0.1,0.2,0.1,0.2L151.4,779.9z M153.9,779.1L153.9,779.1L153.9,779.1
	L153.9,779.1c0,0-0.1-0.1-0.2-0.2l0,0c0.1-0.1,0.3-0.1,0.4-0.1c0,0.1,0.1,0.1,0.2,0.2C154.3,779,154.1,779,153.9,779.1L153.9,779.1z
	 M156.3,778.6L156.3,778.6L156.3,778.6c-0.3,0-0.5,0-0.8-0.1l0,0l0,0c0.1-0.2,0.2-0.4,0.3-0.4c0.2,0,0.4,0.1,0.7,0.1
	C156.5,778.3,156.4,778.5,156.3,778.6L156.3,778.6z M158.2,778.1c-0.1,0-0.3-0.1-0.5-0.2l0,0l0,0c0.1-0.1,0.3-0.3,0.4-0.3
	c0.2,0.1,0.4,0.2,0.6,0.3l0,0l0,0C158.4,777.9,158.3,778.1,158.2,778.1L158.2,778.1z M192.8,771.8V771h6.9l0,0l0,0v0.7l0,0
	L192.8,771.8z"/>
<g>
	<path class="st3" d="M1920.5,657.3c0.1-0.1,0.2-0.3,0.3-0.4V608h-0.3V657.3z"/>
	<path class="st4" d="M1827.6,511.4c-0.1,0.8-0.3,1.7-0.4,2.6c1.8,2.3,4.3,2.5,6.9,2.5c22.1,0.7,44.2,1.4,66.3,2.2l20.1,0.7h0.3
		v-7.3h-0.3c-28.9-1.1-57.9-2.1-86.8-3.2C1831.4,508.8,1829.2,509.7,1827.6,511.4z"/>
	<path class="st4" d="M1830.6,490.9l-0.5,3.4c1.1,2.2,3.4,3.6,5.9,3.4c8.8,0,17.5,0,26.3,0.1l58.2,0.3h0.3v-7.5h-0.3
		c-21.5-0.1-43-0.3-64.5-0.3C1847.5,490.4,1839.1,489.5,1830.6,490.9z"/>
	<path class="st4" d="M1844.7,471.4c-2.1,0.1-4.3,0.3-4.5,3c-0.2,2,0.7,3.8,2.8,4.3c1.3,0.2,2.6,0.3,3.9,0.2
		c24.5-0.8,49.1-1.5,73.6-2h0.3v-7.4h-0.3c-16.8,0.4-33.6,0.8-50.4,1.1C1861.6,470.8,1853.1,471.1,1844.7,471.4z"/>
	<path class="st4" d="M1844.5,534.9c-2.7-0.1-4.6,1.2-4.9,3.8c-0.3,2.8,1.7,3.7,4.1,3.8c1,0,2,0.1,3,0.2c18.8,0.6,37.6,1.1,56.4,1.8
		c5.8,0.2,11.6,0.4,17.3,0.6h0.3v-7.7h-0.3c-12.3-0.3-24.6-0.7-36.8-1C1870.6,536,1857.5,535.4,1844.5,534.9z"/>
	<path class="st4" d="M1861.7,453.8c-2.2,0.1-5,0-5,3.4c0,2.6,1.6,3.8,4.1,4.1c5.5-0.2,10.9-0.3,16.4-0.5l43.3-1.7h0.3v-7.5h-0.3
		l-6.3,0.2C1896.7,452.5,1879.2,453.1,1861.7,453.8z"/>
	<path class="st4" d="M1873,435.4c-2.2,0.2-4,1-4,3.6c0,2.4,1.3,3.7,3.9,4l10.5-0.8c12.4-0.9,24.7-1.7,37.1-2.5h0.3v-7.6h-0.3
		l-19.1,1.3C1891.9,434,1882.5,434.7,1873,435.4z"/>
	<path class="st4" d="M1870.5,558.3c-0.1,2.6,1.1,4.4,4,4.6c0.6,0,1.2,0.1,1.7,0.1c12.9-0.2,25.8-0.3,38.7-0.5l5.5-0.1h0.3v-7.6
		h-0.3c-15.2,0.1-30.3,0.3-45.5,0.5C1872.9,555.3,1870.6,555.5,1870.5,558.3z"/>
	<path class="st4" d="M1887.3,578c-2.8-0.1-5,1-5.3,3.9c-0.3,2.5,1.6,3.5,3.9,3.6l34.5,0.9h0.3V579h-0.3l-10.8-0.3
		C1902.2,578.5,1894.8,578.2,1887.3,578z"/>
	<path class="st4" d="M1895.2,416.1c0.2,3.5,2.7,3.9,5.6,3.6c6.6-0.6,13.1-1.1,19.7-1.7h0.3v-7.6h-0.3c-6.8,0.5-13.6,1.1-20.3,1.7
		C1897.6,412.4,1895,412.8,1895.2,416.1z"/>
	<path class="st4" d="M1904.6,601.5c-2.3,0.2-4.5,0.7-4.5,3.6c0,2.3,1.2,3.7,3.8,4c0.6,0,1.3,0,2,0c4.9-0.4,9.7-0.7,14.6-1h0.3v-7.5
		h-0.3C1915.2,600.9,1909.9,601.2,1904.6,601.5z"/>
	<path class="st4" d="M1913.8,391.4c-0.2,2.1,1.4,4.1,3.5,4.3c0.1,0,0.3,0,0.4,0c0.9,0,1.8,0.1,2.8,0.1h0.3v-7.5h-1.9
		C1916.7,388.2,1913.8,387.9,1913.8,391.4z"/>
</g>
<path class="st5" d="M1913.1,694.1c-41.2,3-82.1,8.5-122.4,17.5c-43.1,9.7-85.1,23.5-125.5,41.3c-22.5,9.9-43.2,23.4-61.5,39.8
	c-2.9,2.5-5.5,5.4-7.8,8.5c-0.5,0.7-1.1,1.5-0.6,2.3c0.6,1.1,1.8,0.7,2.6,0.4c3-1,6-2.2,9.2-3.4c-0.3,1.8-1.7,2.1-2.6,2.7
	c-17.4,11.7-34,24.5-48.6,39.7c-17.6,18.4-32.8,38.4-41.3,62.8c-0.4,1.1-0.7,2.5-2.4,1.8c-1.9-0.8-0.9-2.2-0.5-3.3
	c5.7-18.2,15.4-34.2,27.1-49.1c5.2-6.7,10.8-13.1,16.3-19.7c1.1-1.3,2.1-2.6,3.1-4c0.7-0.9,1.7-2,1.1-3.2c-0.7-1.4-2.1-0.4-3.2-0.5
	c-1.5-0.1-3.2,1.4-4.5-0.8c-0.5-0.9-1.2,0.1-1.7,0.5c-22.8,22.3-41.5,47.3-50.2,78.6c-2.8,10.1-4.4,20.4-4.6,30.8h425.7V693.5h-0.3
	L1913.1,694.1z"/>
<path class="st5" d="M1812.1,699.7c-31.2,5.9-61.9,13.6-91.6,25c-13.5,5.1-26.8,11-39.7,17.4l0,0l0.8,0.7
	c16.4-6.2,32.9-12.4,49.6-17.6c41.6-13,84.2-21.6,127.4-27.2c20.5-2.7,41.2-4.3,61.8-5.7h0.3v-6h-0.3c-9.9,0.8-19.7,1.5-29.6,2.4
	C1864.5,691,1838.2,694.7,1812.1,699.7z"/>
<path class="st6" d="M74.7,176.3c-1.1-0.9-1.7-1.8-0.4-3l-8.3-1.6c-9.5,0.6-19,0.7-28.3,3c-12.7,3.1-25.2,6.6-37.6,10.5v8.5
	c14.6-4.7,29.1-9.8,44.2-12.8c9.5-1.8,19-2.6,28.6-1.3c1.5,0.2,3.1,0.2,4.7,0.3C77.7,177.5,75.8,177.2,74.7,176.3z"/>
<path class="st2" d="M1678.4,14.2c-1.1,1,0.6,2.3,1.3,3.4c13.8,22.8,29,44.7,45.5,65.6c32.4,41.3,68.5,79.3,105.2,116.7
	c29.6,30.1,59.8,59.6,91.6,87.3v-3.6l-10.3-9.7l1.1-1.1l9.3,8.7V-1.2h-250.3l0.2,0.4c2,3.7,4,7.4,6.1,11.1
	C1678.6,11.4,1680.4,12.4,1678.4,14.2z M1779.3,139.6c0-0.2-0.1-0.4-0.2-0.6c0,0.1,0.1,0.2,0.2,0.2l0,0c0.5,0.4,1.6,0.2,1.4,1.4v0.2
	h-0.1C1779.6,140.8,1779.4,140.2,1779.3,139.6z M1780.6,140.7l1,0.3h0.1C1781.3,141.3,1780.8,141.4,1780.6,140.7L1780.6,140.7z
	 M1781.8,141L1781.8,141c0.1,0.5,0.3,0.8,0.7,0.9C1781.6,142.1,1781.4,142,1781.8,141L1781.8,141z M1782.6,142.7c0-0.1,0-0.1,0-0.2
	c0-0.1,0-0.3,0-0.4c0.1,0.4,0.3,0.5,0.7,0.5l0,0C1783.1,142.7,1782.9,143.2,1782.6,142.7L1782.6,142.7z M1782.9,143.4
	c0-0.3,0.1-0.6,0.3-0.9c0,0.1,0,0.2,0.1,0.3c0.1,0.3,0.2,0.6,0.3,0.9v0.3c0,0.2,0,0.4-0.1,0.6c0,0.1-0.1,0.1-0.1,0.2
	C1783.4,144.4,1783.1,144,1782.9,143.4L1782.9,143.4z M1783.4,145L1783.4,145c0.5-0.2,0.8-0.1,0.8,0.1c0,0.1,0,0.1,0,0.2v0.1
	C1784.1,145.1,1783.9,145,1783.4,145L1783.4,145z M1785.1,146.5v-0.1l-0.8-0.5h1c0,0.2-0.1,0.4-0.1,0.5h0.1L1785.1,146.5z
	 M1785.8,146.9c0,0.1-0.1,0.2-0.1,0.4l0,0c-0.2-0.3-0.4-0.7-0.6-1l0.2-0.1h0.2c0.8,0.1,0.6,0.7,0.5,1.2l-0.3-0.1h0.2L1785.8,146.9z
	 M1786.3,147.4l0.5-0.1v0.5c0-0.1,0-0.1,0-0.1v-0.1L1786.3,147.4z M1786.8,147.9L1786.8,147.9c1.9,0.1,2.8,1.3,3.3,2.9h-0.1
	C1788.6,150.4,1787.4,149.3,1786.8,147.9L1786.8,147.9z M1790.9,151.3L1790.9,151.3c-0.2,0-0.3,0-0.4,0s-0.1-0.1-0.2-0.2
	L1790.9,151.3L1790.9,151.3L1790.9,151.3z M1791.3,152c-0.1-0.2-0.1-0.4,0-0.6h0.1c-0.1,0.3,0.1,0.6,0.4,0.8h-0.1
	C1791.6,152.3,1791.4,152.3,1791.3,152L1791.3,152z M1792.3,153.1c-0.1,0-0.2-0.1-0.3-0.2c-0.2-0.2-0.2-0.4-0.1-0.6
	c0-0.1,0.1-0.1,0.1-0.2h0.1c0,0.2,0.1,0.4,0.2,0.6c0.1,0.1,0.2,0.1,0.3,0.2l-0.1,0.1C1792.4,153.1,1792.4,153.1,1792.3,153.1
	L1792.3,153.1z M1792.8,153.7c-0.3-0.3-0.2-0.4-0.1-0.5s0.1-0.1,0.2-0.2h0.1c0,0.1,0,0.2,0,0.3c0,0.2,0.2,0.3,0.4,0.3l-0.1,0.1
	C1793.1,153.9,1792.9,154,1792.8,153.7L1792.8,153.7z M1793.3,154.2c0-0.2,0.1-0.4,0.2-0.5h0.2c0,0.1,0,0.1,0,0.2
	c0.2,0.8,1.2,1.3,1.3,2.1c0,0.1,0,0.1,0,0.2c0,0.2-0.1,0.4-0.3,0.5h-0.1c0.1-0.9-1.2-1.4-1.3-2.3
	C1793.3,154.4,1793.3,154.3,1793.3,154.2L1793.3,154.2z M1794.6,156.8c0.2-0.2,0.3-0.3,0.6,0.1c0.1,0.2,0.1,0.5,0,0.7h-0.1
	C1795.3,157.2,1795.1,156.9,1794.6,156.8L1794.6,156.8z M1795.6,157.6c0.1,0,0.1-0.1,0.2-0.1s0.2,0,0.3,0.2c0,0.2,0,0.4,0,0.6h-0.1
	v-0.1C1795.9,158,1795.9,157.7,1795.6,157.6L1795.6,157.6z M1796.3,158.4c0.8-0.3,0.7,0.2,0.6,0.9l0,0v-0.1
	C1796.9,158.8,1796.6,158.5,1796.3,158.4L1796.3,158.4z M1796.9,159.3c0.2-0.2,0.4-0.6,0.8-0.1s0,0.6-0.1,0.8l-0.3-0.3L1796.9,159.3
	z M1798.6,159.7c0,0.3,0.1,0.6,0.2,0.9l-1.1-0.6L1798.6,159.7z M1798.9,160.8c1.4,0.6,2.6,1.7,3.3,3
	C1800.9,162.9,1799.6,162.2,1798.9,160.8L1798.9,160.8z M1802.9,165.4L1802.9,165.4c-0.1-0.1-0.1-0.3-0.2-0.4
	c-0.1-0.3-0.2-0.7-0.3-1c0.8,0.5,1.4,1.2,1.8,2C1803.8,166.2,1803.3,165.9,1802.9,165.4L1802.9,165.4z M1804.4,166L1804.4,166z
	 M1804.9,166.9c-0.2-0.2-0.3-0.4-0.3-0.7l0.9,0.4v-0.1c-0.1,0.1-0.1,0.4-0.3,0.4C1804.9,166.9,1805.1,167.1,1804.9,166.9
	L1804.9,166.9z M1805.4,167.5c-0.1-0.1-0.1-0.1-0.1-0.2c-0.1-0.1,0.1-0.5,0.2-0.8l0,0v0.1l0.8,0.6c-0.1,0.2-0.3,0.3-0.5,0.4
	C1805.8,167.7,1805.6,167.6,1805.4,167.5L1805.4,167.5z M1807.1,169.2l-0.5-0.4l0.8-0.6c-0.3,0.2-0.6,0.4-0.9,0.2l-0.2-0.1
	c-0.1-0.1-0.1-0.1-0.1-0.2c-0.1-0.2,0.1-0.6,0.2-0.9c0.1,0.5,0.3,1.1,1,0.9L1807.1,169.2z M1830.6,193.4c-0.2,0-0.3,0-0.5,0
	l-0.1-0.1c-0.2-0.3,0-0.4,0.2-0.6c-0.2,0.1-0.3,0.2-0.5,0.2c-0.1,0-0.1,0-0.2,0c-0.2-0.1-0.3-0.2-0.3-0.4s0.1-0.4,0.2-0.6l0,0
	l0.1-0.1l-0.1,0.1l0.7,0.7l0.5,0.7L1830.6,193.4z M1908.6,271.1l-33.3-32.4c-0.2-0.1-0.4-0.3-0.5-0.5l-0.8-0.8l-0.8-0.8l-0.8-0.8
	l-0.8-0.8c-0.2-0.3-0.6-0.4-0.8-0.7c-0.1-0.1-0.1-0.2-0.1-0.3c-0.4,0.1-0.6-0.4-0.8-0.8l-0.8-0.8l-0.8-0.8l-0.8-0.8l-0.8-0.8
	l-0.8-0.8l-0.8-0.8l-0.8-0.8l-0.8-0.8l-0.8-0.8l-0.8-0.8c-6.2-5.6-12.1-11.6-17.7-17.9l-0.8-0.8l-0.8-0.8l-0.8-0.8l-0.8-0.8
	l-0.8-0.8l-0.8-0.8l-0.8-0.8l-0.8-0.8l-0.8-0.8l-0.8-0.8c-0.2,0-0.8-0.1-0.3-0.7c0-0.1,0.1-0.1,0.2-0.1c0,0,0.1,0,0.2,0h0.1
	c0.2,0.1,0.4,0.5,0.6,0.6l0.8,0.8l0.8,0.8l0.8,0.8l0.8,0.8l0.7,0.8l0.8,0.8l0.8,0.8l0.8,0.8l0.8,0.8l0.4,0.4l0.4,0.4l15.6,15.4
	l2.2,2.2l0.8,0.8l0.8,0.8l0.8,0.8l0.8,0.8l0.8,0.8l0.8,0.8l0.8,0.8l0.8,0.8l0.8,0.8l0.8,0.8c0.2,0.2,0.5,0.4,0.5,0.6
	c0.4-0.1,0.6,0.4,0.9,0.8l0.8,0.8l0.8,0.8l0.8,0.8l0.8,0.8l0.8,0.8l33.6,31.7L1908.6,271.1z"/>
<path class="st6" d="M25.2,601.6c11-8,22.2-15.6,31.8-25.1c8.7-8.5,14.7-18.7,19.9-29.7c10.2-21.7,3.6-41.9-3.7-62.2
	c-5.6-15.6-13.3-30.3-18.4-46.1l-0.3-0.9l-1.2,7.8l-0.5-0.1c0.5-2.8,1.1-5.5,1.6-8.1c-3.3-10.6-5.3-21.3-3.5-32.6
	c3.4-19.7,18.6-35.3,38.3-39.1c7.9-1.5,16-2.2,23.8-4.2c23.3-6.1,36.9-21.9,44-44c3.5-10.7,4.3-22.1,2.4-33.3
	c-0.2-1.6-0.7-3.2-1.3-4.7c2.2,16.5,0.1,32.3-7.8,47.1c-0.2-2.6,1.3-4.6,2.1-7c7.5-21.1,6.7-41.5-4.7-61.2
	c-11.7-20.1-27.6-36.3-45.5-50.7c-1.4-1.3-3.1-2.2-4.9-2.6c-0.2,2,1.4,3.1,2,4.6l0.9,1.5c0.5,0.4,0.7,1,0.2,1.3s-0.6-0.6-0.9-0.9
	l-1-1.2c-1.4-1.2-2.8-2.6-4-4c-16-21.5-37-27.4-62.4-20.7c-10.7,2.9-21.3,6.1-32,9.3V625C7.2,615.9,15.8,608.5,25.2,601.6z
	 M90.9,360.6c7.9-1.5,16-2.1,23.7-4.3c1.1-0.3,2.2-0.7,3.3-1.1c3.2-1.3,6.4-2.7,9.4-4.4c5.7-3.6,10.7-8.2,14.9-13.5
	c1.4-1.7,2.7-3.6,4-5.5c0.6-1,1.1-2.3,2.7-2.1l0.1-0.1c0-0.1,0-0.3-0.1-0.4l0.3,0.1l-0.2,0.3v0.1c-4.8,7.7-10.2,14.8-17.8,19.7
	c-1.1,0.7-2.2,1.4-3.4,2c-6.6,4.8-14.3,6.7-22.1,8.1c-7.5,1.4-15.1,1.9-22.6,3.6C85.5,361.3,88.3,361.1,90.9,360.6L90.9,360.6z
	 M81.5,363.2l0.2,0.3c-0.1,0.1-0.2,0.2-0.3,0.2s-0.1-0.2-0.2-0.3L81.5,363.2z M79.8,363.7L80,364c-0.1,0.1-0.3,0.2-0.3,0.2
	s-0.1-0.2-0.2-0.3L79.8,363.7z M62.9,374.3L62.9,374.3c0.2-0.2,0.3-0.7,0.8-0.3c0.1,0.1,0.1,0.2,0,0.4l-0.1,0.1
	C63.4,374.7,63.2,374.7,62.9,374.3c0.1,0.9-0.4,1.5-1.6,2l-0.6,0.2L62.9,374.3L62.9,374.3z M59.7,377.4l0.5,0.4l-1.7,2.1l-0.5-0.3
	L59.7,377.4z M56.6,381.1l0.7,0.4l-2.5,3.4l-0.4-0.3L56.6,381.1z M53.6,386.7l-4,8.4C50.4,392,51.4,389,53.6,386.7L53.6,386.7z
	 M48.1,400.3L48.1,400.3l-1.6,10.8L46,411C46.7,407.3,47.5,403.6,48.1,400.3z"/>
<path class="st7" d="M508.1,761c-2.1-1.4-4.2-3-6.3-4.5c-0.4-0.2-0.6-0.7-0.5-1.1c0.4-4.6-0.4-9.3-2.3-13.5c-0.4-1.1-1-2.2-1.6-3.2
	c-0.1-0.2-0.1-0.4,0.1-0.6c0,0,0,0,0,0l0.1,0c1.3-0.5,2.5-1.3,3.6-2.3c2.2-1.9,3.8-4.3,4.7-7.1c1.1-2.9,1.2-6.1,0.5-9.1
	c-0.8-3.4-3-6.3-6-7.9c-3.3-1.8-6.8-1.8-10.4-0.4c-0.8,0.3-1.5,0.7-2.2,1.2c-0.4,0.3-0.6,0.3-0.8-0.1c-0.5-2.3-1.6-4.3-3.2-6
	c-2.5-2.7-6.2-3.8-9.8-3c-3.6,0.9-6.3,3.1-8,6.5c-1,1.9-1.6,4.1-1.7,6.3c0,0.7-0.4,0.6-0.6,0.5c-1.4-0.2-2.7-0.4-4.1-0.5
	c-0.4,0-0.5-0.3-0.4-0.7c0.3-2,0.3-4.1,0-6.2c-0.1-0.4,0-0.7,0.3-0.9c2.3-2,2.2-5.9-0.4-7.5c-2.9-1.8-6.5-0.1-6.9,3.8
	c-0.3,2.2,1.2,4.3,3.4,4.7c0.5,0.1,0.8,0.3,0.8,1c0.1,1.6,0.1,3.3,0,4.9c0,0.7-0.3,0.7-0.7,0.7c-2.4,0-4.8,0.2-7.1,0.8
	c-0.5,0.1-0.6-0.1-0.5-0.5c0.5-2.6,0.5-5.3,0.2-7.9c0-0.4,0.1-0.7,0.4-0.9c1.9-1.7,2-4.9,0.7-6.6c-1.5-1.9-4.2-2.2-6.1-0.8
	c-0.2,0.1-0.3,0.3-0.5,0.5c-1.3,1.2-1.8,3.1-1.3,4.8c0.5,1.8,1.6,3,3.5,3.3c0.4,0.1,0.5,0.2,0.6,0.6c0.2,2.7,0.1,5.4-0.3,8.1
	c0,0.3-0.2,0.3-0.4,0.3c-2.2,0.7-4.3,1.6-6.3,2.6c-2.2,1.3-4.3,2.8-6.2,4.6c-2.3,2.1-4.2,4.6-5.7,7.3c-0.5,0.9-1,1.8-1.3,2.7
	c0,0.1-0.1,0.2-0.1,0.3c-0.1,0-0.2,0.1-0.2,0.2l-1.7,5.6l0,0c-0.6,2.3-0.8,4.7-0.6,7.1c0.4,4.8,1.8,9.4,4.3,13.5
	c3.9,6.6,9.4,11.4,15.9,14.9c4,2.1,8.3,3.7,12.8,4.7c6.3,1.4,12.7,1.6,19.1,0.4c6-1,11.6-3.5,16.3-7.2c2.8-2.2,5.1-4.8,6.8-7.9
	c0.3-0.6,0.9-1,1.6-1c2.4,0,4.9-0.2,7.3-0.2c1.1,0,2-0.5,2.4-2.4C509.5,762.2,508.7,761.5,508.1,761z"/>
<path class="st8" d="M445.4,769.6c3.8,0.6,7.7,0.1,11.3-1.4c7.8-3.3,12.8-9.2,14.8-17.8c1.3-5.5,0.9-10.9-1.6-15.9
	c-3.6-7.1-12.1-10-19.2-6.5c-2.1,1-2.1,1.2-3.5-1c-2.4-3.7-7-4.5-10.6-1.9c-5.4,3.8-9.1,9.5-10.5,16c-0.1,0.4-0.1,0.7-0.2,1.1
	c0,0,0,0,0,0c-0.1,3,0.7,5.9,1.7,8.6c1.6,4.3,4.1,8.1,7.3,11.4c2.4,2.5,5.1,4.6,8,6.5C443.7,769.2,444.5,769.5,445.4,769.6z"/>
<path class="st9" d="M466.6,775.6c0.1,0,0.1,0,0.2-0.1c3.1-2.6,5.8-5.7,8-9.1c2.5-3.7,4.3-7.9,5.5-12.2c2.5-9.3,2.4-18.4-0.9-27.2
	c-0.3-0.7-0.6-1.4-0.9-2.2c-0.2-0.5-0.6-0.6-1-0.8c-3.5-1.7-7.1-3-10.9-3.8c-6.3-1.5-12.9-1.5-19.1,0c-0.5,0.1-1.1,0.3-1.6,0.4
	c-0.2,0.1-0.5,0.1-0.7,0.2c-0.2,0.1-0.3,0.3-0.3,0.5c0,0.1,0.1,0.2,0.2,0.2c1.2,0.5,2.3,1.1,3,2.2c1,1.6,2.1,1.5,3.6,0.9
	c3.5-1.4,7.3-1.4,10.8-0.1c6.4,2.3,10.3,7.2,11.7,14.2c3.3,14.9-5.9,29.8-20.8,33.3c-0.5,0.1-1,0.2-1.5,0.2
	c-0.3,0.6,0.2,0.7,0.5,0.8c1.8,0.6,3.6,1.2,5.4,1.6c2.4,0.5,4.8,0.9,7.3,1.1C465.5,775.8,466.1,775.8,466.6,775.6z"/>
<path class="st10" d="M480.6,773.8c2.3-2.5,4.2-5.4,5.7-8.4c5.1-10.2,6.3-20.7,3.6-31.6c-0.1-0.5-0.4-1-0.8-1.4
	c-2-2-4.2-3.8-6.6-5.4c-0.1-0.1-0.2-0.1-0.5-0.3c1,2.9,1.7,5.9,2.1,8.9c1,7.3,0.2,14.8-2.2,21.7c-2.2,6.6-5.9,12.6-10.7,17.5
	c-0.1,0.1-0.1,0.1-0.2,0.2c-0.1,0.5,0.3,0.5,0.5,0.5c2.9-0.3,5.7-0.6,8.5-1.5C480.3,774,480.5,773.9,480.6,773.8z"/>
<path class="st11" d="M503.5,727.9c1.7-5.8,0.1-11-4.1-13.4c-3.2-1.8-6.6-1.6-9.8,0.3s-5.2,4.7-6.2,8.4c-0.1,0.5,0.1,1.1,0.5,1.3
	c1.1,0.7,2.1,1.5,3.1,2.3c0.5,0.4,0.7,0.3,1-0.2c1.8-2.7,4-5.2,6.7-7.1c0.5-0.4,1.1-0.7,1.7-1.1c0.5-0.4,1.3-0.3,1.7,0.2
	c0,0.1,0.1,0.1,0.1,0.2c0.4,0.7,0.2,1.5-0.5,1.9l0,0c-1.1,0.7-2.1,1.4-3,2.3c-1.8,1.7-3.4,3.5-4.7,5.5c-0.2,0.3-0.3,0.5,0,0.8
	c2,1.8,3.7,3.9,5.3,6.1c0.2,0.3,0.6,0.5,0.9,0.3c0,0,0.1,0,0.1,0C499.7,734.3,502.3,731.4,503.5,727.9z"/>
<path class="st12" d="M476.2,720.4c0.2,0.1,0.4,0,0.5-0.2c0,0,0,0,0,0c0-0.1,0-0.1,0-0.2c0-2.7-0.5-5.3-1.5-7.8
	c-0.1-0.2-0.2-0.4-0.3-0.6c-0.3-0.9-0.1-1.6,0.6-2c0.7-0.4,1.4-0.1,1.8,0.7c0.4,0.9,0.8,1.9,1.1,2.9c0.7,2.4,1,4.8,1,7.3
	c0,1.4,0,1.6,1,2.1c0.2,0.1,0.4,0,0.5-0.2c0,0,0,0,0,0c0,0,0,0,0-0.1c0.5-2,1.3-3.9,2.6-5.4c1.3-1.4,1.2-2.6,0.7-4.1
	c-1.1-3.9-4.4-6.6-8.2-6.6c-3.5,0-7.2,2.9-8.3,6.7c-0.4,1.3-0.7,2.7-0.7,4.2c0,0.4,0.1,0.6,0.5,0.7
	C470.6,718.3,473.4,719.2,476.2,720.4z"/>
<path class="st13" d="M496.2,764.1L496.2,764.1c1.1-2,1.8-4.1,2.2-6.3c0.7-3.3,0.6-6.7-0.3-10c-0.9-3.4-2.3-6.7-4.3-9.6
	c0,0-0.1,0-0.3-0.1c1.6,11.5-1.1,23.2-7.4,32.9c-0.1,0.2-0.1,0.4,0.1,0.6c0,0,0,0,0,0c0.1,0.1,0.3,0.1,0.4,0l0,0
	c1.6-0.7,3.1-1.6,4.5-2.7C493.1,767.4,494.7,765.8,496.2,764.1z"/>
<path class="st14" d="M447.5,768.5c-2.6-0.9-9.8-3.3-15.2-12.4c-5.3-9.1-4.4-15.6-4.7-15.1c-1.1,1.9-0.3,9,0.4,11.5
	c2.7,8.6,8.4,13.9,16.6,16.1C445.6,768.7,446.5,768.7,447.5,768.5z"/>
<path class="st14" d="M480.1,773.4c-0.2,0-0.4,0.1-0.5,0.2c-0.9,0.4-7.3,1.4-7.3,1.4s-0.9,1.1-1.2,1.4s-4,3.2-3.6,3.2
	c0.5,0,1-0.1,1.5-0.1c2.2-0.2,4.4-0.5,6.6-1c0.3,0,0.6-0.2,0.9-0.4C477.6,776.8,480.5,773.4,480.1,773.4z"/>
<path class="st15" d="M494.8,765.7c0.3-0.4,1.5-3.1,1.2-2.8c-0.1,0.1-8.4,7.5-8.6,7.5c-0.1,0-0.2,0.1-0.3,0.2
	c-0.8,1.1-1.5,2.1-2.3,3.2c-0.1,0.2-0.1,0.4,0,0.5c0.1,0.1,0.3,0.1,0.4,0.1C489.1,772.4,492.4,769.4,494.8,765.7z"/>
<path class="st16" d="M444.3,703.6c-0.3,0.9,0.1,2,1.1,2.3c0,0,0,0,0,0l0,0c1,0.3,2-0.3,2.2-1.3c0.3-0.9-0.2-1.9-1.1-2.3
	C445.6,702.1,444.6,702.7,444.3,703.6z"/>
<path class="st17" d="M503.4,760.5c-0.2-0.1-0.4-0.1-0.6,0.1c0,0,0,0,0,0c0,0,0,0.1,0,0.1c-0.3,0.8-0.5,1.6-0.7,2.4
	c-0.1,0.3,0,0.5,0.3,0.5c1.2,0,2.5-0.1,3.7-0.3c0.2,0,0.4-0.2,0.4-0.5c0,0,0,0,0,0c0-0.1-0.1-0.2-0.2-0.3L503.4,760.5z"/>
<path class="st18" d="M457.4,706.6c0.1,0,0.1,0,0.2-0.1c0.8-0.5,1.1-1.5,0.7-2.4c-0.4-0.8-1.4-1.2-2.2-0.8c-0.9,0.4-1.3,1.4-1,2.4
	c0,0,0,0.1,0.1,0.1C455.8,706.4,456.6,706.7,457.4,706.6z"/>
<path class="st19" d="M442.6,748.3L442.6,748.3c1.7,0.5,3.4,0.3,4.9-0.4c0.7-0.3,1-1,0.7-1.7c0,0,0,0,0,0l-0.1-0.1
	c-0.4-0.7-1.2-1-1.9-0.7c-2.6,0.8-3.1,0.6-4.9-1.5c-0.4-0.6-1.3-0.8-1.9-0.5c-0.6,0.3-0.9,1-0.6,1.7c0,0.1,0.1,0.1,0.1,0.2
	C439.7,746.7,441,747.8,442.6,748.3z"/>
<path class="st20" d="M430.8,740.7c-0.1,0.4-0.3,0.8-0.3,1.1c-0.2,0.7,0.2,1.4,0.8,1.7c0.7,0.2,1.4-0.2,1.6-0.9c0,0,0,0,0,0l0,0
	c0.3-0.8,0.5-1.5,0.7-2.3c0.3-0.7,0-1.4-0.6-1.7c-0.7-0.3-1.4,0-1.7,0.6c0,0,0,0.1,0,0.1c0,0.1,0,0.2-0.1,0.2
	C431,739.9,430.9,740.3,430.8,740.7z"/>
<path class="st21" d="M454.3,747.7c-0.1,0.4-0.3,0.8-0.4,1.2c-0.2,0.6,0.1,1.3,0.7,1.6l0,0c0.6,0.2,1.3,0,1.5-0.6c0,0,0,0,0,0
	c0.4-0.9,0.7-1.8,0.8-2.8c0.1-0.6-0.3-1.2-0.9-1.4l-0.1,0c-0.6-0.2-1.3,0.2-1.5,0.8c0,0,0,0,0,0l0,0
	C454.5,746.9,454.4,747.3,454.3,747.7L454.3,747.7z"/>
<path class="st7" d="M1222.6,889.4c1.6-2,3-4.1,4.6-6.2c0.3-0.3,0.3-0.8,0.1-1.2c-1.8-4.3-2.5-8.9-2-13.5c0.1-1.2,0.3-2.3,0.5-3.5
	c0.1-0.2-0.1-0.4-0.3-0.5c0,0,0,0,0,0l-0.1,0c-1.4-0.1-2.8-0.5-4.1-1.1c-2.6-1.1-4.9-3-6.7-5.3c-1.9-2.4-3.1-5.4-3.3-8.5
	c-0.3-3.5,0.9-6.9,3.3-9.4c2.6-2.7,5.9-3.8,9.8-3.6c0.8,0.1,1.6,0.2,2.4,0.4c0.5,0.1,0.7,0.1,0.7-0.4c-0.3-2.3,0.2-4.6,1.2-6.7
	c1.5-3.3,4.7-5.5,8.4-5.9c3.7-0.3,6.9,1,9.6,3.7c1.6,1.5,2.8,3.4,3.5,5.4c0.2,0.6,0.5,0.4,0.7,0.3c1.2-0.6,2.5-1.2,3.8-1.7
	c0.3-0.1,0.4-0.4,0.2-0.8c-0.9-1.9-1.5-3.8-1.9-5.9c0-0.4-0.3-0.7-0.6-0.8c-2.8-1.1-3.9-5-2-7.3c2.2-2.6,6.1-2.1,7.8,1.5
	c1,2,0.2,4.5-1.8,5.5c-0.5,0.3-0.6,0.5-0.5,1.2c0.4,1.6,0.9,3.2,1.6,4.7c0.2,0.6,0.5,0.6,0.9,0.5c2.3-0.7,4.6-1.2,7-1.5
	c0.5,0,0.5-0.3,0.3-0.7c-1.2-2.4-2.1-4.9-2.6-7.5c-0.1-0.4-0.3-0.6-0.7-0.7c-2.4-1.1-3.4-4-2.7-6c0.8-2.2,3.3-3.4,5.5-2.6
	c0.2,0.1,0.4,0.2,0.6,0.3c1.6,0.8,2.6,2.4,2.7,4.1c0.1,1.9-0.6,3.4-2.3,4.2c-0.4,0.2-0.4,0.3-0.4,0.8c0.6,2.6,1.6,5.2,2.8,7.6
	c0.1,0.3,0.3,0.2,0.5,0.2c2.3,0,4.6,0.2,6.8,0.6c2.5,0.5,5,1.3,7.3,2.4c2.8,1.3,5.4,3,7.6,5.2c0.8,0.6,1.5,1.4,2.1,2.2
	c0,0.1,0.1,0.2,0.2,0.2c0.1,0,0.2,0.1,0.3,0.2l3.4,4.8l0,0c1.3,2,2.2,4.2,2.7,6.6c1.1,4.6,1.1,9.5,0.1,14.1
	c-1.7,7.5-5.5,13.7-10.6,19.1c-3.2,3.3-6.8,6.1-10.7,8.4c-5.5,3.3-11.6,5.4-18,6.3c-6,0.9-12.1,0.3-17.7-1.8c-3.3-1.2-6.3-3-8.9-5.4
	c-0.5-0.5-1.2-0.7-1.8-0.4c-2.3,0.7-4.7,1.4-7,2c-1.1,0.3-2.1,0.2-3-1.6C1221.6,890.9,1222.1,890,1222.6,889.4z"/>
<path class="st8" d="M1284.9,878.2c-3.4,1.8-7.3,2.5-11.2,2.1c-8.4-0.7-15.1-4.8-19.6-12.3c-2.9-4.8-4.2-10.1-3.4-15.6
	c1.2-7.8,8.5-13.2,16.3-12.1c2.3,0.3,2.4,0.5,3-2c1.1-4.3,5.2-6.5,9.5-5.1c6.3,2,11.6,6.3,14.9,12c0.2,0.3,0.3,0.7,0.5,1
	c0,0,0,0,0,0c1.1,2.8,1.2,5.8,1,8.7c-0.2,4.5-1.4,9-3.4,13.1c-1.5,3.1-3.4,6-5.6,8.6C1286.4,877.3,1285.7,877.8,1284.9,878.2z"/>
<path class="st9" d="M1266.6,890.5c-0.1,0-0.1,0-0.2,0c-3.8-1.5-7.3-3.6-10.5-6.2c-3.5-2.8-6.5-6.1-9-9.9c-5.3-8-7.9-16.7-7.5-26.1
	c0-0.8,0.1-1.5,0.1-2.3c0-0.6,0.4-0.8,0.7-1.1c2.8-2.7,5.8-5.1,9.2-7c5.5-3.4,11.8-5.4,18.2-5.9c0.6,0,1.1-0.1,1.7-0.1
	c0.2,0,0.5,0,0.8,0c0.2,0,0.4,0.2,0.4,0.4c0,0.1,0,0.2-0.1,0.3c-1,0.9-1.8,1.8-2.2,3c-0.5,1.8-1.5,2-3.2,1.9
	c-3.7-0.3-7.4,0.9-10.3,3.2c-5.4,4.2-7.5,10-6.7,17.1c1.4,15.2,14.9,26.5,30.1,25.2c0.5-0.1,1-0.2,1.5-0.3c0.5,0.5,0,0.7-0.3,0.9
	c-1.5,1.1-3,2.2-4.6,3.2c-2.1,1.3-4.3,2.3-6.6,3.2C1267.7,890.3,1267.1,890.5,1266.6,890.5z"/>
<path class="st10" d="M1252.7,893.1c-3-1.7-5.7-3.8-8.1-6.3c-8-8.1-12.4-17.7-13.2-28.9c-0.1-0.5,0.1-1.1,0.3-1.5
	c1.3-2.5,2.8-4.9,4.6-7.2c0.1-0.1,0.2-0.2,0.4-0.4c-0.1,3.1,0.2,6.1,0.7,9.2c1.4,7.3,4.4,14.1,8.9,20c4.2,5.6,9.5,10.1,15.6,13.4
	c0.1,0,0.2,0.1,0.2,0.2c0.3,0.4-0.1,0.5-0.3,0.6c-2.8,0.6-5.6,1.2-8.6,1.2C1253.1,893.2,1252.9,893.2,1252.7,893.1z"/>
<path class="st11" d="M1216.8,856.5c-3.4-5-3.5-10.4-0.2-14c2.5-2.7,5.8-3.5,9.4-2.8c3.7,0.7,6.4,2.9,8.5,6.1c0.3,0.4,0.3,1-0.1,1.4
	c-0.8,1-1.6,2.1-2.3,3.1c-0.3,0.5-0.5,0.5-1,0.1c-2.6-2.1-5.4-3.7-8.5-4.7c-0.6-0.2-1.3-0.4-1.9-0.5c-0.6-0.2-1.3,0.1-1.6,0.7
	c0,0.1,0,0.1-0.1,0.2c-0.2,0.7,0.3,1.5,1.1,1.6l0,0c1.2,0.3,2.4,0.7,3.6,1.2c2.2,1,4.3,2.3,6.2,3.8c0.3,0.3,0.4,0.4,0.2,0.8
	c-1.3,2.4-2.4,4.8-3.1,7.4c-0.1,0.4-0.4,0.6-0.8,0.6c0,0-0.1,0-0.1,0C1222.4,861.3,1219,859.5,1216.8,856.5z"/>
<path class="st12" d="M1240.5,840.9c-0.2,0.1-0.4,0.1-0.6,0c0,0,0,0,0,0c0,0-0.1-0.1-0.1-0.1c-0.8-2.6-1.1-5.2-1-7.9
	c0-0.2,0.1-0.5,0.1-0.7c0-0.9-0.4-1.6-1.2-1.7c-0.8-0.1-1.3,0.3-1.5,1.2c-0.1,1-0.2,2-0.2,3.1c0.1,2.5,0.6,4.9,1.3,7.2
	c0.4,1.4,0.5,1.5-0.4,2.3c-0.2,0.2-0.4,0.1-0.6,0c0,0,0,0,0,0c0,0,0,0,0-0.1c-1.1-1.7-2.4-3.3-4.2-4.3c-1.6-0.9-1.9-2.1-2-3.7
	c-0.1-4.1,2.2-7.7,5.8-8.8c3.4-1.1,7.7,0.6,10,3.8c0.8,1.1,1.5,2.4,1.9,3.7c0.1,0.4,0.1,0.6-0.3,0.9
	C1245.1,837.2,1242.7,839,1240.5,840.9z"/>
<path class="st13" d="M1234.9,888.6L1234.9,888.6c-1.7-1.6-3-3.4-4-5.3c-1.6-2.9-2.6-6.2-2.8-9.6c-0.2-3.5,0.2-7.1,1.1-10.5
	c0,0,0.1-0.1,0.2-0.2c2.1,11.4,8.2,21.7,17.2,29c0.2,0.1,0.2,0.4,0.1,0.6c0,0,0,0,0,0c-0.1,0.1-0.2,0.2-0.4,0.2l0,0
	c-1.7-0.2-3.4-0.6-5.1-1.2C1238.9,890.9,1236.8,889.9,1234.9,888.6z"/>
<path class="st14" d="M1282.6,877.8c2.2-1.7,8.4-6.2,10.6-16.5c2.3-10.3-0.6-16.2-0.2-15.8c1.7,1.4,3.1,8.5,3.1,11.1
	c0.1,9-3.7,15.8-10.8,20.4C1284.5,877.4,1283.5,877.7,1282.6,877.8z"/>
<path class="st14" d="M1253.1,892.5c0.2,0,0.4,0,0.6,0c1,0.1,7.4-1,7.4-1s1.2,0.7,1.6,0.9s4.8,1.8,4.4,1.9c-0.5,0.2-1,0.3-1.4,0.4
	c-2.2,0.5-4.4,0.9-6.6,1.1c-0.3,0.1-0.7,0-1-0.1C1256.5,895,1252.7,892.7,1253.1,892.5z"/>
<path class="st15" d="M1236.8,889.7c-0.4-0.3-2.4-2.5-2-2.3c0.2,0.1,10.4,4.6,10.5,4.5c0.1,0,0.2,0,0.3,0.1c1.1,0.8,2.1,1.6,3.2,2.3
	c0.2,0.1,0.2,0.3,0.1,0.5c-0.1,0.1-0.2,0.2-0.4,0.2C1244.2,894.3,1240.1,892.5,1236.8,889.7z"/>
<path class="st16" d="M1265.6,815.1c0.6,0.8,0.5,1.9-0.3,2.5c0,0,0,0,0,0l0,0c-0.8,0.5-2,0.3-2.5-0.5c-0.5-0.8-0.4-1.9,0.3-2.5
	C1263.9,814.1,1265,814.3,1265.6,815.1z"/>
<path class="st17" d="M1226.9,887.4c0.1-0.2,0.4-0.2,0.6-0.1c0,0,0,0,0,0c0,0,0,0.1,0.1,0.1c0.5,0.7,1,1.4,1.4,2
	c0.2,0.3,0.2,0.4-0.2,0.5c-1.2,0.3-2.4,0.7-3.6,0.9c-0.2,0-0.4-0.1-0.5-0.3c0,0,0,0,0,0c0-0.1,0-0.2,0.1-0.3L1226.9,887.4z"/>
<path class="st18" d="M1254,822c-0.1,0-0.2,0-0.2,0c-0.9-0.2-1.6-1.1-1.4-2.1c0.1-0.9,0.9-1.6,1.8-1.5c1,0.1,1.7,1,1.6,2
	c0,0,0,0.1,0,0.1C1255.5,821.3,1254.8,821.9,1254,822z"/>
<path class="st19" d="M1280.9,857.1L1280.9,857.1c-1.4,1-3.1,1.4-4.8,1.1c-0.7,0-1.2-0.7-1.2-1.4c0,0,0,0,0,0l0-0.1
	c0.1-0.8,0.8-1.3,1.6-1.3c2.7-0.1,3.2-0.4,4.2-2.9c0.2-0.7,1-1.2,1.7-1c0.7,0.1,1.2,0.7,1.1,1.4c0,0.1,0,0.1,0,0.2
	C1283.3,854.6,1282.3,856.1,1280.9,857.1z"/>
<path class="st20" d="M1289.9,846.2c0.2,0.3,0.5,0.6,0.7,1c0.4,0.6,0.3,1.4-0.3,1.8c-0.6,0.4-1.4,0.2-1.8-0.4c0,0,0,0,0,0l0,0
	c-0.5-0.6-0.9-1.3-1.4-2c-0.5-0.5-0.4-1.3,0.1-1.8s1.3-0.4,1.8,0.1c0,0,0,0,0.1,0.1c0,0.1,0.1,0.1,0.1,0.2
	C1289.4,845.5,1289.6,845.9,1289.9,846.2z"/>
<path class="st21" d="M1269.7,860.2c0.2,0.4,0.5,0.7,0.7,1.1c0.4,0.5,0.3,1.3-0.2,1.7l0,0c-0.5,0.4-1.2,0.4-1.6-0.1c0,0,0,0,0,0
	c-0.7-0.7-1.2-1.5-1.7-2.4c-0.3-0.5-0.1-1.2,0.4-1.6l0,0c0.5-0.4,1.3-0.2,1.7,0.3c0,0,0,0,0,0l0,0
	C1269.2,859.5,1269.4,859.8,1269.7,860.2L1269.7,860.2z"/>
<path class="st7" d="M384.3,177.7c-2.4-0.8-4.8-1.7-7.3-2.5c-0.4-0.1-0.7-0.5-0.8-0.9c-1-4.5-3.1-8.7-6.1-12.3
	c-0.7-0.9-1.5-1.8-2.4-2.6c-0.2-0.1-0.2-0.4,0-0.6c0,0,0,0,0,0l0.1-0.1c1.1-0.9,2-2,2.8-3.3c1.5-2.4,2.4-5.2,2.5-8.1
	c0.2-3.1-0.5-6.2-2.1-8.8c-1.7-3-4.6-5.2-8-5.8c-3.7-0.7-7,0.3-10.1,2.6c-0.6,0.5-1.2,1.1-1.7,1.7c-0.3,0.4-0.5,0.5-0.8,0.1
	c-1.1-2-2.8-3.7-4.8-4.8c-3.1-1.8-7-1.9-10.2-0.1c-3.2,1.9-5.1,4.7-5.8,8.6c-0.4,2.1-0.3,4.4,0.2,6.5c0.2,0.6-0.2,0.7-0.4,0.7
	c-1.4,0.2-2.7,0.4-4.1,0.7c-0.4,0.1-0.6-0.1-0.6-0.5c-0.3-2-0.9-4-1.8-5.9c-0.2-0.3-0.2-0.7,0.1-1c1.7-2.5,0.4-6.3-2.5-7.1
	c-3.3-0.9-6.2,1.8-5.5,5.7c0.3,2.2,2.4,3.8,4.6,3.5c0.6-0.1,0.8,0.1,1.1,0.8c0.6,1.6,1,3.1,1.4,4.7c0.2,0.7-0.1,0.8-0.5,0.9
	c-2.3,0.7-4.5,1.6-6.6,2.8c-0.4,0.2-0.6,0-0.6-0.4c-0.3-2.6-1-5.2-2.1-7.7c-0.1-0.3-0.1-0.7,0.1-1c1.3-2.2,0.5-5.3-1.3-6.5
	c-1.9-1.4-4.6-1-6,1c-0.1,0.2-0.2,0.4-0.3,0.6c-0.9,1.5-0.8,3.4,0.1,4.9c1,1.6,2.4,2.4,4.3,2.2c0.4-0.1,0.6,0,0.7,0.5
	c1,2.5,1.7,5.2,2,7.9c0,0.3-0.1,0.3-0.3,0.4c-1.9,1.3-3.7,2.7-5.3,4.3c-1.8,1.9-3.3,3.9-4.6,6.2c-1.6,2.7-2.7,5.6-3.4,8.6
	c-0.3,1-0.4,2-0.5,3c0,0.1,0,0.2-0.1,0.3c-0.1,0.1-0.1,0.2-0.1,0.3l0,5.9l0,0c0.1,2.4,0.6,4.7,1.5,7c1.7,4.5,4.5,8.4,8,11.7
	c5.6,5.2,12.3,8.2,19.5,9.7c4.5,0.9,9,1.2,13.6,0.8c6.4-0.4,12.7-2.2,18.4-5.1c5.4-2.7,10.1-6.7,13.6-11.6c2-2.9,3.5-6.1,4.3-9.5
	c0.1-0.7,0.6-1.2,1.3-1.4c2.3-0.7,4.6-1.5,6.9-2.3c1.1-0.4,1.8-1.1,1.6-3C386,178.3,385.1,177.9,384.3,177.7z"/>
<path class="st8" d="M326.8,203.9c3.8-0.5,7.4-2.1,10.4-4.6c6.5-5.4,9.7-12.5,9.1-21.3c-0.3-5.7-2.3-10.7-6.1-14.8
	c-5.4-5.7-14.5-6-20.3-0.7c-1.7,1.6-1.7,1.8-3.6,0.1c-3.4-2.9-8-2.3-10.7,1.3c-4,5.2-6,11.8-5.4,18.3c0,0.4,0.1,0.7,0.2,1.1
	c0,0,0,0,0,0c0.7,2.9,2.3,5.4,4.1,7.7c2.8,3.6,6.2,6.6,10.2,8.8c3,1.7,6.2,3,9.5,3.9C325,204,325.9,204,326.8,203.9z"/>
<path class="st9" d="M348.8,203.6c0.1,0,0.1-0.1,0.2-0.1c2.2-3.4,3.9-7.1,5.1-11c1.3-4.3,1.9-8.8,1.8-13.2c-0.2-9.6-3-18.3-8.7-25.8
	c-0.5-0.6-1-1.2-1.4-1.8c-0.3-0.5-0.8-0.4-1.2-0.5c-3.8-0.7-7.7-0.8-11.5-0.6c-6.5,0.3-12.8,2.2-18.3,5.5c-0.5,0.3-0.9,0.6-1.4,0.9
	c-0.2,0.1-0.4,0.3-0.6,0.4c-0.2,0.1-0.2,0.4-0.1,0.6c0.1,0.1,0.2,0.2,0.3,0.2c1.3,0.2,2.5,0.4,3.5,1.2c1.4,1.2,2.4,0.8,3.7-0.2
	c2.9-2.3,6.6-3.5,10.3-3.2c6.8,0.4,11.9,4,15.3,10.3c7.5,13.3,2.9,30.2-10.4,37.9c-0.5,0.2-0.9,0.5-1.4,0.6
	c-0.1,0.7,0.4,0.6,0.7,0.6c1.9,0.1,3.7,0.1,5.6,0c2.4-0.2,4.9-0.5,7.3-1.1C347.8,204.1,348.3,203.9,348.8,203.6z"/>
<path class="st10" d="M361.7,197.8c1.5-3.1,2.5-6.4,3.1-9.7c2-11.2,0.1-21.6-5.6-31.3c-0.3-0.5-0.7-0.8-1.1-1.1
	c-2.5-1.3-5.1-2.4-7.9-3.3c-0.1,0-0.3-0.1-0.6-0.1c1.8,2.5,3.4,5.2,4.6,8c3,6.7,4.4,14.1,4.1,21.5c-0.3,6.9-2,13.7-5.2,19.9
	c0,0.1-0.1,0.2-0.1,0.3c0,0.5,0.4,0.4,0.6,0.3c2.7-1.1,5.3-2.2,7.7-3.9C361.5,198.1,361.6,198,361.7,197.8z"/>
<path class="st11" d="M370.4,147.3c0-6.1-3.1-10.5-7.8-11.6c-3.6-0.8-6.7,0.4-9.3,3.1c-2.6,2.7-3.6,6-3.5,9.8c0,0.5,0.4,1,0.9,1.1
	c1.2,0.4,2.4,0.8,3.6,1.3c0.5,0.2,0.7,0.1,0.9-0.5c0.9-3.1,2.4-6.1,4.3-8.8c0.4-0.5,0.8-1,1.3-1.5c0.4-0.5,1.1-0.7,1.7-0.3
	c0.1,0,0.1,0.1,0.2,0.1c0.6,0.5,0.6,1.4,0.1,2l0,0c-0.8,1-1.6,2-2.3,3c-1.2,2.1-2.2,4.3-2.9,6.7c-0.1,0.4-0.1,0.6,0.3,0.8
	c2.4,1.2,4.7,2.6,6.8,4.3c0.3,0.3,0.7,0.3,1,0c0,0,0,0,0.1-0.1C368.6,154.5,370.3,151,370.4,147.3z"/>
<path class="st12" d="M342.1,147.9c0.2,0,0.4-0.1,0.5-0.4c0,0,0,0,0,0c0-0.1,0-0.1,0-0.2c-0.8-2.6-2-5-3.7-7.1
	c-0.1-0.2-0.3-0.4-0.5-0.5c-0.6-0.7-0.6-1.5,0-2.1c0.6-0.5,1.3-0.5,1.9,0.2c0.7,0.8,1.3,1.6,1.9,2.4c1.3,2.1,2.3,4.3,3,6.7
	c0.4,1.4,0.4,1.5,1.6,1.7c0.2,0,0.4-0.1,0.5-0.3c0,0,0,0,0,0c0,0,0,0,0-0.1c0-2,0.1-4.1,1-5.9c0.8-1.7,0.3-2.8-0.5-4.2
	c-2.2-3.4-6.1-5.1-9.7-4c-3.4,1-6,4.8-6.1,8.8c0,1.4,0.1,2.8,0.5,4.2c0.1,0.4,0.3,0.6,0.7,0.6C336.1,147.6,339.1,147.6,342.1,147.9z
	"/>
<path class="st13" d="M373.8,184L373.8,184c0.4-2.3,0.5-4.5,0.3-6.7c-0.3-3.4-1.4-6.6-3.1-9.5c-1.8-3-4.1-5.7-6.8-8c0,0-0.1,0-0.3,0
	c4.8,10.6,5.6,22.5,2.4,33.6c-0.1,0.2,0.1,0.4,0.3,0.5c0,0,0,0,0,0c0.1,0,0.3,0,0.4-0.1l0,0c1.3-1.2,2.5-2.5,3.5-3.9
	C371.8,188.2,372.9,186.1,373.8,184z"/>
<path class="st14" d="M328.4,202.3c-2.8-0.1-10.4-0.3-18.1-7.5c-7.7-7.2-8.7-13.6-8.8-13.1c-0.6,2.1,2.3,8.8,3.7,10.9
	c5,7.5,12,10.9,20.5,10.6C326.7,203,327.6,202.7,328.4,202.3z"/>
<path class="st14" d="M361.1,197.6c-0.2,0.1-0.3,0.2-0.5,0.3c-0.7,0.6-6.6,3.4-6.6,3.4s-0.6,1.3-0.8,1.7c-0.2,0.4-2.9,4.2-2.5,4.1
	c0.5-0.2,0.9-0.3,1.4-0.5c2.1-0.8,4.1-1.8,6-2.9c0.3-0.1,0.6-0.3,0.8-0.6C359.7,201.5,361.5,197.5,361.1,197.6z"/>
<path class="st15" d="M372.9,186c0.1-0.5,0.5-3.4,0.3-3c-0.1,0.2-5.9,9.6-6,9.7c-0.1,0-0.2,0.1-0.2,0.3c-0.4,1.2-0.8,2.5-1.3,3.7
	c-0.1,0.2,0,0.4,0.2,0.5c0.1,0.1,0.3,0,0.4-0.1C369.4,194,371.7,190.2,372.9,186z"/>
<path class="st16" d="M306.8,141c-0.1,1,0.7,1.8,1.7,1.9c0,0,0,0,0,0l0,0c1,0,1.8-0.9,1.8-1.9c0-1-0.7-1.8-1.7-1.9
	C307.5,139.2,306.7,140,306.8,141z"/>
<path class="st17" d="M379.7,178.5c-0.2-0.1-0.5,0-0.5,0.3c0,0,0,0,0,0c0,0,0,0.1,0,0.1c0,0.9,0,1.7,0,2.5c0,0.3,0.1,0.5,0.4,0.4
	c1.2-0.4,2.3-0.8,3.5-1.3c0.2-0.1,0.3-0.3,0.2-0.5c0,0,0,0,0,0c0-0.1-0.1-0.2-0.3-0.2L379.7,178.5z"/>
<path class="st18" d="M320.2,140.1c0.1,0,0.1-0.1,0.2-0.1c0.7-0.7,0.7-1.8,0-2.5c-0.6-0.7-1.6-0.8-2.3-0.2c-0.7,0.6-0.9,1.8-0.2,2.5
	c0,0,0.1,0.1,0.1,0.1C318.6,140.4,319.4,140.5,320.2,140.1z"/>
<path class="st19" d="M318,184.3L318,184.3c1.7,0,3.3-0.6,4.5-1.8c0.6-0.4,0.6-1.3,0.2-1.8c0,0,0,0,0,0l-0.1-0.1
	c-0.5-0.6-1.4-0.6-2.1-0.1c-2.3,1.5-2.8,1.5-5.1,0c-0.6-0.5-1.5-0.4-2,0.1c-0.5,0.5-0.6,1.2-0.1,1.8c0,0,0.1,0.1,0.1,0.1
	C314.7,183.6,316.3,184.3,318,184.3z"/>
<path class="st20" d="M304.5,180.4c0,0.4,0,0.8,0,1.2c0,0.7,0.6,1.3,1.3,1.3c0.7,0,1.3-0.6,1.3-1.3c0,0,0,0,0,0l0,0
	c0-0.8,0-1.6,0-2.4c0.1-0.7-0.4-1.4-1.1-1.4c-0.7-0.1-1.4,0.4-1.4,1.1c0,0,0,0.1,0,0.1c0,0.1,0,0.2,0,0.2
	C304.5,179.6,304.5,180,304.5,180.4z"/>
<path class="st21" d="M329,180.4c0,0.4,0,0.9,0,1.3c0,0.7,0.5,1.2,1.1,1.3l0,0c0.6,0.1,1.2-0.4,1.3-1c0,0,0,0,0,0c0.2-1,0.2-2,0-2.9
	c-0.1-0.6-0.6-1.1-1.2-1.1l-0.1,0c-0.7,0-1.2,0.6-1.2,1.2c0,0,0,0,0,0l0,0C329,179.6,329,180,329,180.4L329,180.4z"/>
<path class="st7" d="M1685.8,305.5c1.9-1.7,3.6-3.6,5.5-5.4c0.3-0.3,0.5-0.7,0.3-1.1c-1.1-4.5-1-9.2,0.1-13.7
	c0.3-1.2,0.6-2.3,1.1-3.4c0.1-0.2,0-0.4-0.2-0.5c0,0,0,0,0,0l-0.1,0c-1.4-0.3-2.7-0.9-3.9-1.7c-2.4-1.5-4.4-3.7-5.8-6.2
	c-1.5-2.7-2.2-5.8-1.9-8.9c0.2-3.5,1.9-6.7,4.7-8.8c3-2.3,6.4-2.8,10.2-2.1c0.8,0.2,1.6,0.5,2.3,0.8c0.5,0.2,0.7,0.2,0.7-0.3
	c0.1-2.3,0.9-4.5,2.2-6.4c2-3,5.5-4.8,9.2-4.5c3.7,0.3,6.7,2,9,5.2c1.3,1.8,2.2,3.8,2.6,5.9c0.1,0.7,0.5,0.5,0.7,0.4
	c1.3-0.5,2.6-0.8,4-1.1c0.4-0.1,0.5-0.3,0.3-0.7c-0.6-2-0.9-4-1-6.1c0-0.4-0.2-0.7-0.5-0.9c-2.6-1.6-3.1-5.5-0.8-7.5
	c2.5-2.2,6.4-1.1,7.4,2.7c0.7,2.2-0.5,4.5-2.6,5.2c-0.5,0.2-0.7,0.4-0.6,1.1c0.2,1.6,0.4,3.3,0.8,4.9c0.1,0.7,0.4,0.7,0.9,0.6
	c2.4-0.4,4.7-0.5,7.1-0.4c0.5,0,0.6-0.2,0.4-0.6c-0.9-2.5-1.4-5.1-1.4-7.8c0-0.4-0.2-0.7-0.5-0.8c-2.2-1.4-2.8-4.5-1.7-6.4
	c1.1-2.1,3.8-2.9,5.8-1.7c0.2,0.1,0.4,0.2,0.6,0.4c1.5,1,2.2,2.7,2,4.5c-0.2,1.9-1.1,3.2-2.9,3.8c-0.4,0.1-0.5,0.3-0.5,0.7
	c0.2,2.7,0.8,5.4,1.6,8c0.1,0.3,0.2,0.2,0.5,0.3c2.3,0.3,4.5,0.9,6.6,1.6c2.4,0.9,4.7,2.1,6.9,3.5c2.6,1.7,4.8,3.8,6.8,6.3
	c0.7,0.8,1.3,1.6,1.7,2.5c0,0.1,0.1,0.2,0.2,0.2c0.1,0,0.2,0.1,0.2,0.2l2.6,5.3l0,0c0.9,2.2,1.5,4.5,1.7,6.9c0.4,4.8-0.3,9.5-2.1,14
	c-2.8,7.2-7.5,12.7-13.4,17.2c-3.6,2.8-7.6,5-11.9,6.6c-6,2.4-12.3,3.6-18.8,3.4c-6-0.1-12-1.6-17.3-4.5c-3.1-1.7-5.8-4-8-6.7
	c-0.4-0.6-1.1-0.9-1.8-0.7c-2.4,0.3-4.8,0.6-7.2,0.9c-1.1,0.2-2.1-0.2-2.8-2C1684.6,306.8,1685.2,306,1685.8,305.5z"/>
<path class="st8" d="M1749,304c-3.7,1.2-7.6,1.3-11.4,0.4c-8.2-2-14.1-7-17.5-15.2c-2.2-5.2-2.6-10.6-1-16c2.4-7.5,10.4-11.8,18-9.4
	c2.2,0.7,2.3,0.8,3.3-1.5c1.8-4.1,6.2-5.6,10.2-3.5c5.9,2.9,10.5,8,12.9,14.2c0.1,0.3,0.2,0.7,0.3,1.1c0,0,0,0,0,0
	c0.6,3,0.3,5.9-0.3,8.7c-0.9,4.5-2.7,8.7-5.4,12.4c-2,2.8-4.3,5.4-6.9,7.6C1750.7,303.3,1749.9,303.8,1749,304z"/>
<path class="st9" d="M1729.1,313.4c-0.1,0-0.1,0-0.2,0c-3.5-2.1-6.7-4.7-9.4-7.7c-3-3.3-5.5-7.1-7.4-11.1c-4-8.7-5.2-17.7-3.4-27
	c0.1-0.8,0.4-1.5,0.5-2.3c0.1-0.6,0.5-0.7,0.9-1c3.1-2.2,6.5-4.1,10.1-5.5c6-2.5,12.5-3.5,18.9-3c0.6,0,1.1,0.1,1.7,0.2
	c0.2,0,0.5,0.1,0.7,0.1c0.2,0,0.4,0.3,0.3,0.5c0,0.1-0.1,0.2-0.2,0.3c-1.1,0.7-2.1,1.5-2.6,2.6c-0.8,1.7-1.8,1.8-3.4,1.4
	c-3.6-0.8-7.4-0.3-10.7,1.6c-6,3.3-9,8.8-9.3,15.9c-0.9,15.3,10.6,28.5,25.9,29.6c0.5,0,1,0,1.6,0c0.4,0.6-0.1,0.7-0.4,0.8
	c-1.6,0.9-3.3,1.7-5.1,2.4c-2.3,0.9-4.6,1.6-7,2.2C1730.2,313.4,1729.6,313.4,1729.1,313.4z"/>
<path class="st10" d="M1714.9,313.8c-2.7-2.1-5-4.6-7-7.4c-6.7-9.2-9.5-19.4-8.6-30.6c0-0.5,0.2-1,0.5-1.5c1.7-2.3,3.6-4.4,5.6-6.4
	c0.1-0.1,0.2-0.2,0.4-0.4c-0.5,3-0.8,6.1-0.7,9.2c0.2,7.4,2.2,14.6,5.7,21.1c3.2,6.1,7.8,11.5,13.4,15.6c0.1,0.1,0.1,0.1,0.2,0.2
	c0.2,0.5-0.2,0.5-0.4,0.5c-2.9,0.2-5.8,0.3-8.6-0.2C1715.3,313.9,1715.1,313.9,1714.9,313.8z"/>
<path class="st11" d="M1685.1,272.1c-2.6-5.5-1.8-10.8,1.9-13.9c2.9-2.3,6.2-2.6,9.7-1.3s5.9,3.8,7.4,7.3c0.2,0.5,0.1,1-0.3,1.4
	c-0.9,0.9-1.8,1.8-2.7,2.7c-0.4,0.4-0.6,0.4-1,0c-2.2-2.4-4.8-4.5-7.7-6c-0.6-0.3-1.2-0.6-1.8-0.8c-0.6-0.3-1.3-0.1-1.6,0.5
	c0,0.1-0.1,0.1-0.1,0.2c-0.3,0.7,0.1,1.5,0.8,1.8l0,0c1.2,0.5,2.3,1.1,3.3,1.7c2,1.4,3.9,2.9,5.5,4.7c0.3,0.3,0.3,0.5,0.1,0.8
	c-1.7,2.1-3.1,4.4-4.3,6.9c-0.1,0.4-0.5,0.6-0.9,0.4c0,0-0.1,0-0.1,0C1689.9,277.7,1686.8,275.4,1685.1,272.1z"/>
<path class="st12" d="M1710.9,260.3c-0.2,0.1-0.4,0.1-0.6-0.1c0,0,0,0,0,0c0,0-0.1-0.1-0.1-0.2c-0.4-2.7-0.3-5.4,0.2-8
	c0.1-0.2,0.1-0.5,0.2-0.7c0.2-0.9-0.1-1.6-0.9-1.9s-1.4,0.1-1.6,1c-0.3,1-0.5,2-0.6,3c-0.3,2.4-0.2,4.9,0.2,7.3
	c0.2,1.4,0.3,1.6-0.7,2.2c-0.2,0.1-0.4,0.1-0.6-0.1c0,0,0,0,0,0c0,0,0,0,0-0.1c-0.8-1.9-1.9-3.7-3.5-4.9c-1.5-1.2-1.6-2.4-1.4-4
	c0.5-4.1,3.3-7.2,7-7.8c3.5-0.5,7.5,1.7,9.3,5.3c0.7,1.3,1.1,2.6,1.3,4c0.1,0.4,0,0.6-0.4,0.8
	C1716.1,257.4,1713.4,258.7,1710.9,260.3z"/>
<path class="st13" d="M1698.1,306.6L1698.1,306.6c-1.4-1.8-2.4-3.8-3.2-5.9c-1.2-3.2-1.6-6.5-1.3-9.9c0.3-3.5,1.2-6.9,2.7-10.2
	c0,0,0.1,0,0.3-0.1c0.3,11.6,4.7,22.7,12.5,31.3c0.2,0.2,0.1,0.4,0,0.6c0,0,0,0,0,0c-0.1,0.1-0.3,0.1-0.4,0.1l0,0
	c-1.7-0.5-3.3-1.1-4.8-2C1701.7,309.4,1699.8,308.1,1698.1,306.6z"/>
<path class="st14" d="M1746.9,303.3c2.5-1.3,9.2-4.8,13-14.6c3.8-9.8,1.9-16.1,2.2-15.7c1.4,1.7,1.7,8.9,1.4,11.4
	c-1.3,8.9-6.1,15-13.9,18.5C1748.7,303.2,1747.8,303.3,1746.9,303.3z"/>
<path class="st14" d="M1715.4,313.3c0.2,0,0.4,0,0.6,0.1c0.9,0.3,7.4,0.2,7.4,0.2s1,0.9,1.4,1.1c0.4,0.2,4.4,2.5,4.1,2.6
	c-0.5,0.1-1,0.1-1.5,0.1c-2.2,0.2-4.5,0.2-6.7,0c-0.3,0-0.7-0.1-1-0.2C1718.4,316.2,1715,313.4,1715.4,313.3z"/>
<path class="st15" d="M1699.7,308c-0.3-0.4-2-2.8-1.6-2.5c0.2,0.1,9.5,6.1,9.7,6.1c0.1,0,0.2,0,0.3,0.1c0.9,0.9,1.8,1.9,2.8,2.8
	c0.2,0.1,0.2,0.4,0,0.5c-0.1,0.1-0.2,0.2-0.4,0.1C1706.3,313.7,1702.6,311.2,1699.7,308z"/>
<path class="st16" d="M1739.7,238.7c0.5,0.9,0.2,2-0.7,2.4c0,0,0,0,0,0l0,0c-0.9,0.4-2,0-2.4-0.9c-0.4-0.9-0.1-1.9,0.7-2.4
	C1738.2,237.4,1739.3,237.8,1739.7,238.7z"/>
<path class="st17" d="M1690.3,304.2c0.2-0.2,0.4-0.2,0.6,0c0,0,0,0,0,0c0,0,0,0.1,0,0.1c0.4,0.8,0.7,1.5,1.1,2.2
	c0.1,0.3,0.1,0.5-0.2,0.5c-1.2,0.1-2.5,0.3-3.7,0.3c-0.2,0-0.4-0.2-0.4-0.4c0,0,0,0,0,0c0-0.1,0-0.2,0.1-0.3L1690.3,304.2z"/>
<path class="st18" d="M1727.2,243.8c-0.1,0-0.2,0-0.2,0c-0.9-0.4-1.4-1.3-1.1-2.3c0.2-0.9,1.1-1.4,2-1.2c1,0.3,1.5,1.2,1.3,2.2
	c0,0,0,0.1,0,0.1C1728.8,243.3,1728,243.7,1727.2,243.8z"/>
<path class="st19" d="M1748.4,282.5L1748.4,282.5c-1.6,0.8-3.3,0.9-4.9,0.4c-0.7-0.2-1.1-0.8-1-1.5c0,0,0,0,0,0l0-0.1
	c0.2-0.8,1-1.2,1.8-1c2.7,0.3,3.2,0.1,4.6-2.2c0.3-0.7,1.1-1,1.8-0.8c0.7,0.2,1.1,0.9,0.9,1.5c0,0.1,0,0.1-0.1,0.2
	C1751.1,280.5,1749.9,281.8,1748.4,282.5z"/>
<path class="st20" d="M1758.9,273.2c0.2,0.4,0.4,0.7,0.5,1.1c0.3,0.6,0.1,1.4-0.6,1.8c-0.7,0.3-1.4,0-1.7-0.6c0,0,0,0,0,0l0,0
	c-0.4-0.7-0.7-1.4-1-2.1c-0.4-0.6-0.2-1.4,0.4-1.8s1.4-0.2,1.8,0.4c0,0,0,0,0,0.1c0,0.1,0.1,0.1,0.1,0.2
	C1758.6,272.5,1758.7,272.8,1758.9,273.2z"/>
<path class="st21" d="M1736.8,283.9c0.2,0.4,0.4,0.8,0.6,1.2c0.3,0.6,0.1,1.3-0.5,1.7l0,0c-0.5,0.3-1.3,0.2-1.6-0.4c0,0,0,0,0,0
	c-0.6-0.8-1-1.7-1.3-2.6c-0.2-0.6,0.1-1.2,0.6-1.5l0.1,0c0.6-0.3,1.3,0,1.6,0.6c0,0,0,0,0,0l0,0
	C1736.4,283.1,1736.6,283.5,1736.8,283.9L1736.8,283.9z"/>
<path class="st7" d="M1530.5,543.8c2.4-0.9,4.7-2,7.1-3c0.4-0.1,0.7-0.5,0.7-0.9c0.7-4.6,2.5-8.9,5.3-12.6c0.7-1,1.4-1.9,2.2-2.7
	c0.2-0.2,0.2-0.4,0-0.6c0,0,0,0,0,0l-0.1,0c-1.2-0.8-2.2-1.9-3-3.1c-1.7-2.3-2.7-5.1-3-8c-0.4-3.1,0.1-6.2,1.5-8.9
	c1.5-3.1,4.3-5.4,7.7-6.3c3.6-1,7-0.2,10.2,1.9c0.7,0.5,1.3,1,1.9,1.6c0.4,0.4,0.6,0.5,0.8,0c1-2.1,2.5-3.9,4.5-5.1
	c3-2,6.9-2.3,10.2-0.7c3.3,1.6,5.4,4.4,6.4,8.2c0.5,2.1,0.6,4.3,0.2,6.5c-0.1,0.7,0.2,0.6,0.5,0.7c1.4,0.1,2.7,0.2,4.1,0.5
	c0.4,0.1,0.6-0.1,0.6-0.6c0.2-2.1,0.7-4.1,1.4-6c0.2-0.3,0.1-0.7-0.1-1c-1.8-2.4-0.8-6.3,2.1-7.3c3.2-1.1,6.3,1.4,5.9,5.3
	c-0.2,2.2-2.1,3.9-4.4,3.8c-0.6,0-0.8,0.1-1,0.8c-0.5,1.6-0.8,3.2-1.1,4.8c-0.1,0.7,0.1,0.8,0.6,0.9c2.3,0.5,4.6,1.3,6.7,2.3
	c0.5,0.2,0.6,0,0.6-0.4c0.1-2.7,0.7-5.3,1.6-7.8c0.1-0.3,0.1-0.7-0.2-1c-1.5-2.1-0.9-5.2,0.8-6.6c1.8-1.5,4.6-1.3,6.1,0.6
	c0.1,0.2,0.3,0.4,0.4,0.6c1,1.5,1,3.4,0.2,4.9c-0.9,1.6-2.3,2.6-4.1,2.5c-0.4,0-0.6,0.1-0.7,0.5c-0.8,2.6-1.3,5.3-1.5,8
	c0,0.3,0.1,0.3,0.3,0.4c2,1.1,3.8,2.5,5.5,4c1.9,1.7,3.6,3.7,5,5.9c1.7,2.6,3,5.4,3.9,8.4c0.3,1,0.6,2,0.7,3c0,0.1,0,0.2,0.1,0.3
	c0.1,0.1,0.1,0.2,0.1,0.3l0.4,5.9l0,0c0,2.4-0.3,4.8-1,7c-1.4,4.6-3.9,8.7-7.2,12.2c-5.3,5.6-11.7,8.9-18.9,10.9
	c-4.4,1.2-9,1.7-13.5,1.7c-6.4,0-12.8-1.3-18.7-3.9c-5.6-2.3-10.5-6-14.3-10.7c-2.2-2.7-3.9-5.9-4.9-9.2c-0.1-0.7-0.7-1.2-1.4-1.3
	c-2.4-0.6-4.7-1.2-7.1-1.9c-1.1-0.3-1.9-0.9-1.8-2.9C1528.9,544.6,1529.8,544.1,1530.5,543.8z"/>
<path class="st8" d="M1589.7,566.2c-3.9-0.3-7.6-1.6-10.7-3.9c-6.9-5-10.4-11.8-10.5-20.7c0-5.7,1.6-10.8,5.1-15.2
	c5.1-6.1,14.1-7,20.2-2c1.8,1.5,1.8,1.7,3.6-0.1c3.2-3.1,7.8-2.9,10.7,0.6c4.4,4.9,6.7,11.4,6.6,18c0,0.4-0.1,0.7-0.1,1.1
	c0,0,0,0,0,0c-0.5,3-2,5.6-3.6,8c-2.5,3.8-5.8,7-9.6,9.4c-2.9,1.9-6,3.4-9.2,4.5C1591.5,566.2,1590.5,566.3,1589.7,566.2z"/>
<path class="st9" d="M1567.6,567.4c-0.1,0-0.1-0.1-0.2-0.1c-2.5-3.3-4.4-6.9-5.8-10.7c-1.6-4.2-2.4-8.6-2.6-13.1
	c-0.4-9.6,1.8-18.4,7-26.3c0.4-0.7,0.9-1.3,1.3-1.9c0.3-0.5,0.8-0.5,1.2-0.6c3.8-0.9,7.6-1.3,11.5-1.3c6.5-0.1,12.9,1.4,18.7,4.3
	c0.5,0.3,1,0.5,1.5,0.8c0.2,0.1,0.4,0.2,0.7,0.4c0.2,0.1,0.3,0.4,0.1,0.6c-0.1,0.1-0.2,0.2-0.3,0.2c-1.3,0.3-2.5,0.6-3.4,1.5
	c-1.3,1.3-2.3,1-3.7,0c-3.1-2.1-6.8-3-10.5-2.5c-6.8,0.8-11.6,4.7-14.6,11.2c-6.6,13.8-0.9,30.4,12.8,37.1c0.5,0.2,1,0.4,1.5,0.5
	c0.2,0.7-0.4,0.6-0.7,0.6c-1.9,0.2-3.7,0.3-5.6,0.4c-2.5,0-4.9-0.2-7.3-0.6C1568.7,567.8,1568.1,567.6,1567.6,567.4z"/>
<path class="st10" d="M1554.4,562.4c-1.7-3-2.9-6.2-3.7-9.5c-2.7-11.1-1.5-21.6,3.6-31.6c0.2-0.5,0.6-0.9,1.1-1.2
	c2.4-1.5,5-2.8,7.6-3.8c0.1-0.1,0.3-0.1,0.6-0.2c-1.6,2.6-3,5.4-4.1,8.2c-2.6,6.9-3.5,14.3-2.7,21.7c0.7,6.9,2.9,13.6,6.5,19.5
	c0,0.1,0.1,0.2,0.1,0.3c0,0.5-0.4,0.4-0.6,0.3c-2.7-0.9-5.5-1.9-7.9-3.4C1554.6,562.7,1554.5,562.6,1554.4,562.4z"/>
<path class="st11" d="M1542.5,512.6c-0.4-6,2.4-10.7,7-12.1c3.5-1.1,6.7,0,9.5,2.5c2.8,2.5,4,5.8,4.1,9.6c0,0.5-0.3,1-0.8,1.2
	c-1.2,0.5-2.4,1-3.6,1.5c-0.5,0.2-0.7,0.1-0.9-0.4c-1.1-3.1-2.8-5.9-4.9-8.5c-0.4-0.5-0.9-1-1.4-1.4c-0.4-0.5-1.2-0.6-1.7-0.2
	c-0.1,0-0.1,0.1-0.1,0.1c-0.5,0.6-0.5,1.4,0.1,2l0,0c0.9,0.9,1.7,1.9,2.4,2.9c1.4,2,2.5,4.2,3.4,6.5c0.2,0.4,0.1,0.6-0.2,0.8
	c-2.3,1.4-4.5,2.9-6.5,4.7c-0.2,0.3-0.7,0.3-1,0.1c0,0,0,0-0.1-0.1C1544.8,519.6,1542.8,516.3,1542.5,512.6z"/>
<path class="st12" d="M1570.8,511.4c-0.2,0-0.4-0.1-0.5-0.3c0,0,0,0,0,0c0-0.1,0-0.1,0-0.2c0.6-2.6,1.7-5.1,3.2-7.3
	c0.1-0.2,0.3-0.4,0.4-0.6c0.5-0.8,0.5-1.5-0.1-2.1c-0.6-0.5-1.3-0.4-1.9,0.3c-0.6,0.8-1.2,1.6-1.7,2.5c-1.2,2.2-2,4.5-2.6,6.9
	c-0.3,1.4-0.4,1.5-1.5,1.8c-0.2,0-0.4-0.1-0.5-0.3c0,0,0,0,0,0c0,0,0,0,0-0.1c-0.1-2-0.4-4.1-1.4-5.8c-0.9-1.6-0.5-2.8,0.2-4.2
	c2-3.6,5.8-5.4,9.5-4.6c3.4,0.8,6.3,4.4,6.6,8.4c0.1,1.4,0,2.8-0.3,4.2c-0.1,0.4-0.3,0.6-0.7,0.6
	C1576.7,510.6,1573.7,510.9,1570.8,511.4z"/>
<path class="st13" d="M1541.5,549.4L1541.5,549.4c-0.6-2.2-0.8-4.4-0.7-6.7c0.1-3.4,1-6.7,2.5-9.7c1.6-3.1,3.8-6,6.3-8.4
	c0,0,0.1,0,0.3,0c-4.1,10.9-4.2,22.8-0.2,33.7c0.1,0.2,0,0.4-0.2,0.5c0,0,0,0,0,0c-0.1,0.1-0.3,0-0.4-0.1l0,0
	c-1.4-1.1-2.6-2.3-3.7-3.7C1543.7,553.4,1542.5,551.5,1541.5,549.4z"/>
<path class="st14" d="M1587.9,564.7c2.8-0.3,10.3-1,17.6-8.7c7.2-7.7,7.8-14.2,8-13.7c0.7,2.1-1.8,8.9-3,11.1
	c-4.5,7.8-11.3,11.6-19.8,11.9C1589.7,565.3,1588.8,565.1,1587.9,564.7z"/>
<path class="st14" d="M1555,562.2c0.2,0.1,0.3,0.2,0.5,0.3c0.8,0.6,6.8,3,6.8,3s0.6,1.2,0.9,1.6c0.3,0.4,3.2,4,2.8,3.9
	c-0.5-0.1-1-0.3-1.4-0.4c-2.1-0.7-4.2-1.5-6.2-2.5c-0.3-0.1-0.6-0.3-0.8-0.6C1556.7,566,1554.6,562.1,1555,562.2z"/>
<path class="st15" d="M1542.5,551.3c-0.2-0.4-0.8-3.4-0.5-3c0.1,0.2,6.5,9.2,6.7,9.3c0.1,0,0.2,0.1,0.2,0.2c0.5,1.2,1,2.4,1.5,3.6
	c0.1,0.2,0,0.4-0.2,0.5c-0.1,0.1-0.3,0.1-0.4,0C1546.5,559.1,1543.9,555.4,1542.5,551.3z"/>
<path class="st16" d="M1605.6,502.2c0.1,1-0.6,1.9-1.6,2c0,0,0,0,0,0l0,0c-1,0-1.8-0.7-1.9-1.7c-0.1-1,0.6-1.8,1.6-2
	C1604.7,500.5,1605.5,501.2,1605.6,502.2z"/>
<path class="st17" d="M1535.2,544.3c0.2-0.1,0.5,0,0.5,0.2c0,0,0,0,0,0c0,0,0,0.1,0,0.1c0.1,0.9,0.1,1.7,0.2,2.5
	c0,0.3-0.1,0.5-0.4,0.4c-1.2-0.3-2.4-0.7-3.6-1.1c-0.2-0.1-0.3-0.3-0.2-0.5c0,0,0,0,0,0c0-0.1,0.1-0.2,0.2-0.2L1535.2,544.3z"/>
<path class="st18" d="M1592.1,502.2c-0.1,0-0.1-0.1-0.2-0.1c-0.7-0.7-0.8-1.8-0.2-2.5c0.6-0.7,1.6-0.9,2.3-0.3
	c0.8,0.6,1,1.7,0.4,2.5c0,0-0.1,0.1-0.1,0.1C1593.8,502.4,1592.9,502.5,1592.1,502.2z"/>
<path class="st19" d="M1597.2,546.1L1597.2,546.1c-1.7,0.1-3.4-0.4-4.7-1.5c-0.6-0.4-0.7-1.2-0.3-1.8c0,0,0,0,0,0l0.1-0.1
	c0.5-0.6,1.4-0.7,2-0.3c2.4,1.3,2.9,1.3,5.1-0.3c0.6-0.5,1.4-0.5,2,0c0.6,0.4,0.7,1.2,0.3,1.8c0,0-0.1,0.1-0.1,0.1
	C1600.4,545.2,1598.9,546,1597.2,546.1z"/>
<path class="st20" d="M1610.4,541.4c0,0.4,0.1,0.8,0.1,1.2c0.1,0.7-0.5,1.3-1.2,1.4c-0.7,0-1.3-0.5-1.4-1.2c0,0,0,0,0,0l0,0
	c-0.1-0.8-0.1-1.6-0.2-2.4c-0.1-0.7,0.3-1.4,1-1.5s1.4,0.3,1.5,1c0,0,0,0.1,0,0.1c0,0.1,0,0.2,0,0.2
	C1610.4,540.6,1610.4,541,1610.4,541.4z"/>
<path class="st21" d="M1585.9,542.9c0,0.4,0.1,0.9,0.1,1.3c0.1,0.7-0.4,1.3-1.1,1.4l0,0c-0.6,0.1-1.2-0.3-1.3-1c0,0,0,0,0,0
	c-0.2-1-0.3-1.9-0.2-2.9c0-0.6,0.5-1.1,1.2-1.1l0.1,0c0.7,0,1.2,0.5,1.3,1.1c0,0,0,0,0,0l0,0
	C1585.9,542.1,1585.9,542.5,1585.9,542.9L1585.9,542.9z"/>
<g>
	<g>
		<path class="st1" d="M492.7,38.5c3,2.6,4.5,6.4,4.5,11.3c0,4.6-1.5,8.1-4.4,10.7c-3,2.6-6.9,3.9-11.8,4v6.4h-11.6V56.6h4.8
			c3.5,0,6.1-0.5,8.1-1.5c1.9-1,2.9-2.7,2.9-5.3c0-1.6-0.5-2.9-1.4-3.8c-0.9-0.9-2.1-1.4-3.7-1.4c-1.7,0-3.1,0.5-4.1,1.5
			c-1,1-1.5,2.3-1.5,3.9h-11.6c-0.1-2.9,0.5-5.5,1.8-7.9c1.3-2.4,3.3-4.2,6-5.6c2.7-1.4,5.9-2.1,9.7-2.1
			C485.6,34.5,489.6,35.9,492.7,38.5z M481.6,76.8v12.3h-12.8V76.8H481.6z"/>
	</g>
	<g>
		<path class="st1" d="M258.8,423.1c3,2.6,4.5,6.4,4.5,11.3c0,4.6-1.5,8.1-4.4,10.7c-3,2.6-6.9,3.9-11.8,4v6.4h-11.6v-14.3h4.8
			c3.5,0,6.1-0.5,8.1-1.5c1.9-1,2.9-2.7,2.9-5.3c0-1.6-0.5-2.9-1.4-3.8c-0.9-0.9-2.1-1.4-3.7-1.4c-1.7,0-3.1,0.5-4.1,1.5
			c-1,1-1.5,2.3-1.5,3.9h-11.6c-0.1-2.9,0.5-5.5,1.8-7.9c1.3-2.4,3.3-4.2,6-5.6c2.7-1.4,5.9-2.1,9.7-2.1
			C251.7,419.2,255.8,420.5,258.8,423.1z M247.7,461.5v12.3h-12.8v-12.3H247.7z"/>
	</g>
	<g>
		<path class="st1" d="M579.3,257.9c3,2.6,4.5,6.4,4.5,11.3c0,4.6-1.5,8.1-4.4,10.7c-3,2.6-6.9,3.9-11.8,4v6.4h-11.6V276h4.8
			c3.5,0,6.1-0.5,8.1-1.5c1.9-1,2.9-2.7,2.9-5.3c0-1.6-0.5-2.9-1.4-3.8c-0.9-0.9-2.1-1.4-3.7-1.4c-1.7,0-3.1,0.5-4.1,1.5
			c-1,1-1.5,2.3-1.5,3.9h-11.6c-0.1-2.9,0.5-5.5,1.8-7.9c1.3-2.4,3.3-4.2,6-5.6c2.7-1.4,5.9-2.1,9.7-2.1
			C572.2,254,576.2,255.3,579.3,257.9z M568.2,296.2v12.3h-12.8v-12.3H568.2z"/>
	</g>
	<g>
		<path class="st1" d="M466.1,492.6c3,2.6,4.5,6.4,4.5,11.3c0,4.6-1.5,8.1-4.4,10.7c-3,2.6-6.9,3.9-11.8,4v6.4h-11.6v-14.3h4.8
			c3.5,0,6.1-0.5,8.1-1.5c1.9-1,2.9-2.7,2.9-5.3c0-1.6-0.5-2.9-1.4-3.8c-0.9-0.9-2.1-1.4-3.7-1.4c-1.7,0-3.1,0.5-4.1,1.5
			c-1,1-1.5,2.3-1.5,3.9h-11.6c-0.1-2.9,0.5-5.5,1.8-7.9c1.3-2.4,3.3-4.2,6-5.6c2.7-1.4,5.9-2.1,9.7-2.1
			C459,488.7,463.1,490,466.1,492.6z M455,531v12.3h-12.8V531H455z"/>
	</g>
	<g>
		<path class="st1" d="M1123.3,117.6c3,2.6,4.5,6.4,4.5,11.3c0,4.6-1.5,8.1-4.4,10.7c-3,2.6-6.9,3.9-11.8,4v6.4H1100v-14.3h4.8
			c3.5,0,6.1-0.5,8.1-1.5c1.9-1,2.9-2.7,2.9-5.3c0-1.6-0.5-2.9-1.4-3.8c-0.9-0.9-2.1-1.4-3.7-1.4c-1.7,0-3.1,0.5-4.1,1.5
			c-1,1-1.5,2.3-1.5,3.9h-11.6c-0.1-2.9,0.5-5.5,1.8-7.9c1.3-2.4,3.3-4.2,6-5.6c2.7-1.4,5.9-2.1,9.7-2.1
			C1116.2,113.7,1120.3,115,1123.3,117.6z M1112.2,155.9v12.3h-12.8v-12.3H1112.2z"/>
	</g>
	<g>
		<path class="st1" d="M99.6,685.6c3,2.6,4.5,6.4,4.5,11.3c0,4.6-1.5,8.1-4.4,10.7c-3,2.6-6.9,3.9-11.8,4v6.4H76.3v-14.3h4.8
			c3.5,0,6.1-0.5,8.1-1.5c1.9-1,2.9-2.7,2.9-5.3c0-1.6-0.5-2.9-1.4-3.8c-0.9-0.9-2.1-1.4-3.7-1.4c-1.7,0-3.1,0.5-4.1,1.5
			c-1,1-1.5,2.3-1.5,3.9H69.9c-0.1-2.9,0.5-5.5,1.8-7.9c1.3-2.4,3.3-4.2,6-5.6c2.7-1.4,5.9-2.1,9.7-2.1
			C92.5,681.7,96.6,683,99.6,685.6z M88.5,724v12.3H75.7V724H88.5z"/>
	</g>
	<g>
		<path class="st1" d="M118.4,38.5c3,2.6,4.5,6.4,4.5,11.3c0,4.6-1.5,8.1-4.4,10.7c-3,2.6-6.9,3.9-11.8,4v6.4H95.1V56.6h4.8
			c3.5,0,6.1-0.5,8.1-1.5c1.9-1,2.9-2.7,2.9-5.3c0-1.6-0.5-2.9-1.4-3.8c-0.9-0.9-2.1-1.4-3.7-1.4c-1.7,0-3.1,0.5-4.1,1.5
			c-1,1-1.5,2.3-1.5,3.9H88.7c-0.1-2.9,0.5-5.5,1.8-7.9c1.3-2.4,3.3-4.2,6-5.6c2.7-1.4,5.9-2.1,9.7-2.1
			C111.3,34.5,115.4,35.9,118.4,38.5z M107.3,76.8v12.3H94.5V76.8H107.3z"/>
	</g>
	<g>
		<path class="st1" d="M871.3,870.7c3,2.6,4.5,6.4,4.5,11.3c0,4.6-1.5,8.1-4.4,10.7s-6.9,3.9-11.8,4v6.4h-11.6v-14.3h4.8
			c3.5,0,6.1-0.5,8.1-1.5c1.9-1,2.9-2.7,2.9-5.3c0-1.6-0.5-2.9-1.4-3.8c-0.9-0.9-2.1-1.4-3.7-1.4c-1.7,0-3.1,0.5-4.1,1.5
			c-1,1-1.5,2.3-1.5,3.9h-11.6c-0.1-2.9,0.5-5.5,1.8-7.9c1.3-2.4,3.3-4.2,6-5.6c2.7-1.4,5.9-2.1,9.7-2.1
			C864.2,866.8,868.2,868.1,871.3,870.7z M860.2,909.1v12.3h-12.8v-12.3H860.2z"/>
	</g>
	<g>
		<path class="st1" d="M1765.1,604c3,2.6,4.5,6.4,4.5,11.3c0,4.6-1.5,8.1-4.4,10.7s-6.9,3.9-11.8,4v6.4h-11.6v-14.3h4.8
			c3.5,0,6.1-0.5,8.1-1.5c1.9-1,2.9-2.7,2.9-5.3c0-1.6-0.5-2.9-1.4-3.8c-0.9-0.9-2.1-1.4-3.7-1.4c-1.7,0-3.1,0.5-4.1,1.5
			c-1,1-1.5,2.3-1.5,3.9h-11.6c-0.1-2.9,0.5-5.5,1.8-7.9c1.3-2.4,3.3-4.2,6-5.6c2.7-1.4,5.9-2.1,9.7-2.1
			C1758,600.1,1762.1,601.4,1765.1,604z M1754,642.3v12.3h-12.8v-12.3H1754z"/>
	</g>
	<g>
		<path class="st1" d="M1577.8,40.3c3,2.6,4.5,6.4,4.5,11.3c0,4.6-1.5,8.1-4.4,10.7c-3,2.6-6.9,3.9-11.8,4v6.4h-11.6V58.4h4.8
			c3.5,0,6.1-0.5,8.1-1.5c1.9-1,2.9-2.7,2.9-5.3c0-1.6-0.5-2.9-1.4-3.8c-0.9-0.9-2.1-1.4-3.7-1.4c-1.7,0-3.1,0.5-4.1,1.5
			c-1,1-1.5,2.3-1.5,3.9h-11.6c-0.1-2.9,0.5-5.5,1.8-7.9c1.3-2.4,3.3-4.2,6-5.6c2.7-1.4,5.9-2.1,9.7-2.1
			C1570.7,36.4,1574.8,37.7,1577.8,40.3z M1566.7,78.6v12.3h-12.8V78.6H1566.7z"/>
	</g>
	<g>
		<path class="st1" d="M1198.6,348.7c3,2.6,4.5,6.4,4.5,11.3c0,4.6-1.5,8.1-4.4,10.7c-3,2.6-6.9,3.9-11.8,4v6.4h-11.6v-14.3h4.8
			c3.5,0,6.1-0.5,8.1-1.5c1.9-1,2.9-2.7,2.9-5.3c0-1.6-0.5-2.9-1.4-3.8c-0.9-0.9-2.1-1.4-3.7-1.4c-1.7,0-3.1,0.5-4.1,1.5
			c-1,1-1.5,2.3-1.5,3.9h-11.6c-0.1-2.9,0.5-5.5,1.8-7.9c1.3-2.4,3.3-4.2,6-5.6c2.7-1.4,5.9-2.1,9.7-2.1
			C1191.5,344.8,1195.5,346.1,1198.6,348.7z M1187.5,387.1v12.3h-12.8v-12.3H1187.5z"/>
	</g>
	<g>
		<path class="st1" d="M855.3,542.3c3,2.6,4.5,6.4,4.5,11.3c0,4.6-1.5,8.1-4.4,10.7c-3,2.6-6.9,3.9-11.8,4v6.4H832v-14.3h4.8
			c3.5,0,6.1-0.5,8.1-1.5c1.9-1,2.9-2.7,2.9-5.3c0-1.6-0.5-2.9-1.4-3.8c-0.9-0.9-2.1-1.4-3.7-1.4c-1.7,0-3.1,0.5-4.1,1.5
			c-1,1-1.5,2.3-1.5,3.9h-11.6c-0.1-2.9,0.5-5.5,1.8-7.9c1.3-2.4,3.3-4.2,6-5.6c2.7-1.4,5.9-2.1,9.7-2.1
			C848.2,538.4,852.3,539.7,855.3,542.3z M844.2,580.6v12.3h-12.8v-12.3H844.2z"/>
	</g>
	<g>
		<path class="st1" d="M893.4,277.1c3,2.6,4.5,6.4,4.5,11.3c0,4.6-1.5,8.1-4.4,10.7c-3,2.6-6.9,3.9-11.8,4v6.4H870v-14.3h4.8
			c3.5,0,6.1-0.5,8.1-1.5c1.9-1,2.9-2.7,2.9-5.3c0-1.6-0.5-2.9-1.4-3.8c-0.9-0.9-2.1-1.4-3.7-1.4c-1.7,0-3.1,0.5-4.1,1.5
			c-1,1-1.5,2.3-1.5,3.9h-11.6c-0.1-2.9,0.5-5.5,1.8-7.9c1.3-2.4,3.3-4.2,6-5.6c2.7-1.4,5.9-2.1,9.7-2.1
			C886.3,273.2,890.3,274.5,893.4,277.1z M882.3,315.4v12.3h-12.8v-12.3H882.3z"/>
	</g>
	<g>
		<path class="st1" d="M877.4,20.5c3,2.6,4.5,6.4,4.5,11.3c0,4.6-1.5,8.1-4.4,10.7c-3,2.6-6.9,3.9-11.8,4V53h-11.6V38.7h4.8
			c3.5,0,6.1-0.5,8.1-1.5c1.9-1,2.9-2.7,2.9-5.3c0-1.6-0.5-2.9-1.4-3.8c-0.9-0.9-2.1-1.4-3.7-1.4c-1.7,0-3.1,0.5-4.1,1.5
			c-1,1-1.5,2.3-1.5,3.9h-11.6c-0.1-2.9,0.5-5.5,1.8-7.9c1.3-2.4,3.3-4.2,6-5.6c2.7-1.4,5.9-2.1,9.7-2.1
			C870.3,16.6,874.4,17.9,877.4,20.5z M866.3,58.9v12.3h-12.8V58.9H866.3z"/>
	</g>
</g>
</svg>
