<?xml version="1.0" encoding="UTF-8" standalone="no"?><!-- Generator: Gravit.io --><svg xmlns="http://www.w3.org/2000/svg" xmlns:xlink="http://www.w3.org/1999/xlink" style="isolation:isolate" viewBox="0 0 1024 1230" width="1024pt" height="1230pt"><defs><clipPath id="_clipPath_621izFhmmP4QMZY3kzLy09PNGYFiZ6bt"><rect width="1024" height="1230"/></clipPath></defs><g clip-path="url(#_clipPath_621izFhmmP4QMZY3kzLy09PNGYFiZ6bt)"><rect x="0" y="-0.934" width="1024" height="1230" transform="matrix(1,0,0,1,0,0)" fill="rgb(242,241,241)"/><path d=" M 432.232 1212.503 L 430.932 1213.003 C 430.332 1213.503 429.632 1213.703 428.832 1213.503 C 428.132 1213.403 427.432 1213.203 426.832 1212.803 L 426.832 1212.803 L 423.032 1212.103 L 419.332 1211.303 C 416.131 1210.303 412.431 1211.003 409.531 1208.603 C 407.431 1209.603 404.931 1209.103 403.331 1207.503 C 395.229 1207.903 387.529 1205.503 379.728 1204.603 C 346.326 1200.603 312.824 1196.603 279.421 1192.303 C 245.219 1187.903 211.415 1181.703 178.913 1170.003 C 158.512 1162.703 139.511 1152.503 120.109 1143.203 C 102.707 1134.903 84.906 1127.803 65.605 1124.703 C 42.904 1121.203 21.101 1123.903 0 1130.903 L 0 1230.003 L 492.737 1230.003 C 474.735 1223.403 456.334 1217.603 437.333 1212.703 C 435.633 1212.203 433.932 1211.503 432.232 1212.503 Z " fill="rgb(44,51,53)"/><g><path d=" M 904.901 261.659 C 887.301 254.959 870.101 247.459 853.301 238.959 L 854.301 238.059 C 875.601 246.159 897.001 254.159 918.801 260.959 C 953.301 271.659 988.501 280.259 1024.001 286.759 L 1024.001 294.059 L 1023.801 294.059 C 983.301 286.359 943.501 276.359 904.901 261.659 Z " fill="rgb(228,176,67)"/><path d=" M 833.001 222.359 C 803.801 209.459 776.901 192.059 753.201 170.659 C 749.401 167.359 746.001 163.659 743.101 159.659 C 742.501 158.759 741.701 157.759 742.301 156.659 C 743.101 155.259 744.601 155.759 745.601 156.159 C 749.501 157.459 753.401 159.059 757.601 160.559 C 757.201 158.259 755.401 157.859 754.201 157.059 C 731.601 141.859 710.001 125.259 691.101 105.559 C 668.301 81.659 648.501 55.759 637.501 23.959 C 637.001 22.459 636.601 20.659 634.401 21.559 C 631.901 22.559 633.201 24.359 633.701 25.859 C 641.201 49.459 653.701 70.259 668.901 89.559 C 675.701 98.259 683.001 106.559 690.001 115.059 C 691.401 116.759 692.701 118.459 694.001 120.159 C 694.901 121.359 696.201 122.759 695.401 124.359 C 694.501 126.159 692.601 124.859 691.201 124.959 C 689.201 125.059 687.001 123.159 685.401 125.959 C 684.701 127.159 683.801 125.859 683.201 125.259 C 653.501 96.259 629.301 63.859 618.001 23.159 C 615.801 15.259 614.201 7.259 613.201 -0.941 L 1024.001 -0.941 L 1024.001 281.759 C 1014.701 279.959 1005.301 277.959 996.001 275.859 C 940.101 263.359 885.501 245.359 833.001 222.359 Z " fill="rgb(228,176,67)"/><path d=" M 705.201 251.359 L 705.701 250.459 L 713.301 254.059 L 712.301 254.959 L 705.201 251.359 Z " fill="rgb(232,189,97)"/><path d=" M 703.001 250.259 C 703.001 250.059 703.001 249.859 703.101 249.759 L 703.501 249.859 C 703.501 249.959 703.501 250.159 703.401 250.159 C 703.301 250.259 703.101 250.259 703.001 250.259 Z " fill="rgb(232,189,97)"/></g><g><path d=" M 99.813 642.975 C 100.013 644.175 100.113 645.375 100.313 646.475 C 97.913 649.675 94.313 649.875 90.713 649.975 C 60.413 650.975 30.213 651.875 -0.087 652.975 L -0.087 642.875 C 30.413 641.775 60.813 640.675 91.313 639.475 C 94.513 639.375 97.613 640.675 99.813 642.975 Z " fill="rgb(229,179,73)"/><path d=" M 95.613 614.575 L 96.313 619.275 C 94.613 622.575 91.913 623.975 88.113 623.975 C 76.013 623.875 63.913 624.075 51.813 624.075 L 0.013 624.375 L 0.013 614.175 C 20.213 614.075 40.413 613.975 60.613 613.975 C 72.213 613.975 83.913 612.775 95.613 614.575 Z " fill="rgb(229,179,73)"/><path d=" M 76.113 587.675 C 78.913 587.775 82.013 588.075 82.313 591.875 C 82.513 594.675 81.413 597.075 78.413 597.775 C 76.613 598.075 74.913 598.175 73.113 598.075 C 48.713 597.275 24.313 596.575 -0.087 595.975 L -0.087 585.775 L 41.013 586.675 C 52.713 586.875 64.413 587.275 76.113 587.675 Z " fill="rgb(229,179,73)"/><path d=" M 76.413 675.575 C 80.213 675.475 82.713 677.275 83.213 680.875 C 83.713 684.775 80.913 685.975 77.513 686.175 C 76.113 686.275 74.713 686.375 73.313 686.375 C 48.913 687.175 24.413 687.875 -0.087 688.675 L -0.087 678.175 L 22.213 677.575 C 40.313 676.975 58.313 676.175 76.413 675.575 Z " fill="rgb(229,179,73)"/><path d=" M 59.413 568.075 C 59.413 571.675 57.113 573.375 53.713 573.675 C 46.113 573.475 38.613 573.275 31.113 572.975 L -0.087 571.775 L -0.087 561.375 L 52.513 563.375 C 55.713 563.475 59.413 563.475 59.413 568.075 Z " fill="rgb(229,179,73)"/><path d=" M 42.513 542.875 C 42.513 546.175 40.713 547.975 37.113 548.475 L 22.613 547.375 C 15.013 546.875 7.513 546.275 -0.087 545.775 L -0.087 535.275 C 12.213 536.075 24.613 536.975 36.913 537.975 C 39.913 538.175 42.513 539.275 42.513 542.875 Z " fill="rgb(229,179,73)"/><path d=" M 34.913 714.175 C 34.113 714.175 33.313 714.275 32.513 714.275 L -0.087 713.875 L -0.087 703.275 L 34.213 703.675 C 37.013 703.675 40.213 703.975 40.413 707.775 C 40.613 711.375 38.913 713.875 34.913 714.175 Z " fill="rgb(229,179,73)"/><path d=" M 24.413 740.575 C 24.713 744.075 22.213 745.375 19.013 745.575 L -0.087 746.075 L -0.087 735.775 L 17.113 735.275 C 21.013 734.975 24.113 736.475 24.413 740.575 Z " fill="rgb(229,179,73)"/><path d=" M 6.313 511.275 C 6.013 515.475 3.313 516.475 -0.087 516.375 L -0.087 505.875 C 3.313 506.175 6.613 506.875 6.313 511.275 Z " fill="rgb(229,179,73)"/></g><g style="opacity:0.4;"><g opacity="0.4"><path d=" M 104.059 154.43 C 103.728 152.267 102.253 150.566 99.996 150.815 C 97.384 151.085 95.831 152.924 96.311 155.753 C 96.694 157.895 97.991 159.306 100.333 159.567 C 102.787 158.755 104.466 157.229 104.059 154.43 Z " fill="rgb(253,212,62)"/></g><g opacity="0.4"><path d=" M 242.41 160.108 C 243.404 158.98 245.21 157.765 245.745 156.098 C 246.608 153.45 244.831 151.449 242.269 151.095 C 240.082 150.771 238.496 152.38 238.12 154.588 C 237.704 157.296 239.158 158.945 242.41 160.108 Z " fill="rgb(253,212,62)"/></g><g opacity="0.4"><path d=" M 294.947 98.088 C 295.686 100.812 297.523 102.064 300.187 101.772 C 302.85 101.48 304.801 100.025 304.394 97.227 C 304.05 94.585 302.015 93.292 299.3 93.605 C 296.584 93.918 295.06 95.381 294.947 98.088 Z " fill="rgb(253,205,33)"/></g><g opacity="0.4"><path d=" M 156.757 93.554 C 154.457 93.699 153.204 95.234 153.099 97.514 C 152.994 99.794 154.29 101.204 156.706 101.496 C 158.975 101.424 160.583 100.169 160.782 97.972 C 161.094 95.306 159.712 93.386 156.757 93.554 Z " fill="rgb(253,206,38)"/></g><g opacity="0.4"><path d=" M 270.258 37.092 C 268.01 37.216 266.788 38.678 266.671 40.781 L 273.322 38.089 C 272.528 37.322 271.402 36.931 270.258 37.092 Z " fill="rgb(253,206,38)"/></g><g opacity="0.4"><path d=" M 270.311 44.992 C 272.528 44.941 274.136 43.685 274.335 41.488 C 274.559 40.249 274.179 39.012 273.322 38.089 L 266.671 40.781 L 266.652 41.031 C 266.619 43.342 267.874 44.648 270.311 44.992 Z " fill="rgb(253,206,38)"/></g><g opacity="0.4"><path d=" M 270.957 65.41 C 268.187 65.141 266.57 66.823 266.602 69.591 C 266.643 71.933 268.022 73.249 270.364 73.209 C 272.706 73.168 273.897 71.779 274.325 69.549 C 274.378 67.291 273.175 65.661 270.957 65.41 Z " fill="rgb(253,206,38)"/></g><g opacity="0.4"><path d=" M 213.587 73.212 C 215.876 73.193 217.214 71.865 217.486 69.699 C 217.758 67.533 216.574 65.654 214.46 65.361 C 211.825 64.976 210.02 66.493 210 69.282 C 209.926 71.489 211.357 72.784 213.587 73.212 Z " fill="rgb(253,205,33)"/></g><g opacity="0.4"><path d=" M 214.92 45.879 C 217.21 45.859 218.547 44.532 218.819 42.366 C 219.091 40.2 217.907 38.321 215.793 38.028 C 213.158 37.643 211.353 39.16 211.334 41.949 C 211.259 44.156 212.691 45.451 214.92 45.879 Z " fill="rgb(253,205,33)"/></g><g opacity="0.4"><path d=" M 213.724 94.018 C 211.975 93.88 210.397 95.062 210.009 96.792 C 209.446 99.136 210.92 100.535 213.108 101.161 C 215.304 101.058 217.163 100.124 217.372 97.802 C 217.654 95.511 215.952 94.144 213.724 94.018 Z " fill="rgb(253,211,57)"/></g><g opacity="0.4"><path d=" M 213.543 123.599 C 211.296 123.723 209.749 124.833 209.884 127.257 C 210.007 129.203 211.447 130.072 213.248 130.189 C 215.497 130.367 217.054 129.435 217.616 126.789 C 217.16 124.917 215.864 123.507 213.543 123.599 Z " fill="rgb(253,210,53)"/></g><g opacity="0.4"><path d=" M 185.891 93.674 C 183.194 93.436 181.535 95.014 181.64 97.813 C 181.712 100.082 183.226 101.283 185.423 101.483 C 187.754 101.265 189.112 99.989 189.238 97.761 C 189.364 95.534 188.015 93.843 185.891 93.674 Z " fill="rgb(253,205,31)"/></g><g opacity="0.4"><path d=" M 185.312 130.189 C 187.517 129.962 189.325 129.049 189.065 126.614 C 188.847 124.284 186.959 123.355 184.754 123.582 C 182.954 123.767 181.584 124.865 181.488 126.718 C 181.394 129.175 183.084 130.063 185.312 130.189 Z " fill="rgb(253,210,52)"/></g><g opacity="0.4"><path d=" M 185.678 158.582 C 187.778 158.094 189.513 157.15 188.909 154.613 C 188.389 152.284 186.451 151.678 184.309 152.061 C 182.551 152.349 181.223 153.552 181.45 155.456 C 181.688 157.838 183.492 158.559 185.678 158.582 Z " fill="rgb(253,210,54)"/></g><g opacity="0.4"><path d=" M 157.272 130.231 C 158.759 129.871 160.817 129.28 160.734 126.834 C 160.684 124.618 158.919 123.397 156.672 123.52 C 154.903 123.632 153.48 124.449 153.176 126.387 C 152.822 128.949 154.46 129.858 157.272 130.231 Z " fill="rgb(253,210,52)"/></g><g opacity="0.4"><path d=" M 156.992 158.522 C 159.177 158.243 161.005 157.382 160.651 154.864 C 160.361 152.503 158.442 151.647 156.309 151.905 C 154.51 152.09 153.161 153.24 153.117 155.072 C 153.023 157.529 154.712 158.417 156.992 158.522 Z " fill="rgb(253,210,52)"/></g><g opacity="0.4"><path d=" M 160.728 183.737 C 160.791 181.353 159.1 180.163 156.81 180.183 C 154.521 180.203 153.047 181.343 152.976 184.154 C 153.577 186.087 155.132 187.091 157.389 186.842 C 159.189 186.658 160.705 185.621 160.728 183.737 Z " fill="rgb(253,213,69)"/></g><g opacity="0.4"><path d=" M 189.006 183.236 C 188.694 180.822 186.775 179.966 184.57 180.194 C 182.77 180.378 181.369 181.55 181.346 183.434 C 181.273 185.942 182.984 186.883 185.295 186.915 C 187.5 186.687 189.328 185.826 189.006 183.236 Z " fill="rgb(253,213,69)"/></g><g opacity="0.4"><path d=" M 128.8 93.503 C 126.001 93.608 124.551 95.404 124.968 98.077 L 124.989 98.129 L 132.055 95.269 C 131.394 94.085 130.121 93.331 128.8 93.503 Z " fill="rgb(253,205,30)"/></g><g opacity="0.4"><path d=" M 129.134 101.349 C 131.265 100.789 132.676 99.492 132.479 97.214 C 132.455 96.558 132.255 95.913 131.951 95.311 L 124.885 98.171 C 125.247 100.262 126.865 101.421 129.134 101.349 Z " fill="rgb(253,205,30)"/></g><g opacity="0.4"><path d=" M 128.419 130.058 C 130.199 130.124 131.737 129.441 132.208 127.618 C 132.854 125.179 131.298 123.874 129.163 123.529 C 127.027 123.184 125.293 124.128 124.73 126.472 C 124.657 128.981 126.191 129.932 128.419 130.058 Z " fill="rgb(253,210,52)"/></g><g opacity="0.4"><path d=" M 128.462 158.4 C 130.7 158.401 132.216 157.365 132.456 154.97 C 131.957 152.692 130.412 151.564 128.154 151.813 C 125.897 152.061 124.487 153.358 124.871 155.802 C 125.14 157.81 126.703 158.386 128.462 158.4 Z " fill="rgb(253,210,52)"/></g><g opacity="0.4"><path d=" M 132.385 183.478 C 132.365 181.189 130.549 179.989 128.229 180.082 C 126.387 180.162 124.985 181.032 124.681 182.969 C 124.275 185.552 125.934 186.513 128.173 186.816 C 130.557 186.879 132.374 185.841 132.385 183.478 Z " fill="rgb(253,213,69)"/></g><g opacity="0.4"><path d=" M 333.066 12.698 C 333.003 10.002 331.476 8.322 328.647 8.802 C 326.504 9.186 325.345 10.804 325.49 13.103 C 325.86 14.465 326.426 15.566 327.438 16.124 L 332.946 13.895 C 333.048 13.551 333.057 13.124 333.066 12.698 Z " fill="rgb(253,205,33)"/></g><g opacity="0.4"><path d=" M 329.512 16.615 C 331.333 16.483 332.567 15.499 332.915 13.968 L 327.407 16.197 C 328.085 16.527 328.804 16.66 329.512 16.615 Z " fill="rgb(253,205,33)"/></g><g opacity="0.4"><path d=" M 325.502 41.518 C 325.573 43.485 327.213 44.998 329.18 44.927 C 329.305 44.937 329.409 44.895 329.534 44.905 C 331.834 44.76 332.889 43.184 333.088 40.987 C 332.86 38.782 331.834 37.141 329.523 37.109 C 326.785 37.068 325.262 38.834 325.502 41.518 Z " fill="rgb(253,205,33)"/></g><g opacity="0.4"><path d=" M 100.41 130.027 C 102.179 129.916 103.696 129.181 103.948 127.265 C 104.292 124.828 102.726 123.648 100.529 123.449 C 98.332 123.25 96.786 124.359 96.327 126.661 C 96.669 129.002 98.141 130.099 100.41 130.027 Z " fill="rgb(253,210,54)"/></g><g opacity="0.4"><path d=" M 104.063 183.272 C 103.544 180.943 101.999 179.814 99.689 180.084 C 97.379 180.354 95.969 181.65 96.354 184.095 C 96.622 186.102 98.259 186.71 100.018 186.723 C 102.35 186.807 103.844 185.719 104.063 183.272 Z " fill="rgb(253,213,69)"/></g><g opacity="0.4"><path d=" M 297.087 69.165 C 296.837 71.684 298.651 72.583 301.38 73.05 C 302.699 72.275 304.642 71.548 304.487 69.072 C 304.448 67.334 303.027 65.914 301.247 65.848 C 299.071 65.701 297.296 66.843 297.087 69.165 Z " fill="rgb(253,211,59)"/></g><g opacity="0.4"><path d=" M 72.224 130.008 C 74.346 129.572 76.08 128.628 75.601 126.101 C 75.134 123.751 73.174 123.093 71.063 123.403 C 69.305 123.691 67.998 124.946 68.079 126.788 C 68.183 129.285 69.986 130.006 72.224 130.008 Z " fill="rgb(253,210,52)"/></g><g opacity="0.4"><path d=" M 75.559 153.933 C 75.436 151.685 73.754 150.37 71.601 150.577 C 69.572 150.794 68.016 152.028 67.984 154.339 C 68.461 156.564 69.706 157.996 72.015 157.726 C 74.19 157.571 75.683 156.181 75.559 153.933 Z " fill="rgb(253,209,49)"/></g><g opacity="0.4"><path d=" M 75.679 183.211 C 75.16 180.882 73.615 179.754 71.305 180.024 C 68.996 180.293 67.585 181.59 67.97 184.034 C 68.26 186.094 69.875 186.649 71.634 186.663 C 73.966 186.747 75.46 185.658 75.679 183.211 Z " fill="rgb(253,213,69)"/></g><g opacity="0.4"><path d=" M 295.173 41.58 C 295.431 43.713 296.967 44.966 299.256 44.946 C 301.503 44.52 302.767 43.162 302.695 40.893 C 302.623 38.625 301.441 37.047 299.151 37.067 C 296.331 37.12 294.808 38.886 295.173 41.58 Z " fill="rgb(253,205,33)"/></g><g opacity="0.4"><path d=" M 270.258 37.092 C 268.01 37.216 266.788 38.678 266.671 40.781 L 273.322 38.089 C 272.528 37.322 271.402 36.931 270.258 37.092 Z " fill="rgb(253,206,38)"/></g><g opacity="0.4"><path d=" M 34.311 14.992 C 36.528 14.941 38.136 13.685 38.335 11.488 C 38.559 10.249 38.179 9.012 37.322 8.089 L 30.671 10.781 L 30.652 11.031 C 30.619 13.342 31.874 14.648 34.311 14.992 Z " fill="rgb(253,206,38)"/></g><g opacity="0.4"><path d=" M 11.173 23.58 C 11.431 25.713 12.967 26.966 15.256 26.946 C 17.503 26.52 18.767 25.162 18.695 22.893 C 18.623 20.625 17.441 19.047 15.151 19.067 C 12.331 19.12 10.808 20.886 11.173 23.58 Z " fill="rgb(253,205,33)"/></g><g opacity="0.4"><path d=" M 47.333 126.175 C 46.709 123.888 44.946 122.969 42.825 123.404 C 40.703 123.84 39.21 125.23 39.897 127.673 C 40.404 129.524 41.989 130.152 43.736 129.989 C 45.921 129.71 47.457 128.725 47.333 126.175 Z " fill="rgb(253,210,52)"/></g><g opacity="0.4"><path d=" M 47.294 154.913 C 47.171 152.665 45.428 151.496 43.149 151.693 C 41.38 151.804 39.947 152.747 39.726 154.59 C 39.372 157.152 41.062 158.04 43.926 158.393 C 45.267 157.971 47.398 157.411 47.294 154.913 Z " fill="rgb(253,210,52)"/></g><g opacity="0.4"><path d=" M 266.704 96.882 C 266.246 99.486 267.576 101.427 270.407 101.55 C 272.76 101.686 273.888 100.141 274.295 97.86 C 274.349 95.601 273.218 94.003 271.052 93.731 C 269.021 93.344 267.132 94.653 266.745 96.684 C 266.714 96.757 266.683 96.83 266.704 96.882 Z " fill="rgb(253,205,31)"/></g><g opacity="0.4"><path d=" M 18.995 155.06 C 18.652 152.72 17.315 151.507 14.994 151.6 C 12.673 151.693 11.2 152.834 11.335 155.258 C 11.405 157.225 12.897 158.072 14.698 158.19 C 16.895 158.389 18.505 157.435 18.995 155.06 Z " fill="rgb(253,210,52)"/></g><g opacity="0.4"><path d=" M 266.566 126.869 C 266.442 129.399 268.162 130.214 270.963 130.41 C 272.314 129.864 274.393 129.324 274.091 126.786 C 273.822 124.476 271.986 123.526 269.78 123.754 C 268.032 123.917 266.715 124.995 266.566 126.869 Z " fill="rgb(253,210,53)"/></g><g opacity="0.4"><path d=" M 241.438 65.386 C 239.296 65.769 238.137 67.387 238.282 69.687 C 238.79 71.839 239.982 73.292 242.334 73.126 C 244.686 72.96 245.908 71.498 245.857 69.281 C 245.794 66.586 244.268 64.906 241.438 65.386 Z " fill="rgb(253,205,33)"/></g><g opacity="0.4"><path d=" M 241.848 94.184 C 239.819 94.4 238.263 95.635 238.21 97.894 C 238.635 100.14 239.932 101.55 242.21 101.354 C 244.385 101.199 245.857 99.757 245.733 97.509 C 245.61 95.261 244.054 93.956 241.848 94.184 Z " fill="rgb(253,209,49)"/></g><g opacity="0.4"><path d=" M 241.625 123.661 C 239.42 123.889 237.936 125.154 238.373 127.578 C 238.673 129.512 240.226 130.214 241.985 130.227 C 244.223 130.229 245.739 129.192 245.946 126.568 C 245.293 124.656 243.883 123.413 241.625 123.661 Z " fill="rgb(253,210,54)"/></g><g opacity="0.4"><path d=" M 216.126 174.798 C 217.477 174.251 219.557 173.712 219.255 171.173 C 218.985 168.864 217.149 167.914 214.944 168.141 C 213.144 168.326 211.753 169.372 211.73 171.256 C 211.615 173.661 213.253 174.57 216.126 174.798 Z " fill="rgb(253,210,54)"/></g><g opacity="0.4"><path d=" M 320.788 69.609 C 322.139 69.062 324.218 68.523 323.917 65.984 C 323.647 63.675 321.811 62.725 319.606 62.952 C 317.806 63.137 316.415 64.183 316.392 66.067 C 316.277 68.472 317.967 69.36 320.788 69.609 Z " fill="rgb(253,210,54)"/></g><g opacity="0.4"><path d=" M 178.707 70.399 C 176.958 70.261 175.381 71.444 174.992 73.173 C 174.429 75.517 175.903 76.916 178.091 77.542 C 180.287 77.439 182.146 76.505 182.355 74.184 C 182.564 71.862 180.987 70.505 178.707 70.399 Z " fill="rgb(253,211,57)"/></g><g opacity="0.4"><path d=" M 209.374 3.733 C 207.625 3.594 206.047 4.777 205.659 6.506 C 205.096 8.85 206.569 10.25 208.758 10.875 C 210.953 10.773 212.813 9.839 213.022 7.517 C 213.231 5.195 211.654 3.838 209.374 3.733 Z " fill="rgb(253,211,57)"/></g><g opacity="0.4"><path d=" M 138.253 14.546 C 140.543 14.526 141.88 13.199 142.152 11.033 C 142.424 8.867 141.241 6.987 139.127 6.694 C 136.492 6.31 134.687 7.826 134.667 10.616 C 134.593 12.823 136.024 14.118 138.253 14.546 Z " fill="rgb(253,205,33)"/></g><g opacity="0.4"><path d=" M 182.391 25.351 C 180.641 25.213 179.064 26.396 178.676 28.125 C 178.113 30.469 179.586 31.868 181.775 32.494 C 183.97 32.391 185.83 31.458 186.039 29.136 C 186.321 26.845 184.618 25.478 182.391 25.351 Z " fill="rgb(253,211,57)"/></g><g opacity="0.4"><path d=" M 151.224 38.341 C 148.527 38.102 146.868 39.681 146.973 42.48 C 147.045 44.749 148.559 45.95 150.756 46.149 C 153.087 45.931 154.445 44.656 154.571 42.428 C 154.697 40.2 153.348 38.509 151.224 38.341 Z " fill="rgb(253,205,31)"/></g><g opacity="0.4"><path d=" M 130.707 62.399 C 128.958 62.261 127.381 63.444 126.992 65.173 C 126.429 67.517 127.903 68.916 130.091 69.542 C 132.287 69.439 134.146 68.505 134.355 66.184 C 134.564 63.862 132.987 62.505 130.707 62.399 Z " fill="rgb(253,211,57)"/></g><g opacity="0.4"><path d=" M 32.578 67.29 C 30.583 68.442 30.143 70.374 31.062 72.463 C 31.981 74.552 33.769 75.239 36.063 74.426 C 38.064 73.354 38.946 71.514 38.148 69.457 C 37.242 66.931 35.151 65.825 32.578 67.29 Z " fill="rgb(253,206,38)"/></g><g opacity="0.4"><path d=" M 74.442 23.807 C 76.485 22.771 77.093 20.988 76.374 18.926 C 75.654 16.865 73.759 15.708 71.735 16.385 C 69.203 17.212 68.261 19.373 69.483 21.88 C 70.398 23.89 72.255 24.414 74.442 23.807 Z " fill="rgb(253,205,33)"/></g><g opacity="0.4"><path d=" M 83.814 42.383 C 82.185 43.036 81.298 44.797 81.719 46.518 C 82.257 48.868 84.199 49.467 86.437 49.055 C 88.358 47.987 89.609 46.324 88.764 44.151 C 87.998 41.973 85.866 41.505 83.814 42.383 Z " fill="rgb(253,211,57)"/></g><g opacity="0.4"><path d=" M 96.801 68.961 C 94.843 70.071 93.951 71.752 95.15 73.864 C 96.124 75.553 97.8 75.691 99.466 74.995 C 101.559 74.155 102.54 72.627 101.867 70.008 C 100.627 68.533 98.839 67.846 96.801 68.961 Z " fill="rgb(253,210,53)"/></g><g opacity="0.4"><path d=" M 58.729 54.447 C 56.207 55.432 55.423 57.583 56.761 60.044 C 57.834 62.044 59.724 62.447 61.781 61.649 C 63.772 60.418 64.421 58.672 63.544 56.62 C 62.667 54.568 60.706 53.654 58.729 54.447 Z " fill="rgb(253,205,31)"/></g><g opacity="0.4"><path d=" M 74.441 87.413 C 76.316 86.229 77.529 84.608 76.214 82.543 C 74.983 80.552 72.879 80.559 71.005 81.743 C 69.474 82.708 68.736 84.301 69.473 86.004 C 70.481 88.246 72.39 88.291 74.441 87.413 Z " fill="rgb(253,210,52)"/></g><g opacity="0.4"><path d=" M 49.343 99.915 C 50.515 98.932 52.096 97.487 50.934 95.333 C 49.904 93.37 47.781 93.06 45.822 94.17 C 44.287 95.056 43.376 96.421 43.965 98.292 C 44.787 100.744 46.658 100.83 49.343 99.915 Z " fill="rgb(253,210,52)"/></g><g opacity="0.4"><path d=" M 7.512 79.67 C 5.051 81.009 4.551 83.262 6.113 85.472 L 6.155 85.509 L 11.213 79.806 C 10.095 79.039 8.619 78.929 7.512 79.67 Z " fill="rgb(253,205,30)"/></g><g opacity="0.4"><path d=" M 11.299 86.551 C 12.959 85.101 13.646 83.313 12.457 81.359 C 12.145 80.783 11.679 80.294 11.138 79.89 L 6.08 85.593 C 7.334 87.304 9.299 87.623 11.299 86.551 Z " fill="rgb(253,205,30)"/></g><g opacity="0.4"><path d=" M 23.42 112.585 C 25.044 111.853 26.118 110.558 25.73 108.715 C 25.224 106.244 23.25 105.766 21.184 106.406 C 19.118 107.046 17.984 108.663 18.522 111.013 C 19.572 113.292 21.369 113.463 23.42 112.585 Z " fill="rgb(253,210,52)"/></g><g opacity="0.4"><path d=" M 95.912 4.415 C 94.164 5.711 93.844 7.676 94.996 9.671 C 96.409 11.373 98.122 12.144 100.155 10.95 C 102.188 9.756 102.633 7.903 101.602 5.94 C 100.347 3.554 98.233 2.727 95.912 4.415 Z " fill="rgb(253,205,33)"/></g><g opacity="0.4"><path d=" M 109.08 30.03 C 107.359 31.125 106.514 32.923 107.47 34.97 C 108.85 36.793 110.638 37.48 112.592 36.291 C 114.471 35.186 115.149 33.239 114.039 31.281 C 112.929 29.323 110.955 28.845 109.08 30.03 Z " fill="rgb(253,209,49)"/></g><g opacity="0.4"><path d=" M 91.984 97.867 C 90.109 99.051 89.343 100.844 90.812 102.821 C 91.94 104.421 93.643 104.358 95.225 103.589 C 97.23 102.595 98.127 100.993 97.147 98.55 C 95.712 97.127 93.896 96.641 91.984 97.867 Z " fill="rgb(253,210,54)"/></g><g opacity="0.4"><path d=" M 41.948 36.791 C 40.319 37.445 39.432 39.205 39.853 40.927 C 40.391 43.277 42.333 43.875 44.571 43.463 C 46.492 42.395 47.743 40.732 46.898 38.559 C 46.053 36.386 44.037 35.872 41.948 36.791 Z " fill="rgb(253,211,57)"/></g><g opacity="0.4"><path d=" M 11.948 48.124 C 10.319 48.778 9.432 50.538 9.853 52.26 C 10.391 54.61 12.333 55.209 14.571 54.797 C 16.492 53.728 17.743 52.065 16.898 49.893 C 16.053 47.72 14.037 47.205 11.948 48.124 Z " fill="rgb(253,211,57)"/></g><g opacity="0.4"><path d=" M 241.587 45.734 C 241.337 48.254 243.152 49.152 245.881 49.62 C 247.199 48.844 249.143 48.118 248.987 45.641 C 248.948 43.903 247.527 42.483 245.747 42.418 C 243.55 42.218 241.775 43.36 241.587 45.734 Z " fill="rgb(253,211,59)"/></g><g opacity="0.4"><path d=" M 241.587 45.734 C 241.337 48.254 243.152 49.152 245.881 49.62 C 247.199 48.844 249.143 48.118 248.987 45.641 C 248.948 43.903 247.527 42.483 245.747 42.418 C 243.55 42.218 241.775 43.36 241.587 45.734 Z " fill="rgb(253,211,59)"/></g><g style="opacity:0.4;"><g opacity="0.4"><path d=" M 274.258 13.092 C 272.01 13.216 270.788 14.678 270.671 16.781 L 277.322 14.089 C 276.528 13.322 275.402 12.931 274.258 13.092 Z " fill="rgb(253,206,38)"/></g><g opacity="0.4"><path d=" M 274.311 20.992 C 276.528 20.941 278.136 19.685 278.335 17.488 C 278.559 16.249 278.179 15.012 277.322 14.089 L 270.671 16.781 L 270.652 17.031 C 270.619 19.342 271.874 20.648 274.311 20.992 Z " fill="rgb(253,206,38)"/></g><g opacity="0.4"><path d=" M 299.173 17.58 C 299.431 19.713 300.967 20.966 303.256 20.946 C 305.503 20.52 306.767 19.162 306.695 16.893 C 306.623 14.625 305.441 13.047 303.151 13.067 C 300.331 13.12 298.808 14.886 299.173 17.58 Z " fill="rgb(253,205,33)"/></g><g opacity="0.4"><path d=" M 245.587 21.734 C 245.337 24.254 247.152 25.152 249.881 25.62 C 251.199 24.844 253.143 24.118 252.987 21.641 C 252.948 19.903 251.527 18.483 249.747 18.418 C 247.55 18.218 245.775 19.36 245.587 21.734 Z " fill="rgb(253,211,59)"/></g><g opacity="0.4"><path d=" M 245.587 21.734 C 245.337 24.254 247.152 25.152 249.881 25.62 C 251.199 24.844 253.143 24.118 252.987 21.641 C 252.948 19.903 251.527 18.483 249.747 18.418 C 247.55 18.218 245.775 19.36 245.587 21.734 Z " fill="rgb(253,211,59)"/></g></g><g opacity="0.4"><path d=" M 6.04 125.066 C 4.291 124.928 2.714 126.11 2.326 127.84 C 1.763 130.184 3.236 131.583 5.424 132.209 C 7.62 132.106 9.479 131.172 9.688 128.85 C 9.897 126.528 8.32 125.171 6.04 125.066 Z " fill="rgb(253,211,57)"/></g><g opacity="0.4"><path d=" M 9.059 4.433 C 8.936 2.185 7.254 0.87 5.101 1.077 C 3.072 1.294 1.516 2.528 1.484 4.839 C 1.961 7.064 3.206 8.496 5.515 8.226 C 7.69 8.071 9.183 6.681 9.059 4.433 Z " fill="rgb(253,209,49)"/></g></g></g></svg>