<?xml version="1.0" encoding="utf-8"?>
<!-- Generator: Adobe Illustrator 23.0.1, SVG Export Plug-In . SVG Version: 6.00 Build 0)  -->
<svg version="1.1" id="Layer_1" xmlns="http://www.w3.org/2000/svg" xmlns:xlink="http://www.w3.org/1999/xlink" x="0px" y="0px"
	 viewBox="0 0 1920.8 936.8" style="enable-background:new 0 0 1920.8 936.8;" xml:space="preserve">
<style type="text/css">
	.st0{fill:#F2F1F1;}
	.st1{fill:#FDCA5E;}
	.st2{fill:#2C3335;}
	.st3{fill:none;}
	.st4{fill:#E5B349;}
	.st5{fill:#E4B043;}
	.st6{fill:#F8A230;}
</style>
<rect y="1.1" class="st0" width="1920.8" height="935.7"/>
<path class="st1" d="M553.9,15.3c26.1,8.6,52.2,16.8,79.7,19.6c23.8,2.6,47.9-0.2,70.5-8.3c15.7-5.7,29.2-14.6,41.5-25.4l1.3-1.1
	h-4.7c-0.1,0-0.2,0.1-0.2,0.1l0,0V0H507.3l3.7,1.1C525.4,5.5,539.5,10.6,553.9,15.3z M645.9,33.2c-15.6,0.1-30.8-3.5-46-6.5
	c17.5,2.8,34.9,6.3,52.8,6.3C650.4,33,648.1,33.1,645.9,33.2L645.9,33.2z M736.2,5.2l-0.4,0.6c-2.2,3-5.5,4.4-8.6,6.2
	c-0.4,0.3-0.9,0.5-1.3,0.8l0,0l0,0c0.3-0.4,0.6-0.8,0.9-1.2l0,0c0.3-0.4,0.7-0.8,1-1.1l0,0c0.3-0.4,0.7-0.7,1.1-1.1l0,0
	c0.4-0.3,0.8-0.7,1.2-1l0,0c0.4-0.3,0.8-0.6,1.2-0.9l0,0c0.4-0.3,0.8-0.5,1.3-0.8l0,0c0.9-0.5,1.8-0.9,2.8-1.3l0,0l0.6-0.2l0,0
	H736.2z M740.6,1.8c-0.4,1-1.2,1.7-2.3,2.1c-0.4,0.1-0.8,0.2-1.3,0.2l0,0c0.4-1.9,1.7-2.5,3.2-2.7l0.6-0.2l0,0
	C740.8,1.4,740.7,1.6,740.6,1.8z"/>
<path class="st1" d="M25.5,30.6C38.2,49,53.1,65.1,72.8,76.1c22.1,12.3,46,19.6,70.5,25.2l24.9,4.4c12.7,1.8,25.5,2.4,38.4,1.9
	c25.4-1,49.5-6.5,71.9-19.1c1.6-0.9,3.8-1.6,4.5-3c2.3-4.7,6.6-6.4,10.6-8.8c0-0.2,0.1-0.4,0.3-0.6l0,0l0,0c0.2-0.1,0.4-0.1,0.5-0.1
	c0-0.1,0-0.2,0.1-0.3c0.1-0.2,0.2-0.3,0.4-0.3c0.1-0.1,0.3-0.1,0.5-0.1c0-0.2,0.1-0.4,0.3-0.5c0.2-0.1,0.4-0.1,0.6-0.1
	c0-0.2,0.1-0.4,0.1-0.5c0.1-0.4,0.2-0.7,0.4-1l0,0c0.1-0.2,0.3-0.3,0.5-0.5c0.5-0.4,1.2-0.7,1.9-0.6c0-0.1,0-0.2,0.1-0.3
	c0.1-0.1,0.2-0.2,0.3-0.3c0.2-0.1,0.4-0.1,0.6,0c0.2-0.6,0.3-1.3,0.7-1.7c11.8-11,21.1-24,31.1-36.6C342.9,19.3,355.8,8.5,371,1
	l2.4-1.1H7.4C7.6,0.4,7.8,0.8,8,1.1C13.2,11.3,19.1,21.1,25.5,30.6z"/>
<path class="st2" d="M401,887c-0.8-0.5-1.4-1.2-2.5-1h-0.8c-0.8,0.2-1.4-0.2-1.9-0.8l-1.7-1.1l-1.6-1c-1.4-1.1-3.3-1.4-4.2-3
	c-1.2,0.1-2.3-0.6-2.8-1.7c-3.9-1.3-7.2-3.8-10.8-5.7c-15.2-8-30.5-15.9-45.7-24c-15.6-8.3-30.6-17.4-44.1-28.9
	c-8.4-7.3-15.7-15.6-23.4-23.6c-6.9-7.2-14.1-13.8-22.8-18.7c-12.9-7.3-26.9-9.5-41.4-8.6c-27,1.7-52.6,9.1-77.2,19.8
	c-38.6,16.9-72.6,43.1-98.8,76.3C13,875.3,5.7,886.4-0.4,898.1v38.7h455.6C439.3,917.9,421.1,901.2,401,887z M39.7,847
	c0,0.1,0,0.2,0,0.3C39.7,847.2,39.6,847.1,39.7,847L39.7,847z M39.1,847.7L39.1,847.7L39.1,847.7z M0,903L0,903L0,903h-0.3
	c0.1-0.1,0.1-0.2,0.2-0.3l0,0C-0.1,902.8,0,902.9,0,903L0,903z M0.5,901.9L0.5,901.9c0,0-0.1,0.1-0.2,0.1l0,0
	c-0.3-0.1-0.3-0.3,0-0.4l0,0c0,0,0.1,0,0.1,0.1l0,0C0.5,901.7,0.5,901.8,0.5,901.9L0.5,901.9L0.5,901.9z M0.9,900.9L0.9,900.9
	L0.9,900.9c-0.1,0-0.1-0.1-0.1-0.2c0-0.1,0.1-0.2,0.2-0.3l0,0l0,0l0.2,0.2L0.9,900.9z M1.5,899.8L1.5,899.8L1.5,899.8l-0.2-0.1
	l0.2-0.3l0,0l0,0c0.1,0.1,0.2,0.1,0.2,0.2S1.6,899.8,1.5,899.8L1.5,899.8z M2.1,898.6L2.1,898.6l-0.3-0.2l0.2-0.2l0,0l0.2,0.2
	L2.1,898.6z M2.5,897.8L2.5,897.8c-0.5-1.1,0.3-1.5,1.1-2.7l0,0l0,0C3.8,896.8,3.4,897.4,2.5,897.8L2.5,897.8z M14.8,878.2
	L14.8,878.2l-0.2-0.1l0.2-0.3l0,0c0.1,0.1,0.2,0.1,0.2,0.2S14.9,878.2,14.8,878.2z M16.6,876.3c-0.1,0.1-0.2,0.2-0.4,0.3
	c-0.1,0.1-0.3,0.2-0.4,0.3c-0.2,0.2-0.3,0.3-0.5,0.4l0,0c-0.1-0.1-0.2-0.2-0.2-0.3c0-0.2,0.1-0.4,0.3-0.5l0,0l0,0
	c0.2-0.4,0.6-1.1,0.9-1c0,0,0.1,0,0.1,0.1l0,0c0.1,0.1,0.1,0.1,0.2,0.2C16.7,875.9,16.7,876.1,16.6,876.3L16.6,876.3L16.6,876.3z
	 M18.7,873.1L18.7,873.1l-0.5,0.9l-0.1,0.1c-0.2,0.4-0.4,0.7-0.8,1c-0.1,0-0.1,0-0.2,0s-0.1,0-0.2-0.1c-0.7-0.6,0.1-1.1,0.6-1.5
	l0.6-1l0,0c0.2-0.3,0.4-0.7,0.6-0.7l0,0c0.1,0,0.2,0.1,0.3,0.2c0.1,0.1,0.2,0.2,0.2,0.3C19.3,872.6,19,872.9,18.7,873.1L18.7,873.1z
	 M22.3,868.4L22.3,868.4l-0.2,0.1H22l0,0c0,0.1,0,0.2,0,0.4c-0.1,0.2-0.2,0.3-0.3,0.5c-0.1,0.1-0.2,0.2-0.3,0.3l0,0l0,0
	c0,0.1-0.1,0.2-0.1,0.3c-0.2,0.3-0.4,0.5-0.6,0.4c-0.1,0-0.1-0.1-0.2-0.1l-0.1-0.1c0,0,0-0.1-0.1-0.2c0-0.1,0-0.1,0-0.2
	c0.1-0.2,0.3-0.4,0.5-0.6l0.5-0.9l0.1-0.1c0.3-0.5,0.6-1,1.1-1.4c0.2-0.1,0.4-0.2,0.7-0.2C23.5,867.2,23.1,868.1,22.3,868.4
	L22.3,868.4z M24.1,865.8L24.1,865.8l-0.3,0.2l-0.2,0.2h-0.1c-0.2-0.1-0.3-0.3-0.2-0.5c0.1-0.2,0.2-0.3,0.3-0.4l0,0
	c0.2-0.6,0.6-1,1.1-1.4c0.2-0.1,0.5-0.2,0.7-0.2C25.6,864.7,25,865.6,24.1,865.8L24.1,865.8z M28.1,861.3L28.1,861.3
	c-0.2,0.6-0.6,1-1.1,1.4c-0.2,0.1-0.4,0.2-0.6,0.2c-0.1,0.2-0.1,0.6-0.5,0.5c-0.1,0-0.1,0-0.2-0.1s-0.2-0.2-0.2-0.3
	c0.1-0.2,0.2-0.3,0.3-0.5c0.2-0.5,0.5-0.9,0.9-1.2c0.1-0.1,0.1-0.2,0.2-0.2c0.2-0.1,0.4-0.2,0.6-0.3l0,0c0.1-0.2,0.2-0.5,0.4-0.5
	c0.1,0,0.2,0.1,0.3,0.1c0.1,0.1,0.1,0.1,0.1,0.2C28.3,861,28.2,861.2,28.1,861.3L28.1,861.3z M37.6,850.9
	C37.6,850.9,37.5,850.9,37.6,850.9c-0.1,0-0.2,0.1-0.3,0.1s-0.2,0-0.3,0.1s-0.1,0.2-0.1,0.4l0,0c-0.1,0-0.2,0-0.2,0
	c-0.2,0.1-0.2,0.2-0.2,0.5 M36.4,852l-0.9,0.5l0,0c-0.1,0.5-0.4,1-0.8,1.3c-0.4,0.4-0.8,0.7-1.2,0.9c0,0.1,0,0.1-0.1,0.2
	c0,0,0,0.1-0.1,0.1c-0.1,0.1-0.2,0.1-0.3,0.1h-0.1c0,0.3-0.2,0.6-0.6,0.6l0,0c0.1,0.4-0.2,0.9-0.6,1.1l-0.5,0.6
	c-0.3,0.8-0.9,1.4-1.6,1.8c-0.1,0.3-0.2,0.5-0.6,0.5c-0.1,0.2-0.2,0.8-0.6,0.4l-0.1-0.1c0-0.1-0.1-0.1-0.1-0.2
	c0-0.1,0.1-0.3,0.2-0.4c0-0.1,0.1-0.1,0.1-0.2l0.5-0.6c0.2-0.3,0.4-0.6,0.6-0.9c0.3-0.4,0.6-0.7,1.1-0.8l0.3-0.3l0.3-0.3l0.6-1.1
	c0.2-0.2,0.3-0.4,0.5-0.6l0.5-0.6c0.1-0.2,0.2-0.4,0.3-0.6c0.4-0.5,0.8-1,1.4-1.3c0.1-0.1,0.2-0.1,0.4-0.1c0,0,0,0,0-0.1l0.1-0.1
	l0.1-0.1l0.1-0.1h0.2h0.3H36h0.1L36.4,852L36.4,852L36.4,852c-0.2-0.2-0.4-0.3-0.2-0.6c0-0.1,0.1-0.1,0.2-0.1c0,0,0.1,0,0.2,0l0,0
	l0.1,0.1l0,0h0.1l0,0v-0.1l0,0l0,0l0,0c0-0.1,0-0.1,0.1-0.2l0,0c0-0.1,0.1-0.1,0.1-0.2c0.1-0.1,0.3-0.2,0.5-0.1v-0.1l0,0l-0.4-0.5
	h0.1v-0.1h0.2c0.3,0,0.1,0.3,0.2,0.5l0,0v0.1v0.1l0,0l0,0L36.4,852z M38.6,848.1L38.6,848.1c0.3,0,0.5,0,0.5-0.3
	c0,0.1,0,0.1-0.1,0.2c0,0,0,0,0.1-0.1c0,0,0,0,0-0.1c0,0.1-0.1,0.2-0.1,0.2C38.9,848.2,38.7,848.2,38.6,848.1z M39.6,847.6
	c-0.1,0-0.3,0-0.4,0h0.1h-0.1l0,0l0,0l0,0c0.3,0,0.5,0,0.6-0.3v0.1l0,0l0,0l0,0C39.7,847.5,39.6,847.6,39.6,847.6L39.6,847.6z
	 M45.5,841.9c0,0.1-0.1,0.2-0.1,0.2l-0.1,0.1h-0.1c-0.2,0-0.2-0.2-0.4-0.2l0,0l0,0c0.1,0.1,0.1,0.2,0.1,0.3v0.1l0,0v0.1
	c0,0.1-0.1,0.1-0.2,0.2c-0.1,0-0.3-0.1-0.4-0.2l0,0c0.1,0.1,0.1,0.3,0.1,0.5v0.1l0,0c-0.1,0.3-0.3,0.2-0.4,0.1l0,0
	c0,0.1,0.1,0.2,0,0.3l-0.1,0.1l0,0c0,0,0,0,0,0.1l-0.1,0.1c-0.1,0.1-0.2,0.1-0.3,0.1c0,0.1,0,0.2-0.1,0.2c0,0.1-0.1,0.2-0.1,0.2
	c-0.1,0.1-0.2,0.2-0.3,0.1v0.1c0,0,0,0.1-0.1,0.1l0,0v0.1l-0.1,0.1l-0.1,0.1c-0.1,0-0.2,0-0.2,0l0,0c0,0.1,0,0.1-0.1,0.2l0,0l0,0
	c0,0.1,0,0.1-0.1,0.2l0,0l0,0c0,0.1,0,0.2-0.1,0.3c0,0,0,0-0.1,0.1c0,0.1,0,0.1-0.1,0.2c-0.1,0.1-0.2,0.1-0.3,0.1
	c0,0.1-0.1,0.1-0.1,0.2l0,0c0,0.1-0.1,0.2-0.1,0.2c-0.2,0.2-0.3,0.1-0.4,0.1c-0.1-0.1-0.1-0.1-0.2-0.2c0.1,0,0.1,0,0.2,0l0,0
	c-0.1,0-0.1,0-0.2-0.1l-0.1-0.1v0.1v0.1l0,0c0,0.1,0,0.1,0,0.2v0.1c0,0-0.1,0.2-0.2,0.2v0.1c-0.1,0.1-0.2,0.2-0.3,0.1
	s-0.2-0.2-0.3-0.2c0.1,0,0.3,0,0.4-0.1l0,0l0,0c-0.1,0-0.2-0.1-0.3-0.1c0.1,0,0.3,0,0.4-0.1l0,0l0.1-0.1v-0.1l0,0v0.1l0,0l0,0l0,0
	v-0.1c0-0.1,0-0.1,0-0.2l0,0c0.1,0,0.2,0,0.3-0.1c0,0,0.1,0,0.1-0.1c0,0,0-0.1,0.1-0.1l0,0c0-0.1,0-0.2,0-0.2c0,0.1,0,0.1,0.1,0.2
	c0,0,0,0,0,0.1c0,0,0,0,0,0.1v-0.1h0.1l0,0l-0.1-0.1c-0.1-0.1-0.1-0.1-0.2-0.1c0.1,0,0.3,0,0.4-0.1l0.1-0.1l0,0v-0.1h-0.1l0.1-0.1
	v-0.1l0.6-0.5v-0.1h0.1l0.5-0.6l0.6-0.5l0,0l0,0l0.6-0.5v-0.1H44l0.2-0.4l0,0l0.1-0.1v0.1l0,0h0.1l0,0l-0.2-0.1l0.1-0.2
	c0.1,0,0.3,0,0.4-0.1l0,0V842l0,0l0,0l0,0v0.1V842l0,0l0,0h0.1l0,0l0,0v-0.1v-0.1c0.2,0,0.3-0.1,0.4-0.2v-0.1l0,0l0,0l0,0
	c0,0.1,0.1,0.1,0.1,0.2l0,0c0,0,0,0,0,0.1C45.4,841.8,45.4,841.9,45.5,841.9L45.5,841.9z M45.8,841.4L45.8,841.4L45.8,841.4
	c0,0.2-0.1,0.2-0.1,0.2c-0.1,0-0.3-0.2-0.4-0.2h0.1c0-0.1,0-0.2,0-0.3c0.2,0,0.3,0,0.5-0.2v-0.1C45.8,841,45.8,841.2,45.8,841.4
	L45.8,841.4z M45.8,840.9L45.8,840.9c0-0.1,0-0.2,0-0.2h0.3c0.1,0,0.1,0,0.2-0.1v-0.1v-0.1l0,0v0.1v0.1l0,0l0,0c0,0.1,0,0.2-0.1,0.3
	C46.1,841,46,841,45.8,840.9L45.8,840.9z M47.5,839.9L47.5,839.9L47.5,839.9c-0.2-0.1-0.4-0.2-0.5-0.3c0,0.1,0,0.2,0,0.3
	s-0.1,0.2-0.1,0.2c-0.1,0.1-0.1,0.1-0.2,0.1h-0.1l0,0c-0.1,0-0.2,0-0.3,0h0.1c0-0.1,0-0.1,0-0.2c0.1,0,0.2,0,0.3,0v-0.1
	c0-0.1,0-0.1,0.1-0.2c0-0.2,0-0.3,0.2-0.3l0.5,0.3C47.5,839.8,47.4,839.8,47.5,839.9L47.5,839.9z M50.3,838.2L50.3,838.2
	c-0.1,0-0.2,0-0.2,0H50.3c-0.2-0.1-0.3,0-0.5,0.1c-0.1,0.1-0.2,0.3-0.2,0.4l0,0l0,0l0,0h-0.1c-0.2,0-0.3,0.2-0.3,0.3
	c0,0,0,0.1,0,0.2l0,0l0,0l0,0H49l0.2,0.1l0,0h-0.6v-0.1h0.1c0,0,0,0,0-0.1l0.5,0.2c-0.1-0.1-0.3-0.2-0.2-0.4l0,0l0,0l0.1-0.1
	l0.1-0.1c0.1-0.1,0.2-0.1,0.3,0c0.1,0,0.2,0.1,0.2,0.2h0.1l0,0l0,0l0,0c0,0-0.2-0.3-0.2-0.4l0,0l0,0c0-0.1,0.1-0.1,0.2-0.1
	C49.9,838.1,50.1,838.1,50.3,838.2L50.3,838.2L50.3,838.2L50.3,838.2L50.3,838.2L50.3,838.2L50.3,838.2L50.3,838.2z M51.5,836.5
	l-0.7,1.2v0.1c-0.1,0-0.2,0-0.3,0l0,0l0,0c-0.1,0.1-0.2,0.2-0.2,0.4l0,0v0.1c-0.1-0.2-0.4-0.3-0.1-0.6l0,0l0,0
	c0.1-0.1,0.1-0.1,0.2-0.1c0.1,0,0.2,0.1,0.3,0.2c-0.1-0.2-0.2-0.4-0.2-0.6c0-0.1,0-0.2,0.1-0.3l0,0l0.1-0.1c0.3-0.2,0.7-0.4,1-0.5
	L51.5,836.5z M61.3,828.2L61.3,828.2c-0.2,0.5-0.6,1.2-1,1.2c-0.1,0-0.1,0-0.2,0c-0.1,0-0.2-0.1-0.2-0.2c-0.1-0.1-0.1-0.2-0.2-0.3
	c-0.2-0.5,0.7-0.9,1.2-1.2c0.3-0.2,0.5-0.5,0.9-0.1l0,0l0,0L61.3,828.2z M64.1,825.9c-0.2,0.6-0.6,1-1.2,1.1
	c-0.3,0.2-0.6,0.5-0.9,0.1l0,0c0,0,0.3-0.3,0.4-0.5l0,0c0.1-0.6,0.6-0.9,1.1-1.1c0.3-0.2,0.5-0.5,0.8-0.1l0,0
	C64.5,825.4,64.2,825.7,64.1,825.9L64.1,825.9z M67.9,823.1l-1,0.6c-0.2,0.5-0.6,0.9-1.2,1.1c-0.3,0.3-0.6,0.5-0.9,0.1l0,0
	c0,0,0.2-0.4,0.4-0.6c0.2-0.6,0.6-1,1.1-1.2c0.2-0.4,0.7-0.6,1.1-0.6c0.2-0.1,0.4-0.4,0.5-0.3c0.1,0,0.1,0.1,0.2,0.1
	c0,0.1,0.1,0.1,0.1,0.2C68.2,822.8,68,822.9,67.9,823.1L67.9,823.1z M103.4,799.6L103.4,799.6c0.9-1.2,2.3-2,3.8-2.2l0,0l0,0
	C106.4,798.8,105.3,799.1,103.4,799.6L103.4,799.6z M108,797.3L108,797.3c0,0.1-0.1,0.1-0.2,0.1s-0.1-0.1-0.1-0.1
	c-0.1-0.1,0-0.2,0.1-0.2s0.1,0.1,0.2,0.1l0,0C108,797.1,108,797.2,108,797.3L108,797.3L108,797.3z M108.9,796.8
	C108.8,796.8,108.8,796.7,108.9,796.8c-0.2-0.2-0.2-0.3,0-0.3s0.1,0.1,0.2,0.1l0,0l0,0l0,0v0.1l0,0l0,0l0,0l0,0
	C109.1,796.6,109,796.8,108.9,796.8L108.9,796.8z M110.3,796.1l-0.2,0.2l-0.2-0.1l0,0l0,0l0.2-0.2L110.3,796.1L110.3,796.1
	L110.3,796.1z M111.2,795.7l-0.2-0.1l0,0l0.2-0.2l0.2,0.2l0,0l0,0L111.2,795.7z M112.3,795.2l-0.2-0.1l0,0l0.2-0.3l0,0l0.2,0.2
	L112.3,795.2z M112.8,794.7L112.8,794.7c1.3-1.3,2.3-1.8,3.9-1.7l0,0l0,0C115.6,794.1,114.2,794.7,112.8,794.7L112.8,794.7z
	 M138.2,784.3L138.2,784.3c-0.4,0.4-1,0.7-1.6,0.6l-0.3-0.1l0,0c0.1-1.1,1.1-0.7,1.6-0.9l0,0c0.3-0.2,0.8-0.5,1-0.3l0.1,0.1
	c0,0.1,0.1,0.1,0.1,0.2C139,784.3,138.4,784.1,138.2,784.3L138.2,784.3z M140.4,783.6c-0.2,0-0.3-0.1-0.5-0.2l0,0h-0.1
	c0.1-0.1,0.2-0.3,0.3-0.3s0.2,0.2,0.3,0.2l0,0l0,0C140.4,783.4,140.4,783.5,140.4,783.6L140.4,783.6z M141.8,783
	c-0.1,0-0.2-0.2-0.3-0.3l0,0l0,0c0.1-0.1,0.1-0.2,0.2-0.2c0.2,0,0.3,0.1,0.5,0.2l0,0l0,0C142.1,782.8,141.9,783,141.8,783L141.8,783
	z M143.7,782.5c-0.2,0-0.3-0.1-0.4-0.2l0,0l0,0c0.1-0.1,0.2-0.2,0.3-0.2s0.2,0.2,0.3,0.2l0,0l0,0
	C143.8,782.3,143.7,782.4,143.7,782.5L143.7,782.5z M145.1,781.9l-0.2-0.3l0,0l0,0c0.1,0,0.3,0,0.4-0.1c0.1,0,0.1,0.1,0.2,0.2l0,0
	l0,0L145.1,781.9z M147.1,781.1l-0.2,0.2l0,0l0,0l0,0h-0.2c-0.1-0.1-0.2-0.1-0.2-0.2s0-0.1,0.2-0.2c0.2,0,0.3,0,0.5,0.1L147.1,781.1
	L147.1,781.1z M148.5,780.8c-0.1,0-0.2-0.2-0.3-0.3l0,0l0,0c0.1,0,0.1-0.2,0.2-0.1c0.2,0,0.3,0.1,0.4,0.2l0,0l0,0
	C148.7,780.6,148.6,780.7,148.5,780.8L148.5,780.8z M151.4,779.9c-0.2,0.4-0.7,0.6-1.1,0.4c-0.1,0-0.2-0.2-0.3-0.3l0,0l0,0l1.2-0.3
	l0,0c0.2-0.4,0.7-0.6,1.1-0.4c0,0,0.1,0,0.1,0.1l0,0l0,0c0,0.1,0.1,0.2,0.1,0.2L151.4,779.9z M153.9,779.1L153.9,779.1L153.9,779.1
	L153.9,779.1c0,0-0.1-0.1-0.2-0.2l0,0c0.1-0.1,0.3-0.1,0.4-0.1c0,0.1,0.1,0.1,0.2,0.2C154.3,779,154.1,779,153.9,779.1L153.9,779.1z
	 M156.3,778.6L156.3,778.6L156.3,778.6c-0.3,0-0.5,0-0.8-0.1l0,0l0,0c0.1-0.2,0.2-0.4,0.3-0.4c0.2,0,0.4,0.1,0.7,0.1
	C156.5,778.3,156.4,778.5,156.3,778.6L156.3,778.6z M158.2,778.1c-0.1,0-0.3-0.1-0.5-0.2l0,0l0,0c0.1-0.1,0.3-0.3,0.4-0.3
	c0.2,0.1,0.4,0.2,0.6,0.3l0,0l0,0C158.4,777.9,158.3,778.1,158.2,778.1L158.2,778.1z M192.8,771.8V771h6.9l0,0l0,0v0.7l0,0
	L192.8,771.8z"/>
<g>
	<path class="st3" d="M1920.5,657.3c0.1-0.1,0.2-0.3,0.3-0.4V608h-0.3V657.3z"/>
	<path class="st4" d="M1827.6,511.4c-0.1,0.8-0.3,1.7-0.4,2.6c1.8,2.3,4.3,2.5,6.9,2.5c22.1,0.7,44.2,1.4,66.3,2.2l20.1,0.7h0.3
		v-7.3h-0.3c-28.9-1.1-57.9-2.1-86.8-3.2C1831.4,508.8,1829.2,509.7,1827.6,511.4z"/>
	<path class="st4" d="M1830.6,490.9l-0.5,3.4c1.1,2.2,3.4,3.6,5.9,3.4c8.8,0,17.5,0,26.3,0.1l58.2,0.3h0.3v-7.5h-0.3
		c-21.5-0.1-43-0.3-64.5-0.3C1847.5,490.4,1839.1,489.5,1830.6,490.9z"/>
	<path class="st4" d="M1844.7,471.4c-2.1,0.1-4.3,0.3-4.5,3c-0.2,2,0.7,3.8,2.8,4.3c1.3,0.2,2.6,0.3,3.9,0.2
		c24.5-0.8,49.1-1.5,73.6-2h0.3v-7.4h-0.3c-16.8,0.4-33.6,0.8-50.4,1.1C1861.6,470.8,1853.1,471.1,1844.7,471.4z"/>
	<path class="st4" d="M1844.5,534.9c-2.7-0.1-4.6,1.2-4.9,3.8c-0.3,2.8,1.7,3.7,4.1,3.8c1,0,2,0.1,3,0.2c18.8,0.6,37.6,1.1,56.4,1.8
		c5.8,0.2,11.6,0.4,17.3,0.6h0.3v-7.7h-0.3c-12.3-0.3-24.6-0.7-36.8-1C1870.6,536,1857.5,535.4,1844.5,534.9z"/>
	<path class="st4" d="M1861.7,453.8c-2.2,0.1-5,0-5,3.4c0,2.6,1.6,3.8,4.1,4.1c5.5-0.2,10.9-0.3,16.4-0.5l43.3-1.7h0.3v-7.5h-0.3
		l-6.3,0.2C1896.7,452.5,1879.2,453.1,1861.7,453.8z"/>
	<path class="st4" d="M1873,435.4c-2.2,0.2-4,1-4,3.6c0,2.4,1.3,3.7,3.9,4l10.5-0.8c12.4-0.9,24.7-1.7,37.1-2.5h0.3v-7.6h-0.3
		l-19.1,1.3C1891.9,434,1882.5,434.7,1873,435.4z"/>
	<path class="st4" d="M1870.5,558.3c-0.1,2.6,1.1,4.4,4,4.6c0.6,0,1.2,0.1,1.7,0.1c12.9-0.2,25.8-0.3,38.7-0.5l5.5-0.1h0.3v-7.6
		h-0.3c-15.2,0.1-30.3,0.3-45.5,0.5C1872.9,555.3,1870.6,555.5,1870.5,558.3z"/>
	<path class="st4" d="M1887.3,578c-2.8-0.1-5,1-5.3,3.9c-0.3,2.5,1.6,3.5,3.9,3.6l34.5,0.9h0.3V579h-0.3l-10.8-0.3
		C1902.2,578.5,1894.8,578.2,1887.3,578z"/>
	<path class="st4" d="M1895.2,416.1c0.2,3.5,2.7,3.9,5.6,3.6c6.6-0.6,13.1-1.1,19.7-1.7h0.3v-7.6h-0.3c-6.8,0.5-13.6,1.1-20.3,1.7
		C1897.6,412.4,1895,412.8,1895.2,416.1z"/>
	<path class="st4" d="M1904.6,601.5c-2.3,0.2-4.5,0.7-4.5,3.6c0,2.3,1.2,3.7,3.8,4c0.6,0,1.3,0,2,0c4.9-0.4,9.7-0.7,14.6-1h0.3v-7.5
		h-0.3C1915.2,600.9,1909.9,601.2,1904.6,601.5z"/>
	<path class="st4" d="M1913.8,391.4c-0.2,2.1,1.4,4.1,3.5,4.3c0.1,0,0.3,0,0.4,0c0.9,0,1.8,0.1,2.8,0.1h0.3v-7.5h-1.9
		C1916.7,388.2,1913.8,387.9,1913.8,391.4z"/>
</g>
<path class="st5" d="M1913.1,694.1c-41.2,3-82.1,8.5-122.4,17.5c-43.1,9.7-85.1,23.5-125.5,41.3c-22.5,9.9-43.2,23.4-61.5,39.8
	c-2.9,2.5-5.5,5.4-7.8,8.5c-0.5,0.7-1.1,1.5-0.6,2.3c0.6,1.1,1.8,0.7,2.6,0.4c3-1,6-2.2,9.2-3.4c-0.3,1.8-1.7,2.1-2.6,2.7
	c-17.4,11.7-34,24.5-48.6,39.7c-17.6,18.4-32.8,38.4-41.3,62.8c-0.4,1.1-0.7,2.5-2.4,1.8c-1.9-0.8-0.9-2.2-0.5-3.3
	c5.7-18.2,15.4-34.2,27.1-49.1c5.2-6.7,10.8-13.1,16.3-19.7c1.1-1.3,2.1-2.6,3.1-4c0.7-0.9,1.7-2,1.1-3.2c-0.7-1.4-2.1-0.4-3.2-0.5
	c-1.5-0.1-3.2,1.4-4.5-0.8c-0.5-0.9-1.2,0.1-1.7,0.5c-22.8,22.3-41.5,47.3-50.2,78.6c-2.8,10.1-4.4,20.4-4.6,30.8h425.7V693.5h-0.3
	L1913.1,694.1z"/>
<path class="st5" d="M1812.1,699.7c-31.2,5.9-61.9,13.6-91.6,25c-13.5,5.1-26.8,11-39.7,17.4l0,0l0.8,0.7
	c16.4-6.2,32.9-12.4,49.6-17.6c41.6-13,84.2-21.6,127.4-27.2c20.5-2.7,41.2-4.3,61.8-5.7h0.3v-6h-0.3c-9.9,0.8-19.7,1.5-29.6,2.4
	C1864.5,691,1838.2,694.7,1812.1,699.7z"/>
<path class="st6" d="M74.7,176.3c-1.1-0.9-1.7-1.8-0.4-3l-8.3-1.6c-9.5,0.6-19,0.7-28.3,3c-12.7,3.1-25.2,6.6-37.6,10.5v8.5
	c14.6-4.7,29.1-9.8,44.2-12.8c9.5-1.8,19-2.6,28.6-1.3c1.5,0.2,3.1,0.2,4.7,0.3C77.7,177.5,75.8,177.2,74.7,176.3z"/>
<path class="st2" d="M1678.4,14.2c-1.1,1,0.6,2.3,1.3,3.4c13.8,22.8,29,44.7,45.5,65.6c32.4,41.3,68.5,79.3,105.2,116.7
	c29.6,30.1,59.8,59.6,91.6,87.3v-3.6l-10.3-9.7l1.1-1.1l9.3,8.7V-1.2h-250.3l0.2,0.4c2,3.7,4,7.4,6.1,11.1
	C1678.6,11.4,1680.4,12.4,1678.4,14.2z M1779.3,139.6c0-0.2-0.1-0.4-0.2-0.6c0,0.1,0.1,0.2,0.2,0.2l0,0c0.5,0.4,1.6,0.2,1.4,1.4v0.2
	h-0.1C1779.6,140.8,1779.4,140.2,1779.3,139.6z M1780.6,140.7l1,0.3h0.1C1781.3,141.3,1780.8,141.4,1780.6,140.7L1780.6,140.7z
	 M1781.8,141L1781.8,141c0.1,0.5,0.3,0.8,0.7,0.9C1781.6,142.1,1781.4,142,1781.8,141L1781.8,141z M1782.6,142.7c0-0.1,0-0.1,0-0.2
	c0-0.1,0-0.3,0-0.4c0.1,0.4,0.3,0.5,0.7,0.5l0,0C1783.1,142.7,1782.9,143.2,1782.6,142.7L1782.6,142.7z M1782.9,143.4
	c0-0.3,0.1-0.6,0.3-0.9c0,0.1,0,0.2,0.1,0.3c0.1,0.3,0.2,0.6,0.3,0.9v0.3c0,0.2,0,0.4-0.1,0.6c0,0.1-0.1,0.1-0.1,0.2
	C1783.4,144.4,1783.1,144,1782.9,143.4L1782.9,143.4z M1783.4,145L1783.4,145c0.5-0.2,0.8-0.1,0.8,0.1c0,0.1,0,0.1,0,0.2v0.1
	C1784.1,145.1,1783.9,145,1783.4,145L1783.4,145z M1785.1,146.5v-0.1l-0.8-0.5h1c0,0.2-0.1,0.4-0.1,0.5h0.1L1785.1,146.5z
	 M1785.8,146.9c0,0.1-0.1,0.2-0.1,0.4l0,0c-0.2-0.3-0.4-0.7-0.6-1l0.2-0.1h0.2c0.8,0.1,0.6,0.7,0.5,1.2l-0.3-0.1h0.2L1785.8,146.9z
	 M1786.3,147.4l0.5-0.1v0.5c0-0.1,0-0.1,0-0.1v-0.1L1786.3,147.4z M1786.8,147.9L1786.8,147.9c1.9,0.1,2.8,1.3,3.3,2.9h-0.1
	C1788.6,150.4,1787.4,149.3,1786.8,147.9L1786.8,147.9z M1790.9,151.3L1790.9,151.3c-0.2,0-0.3,0-0.4,0c-0.1,0-0.1-0.1-0.2-0.2
	L1790.9,151.3L1790.9,151.3L1790.9,151.3z M1791.3,152c-0.1-0.2-0.1-0.4,0-0.6h0.1c-0.1,0.3,0.1,0.6,0.4,0.8h-0.1
	C1791.6,152.3,1791.4,152.3,1791.3,152L1791.3,152z M1792.3,153.1c-0.1,0-0.2-0.1-0.3-0.2c-0.2-0.2-0.2-0.4-0.1-0.6
	c0-0.1,0.1-0.1,0.1-0.2h0.1c0,0.2,0.1,0.4,0.2,0.6c0.1,0.1,0.2,0.1,0.3,0.2l-0.1,0.1C1792.4,153.1,1792.4,153.1,1792.3,153.1
	L1792.3,153.1z M1792.8,153.7c-0.3-0.3-0.2-0.4-0.1-0.5c0.1-0.1,0.1-0.1,0.2-0.2h0.1c0,0.1,0,0.2,0,0.3c0,0.2,0.2,0.3,0.4,0.3
	l-0.1,0.1C1793.1,153.9,1792.9,154,1792.8,153.7L1792.8,153.7z M1793.3,154.2c0-0.2,0.1-0.4,0.2-0.5h0.2c0,0.1,0,0.1,0,0.2
	c0.2,0.8,1.2,1.3,1.3,2.1c0,0.1,0,0.1,0,0.2c0,0.2-0.1,0.4-0.3,0.5h-0.1c0.1-0.9-1.2-1.4-1.3-2.3
	C1793.3,154.4,1793.3,154.3,1793.3,154.2L1793.3,154.2z M1794.6,156.8c0.2-0.2,0.3-0.3,0.6,0.1c0.1,0.2,0.1,0.5,0,0.7h-0.1
	C1795.3,157.2,1795.1,156.9,1794.6,156.8L1794.6,156.8z M1795.6,157.6c0.1,0,0.1-0.1,0.2-0.1c0.1,0,0.2,0,0.3,0.2c0,0.2,0,0.4,0,0.6
	h-0.1v-0.1C1795.9,158,1795.9,157.7,1795.6,157.6L1795.6,157.6z M1796.3,158.4c0.8-0.3,0.7,0.2,0.6,0.9l0,0v-0.1
	C1796.9,158.8,1796.6,158.5,1796.3,158.4L1796.3,158.4z M1796.9,159.3c0.2-0.2,0.4-0.6,0.8-0.1c0.4,0.5,0,0.6-0.1,0.8l-0.3-0.3
	L1796.9,159.3z M1798.6,159.7c0,0.3,0.1,0.6,0.2,0.9l-1.1-0.6L1798.6,159.7z M1798.9,160.8c1.4,0.6,2.6,1.7,3.3,3
	C1800.9,162.9,1799.6,162.2,1798.9,160.8L1798.9,160.8z M1802.9,165.4L1802.9,165.4c-0.1-0.1-0.1-0.3-0.2-0.4
	c-0.1-0.3-0.2-0.7-0.3-1c0.8,0.5,1.4,1.2,1.8,2C1803.8,166.2,1803.3,165.9,1802.9,165.4L1802.9,165.4z M1804.4,166L1804.4,166z
	 M1804.9,166.9c-0.2-0.2-0.3-0.4-0.3-0.7l0.9,0.4v-0.1c-0.1,0.1-0.1,0.4-0.3,0.4C1804.9,166.9,1805.1,167.1,1804.9,166.9
	L1804.9,166.9z M1805.4,167.5c-0.1-0.1-0.1-0.1-0.1-0.2c-0.1-0.1,0.1-0.5,0.2-0.8l0,0v0.1l0.8,0.6c-0.1,0.2-0.3,0.3-0.5,0.4
	C1805.8,167.7,1805.6,167.6,1805.4,167.5L1805.4,167.5z M1807.1,169.2l-0.5-0.4l0.8-0.6c-0.3,0.2-0.6,0.4-0.9,0.2l-0.2-0.1
	c-0.1-0.1-0.1-0.1-0.1-0.2c-0.1-0.2,0.1-0.6,0.2-0.9c0.1,0.5,0.3,1.1,1,0.9L1807.1,169.2z M1830.6,193.4c-0.2,0-0.3,0-0.5,0
	l-0.1-0.1c-0.2-0.3,0-0.4,0.2-0.6c-0.2,0.1-0.3,0.2-0.5,0.2c-0.1,0-0.1,0-0.2,0c-0.2-0.1-0.3-0.2-0.3-0.4s0.1-0.4,0.2-0.6l0,0
	l0.1-0.1l-0.1,0.1l0.7,0.7l0.5,0.7L1830.6,193.4z M1908.6,271.1l-33.3-32.4c-0.2-0.1-0.4-0.3-0.5-0.5l-0.8-0.8l-0.8-0.8l-0.8-0.8
	l-0.8-0.8c-0.2-0.3-0.6-0.4-0.8-0.7c-0.1-0.1-0.1-0.2-0.1-0.3c-0.4,0.1-0.6-0.4-0.8-0.8l-0.8-0.8l-0.8-0.8l-0.8-0.8l-0.8-0.8
	l-0.8-0.8l-0.8-0.8l-0.8-0.8l-0.8-0.8l-0.8-0.8l-0.8-0.8c-6.2-5.6-12.1-11.6-17.7-17.9l-0.8-0.8l-0.8-0.8l-0.8-0.8l-0.8-0.8
	l-0.8-0.8l-0.8-0.8l-0.8-0.8l-0.8-0.8l-0.8-0.8l-0.8-0.8c-0.2,0-0.8-0.1-0.3-0.7c0-0.1,0.1-0.1,0.2-0.1c0,0,0.1,0,0.2,0h0.1
	c0.2,0.1,0.4,0.5,0.6,0.6l0.8,0.8l0.8,0.8l0.8,0.8l0.8,0.8l0.7,0.8l0.8,0.8l0.8,0.8l0.8,0.8l0.8,0.8l0.4,0.4l0.4,0.4l15.6,15.4
	l2.2,2.2l0.8,0.8l0.8,0.8l0.8,0.8l0.8,0.8l0.8,0.8l0.8,0.8l0.8,0.8l0.8,0.8l0.8,0.8l0.8,0.8c0.2,0.2,0.5,0.4,0.5,0.6
	c0.4-0.1,0.6,0.4,0.9,0.8l0.8,0.8l0.8,0.8l0.8,0.8l0.8,0.8l0.8,0.8l33.6,31.7L1908.6,271.1z"/>
<path class="st6" d="M25.2,601.6c11-8,22.2-15.6,31.8-25.1c8.7-8.5,14.7-18.7,19.9-29.7c10.2-21.7,3.6-41.9-3.7-62.2
	c-5.6-15.6-13.3-30.3-18.4-46.1l-0.3-0.9l-1.2,7.8l-0.5-0.1c0.5-2.8,1.1-5.5,1.6-8.1c-3.3-10.6-5.3-21.3-3.5-32.6
	c3.4-19.7,18.6-35.3,38.3-39.1c7.9-1.5,16-2.2,23.8-4.2c23.3-6.1,36.9-21.9,44-44c3.5-10.7,4.3-22.1,2.4-33.3
	c-0.2-1.6-0.7-3.2-1.3-4.7c2.2,16.5,0.1,32.3-7.8,47.1c-0.2-2.6,1.3-4.6,2.1-7c7.5-21.1,6.7-41.5-4.7-61.2
	c-11.7-20.1-27.6-36.3-45.5-50.7c-1.4-1.3-3.1-2.2-4.9-2.6c-0.2,2,1.4,3.1,2,4.6l0.9,1.5c0.5,0.4,0.7,1,0.2,1.3s-0.6-0.6-0.9-0.9
	l-1-1.2c-1.4-1.2-2.8-2.6-4-4c-16-21.5-37-27.4-62.4-20.7c-10.7,2.9-21.3,6.1-32,9.3V625C7.2,615.9,15.8,608.5,25.2,601.6z
	 M90.9,360.6c7.9-1.5,16-2.1,23.7-4.3c1.1-0.3,2.2-0.7,3.3-1.1c3.2-1.3,6.4-2.7,9.4-4.4c5.7-3.6,10.7-8.2,14.9-13.5
	c1.4-1.7,2.7-3.6,4-5.5c0.6-1,1.1-2.3,2.7-2.1l0.1-0.1c0-0.1,0-0.3-0.1-0.4l0.3,0.1l-0.2,0.3v0.1c-4.8,7.7-10.2,14.8-17.8,19.7
	c-1.1,0.7-2.2,1.4-3.4,2c-6.6,4.8-14.3,6.7-22.1,8.1c-7.5,1.4-15.1,1.9-22.6,3.6C85.5,361.3,88.3,361.1,90.9,360.6L90.9,360.6z
	 M81.5,363.2l0.2,0.3c-0.1,0.1-0.2,0.2-0.3,0.2s-0.1-0.2-0.2-0.3L81.5,363.2z M79.8,363.7L80,364c-0.1,0.1-0.3,0.2-0.3,0.2
	s-0.1-0.2-0.2-0.3L79.8,363.7z M62.9,374.3L62.9,374.3c0.2-0.2,0.3-0.7,0.8-0.3c0.1,0.1,0.1,0.2,0,0.4l-0.1,0.1
	C63.4,374.7,63.2,374.7,62.9,374.3c0.1,0.9-0.4,1.5-1.6,2l-0.6,0.2L62.9,374.3L62.9,374.3z M59.7,377.4l0.5,0.4l-1.7,2.1l-0.5-0.3
	L59.7,377.4z M56.6,381.1l0.7,0.4l-2.5,3.4l-0.4-0.3L56.6,381.1z M53.6,386.7l-4,8.4C50.4,392,51.4,389,53.6,386.7L53.6,386.7z
	 M48.1,400.3L48.1,400.3l-1.6,10.8L46,411C46.7,407.3,47.5,403.6,48.1,400.3z"/>
</svg>
