<?xml version="1.0" encoding="utf-8"?>
<!-- Generator: Adobe Illustrator 23.0.1, SVG Export Plug-In . SVG Version: 6.00 Build 0)  -->
<svg version="1.1" id="Layer_1" xmlns="http://www.w3.org/2000/svg" xmlns:xlink="http://www.w3.org/1999/xlink" x="0px" y="0px"
	 viewBox="0 0 1126 2437" style="enable-background:new 0 0 1126 2437;" xml:space="preserve">
<style type="text/css">
	.st0{fill:#F2F1F1;}
	.st1{fill:#F8A230;}
	.st2{fill:#FDD43E;}
	.st3{fill:#FDCD21;}
	.st4{fill:#FDCE26;}
	.st5{fill:#FDD339;}
	.st6{fill:#FDD235;}
	.st7{fill:#FDCD1F;}
	.st8{fill:#FDD234;}
	.st9{fill:#FDD236;}
	.st10{fill:#FDD545;}
	.st11{fill:#FDCD1E;}
	.st12{fill:#FDD33B;}
	.st13{fill:#FDD131;}
	.st14{fill:#E5B349;}
</style>
<title>656</title>
<path class="st0" d="M973,2256.1c37.2-32.2,79.3-57.8,117.9-88.1c12.2-9.6,24-19.5,35.2-29.6V0H0v2437h847.4
	C874,2366.8,915.3,2306.1,973,2256.1z"/>
<path class="st1" d="M1126,2138.5c-11.2,10.1-22.9,19.9-35.2,29.6c-38.6,30.3-80.8,55.9-117.9,88.1c-57.7,50-99,110.7-125.6,180.9
	H1126V2138.5z"/>
<g>
	<path class="st2" d="M93.4,1063.1c-3.8-0.9-7.6,0.4-8.7,4.3c-1.3,4.5,0.7,8.3,5.7,9.4c3.8,0.8,7-0.4,9-4.1
		C99.7,1068.1,98.3,1064.3,93.4,1063.1z"/>
	<path class="st2" d="M195.4,838.1c-1.2-2.4-2-6.2-4.4-8.2c-3.8-3.2-8.3-1.6-10.6,2.4c-2,3.4-0.4,7.1,3,9.2
		C187.6,844,191.3,842.7,195.4,838.1z"/>
	<path class="st3" d="M128,709.7c5,0.6,8.3-1.6,9.6-6.2s0.2-8.8-4.7-10c-4.6-1.2-8.1,1.3-9.4,6S123.6,707.7,128,709.7z"/>
	<path class="st4" d="M28,935.2c-1.3,3.9,0.4,7,4.1,8.7s6.9,0.5,9-3.3c1.4-3.8,0.4-7.3-3.1-9.1C33.8,929.2,29.7,930.2,28,935.2z"/>
	<path class="st4" d="M10.6,709.7c-1.3,3.8,0.3,6.8,3.7,8.4v-12.8C12.5,706.1,11.1,707.7,10.6,709.7z"/>
	<path class="st4" d="M23.7,714.9c1.4-3.7,0.4-7.2-3.1-9c-1.9-1.2-4.2-1.4-6.3-0.6v12.8l0.4,0.2C18.5,719.9,21.5,718.7,23.7,714.9z"
		/>
	<path class="st4" d="M57.9,727.5c-2.3,4.4-0.6,8.2,4,10c3.9,1.5,7,0.1,8.5-3.8s0-6.8-3.4-9C63.3,723.1,59.8,724,57.9,727.5z"/>
	<path class="st3" d="M32.4,827.6c1.5-3.8,0.2-6.9-3.2-8.8s-7.3-1.2-9.2,2.1c-2.4,4.1-1.1,8.1,3.5,10
		C27.1,832.5,30.2,831,32.4,827.6z"/>
	<path class="st5" d="M66.9,841.3c-1.4,2.8-0.5,6.2,2.1,8c3.5,2.5,6.8,1,9.3-2.2c1.3-3.7,1-7.4-2.7-9.3
		C72,835.8,68.6,837.7,66.9,841.3z"/>
	<path class="st6" d="M115.7,861.4c-1.3,3.8-0.5,7.1,3.6,8.5c3.3,1.1,5.7-0.7,7.1-3.6c1.8-3.6,1.3-6.8-2.7-9.5
		C120.3,856.3,117.1,857.5,115.7,861.4z"/>
	<path class="st7" d="M47.7,887.1c-2.2,4.3-0.7,8.1,4,9.8c3.8,1.4,6.8-0.3,8.6-3.8c1.2-4,0-7.1-3.6-8.8S49.4,883.7,47.7,887.1z"/>
	<path class="st8" d="M107.7,912.5c1.1-3.8,0.8-7.4-3.4-8.6c-4-1.2-6.8,1.3-7.9,5.1c-0.9,3.1,0,6.1,3,7.5
		C103.4,918.3,106,916.1,107.7,912.5z"/>
	<path class="st9" d="M154.9,930.9c0.6-3.8,0.2-7.3-4.4-8c-4.2-0.7-6.5,2.1-7.3,5.9c-0.7,3.1,0.4,6.1,3.7,7
		C151,937,153.4,934.5,154.9,930.9z"/>
	<path class="st8" d="M89,958.9c0.4-2.7,0.8-6.5-3.3-8c-3.7-1.4-6.9,0.7-8.2,4.5c-1,3-0.6,5.9,2.4,7.7
		C83.9,965.4,86.5,963.3,89,958.9z"/>
	<path class="st8" d="M135.6,978.3c1-3.8,0.8-7.4-3.6-8.5c-4.1-1.1-6.8,1.5-7.8,5.2c-0.9,3.1,0.1,6.1,3.1,7.4
		C131.3,984.2,133.9,982,135.6,978.3z"/>
	<path class="st10" d="M179.8,989c-3.9-1.7-7,0.3-8.5,4.1s-0.6,7,4,9c3.6,0.3,6.3-1.6,7.4-5.5C183.6,993.5,182.9,990.3,179.8,989z"
		/>
	<path class="st10" d="M197.9,941.9c-4.2-1.1-6.9,1.5-8,5.3c-0.9,3.1,0.1,6.2,3.2,7.5c4.1,1.8,6.8-0.4,8.4-4.2
		C202.6,946.7,202.4,943.1,197.9,941.9z"/>
	<path class="st11" d="M9.2,981.4c-1.7,4.7,0.3,8.3,5,9.4h0.1v-13.6C11.9,977.5,9.8,979.1,9.2,981.4z"/>
	<path class="st11" d="M22.4,986.1c0.5-3.9-0.7-7.1-4.6-8.3c-1.1-0.4-2.3-0.5-3.5-0.4v13.6C18,991.8,21,989.9,22.4,986.1z"/>
	<path class="st8" d="M69.4,1006.5c1.3-2.9,1.2-5.9-1.5-7.9c-3.6-2.7-6.8-1-8.8,2.3s-1.6,6.8,1.9,9.3
		C65.1,1012,67.7,1010.1,69.4,1006.5z"/>
	<path class="st8" d="M116.3,1025.4c1.5-3.7,0.8-6.9-3-8.9c-4.1-0.7-7,1.1-8.1,5c-1.1,3.9,0.1,7.1,4.4,8.1
		C113.1,1030.5,115.1,1028.3,116.3,1025.4z"/>
	<path class="st10" d="M160.4,1035.7c-3.8-1.5-7,0.7-8.4,4.6c-1.1,3.1-0.6,6,2.4,7.8c4,2.4,6.7,0.3,8.7-3.2
		C164.8,1041,164.3,1037.3,160.4,1035.7z"/>
	<path class="st3" d="M12.3,589.5c-4.5-1.7-8.3-0.3-9.4,4.7c-0.8,3.8,1.1,6.8,5,8.1c2.5,0.3,4.7,0.1,6.3-1.2v-10.6
		C13.7,590.1,13,589.8,12.3,589.5z"/>
	<path class="st3" d="M16.4,598c1-3.1,0.2-5.8-2.1-7.4v10.6C15.3,600.3,16,599.2,16.4,598z"/>
	<path class="st3" d="M54.9,621.3c3.3,1.2,6.9-0.5,8.1-3.8c0.1-0.2,0.1-0.4,0.2-0.6c1.3-3.9-0.6-6.7-4.1-8.5
		c-3.8-1.1-7.2-0.5-8.8,3.3C48.4,616.2,50.3,619.9,54.9,621.3z"/>
	<path class="st9" d="M50.6,1052.8c1-3,0.8-6-2.2-7.7c-3.8-2.2-6.8-0.4-8.6,3.1s-1,6.8,2.5,9.1C46.4,1058.3,49.2,1056.6,50.6,1052.8
		z"/>
	<path class="st10" d="M141.1,1082.4c-4.2-0.7-7.1,1.1-8.2,5.1c-1.1,4,0.1,7.2,4.4,8.2c3.5,0.9,5.6-1.4,6.8-4.3
		C145.8,1087.6,145,1084.4,141.1,1082.4z"/>
	<path class="st12" d="M81.6,686.8c4,2.1,6.7-0.3,9.3-4.5c-0.4-2.7-0.3-6.4-4.5-7.8c-2.9-1.1-6.2,0.3-7.5,3.2
		C77.2,681.2,77.9,684.9,81.6,686.8z"/>
	<path class="st8" d="M31.7,1099.4c0.7-3.8,0.3-7.3-4.2-8.2c-4.2-0.8-6.6,2-7.5,5.7c-0.7,3.1,0.5,6.1,3.6,7.2
		C27.8,1105.6,30.2,1103.1,31.7,1099.4z"/>
	<path class="st13" d="M73.5,1109.9c-3.8-1.3-7.1,0.6-8.2,4.3c-1,3.5,0,6.9,3.8,8.5c4,0.7,7.2-0.4,8.3-4.4
		C78.6,1114.6,77.3,1111.2,73.5,1109.9z"/>
	<path class="st10" d="M122,1129.3c-4.2-0.7-7.1,1.1-8.2,5.1s0.1,7.2,4.4,8.2c3.6,0.9,5.6-1.4,6.8-4.3
		C126.7,1134.5,125.9,1131.3,122,1129.3z"/>
	<path class="st3" d="M34.7,671.5c3.7,1,6.8-0.7,8.3-4.5c0.8-4-0.6-7-4.4-8.4s-7.2-0.5-8.7,3.3C28.1,666.6,30,670.3,34.7,671.5z"/>
	<path class="st8" d="M8.7,1138c-4.2-0.5-6.9,1.8-7.6,5.6s0.6,7.2,5.1,7.7c3.4,0.4,5.5-1.8,6.4-4.8C13.6,1142.7,13,1139.5,8.7,1138z
		"/>
	<path class="st8" d="M56.2,1157.3c-3.8-1.3-6.9,0.8-8.1,4.7c-1,3-0.4,6,2.5,7.6c4,2.3,6.6,0.1,9.1-4.4
		C59.9,1162.7,60.4,1158.8,56.2,1157.3z"/>
	<path class="st7" d="M107.1,755.6c4,2.5,8.1,1.6,10.2-3c1.8-3.8,0-6.7-3.5-8.9c-3.7-1.6-7.1-0.8-9,2.6c-2,3.1-1.1,7.1,2,9.1
		C106.9,755.5,107,755.6,107.1,755.6z"/>
	<path class="st8" d="M37.5,1204.2c-4.1-1-7,0.4-8.4,4.3s-0.5,7.1,3.6,8.5c3.3,1.2,5.7-0.7,7.1-3.6
		C41.6,1209.9,41.1,1206.6,37.5,1204.2z"/>
	<path class="st6" d="M156.6,775.9c4.1,1.9,6.6-0.4,8.8-4.9c0-2.6,0.5-6.4-3.9-7.6c-4-1.1-6.8,1.3-7.9,5.1
		C152.7,771.5,153.6,774.4,156.6,775.9z"/>
	<path class="st3" d="M38.1,776.3c-0.8,3.8,1.1,6.8,5,8.1c3.9,0.6,7.1-0.4,8.4-4.4s-0.3-7-4-8.4C43,769.9,39.2,771.3,38.1,776.3z"/>
	<path class="st13" d="M86,794.9c-1,3.5,0,6.9,3.7,8.5c4,0.8,7.2-0.4,8.4-4.3c1.2-3.7-0.2-7.1-4-8.4S87.1,791.1,86,794.9z"/>
	<path class="st9" d="M134.6,815c-1.1,3.8,0,7.1,4.3,8c3.4,0.8,5.6-1.3,6.8-4.2c1.5-3.7,0.8-6.9-3.4-9
		C138.7,809.6,135.7,811.1,134.6,815z"/>
	<path class="st9" d="M202.1,891.4c0-2.6,0.5-6.4-3.9-7.6c-4-1.1-6.8,1.3-7.9,5.1c-0.9,3.1-0.1,6.1,3,7.4
		C197.2,898.1,199.8,896,202.1,891.4z"/>
	<path class="st9" d="M98.2,647.9c0-2.6,0.5-6.4-3.9-7.6c-4-1.1-6.8,1.3-7.9,5.1c-0.9,3.1-0.1,6.1,3,7.4
		C93.3,654.6,95.9,652.4,98.2,647.9z"/>
	<path class="st5" d="M4.4,883.4c-1.4,2.8-0.5,6.2,2.1,8c3.5,2.5,6.8,1,9.3-2.2c1.3-3.7,1-7.4-2.7-9.3S6.1,879.7,4.4,883.4z"/>
	<path class="st12" d="M5.7,762.9c4,2.1,6.7-0.3,9.3-4.5c-0.4-2.7-0.3-6.4-4.5-7.8c-2.9-1.1-6.2,0.3-7.5,3.2
		C1.2,757.3,1.9,761,5.7,762.9z"/>
</g>
<path class="st14" d="M1026.1,194.4c-0.2,1.2-0.3,2.4-0.5,3.5c2.4,3.2,6,3.4,9.6,3.5c30.3,1,60.5,1.9,90.8,3v-10.1
	c-30.5-1.1-60.9-2.2-91.4-3.4C1031.4,190.8,1028.3,192.1,1026.1,194.4z"/>
<path class="st14" d="M1030.3,166l-0.7,4.7c1.7,3.3,4.4,4.7,8.2,4.7c12.1-0.1,24.2,0.1,36.3,0.1l51.8,0.3v-10.2
	c-20.2-0.1-40.4-0.2-60.6-0.2C1053.7,165.4,1042,164.2,1030.3,166z"/>
<path class="st14" d="M1049.8,139.1c-2.8,0.1-5.9,0.4-6.2,4.2c-0.2,2.8,0.9,5.2,3.9,5.9c1.8,0.3,3.5,0.4,5.3,0.3
	c24.4-0.8,48.8-1.5,73.2-2.1v-10.2l-41.1,0.9C1073.2,138.3,1061.5,138.7,1049.8,139.1z"/>
<path class="st14" d="M1049.5,227c-3.8-0.1-6.3,1.7-6.8,5.3c-0.5,3.9,2.3,5.1,5.7,5.3c1.4,0.1,2.8,0.2,4.2,0.2
	c24.4,0.8,48.9,1.5,73.4,2.3v-10.5l-22.3-0.6C1085.6,228.4,1067.6,227.6,1049.5,227z"/>
<path class="st14" d="M1066.5,119.5c0,3.6,2.3,5.3,5.7,5.6c7.6-0.2,15.1-0.4,22.6-0.7l31.2-1.2v-10.4l-52.6,2
	C1070.2,114.9,1066.5,114.9,1066.5,119.5z"/>
<path class="st14" d="M1083.4,94.3c0,3.3,1.8,5.1,5.4,5.6l14.5-1.1c7.6-0.5,15.1-1.1,22.7-1.6V86.7c-12.3,0.8-24.7,1.7-37,2.7
	C1086,89.6,1083.4,90.7,1083.4,94.3z"/>
<path class="st14" d="M1091,265.6c0.8,0,1.6,0.1,2.4,0.1l32.6-0.4v-10.6l-34.3,0.4c-2.8,0-6,0.3-6.2,4.1
	C1085.3,262.8,1087,265.3,1091,265.6z"/>
<path class="st14" d="M1101.5,292c-0.3,3.5,2.2,4.8,5.4,5l19.1,0.5v-10.3l-17.2-0.5C1104.9,286.4,1101.8,287.9,1101.5,292z"/>
<path class="st14" d="M1119.6,62.7c0.3,4.2,3,5.2,6.4,5.1V57.3C1122.6,57.6,1119.3,58.3,1119.6,62.7z"/>
</svg>
