<?xml version="1.0" encoding="utf-8"?>
<!-- Generator: Adobe Illustrator 23.0.1, SVG Export Plug-In . SVG Version: 6.00 Build 0)  -->
<svg version="1.1" id="Layer_1" xmlns="http://www.w3.org/2000/svg" xmlns:xlink="http://www.w3.org/1999/xlink" x="0px" y="0px"
	 viewBox="0 0 1139.5 2437" style="enable-background:new 0 0 1139.5 2437;" xml:space="preserve">
<style type="text/css">
	.st0{fill:#F2F1F1;}
	.st1{fill:#FDD43E;}
	.st2{fill:#FDCD21;}
	.st3{fill:#FDCE26;}
	.st4{fill:#FDD339;}
	.st5{fill:#FDD235;}
	.st6{fill:#FDCD1F;}
	.st7{fill:#FDD234;}
	.st8{fill:#FDD236;}
	.st9{fill:#FDD545;}
	.st10{fill:#FDCD1E;}
	.st11{fill:#FDD33B;}
	.st12{fill:#FDD131;}
	.st13{fill:#F8A230;}
	.st14{fill:#2C3335;}
</style>
<title>655</title>
<g>
	<path class="st0" d="M1131.7,884.8c-7.6-3.6-15-7.8-22.3-12c-8-4.7-16-9.3-23.6-14.7c-16.1-11.4-30.9-24.2-42.3-40.6
		c-9.6-13.8-15.1-29.2-19.9-45.1c-4.7-15.3-8-30.9-10.2-46.7c-1.9-13.6-2.9-27.3-2.1-41c0.8-13.4,2.6-26.6,6.2-39.6
		c3.8-14.1,10-27,17.4-39.3c1.5-2.6,3.7-4.8,5.5-7.1c0.6-0.1,0.2,1.3,0.7,0.7c5.1-7,11.5-12.8,17.9-18.7c1.2-1.1,2.8-1.6,3.6-3.1
		c0.1-0.3,0.3-0.4,0.6-0.6c1.1-0.5,2.2-1,2.8-2.2c0.2-0.2,0.4-0.4,0.7-0.5c4.8-3.5,10-6.6,14.7-10.3c0.2-0.2,0.4-0.4,0.6-0.6
		c3.5-1.6,6.2-4.4,9.5-6.4c0.1,0,0.3-0.1,0.4-0.1c3.2-0.4,4.8-3.1,7-4.8c6.5-5.3,12.4-11.4,17.2-18.3c5.6-8,10-16.7,13.3-26
		c4.7-13.2,6.9-26.8,7.9-40.7c0.9-12.8,0.3-25.6-1.1-38.4c-1.8-16.7-5.4-33.1-10.1-49.3c-0.1-0.5-0.1-1.1-0.8-1.1
		c-0.1-0.1-0.2-0.3-0.2-0.4c-1.6-7.8-4.3-15.2-6.6-22.8c-0.1-0.3-0.2-0.6-0.3-0.9c-0.2-4.8-1.8-9.3-3.4-13.8c-1.4-3.9-1.9-8-2.9-12
		c-0.5-2.7-1.6-5.3-2.4-8c-0.1-0.3-0.1-0.6-0.1-0.9c0-3.8-1.6-7.4-2-11.2c-0.8-2.8-0.5-5.9-1.8-8.7c-0.1-0.3-0.1-0.6-0.1-0.9
		c0.2-2.6-1.2-5-1.1-7.7c-0.8-9.8-2-19.6-1.5-29.4c0.1-0.8,0.2-1.7,0-2.5c0-1.7,0.2-3.4,0.3-5.1c0.4-4.7,0.7-9.5,2.2-14.1
		c1.5-4.8,2-9.8,3.4-14.6c1.5-5.4,3.5-10.6,5.3-15.9c1.1-3.4,3.6-6.3,4.1-10c-0.8-1.8,0.9-2.7,1.6-3.9c2.3-3.9,4.6-7.9,7.4-11.5
		c1-1.3,2.1-2.6,3.7-3.4c2.4-3.6,5.4-6.7,8.4-9.8V0H0v2244.8c83.7,11.3,159.2,42.4,225.2,95.7c36.7,29.6,68.2,64.9,103.1,96.5h811.2
		V888.6C1136.9,887.3,1134.3,886.1,1131.7,884.8z M144.9,1632c-1.2,2.9-3.4,5-6.8,4.2c-4.3-0.9-5.4-4.2-4.3-8
		c1.1-3.9,4.1-5.4,7.7-5.2C145.7,1625.1,146.4,1628.3,144.9,1632z M122.8,1512.6c1.3-4.7,4.8-7.2,9.4-6c4.9,1.2,6,5.4,4.7,10
		s-4.6,6.8-9.6,6.2C122.8,1520.8,121.5,1517.3,122.8,1512.6z M123,1669.9c4,2.7,4.5,5.9,2.7,9.5c-1.4,2.9-3.8,4.7-7.1,3.6
		c-4.1-1.4-4.9-4.7-3.6-8.5C116.3,1670.6,119.5,1669.5,123,1669.9z M104,1559.5c1.9-3.4,5.3-4.2,9-2.6c3.5,2.2,5.3,5.1,3.5,8.9
		c-2.1,4.6-6.2,5.5-10.2,3c-0.1-0.1-0.2-0.1-0.3-0.2C102.9,1566.6,102,1562.6,104,1559.5z M85.6,1458.5c1.1-3.8,3.9-6.2,7.9-5.1
		c4.4,1.2,3.9,5,3.9,7.6c-2.2,4.6-4.9,6.7-8.8,4.9C85.5,1464.6,84.7,1461.6,85.6,1458.5z M97.3,1612.2c-1.2,3.9-4.4,5.1-8.4,4.3
		c-3.7-1.6-4.7-5-3.7-8.5c1.1-3.7,4.3-5.5,8.1-4.2S98.5,1608.5,97.3,1612.2z M78.1,1490.8c1.3-2.9,4.6-4.3,7.5-3.2
		c4.2,1.4,4.1,5.1,4.5,7.8c-2.6,4.2-5.3,6.6-9.3,4.5C77.1,1498,76.4,1494.3,78.1,1490.8z M74.9,1651c3.7,1.9,4,5.6,2.7,9.3
		c-2.5,3.2-5.8,4.7-9.3,2.2c-2.6-1.8-3.5-5.2-2.1-8C67.9,1650.9,71.2,1649,74.9,1651z M69.7,1546.8c-1.5,3.9-4.6,5.3-8.5,3.8
		c-4.6-1.8-6.3-5.6-4-10c1.8-3.5,5.3-4.4,9.1-2.8C69.7,1540,71.2,1542.9,69.7,1546.8z M59.5,1706.3c-1.8,3.5-4.8,5.2-8.6,3.8
		c-4.7-1.7-6.2-5.5-4-9.8c1.8-3.5,5.4-4.5,9-2.8C59.5,1699.2,60.7,1702.3,59.5,1706.3z M49.6,1424.8c1.6-3.8,5-4.4,8.8-3.3
		c3.5,1.8,5.4,4.6,4.1,8.5c-0.1,0.2-0.1,0.4-0.2,0.6c-1.2,3.3-4.8,5-8.1,3.8C49.5,1433.1,47.7,1429.4,49.6,1424.8z M46.8,1584.7
		c3.7,1.4,5.3,4.4,4,8.4c-1.3,4-4.5,5-8.4,4.4c-3.9-1.3-5.8-4.3-5-8.1C38.4,1584.5,42.2,1583,46.8,1584.7z M40.3,1753.7
		c-2.1,3.8-5.3,5-9,3.3s-5.4-4.8-4.1-8.7c1.7-4.9,5.8-5.9,10-3.7C40.7,1746.4,41.7,1749.9,40.3,1753.7z M29.1,1475.1
		c1.5-3.8,4.9-4.7,8.7-3.3s5.2,4.4,4.4,8.4c-1.5,3.8-4.6,5.5-8.3,4.5C29.2,1483.4,27.3,1479.8,29.1,1475.1z M28.4,1631.9
		c3.4,1.9,4.7,5,3.2,8.8c-2.2,3.5-5.2,4.9-8.9,3.3c-4.6-1.9-5.9-5.9-3.5-10C21.1,1630.7,25,1630,28.4,1631.9z M22.9,1528.1
		c-2.1,3.8-5.2,5-9,3.4l-0.4-0.2v-0.1c-3.4-1.6-5-4.6-3.7-8.4c0.5-1.9,1.9-3.5,3.7-4.4v0.1c2.1-0.8,4.4-0.6,6.3,0.6
		C23.3,1520.9,24.3,1524.4,22.9,1528.1z M2.2,1407.4c1.1-5,4.9-6.4,9.4-4.7c0.6,0.2,1.3,0.6,1.9,1c2.3,1.6,3.1,4.3,2.1,7.4
		c-0.3,1.3-1.1,2.4-2.1,3.2c-1.6,1.3-3.8,1.5-6.3,1.2C3.3,1414.2,1.4,1411.2,2.2,1407.4z M2.2,1567c1.3-2.9,4.6-4.3,7.5-3.2
		c4.2,1.4,4.1,5.1,4.5,7.8c-2.6,4.2-5.3,6.6-9.3,4.5C1.1,1574.1,0.5,1570.4,2.2,1567z M15,1702.3c-2.5,3.2-5.8,4.7-9.3,2.2
		c-2.6-1.8-3.5-5.2-2.1-8c1.7-3.6,5-5.4,8.7-3.5S16.3,1698.6,15,1702.3z M11.8,1959.7c-0.9,3-3,5.2-6.4,4.8
		c-4.5-0.5-5.8-3.9-5.1-7.7c0.7-3.8,3.4-6.1,7.6-5.6C12.2,1952.6,12.9,1955.8,11.8,1959.7z M13.5,1804.1L13.5,1804.1L13.5,1804.1
		c-4.8-1.2-6.8-4.8-5.1-9.5c0.7-2.3,2.7-4,5.1-4.2v0.1c1.2-0.1,2.4,0,3.5,0.4c3.9,1.2,5.1,4.4,4.6,8.3
		C20.2,1803.1,17.2,1804.9,13.5,1804.1z M22.8,1917.2c-3.1-1.1-4.3-4.1-3.6-7.2c0.9-3.7,3.3-6.5,7.5-5.7c4.5,0.9,4.9,4.4,4.2,8.2
		C29.4,1916.2,27,1918.7,22.8,1917.2z M39.1,2026.6c-1.4,2.9-3.8,4.8-7.1,3.6c-4.1-1.4-5-4.6-3.6-8.5c1.4-3.9,4.3-5.3,8.4-4.3
		C40.3,2019.8,40.8,2023,39.1,2026.6z M41.5,1870.4c-3.5-2.3-4.3-5.6-2.5-9.1s4.8-5.3,8.6-3.1c3,1.7,3.2,4.7,2.2,7.7
		C48.4,1869.8,45.7,1871.4,41.5,1870.4z M58.8,1978.4c-2.5,4.5-5.1,6.7-9.1,4.4c-2.9-1.6-3.5-4.6-2.5-7.6c1.3-3.9,4.4-6,8.2-4.7
		C59.6,1971.9,59.1,1975.8,58.8,1978.4z M60.2,1823.3c-3.5-2.5-3.9-6-1.9-9.3s5.2-5,8.8-2.3c2.7,2,2.8,5,1.5,7.9
		C66.9,1823.2,64.4,1825.2,60.2,1823.3z M76.6,1931.5c-1.1,4-4.3,5.1-8.3,4.4c-3.8-1.6-4.8-5-3.8-8.5c1.1-3.7,4.4-5.6,8.2-4.3
		S77.8,1927.7,76.6,1931.5z M79.1,1776.2c-3-1.8-3.4-4.7-2.4-7.7c1.3-3.8,4.5-5.9,8.2-4.5c4.1,1.5,3.7,5.3,3.3,8
		C85.7,1776.4,83.1,1778.5,79.1,1776.2z M98.7,1885.8c-2,3.7-5.2,4.9-9,4.1c-5-1.1-7-4.9-5.7-9.4c1.1-3.9,4.9-5.2,8.7-4.3
		C97.5,1877.4,98.9,1881.2,98.7,1885.8z M98.6,1729.6c-3-1.4-3.9-4.4-3-7.5c1.1-3.8,3.9-6.3,7.9-5.1c4.2,1.2,4.5,4.8,3.4,8.6
		C105.2,1729.2,102.7,1731.5,98.6,1729.6z M108.8,1842.8c-4.3-1-5.5-4.2-4.4-8.1c1.1-3.9,4-5.7,8.1-5c3.8,2,4.5,5.2,3,8.9
		C114.3,1841.4,112.3,1843.7,108.8,1842.8z M124.3,1951.4c-1.2,2.9-3.2,5.2-6.8,4.3c-4.3-1-5.5-4.2-4.4-8.2c1.1-4,4-5.8,8.2-5.1
		C125.2,1944.4,125.9,1947.6,124.3,1951.4z M126.5,1795.6c-3-1.3-4-4.3-3.1-7.4c1-3.7,3.7-6.3,7.8-5.2c4.4,1.1,4.6,4.7,3.6,8.5
		C133.1,1795.1,130.6,1797.3,126.5,1795.6z M143.3,1904.6c-1.2,2.9-3.3,5.2-6.8,4.3c-4.3-1-5.5-4.2-4.4-8.2c1.1-4,4-5.8,8.2-5.1
		C144.2,1897.6,145,1900.8,143.3,1904.6z M146.1,1748.9c-3.3-0.9-4.4-3.9-3.7-7c0.8-3.8,3.1-6.6,7.3-5.9c4.6,0.7,5,4.2,4.4,8
		C152.6,1747.7,150.2,1750.1,146.1,1748.9z M162.3,1858.1c-2,3.5-4.7,5.6-8.7,3.2c-3-1.8-3.5-4.7-2.4-7.8c1.4-3.9,4.6-6.1,8.4-4.6
		C163.5,1850.4,164,1854.2,162.3,1858.1z M164.6,1584.1c-2.2,4.5-4.7,6.8-8.8,4.9c-3-1.4-3.9-4.4-3-7.4c1.1-3.8,3.9-6.2,7.9-5.1
		C165.1,1577.7,164.6,1581.5,164.6,1584.1z M181.9,1809.8c-1.1,3.9-3.8,5.8-7.4,5.5c-4.6-2-5.5-5.2-4-9s4.6-5.8,8.5-4.1
		C182.1,1803.5,182.9,1806.6,181.9,1809.8z M182.6,1654.6c-3.4-2.1-5-5.8-3-9.2c2.3-4,6.8-5.6,10.6-2.4c2.4,2,3.2,5.8,4.4,8.2
		C190.6,1655.9,186.8,1657.2,182.6,1654.6z M200.8,1763.6c-1.6,3.8-4.3,6-8.4,4.2c-3.1-1.3-4.1-4.4-3.2-7.5c1.1-3.8,3.8-6.4,8-5.3
		C201.6,1756.2,201.8,1759.8,200.8,1763.6z M201.3,1704.5c-2.2,4.6-4.9,6.8-8.8,4.9c-3.1-1.3-3.9-4.3-3-7.4c1.1-3.8,3.9-6.2,7.9-5.1
		C201.8,1698.1,201.3,1701.9,201.3,1704.5z"/>
	<path class="st1" d="M92.7,1876.2c-3.8-0.9-7.6,0.4-8.7,4.3c-1.3,4.5,0.7,8.3,5.7,9.4c3.8,0.8,7-0.4,9-4.1
		C98.9,1881.2,97.5,1877.4,92.7,1876.2z"/>
	<path class="st1" d="M194.6,1651.2c-1.2-2.4-2-6.2-4.4-8.2c-3.8-3.2-8.3-1.6-10.6,2.4c-2,3.4-0.4,7.1,3,9.2
		C186.8,1657.2,190.6,1655.9,194.6,1651.2z"/>
	<path class="st2" d="M127.3,1522.8c5,0.6,8.3-1.6,9.6-6.2s0.2-8.8-4.7-10c-4.6-1.2-8.1,1.3-9.4,6
		C121.5,1517.3,122.8,1520.8,127.3,1522.8z"/>
	<path class="st3" d="M27.2,1748.3c-1.3,3.9,0.4,7,4.1,8.7s6.9,0.5,9-3.3c1.4-3.8,0.4-7.3-3.1-9.1
		C33,1742.4,28.9,1743.4,27.2,1748.3z"/>
	<path class="st3" d="M13.5,1518.4c-1.8,0.9-3.2,2.5-3.7,4.4c-1.3,3.8,0.3,6.8,3.7,8.4V1518.4L13.5,1518.4z"/>
	<path class="st3" d="M13.5,1518.5v12.7v0.1l0.4,0.2c3.8,1.6,6.9,0.4,9-3.4c1.4-3.7,0.4-7.2-3.1-9
		C17.9,1517.9,15.6,1517.7,13.5,1518.5z"/>
	<path class="st3" d="M57.2,1540.6c-2.3,4.4-0.6,8.2,4,10c3.9,1.5,7,0.1,8.5-3.8s0-6.8-3.4-9C62.5,1536.2,59,1537.1,57.2,1540.6z"/>
	<path class="st2" d="M19.2,1634c-2.4,4.1-1.1,8.1,3.5,10c3.7,1.6,6.7,0.2,8.9-3.3c1.5-3.8,0.2-6.9-3.2-8.8
		C25,1630,21.1,1630.7,19.2,1634z"/>
	<path class="st4" d="M66.2,1654.5c-1.4,2.8-0.5,6.2,2.1,8c3.5,2.5,6.8,1,9.3-2.2c1.3-3.7,1-7.4-2.7-9.3
		C71.2,1649,67.9,1650.9,66.2,1654.5z"/>
	<path class="st5" d="M115,1674.5c-1.3,3.8-0.5,7.1,3.6,8.5c3.3,1.1,5.7-0.7,7.1-3.6c1.8-3.6,1.3-6.8-2.7-9.5
		C119.5,1669.5,116.3,1670.6,115,1674.5z"/>
	<path class="st6" d="M46.9,1700.3c-2.2,4.3-0.7,8.1,4,9.8c3.8,1.4,6.8-0.3,8.6-3.8c1.2-4,0-7.1-3.6-8.8
		C52.3,1695.8,48.7,1696.8,46.9,1700.3z"/>
	<path class="st7" d="M106.9,1725.6c1.1-3.8,0.8-7.4-3.4-8.6c-4-1.2-6.8,1.3-7.9,5.1c-0.9,3.1,0,6.1,3,7.5
		C102.7,1731.5,105.2,1729.2,106.9,1725.6z"/>
	<path class="st8" d="M154.1,1744c0.6-3.8,0.2-7.3-4.4-8c-4.2-0.7-6.5,2.1-7.3,5.9c-0.7,3.1,0.4,6.1,3.7,7
		C150.2,1750.1,152.6,1747.7,154.1,1744z"/>
	<path class="st7" d="M88.2,1772c0.4-2.7,0.8-6.5-3.3-8c-3.7-1.4-6.9,0.7-8.2,4.5c-1,3-0.6,5.9,2.4,7.7
		C83.1,1778.5,85.7,1776.4,88.2,1772z"/>
	<path class="st7" d="M134.8,1791.5c1-3.8,0.8-7.4-3.6-8.5c-4.1-1.1-6.8,1.5-7.8,5.2c-0.9,3.1,0.1,6.1,3.1,7.4
		C130.6,1797.3,133.1,1795.1,134.8,1791.5z"/>
	<path class="st9" d="M179,1802.2c-3.9-1.7-7,0.3-8.5,4.1s-0.6,7,4,9c3.6,0.3,6.3-1.6,7.4-5.5C182.9,1806.6,182.1,1803.5,179,1802.2
		z"/>
	<path class="st9" d="M197.2,1755c-4.2-1.1-6.9,1.5-8,5.3c-0.9,3.1,0.1,6.2,3.2,7.5c4.1,1.8,6.8-0.4,8.4-4.2
		C201.8,1759.8,201.6,1756.2,197.2,1755z"/>
	<path class="st10" d="M13.5,1790.4c-2.4,0.2-4.4,1.9-5.1,4.2c-1.7,4.7,0.3,8.3,5,9.4h0.1V1790.4L13.5,1790.4z"/>
	<path class="st10" d="M21.6,1799.2c0.5-3.9-0.7-7.1-4.6-8.3c-1.1-0.4-2.3-0.5-3.5-0.4v13.5v0.1
		C17.2,1804.9,20.2,1803.1,21.6,1799.2z"/>
	<path class="st7" d="M68.6,1819.6c1.3-2.9,1.2-5.9-1.5-7.9c-3.6-2.7-6.8-1-8.8,2.3s-1.6,6.8,1.9,9.3
		C64.4,1825.2,66.9,1823.2,68.6,1819.6z"/>
	<path class="st7" d="M115.5,1838.6c1.5-3.7,0.8-6.9-3-8.9c-4.1-0.7-7,1.1-8.1,5c-1.1,3.9,0.1,7.1,4.4,8.1
		C112.3,1843.7,114.3,1841.4,115.5,1838.6z"/>
	<path class="st9" d="M159.6,1848.9c-3.8-1.5-7,0.7-8.4,4.6c-1.1,3.1-0.6,6,2.4,7.8c4,2.4,6.7,0.3,8.7-3.2
		C164,1854.2,163.5,1850.4,159.6,1848.9z"/>
	<path class="st2" d="M7.2,1415.5c2.5,0.3,4.7,0.1,6.3-1.2v-10.6c-0.6-0.4-1.3-0.8-1.9-1c-4.5-1.7-8.3-0.3-9.4,4.7
		C1.4,1411.2,3.3,1414.2,7.2,1415.5z"/>
	<path class="st2" d="M15.6,1411.1c1-3.1,0.2-5.8-2.1-7.4v10.6C14.5,1413.5,15.3,1412.4,15.6,1411.1z"/>
	<path class="st2" d="M54.2,1434.4c3.3,1.2,6.9-0.5,8.1-3.8c0.1-0.2,0.1-0.4,0.2-0.6c1.3-3.9-0.6-6.7-4.1-8.5
		c-3.8-1.1-7.2-0.5-8.8,3.3C47.7,1429.4,49.5,1433.1,54.2,1434.4z"/>
	<path class="st8" d="M49.8,1865.9c1-3,0.8-6-2.2-7.7c-3.8-2.2-6.8-0.4-8.6,3.1s-1,6.8,2.5,9.1C45.7,1871.4,48.4,1869.8,49.8,1865.9
		z"/>
	<path class="st9" d="M140.3,1895.6c-4.2-0.7-7.1,1.1-8.2,5.1c-1.1,4,0.1,7.2,4.4,8.2c3.5,0.9,5.6-1.4,6.8-4.3
		C145,1900.8,144.2,1897.6,140.3,1895.6z"/>
	<path class="st11" d="M80.8,1499.9c4,2.1,6.7-0.3,9.3-4.5c-0.4-2.7-0.3-6.4-4.5-7.8c-2.9-1.1-6.2,0.3-7.5,3.2
		C76.4,1494.3,77.1,1498,80.8,1499.9z"/>
	<path class="st7" d="M30.9,1912.5c0.7-3.8,0.3-7.3-4.2-8.2c-4.2-0.8-6.6,2-7.5,5.7c-0.7,3.1,0.5,6.1,3.6,7.2
		C27,1918.7,29.4,1916.2,30.9,1912.5z"/>
	<path class="st12" d="M72.7,1923.1c-3.8-1.3-7.1,0.6-8.2,4.3c-1,3.5,0,6.9,3.8,8.5c4,0.7,7.2-0.4,8.3-4.4
		C77.8,1927.7,76.5,1924.4,72.7,1923.1z"/>
	<path class="st9" d="M121.3,1942.4c-4.2-0.7-7.1,1.1-8.2,5.1c-1.1,4,0.1,7.2,4.4,8.2c3.6,0.9,5.6-1.4,6.8-4.3
		C125.9,1947.6,125.2,1944.4,121.3,1942.4z"/>
	<path class="st2" d="M33.9,1484.7c3.7,1,6.8-0.7,8.3-4.5c0.8-4-0.6-7-4.4-8.4s-7.2-0.5-8.7,3.3
		C27.3,1479.8,29.2,1483.4,33.9,1484.7z"/>
	<path class="st7" d="M7.9,1951.2c-4.2-0.5-6.9,1.8-7.6,5.6c-0.7,3.8,0.6,7.2,5.1,7.7c3.4,0.4,5.5-1.8,6.4-4.8
		C12.9,1955.8,12.2,1952.6,7.9,1951.2z"/>
	<path class="st7" d="M55.4,1970.5c-3.8-1.3-6.9,0.8-8.2,4.7c-1,3-0.4,6,2.5,7.6c4,2.3,6.6,0.1,9.1-4.4
		C59.1,1975.8,59.6,1971.9,55.4,1970.5z"/>
	<path class="st6" d="M106,1568.6c0.1,0.1,0.2,0.1,0.3,0.2c4,2.5,8.1,1.6,10.2-3c1.8-3.8,0-6.7-3.5-8.9c-3.7-1.6-7.1-0.8-9,2.6
		C102,1562.6,102.9,1566.6,106,1568.6z"/>
	<path class="st7" d="M36.8,2017.4c-4.1-1-7,0.4-8.4,4.3c-1.4,3.9-0.5,7.1,3.6,8.5c3.3,1.2,5.7-0.7,7.1-3.6
		C40.8,2023,40.3,2019.8,36.8,2017.4z"/>
	<path class="st5" d="M160.7,1576.5c-4-1.1-6.8,1.3-7.9,5.1c-0.9,3,0,6,3,7.4c4.1,1.9,6.6-0.4,8.8-4.9
		C164.6,1581.5,165.1,1577.7,160.7,1576.5z"/>
	<path class="st2" d="M37.4,1589.4c-0.8,3.8,1.1,6.8,5,8.1c3.9,0.6,7.1-0.4,8.4-4.4c1.3-4-0.3-7-4-8.4
		C42.2,1583,38.4,1584.5,37.4,1589.4z"/>
	<path class="st12" d="M93.3,1603.8c-3.8-1.3-7,0.5-8.1,4.2c-1,3.5,0,6.9,3.7,8.5c4,0.8,7.2-0.4,8.4-4.3
		C98.5,1608.5,97.1,1605.1,93.3,1603.8z"/>
	<path class="st8" d="M133.8,1628.2c-1.1,3.8,0,7.1,4.3,8c3.4,0.8,5.6-1.3,6.8-4.2c1.5-3.7,0.8-6.9-3.4-9
		C137.9,1622.8,134.9,1624.3,133.8,1628.2z"/>
	<path class="st8" d="M197.4,1696.9c-4-1.1-6.8,1.3-7.9,5.1c-0.9,3.1-0.1,6.1,3,7.4c3.9,1.9,6.6-0.3,8.8-4.9
		C201.3,1701.9,201.8,1698.1,197.4,1696.9z"/>
	<path class="st8" d="M88.6,1465.9c3.9,1.8,6.6-0.3,8.8-4.9c0-2.6,0.5-6.4-3.9-7.6c-4-1.1-6.8,1.3-7.9,5.1
		C84.7,1461.6,85.5,1464.6,88.6,1465.9z"/>
	<path class="st4" d="M12.3,1693c-3.7-1.9-7-0.1-8.7,3.5c-1.4,2.8-0.5,6.2,2.1,8c3.5,2.5,6.8,1,9.3-2.2
		C16.3,1698.6,16,1694.9,12.3,1693z"/>
	<path class="st11" d="M4.9,1576.1c4,2.1,6.7-0.3,9.3-4.5c-0.4-2.7-0.3-6.4-4.5-7.8c-2.9-1.1-6.2,0.3-7.5,3.2
		C0.5,1570.4,1.1,1574.1,4.9,1576.1z"/>
	<path class="st13" d="M0,2244.8V2437h328.3c-34.9-31.6-66.4-66.9-103.1-96.5C159.2,2287.2,83.7,2256.1,0,2244.8z"/>
	<path class="st14" d="M1127.4,184.1c-2.8,3.6-5.1,7.6-7.4,11.5c-0.7,1.1-2.4,2.1-1.6,3.9c-0.5,3.7-2.9,6.6-4.1,10
		c-1.7,5.3-3.7,10.5-5.3,15.9c-1.4,4.8-1.9,9.8-3.4,14.6c-1.4,4.6-1.8,9.3-2.2,14.1c-0.1,1.7-0.3,3.4-0.3,5.1c0.2,0.8,0.2,1.7,0,2.5
		c-0.6,9.9,0.7,19.6,1.5,29.4c-0.1,2.6,1.3,5,1.1,7.7c0,0.3,0,0.6,0.1,0.9c1.3,2.8,0.9,5.8,1.8,8.7c0.4,3.8,2,7.3,2,11.2
		c0,0.3,0,0.6,0.1,0.9c0.7,2.7,1.8,5.3,2.4,8c1,4,1.5,8.1,2.9,12c1.6,4.5,3.1,9,3.4,13.8c0.1,0.3,0.2,0.6,0.3,0.9
		c2.4,7.5,5,15,6.6,22.8c0.1,0.1,0.2,0.3,0.2,0.4c0.8,0,0.7,0.6,0.8,1.1c4.7,16.2,8.2,32.5,10.1,49.3c1.4,12.7,2,25.5,1.1,38.4
		c-1,13.9-3.2,27.5-7.9,40.7c-3.3,9.2-7.7,17.9-13.3,26c-4.9,6.9-10.7,13-17.2,18.3c-2.2,1.8-3.8,4.5-7,4.8c-0.1,0-0.3,0.1-0.4,0.1
		c-3.3,2-6,4.8-9.5,6.4c-0.3,0.1-0.5,0.3-0.6,0.6c-4.7,3.7-9.9,6.8-14.7,10.3c-0.3,0.1-0.5,0.3-0.7,0.5c-0.6,1.2-1.7,1.6-2.8,2.2
		c-0.2,0.2-0.4,0.3-0.6,0.6c-0.8,1.5-2.4,2-3.6,3.1c-6.3,5.9-12.7,11.7-17.9,18.7c-0.5,0.7-0.2-0.8-0.7-0.7c-1.9,2.4-4,4.6-5.5,7.1
		c-7.5,12.4-13.6,25.2-17.4,39.3c-3.6,13-5.4,26.3-6.2,39.6c-0.8,13.7,0.2,27.4,2.1,41c2.2,15.8,5.5,31.4,10.2,46.7
		c4.9,15.9,10.3,31.3,19.9,45.1c11.4,16.4,26.2,29.2,42.3,40.6c7.5,5.4,15.6,10,23.6,14.7c7.3,4.3,14.6,8.5,22.3,12
		c2.6,1.2,5.2,2.5,7.8,3.8V171c-3,3.1-6,6.2-8.4,9.8C1129.5,181.5,1128.4,182.8,1127.4,184.1z"/>
</g>
</svg>
