<?xml version="1.0" encoding="utf-8"?>
<!-- Generator: Adobe Illustrator 23.0.1, SVG Export Plug-In . SVG Version: 6.00 Build 0)  -->
<svg version="1.1" id="Layer_1" xmlns="http://www.w3.org/2000/svg" xmlns:xlink="http://www.w3.org/1999/xlink" x="0px" y="0px"
	 viewBox="0 0 1131.6 2438" style="enable-background:new 0 0 1131.6 2438;" xml:space="preserve">
<style type="text/css">
	.st0{fill:#F2F1F1;}
	.st1{fill:#FDD134;}
	.st2{fill:#FDD43E;}
	.st3{fill:#FDCD21;}
	.st4{fill:#FDD43D;}
	.st5{fill:#FDD133;}
	.st6{fill:#FDCE25;}
	.st7{fill:#FDCE26;}
	.st8{fill:#FDD236;}
	.st9{fill:#FDD235;}
	.st10{fill:#FDD131;}
	.st11{fill:#FDCD1F;}
	.st12{fill:#FDD339;}
	.st13{fill:#FDD234;}
	.st14{fill:#FDD130;}
	.st15{fill:#FDD545;}
	.st16{fill:#FDCD1E;}
	.st17{fill:#FDD33B;}
	.st18{fill:#FDD238;}
	.st19{fill:#FDD132;}
	.st20{fill:#F8A230;}
	.st21{fill:#333333;}
</style>
<rect x="0" class="st0" width="1131.6" height="2438"/>
<g>
	<path class="st1" d="M1124.5,346.3c-4.9,0-8.8,1.9-9.2,6.6c-0.3,4.9,3.7,7.2,8.2,7.5c3.7,0.4,7.2-2.2,7.8-5.9
		C1132.3,349.6,1129,347.1,1124.5,346.3z"/>
	<path class="st2" d="M715.5,209.5c3.9-0.6,6.8-3.3,6.4-7.3c-0.5-4.7-3.8-7.4-8.8-6.5c-3.8,0.7-6.4,3-6.8,7.2
		C707.8,207.2,710.6,210.2,715.5,209.5z"/>
	<path class="st2" d="M716.2,448.6c-4.8-0.8-7.8,1.9-9.8,7.7c2,1.8,4.3,5,7.2,5.9c4.8,1.5,8.2-1.7,8.9-6.3
		C723,452,720.1,449.2,716.2,448.6z"/>
	<path class="st3" d="M969.9,549.4c-5.2-0.1-7.3,3.8-7.4,8.4s2.3,7.9,8.2,8.7c3.6-1.3,6.7-3.7,6.5-8.7
		C977.2,553.2,975,549.5,969.9,549.4z"/>
	<path class="st4" d="M1071.2,397.2c-3.8,0.8-6.4,3.1-6.6,7.3c1.7,4.3,4.3,7.5,9.3,6.4c3.7-0.8,7.1-3.2,6.4-7.3
		C1079.5,399.1,1076.2,396.2,1071.2,397.2z"/>
	<path class="st3" d="M817.4,549.6c-4.9,1.4-7,4.6-6.5,9.4s3.2,8.2,8.2,7.5c4.7-0.7,7-4.3,6.5-9.2S822.3,549.8,817.4,549.6z"/>
	<path class="st5" d="M1073,447.7c-4.7-0.6-7.9,1.6-9,6.6c0.3,5.1,3.9,7,8.3,7.4c3.7,0.4,7.2-2.1,8-5.8
		C1081.2,451.2,1077.6,448.3,1073,447.7z"/>
	<path class="st4" d="M1072.9,158c3.8-0.6,7.1-3.1,6.7-7.1c-0.4-4.7-3.7-7.5-8.7-6.8c-3.8,0.3-6.7,3.4-7,7.1
		C1065.3,155.7,1067.9,158.8,1072.9,158z"/>
	<path class="st1" d="M1125,107.5c2.9-1.4,6.9-3.4,5.8-8.5c-0.8-3.7-4-6-8-5.6c-4.4,0.4-8.6,2.5-8,7.5
		C1115.3,105.4,1119.1,107.6,1125,107.5z"/>
	<path class="st1" d="M1123.2,565.9c5.5,0.2,6.6-4.3,6.4-8.8c-0.2-3.6-1.2-7.8-5.6-8c-5.5-0.2-6.5,4.2-6.5,8.7
		C1118,561.6,1118.9,565.8,1123.2,565.9z"/>
	<path class="st1" d="M1074,566.1c4.8-1.9,5.5-5.7,4.8-10.2c-0.6-3.7-2.1-7.5-6.7-6.5c-5.3,1.1-5.6,5.6-4.9,10
		C1067.7,563.1,1069.2,566.3,1074,566.1z"/>
	<path class="st1" d="M1021.6,549.4c-4.5,0.4-5.1,4.4-5.5,8.1c0.8,4.1,1.2,9.1,6.9,8.6c4.3-0.4,5.6-4.4,5.3-8.1
		C1028.1,553.9,1027.5,548.9,1021.6,549.4z"/>
	<path class="st6" d="M867,296.5c-4,0.5-6.3,3-6.1,7.2c1,4,3.1,6.8,7.3,6.6c5.1-0.2,7.7-3.5,6.8-8.3
		C874.2,298.1,871,295.9,867,296.5z"/>
	<path class="st7" d="M817.5,296.6c-4.2-0.1-6.6,2.1-7.1,6.5c0.1,4,2.4,6.9,6.3,7.2c4.8,0.4,8.2-2,7.9-7.3
		C824.3,298.9,821.6,296.7,817.5,296.6z"/>
	<path class="st7" d="M817.2,94.2c-4.2-0.3-6.6,2-7.3,6.1c0,4.2,2.2,7.1,6,7.6c4.8,0.7,8.2-1.8,8.1-7
		C824,96.9,821.2,94.5,817.2,94.2z"/>
	<path class="st6" d="M968.6,57c5.1-0.1,7.8-3.2,7-8.1c-0.6-3.9-3.7-5.9-7.8-5.7c-4,0.7-6.5,3-6.1,7.2C962,54.4,964.5,57,968.6,57z"
		/>
	<path class="st6" d="M868.2,57.2c4-0.3,6.5-3,6.3-7.2s-2.9-6.2-7.1-6.6c-4,0.2-7,2-7,6.2C860.4,54.5,863.3,57.6,868.2,57.2z"/>
	<path class="st7" d="M917.3,6.6c4.2,0.1,7-2,7.6-5.9c0-0.2,0.1-0.5,0.1-0.7H911C911.1,3.7,913.6,5.8,917.3,6.6z"/>
	<path class="st7" d="M866,6.6c4.6,0.8,8.1-1.6,8.4-6.6h-14.1C860.3,3.3,862.8,6.1,866,6.6z"/>
	<path class="st7" d="M967.9,296.3c-4,0.5-6.3,3.4-5.7,7.6c0.6,3.9,3.1,6.2,8.3,6.3c2.7-1,5.8-2.6,5.7-6.9
		C976.1,298,972.7,295.7,967.9,296.3z"/>
	<path class="st7" d="M968.7,498.6c-4.1,0.5-6.2,3.1-6,7.3c0.9,4,3.1,6.6,7.3,6.5c5.1-0.2,7.6-3.5,6.8-8.3
		C976,500.1,972.7,498.1,968.7,498.6z"/>
	<path class="st7" d="M919.1,498.7c-4.2-0.1-6.5,2.2-7.1,6.5c0.2,4,2.4,6.8,6.3,7.2c4.8,0.5,8-2.1,7.8-7.3
		C926,501,923.2,498.8,919.1,498.7z"/>
	<path class="st7" d="M816,57.3c4.8,0.4,8.1-2.1,7.8-7.3c-0.2-4-3-6.3-7.1-6.4s-6.5,2.2-7.2,7.6C810.4,53.7,812,57,816,57.3z"/>
	<path class="st7" d="M868,498.9c-4.1,0.1-6.5,2.6-6.4,6.8s2.6,6.4,6.6,7.1c4.1,0,7-2.2,7.3-6.1C876,501.6,873,498.8,868,498.9z"/>
	<path class="st7" d="M917.8,296.4c-4.1,0.4-6.3,2.9-6.3,7c0.7,4.1,2.9,6.8,7,6.8c5,0,7.8-3.1,7-8C925,298.2,921.9,296,917.8,296.4z
		"/>
	<path class="st7" d="M918,245.8c-4.1,0.1-6.6,2.6-6.5,6.8s2.6,6.3,6.6,7.1c4.1,0,7-2.1,7.3-6.1C926,248.6,923,245.7,918,245.8z"/>
	<path class="st7" d="M866.9,245.9c-4.1,0.5-6.2,3.1-6.1,7.3c0.9,3.9,3.1,6.7,7.2,6.4c5-0.2,7.7-3.5,6.8-8.3
		C874.2,247.3,870.9,245.4,866.9,245.9z"/>
	<path class="st8" d="M1129,405c0.6-3.8-1-6.9-5.2-7.9c-4.5-0.1-6.3,2.6-6.5,6.6c-0.2,3.2,1.2,5.9,4.4,6.7
		C1126.1,411.6,1128.4,408.8,1129,405z"/>
	<path class="st9" d="M1020.2,397.7c-3.3,0.9-4.4,3.8-4.1,6.9c0.4,3.9,2.2,6.6,6.7,6.4c4.1-1.2,5.6-4.3,4.9-8.1
		C1027.1,399.1,1024.5,396.5,1020.2,397.7z"/>
	<path class="st10" d="M968.8,397.6c-4,0.4-6,3.1-6.1,8.1c1.3,2.3,2.9,5.6,7.1,5.2c4-0.4,6.3-3.2,5.9-7.1
		C975.3,400.3,973,397.2,968.8,397.6z"/>
	<path class="st11" d="M919.6,397.7c-4.9-0.2-7.9,2.5-7.5,7.5c0.3,4,3.1,6.1,7.1,6.1c4-0.5,6.8-2.5,6.8-6.7
		C926,400.6,923.7,397.9,919.6,397.7z"/>
	<path class="st3" d="M868.3,397.8c-4.1-0.1-6.3,2.4-7,6.5c0.1,4.1,2.4,6.5,6.3,6.9s7.2-1.6,7.7-5.4
		C876,401.1,873.3,397.9,868.3,397.8z"/>
	<path class="st12" d="M817.3,411.2c4.3,0.4,6.5-2.6,6.7-6.6c0.2-3.1-1.9-6-5-6.6c-4.2-1-6.6,1.7-7.8,5.6
		C811.5,407.6,813.2,410.8,817.3,411.2z"/>
	<path class="st9" d="M764.7,398c-3.5,0.2-5,2.8-5.2,6c-0.3,4,1.4,6.8,6.1,7.8c3.5-0.9,5.9-3.1,5.7-7.2S769.1,397.8,764.7,398z"/>
	<path class="st8" d="M708.8,406.1c0.9,2.4,2,6.1,6.5,5.6c4.1-0.5,5.8-3.8,5.4-7.7c-0.3-3.2-2.3-5.6-5.6-5.8
		C710.8,398,709.1,401,708.8,406.1z"/>
	<path class="st13" d="M1071.2,346.8c-3.6,0.5-4.6,3.4-4.6,6.5c0,4,1.9,6.7,6.2,7.1c4.1-1,6-3.7,5.6-7.7S1075.6,346.2,1071.2,346.8z
		"/>
	<path class="st13" d="M1022.8,346.9c-4.5-0.7-6.3,2.1-6.8,6c0,4,1.7,7.3,5.8,7.4s6.2-3,6-7.1C1027.6,350,1026.2,347.5,1022.8,346.9
		z"/>
	<path class="st14" d="M968.7,346.8c-4,0.9-6.5,3.1-6.1,7.2c0.4,3.9,2.9,6.5,6.9,6.2s6.3-3.2,5.9-7
		C975.2,349.6,972.9,346.9,968.7,346.8z"/>
	<path class="st5" d="M918.9,360.4c3.9-0.2,6.5-2.3,6.7-6.3c0.4-3.5-2.2-6.7-5.7-7.1c-0.1,0-0.2,0-0.3,0c-4.2-0.5-6.3,2.5-6.8,6.2
		C912.4,357.3,914.9,359.5,918.9,360.4z"/>
	<path class="st5" d="M867.2,360.3c4.1,0.9,6.6-1.8,7.9-5.7c-0.1-4-2-7-6.2-7.5c-4.4-0.5-6.4,2.7-6.8,6.6
		C861.9,356.9,864.1,359.8,867.2,360.3z"/>
	<path class="st11" d="M817.1,347.4c-4,0.2-6.2,2.8-6.5,6.8c0.4,4.1,2.7,6.5,6.7,6.8s6.9-2.1,7.2-6
		C824.9,350.1,822.1,347.2,817.1,347.4z"/>
	<path class="st13" d="M765.6,347.4c-4.5-0.2-6,2.9-6.2,6.8c0.4,3.9,2.1,7.1,6.4,6.7c4.1-0.5,5.8-3.8,5.4-7.7
		C770.8,350,768.9,347.6,765.6,347.4z"/>
	<path class="st8" d="M714.3,347.6c-4.3,0.4-5.6,3.6-5.5,7.5c0.8,3.8,2.6,6.8,7.1,5.8c4.2-1,5.2-4.5,4.6-8.2
		C719.8,349.5,717.7,347.2,714.3,347.6z"/>
	<path class="st13" d="M1122.5,296c-4.4,0.4-5.6,3.6-5.6,8.3c1.1,2.7,2.6,6.1,7.1,5c4.2-1,5.3-4.4,4.6-8.2
		C1128.1,297.9,1125.9,295.7,1122.5,296z"/>
	<path class="st9" d="M1071.9,295.9c-3.7,0.7-5.7,3.2-5.5,7.3c0.2,3.1,1.5,5.9,4.9,6.4c4.3,0.6,6.5-2.2,6.8-6.1
		C1078.6,299.3,1076.5,296.7,1071.9,295.9z"/>
	<path class="st13" d="M1020,296.5c-3.3,0.9-4.4,3.8-4.1,6.9c0.4,3.9,2.2,6.6,6.7,6.4c4.1-1.2,5.6-4.3,4.9-8.1
		C1026.9,297.9,1024.3,295.3,1020,296.5z"/>
	<path class="st13" d="M765.9,296.9c-4.6-0.6-6.2,2.3-6.8,7.3c0.6,2.6,1.8,6.3,6.1,6.2c4-0.1,6.1-3.2,5.9-7.3
		C770.9,299.9,769.3,297.4,765.9,296.9z"/>
	<path class="st13" d="M714.7,296.9c-4.4-0.1-6,3-6.1,7c0.5,3.9,2.1,7.1,6.5,6.5c4.2-0.6,5.7-3.9,5.3-7.8
		C720.1,299.4,718,297,714.7,296.9z"/>
	<path class="st15" d="M662.8,296.9c-3.5,1.1-5.2,3.9-4.8,7.9c0.3,3.2,2.2,5.9,5.6,5.9c4.3,0,6.4-2.9,6.3-7S667.8,297,662.8,296.9z"
		/>
	<path class="st13" d="M1122.6,245.4c-3.4-0.2-5.3,2.4-5.7,5.6c-0.4,3.8,0.8,7,5.1,8c4.4,0.1,6.4-2.5,6.7-6.5
		S1126.8,245.6,1122.6,245.4z"/>
	<path class="st15" d="M664.3,347.6c-4.5-0.1-6.1,3-6.2,7.1c0.5,3.9,2.1,7.2,6.7,6.6c4.3-0.6,5.8-4,5.4-7.9
		C669.7,350.1,667.6,347.6,664.3,347.6z"/>
	<path class="st13" d="M1021.2,245.6c-4.5,0.4-5.6,3.6-5.5,8.4c1.1,2.7,2.5,6.1,7.1,5c4.2-1,5.3-4.4,4.6-8.2
		C1026.8,247.6,1024.6,245.3,1021.2,245.6z"/>
	<path class="st11" d="M968.9,245.8c-4,0.1-6.2,2.6-6.7,6.7c0.3,4,2.6,6.5,6.5,6.8s7-2,7.4-5.8C976.6,248.8,973.9,245.7,968.9,245.8
		z"/>
	<path class="st8" d="M1124.6,603.3c-4.5-0.7-6.2,2.2-7,7c0.6,2.7,1.7,6.4,6,6.4c4,0,6.2-3.1,6-7.2
		C1129.4,606.4,1128,603.8,1124.6,603.3z"/>
	<path class="st8" d="M1072.8,603.3c-4.3,0.3-5.7,3.5-5.7,7.5c0.8,3.8,2.5,6.9,7,5.9c4.2-0.9,5.4-4.4,4.8-8.1
		C1078.4,605.4,1076.2,603,1072.8,603.3z"/>
	<path class="st16" d="M816.2,246.2c-3.8,0.6-6,3.4-5.8,7.6c1,3.8,3.3,6.3,7.5,6c4-0.3,6.7-2.6,6.5-6.7
		C824.2,248.1,821,245.5,816.2,246.2z"/>
	<path class="st13" d="M765.6,246.2c-4.6-0.2-6.3,2.6-6.4,6.5c-0.2,3.2,1.2,5.9,4.4,6.8c4.4,1.1,6.7-1.7,7.3-5.5
		S769.8,247.2,765.6,246.2z"/>
	<path class="st13" d="M713.2,246.5c-3.5,0.5-4.6,3.4-4.6,6.5c0,4,1.9,6.7,6.2,7.1c4.1-1,6-3.7,5.6-7.7S717.5,245.9,713.2,246.5z"/>
	<path class="st15" d="M664.6,246.5c-4.6-0.6-6.3,2.3-6.8,6.3c0,4.1,1.8,7.4,6,7.4s6.2-3.2,6-7.4C669.7,249.5,668.1,247,664.6,246.5
		z"/>
	<path class="st8" d="M1022.3,603.4c-3.3-0.1-5.3,2.4-5.7,5.6c-0.4,3.8,0.9,7,5,8c4.4,0,6.5-2.5,6.7-6.5S1026.5,603.5,1022.3,603.4z
		"/>
	<path class="st3" d="M969.2,603.4c-3.8,1-6.4,3-6.1,7.2s3,6.4,6.9,6.3c4.8-0.1,7.8-2.9,6.9-7.9
		C976.2,605.3,973.3,603.2,969.2,603.4z"/>
	<path class="st3" d="M918.6,603.7c-3.8,0.4-6.3,3.1-6,7.2s3.1,6,7,6.3c3.9-0.4,6.9-2.3,6.9-6.4
		C926.5,605.9,923.4,603.2,918.6,603.7z"/>
	<path class="st8" d="M1122.7,194.8c-3.3-0.2-5.4,2.4-5.8,5.5c-0.5,3.8,0.7,7,4.9,8.1c4.5,0.1,6.5-2.4,6.8-6.4
		S1126.8,195,1122.7,194.8z"/>
	<path class="st8" d="M1072.1,194.9c-3.3-0.2-5.4,2.4-5.8,5.5c-0.5,3.8,0.7,7,4.9,8.1c4.5,0.1,6.5-2.4,6.8-6.4
		S1076.2,195.1,1072.1,194.9z"/>
	<path class="st8" d="M1021.7,195c-4.3,0-6,2.9-6.2,8.1c1,2.3,2,6.1,6.6,5.4c4.2-0.6,5.7-3.9,5.3-7.8
		C1027,197.5,1025,195.1,1021.7,195z"/>
	<path class="st17" d="M967.9,195.2c-3.5,0.7-5.7,4.1-4.9,7.6c0.1,0.2,0.1,0.5,0.2,0.7c0.8,2.9,2.8,5.5,6.4,5c4.2-0.6,5.9-3.5,6-7.4
		C974.2,197.3,972.1,194.1,967.9,195.2z"/>
	<path class="st5" d="M919.2,208.6c3.8-1,6.5-3.1,6-7.2c-0.5-3.7-2.8-6.5-6.9-6.2s-6.1,3.3-5.8,7.1S915.2,208.4,919.2,208.6z"/>
	<path class="st3" d="M867.8,195.4c-4,0-6.5,2.4-6.8,6.4c-0.3,4.3,2.4,6.2,6.2,7c4,0.1,7.2-1.8,7.7-5.6
		C875.5,198.7,872.8,195.4,867.8,195.4z"/>
	<path class="st3" d="M817.2,195.5c-4.1-0.1-6.3,2.4-7,6.5c0.1,4.1,2.4,6.4,6.3,6.9s7.3-1.5,7.7-5.4
		C824.9,198.9,822.3,195.6,817.2,195.5z"/>
	<path class="st8" d="M765,195.5c-4.2,0.6-6.2,3.1-5.9,7.2c0.2,3.1,1.5,5.9,4.9,6.3c4.3,0.6,6.5-2.2,6.8-6.1
		C771.2,198.9,769.1,196.3,765,195.5z"/>
	<path class="st8" d="M1072.4,245.5c-4.3,0-6,2.9-6.2,7c0.5,3.9,2.1,7.1,6.5,6.5c4.2-0.6,5.7-3.9,5.3-7.8
		C1077.8,248,1075.7,245.5,1072.4,245.5z"/>
	<path class="st15" d="M662.5,195.9c-3.6,0.5-4.7,3.4-4.7,6.6c0,4.1,1.9,6.8,6.3,7.1c4.2-1,6.1-3.7,5.7-7.8S666.9,195.3,662.5,195.9
		z"/>
	<path class="st17" d="M869.1,553.2c-4.5-0.4-6.1,2.8-6.9,7.7c1.4,2.3,2.7,5.9,7.1,5.5c3.1-0.1,5.6-2.7,5.7-5.8
		C875.3,556.7,873.3,553.6,869.1,553.2z"/>
	<path class="st8" d="M1122.2,144c-3.6,0.8-5.7,3.2-5.5,7.3c0.2,3.1,1.5,5.9,4.9,6.3c4.3,0.6,6.4-2.2,6.8-6.1
		C1128.8,147.4,1126.8,144.8,1122.2,144z"/>
	<path class="st13" d="M1021,144.4c-4.5,0.3-5.6,3.6-5.5,7.5c0.8,3.8,2.6,6.9,7.1,5.8c4.2-1,5.3-4.4,4.6-8.2
		C1026.5,146.4,1024.3,144.2,1021,144.4z"/>
	<path class="st10" d="M969.2,144.6c-4.1-0.3-6.5,2.3-6.9,6.2c-0.4,4.1,2.3,6.2,6,7.3c4.2,0,6.6-2.5,6.8-6.3S973.1,145,969.2,144.6z
		"/>
	<path class="st16" d="M916.9,144.6c-2.7,1-5.7,2.8-5.5,7.1c0.2,4,2.7,6.5,6.7,6.6c5,0.1,7.8-2.8,7.1-7.7
		C924.7,146.7,921.9,144.5,916.9,144.6z"/>
	<path class="st3" d="M867.9,144.8c-4.1-0.1-6.4,2.3-7.1,6.3c-0.1,4.2,2.3,6.6,6.1,7.1s7.3-1.6,7.9-5.3
		C875.5,148.4,872.9,145,867.9,144.8z"/>
	<path class="st12" d="M817.4,158.3c4.2-0.2,6.4-3.3,6-7.4c-0.3-3-2.3-5.7-5.7-6c-4.4-0.4-6.4,2.4-7,6.5
		C811.3,155.3,813.1,158.5,817.4,158.3z"/>
	<path class="st13" d="M764.5,145c-4.4,0.3-5.7,3.5-5.7,7.4c0.8,3.8,2.5,6.9,7,5.9c4.2-0.9,5.4-4.4,4.8-8.1
		C770.1,147.1,767.9,144.8,764.5,145z"/>
	<path class="st10" d="M709.3,152.3c0.4,3.9,2.9,6.5,6.9,6.2s6.3-3.2,5.9-7c-0.4-3.6-2.6-6.4-6.8-6.4
		C711.3,146,708.9,148.2,709.3,152.3z"/>
	<path class="st15" d="M663.9,159.1c4.2-1,6.1-3.7,5.7-7.8s-2.8-6.6-7.2-5.9c-3.6,0.6-4.7,3.4-4.7,6.6
		C657.6,156,659.6,158.7,663.9,159.1z"/>
	<path class="st3" d="M918.3,549.5c-3.8,0.5-6,3.2-6,7.3c0.8,4,3.2,6.3,7.3,6.1c3.9-0.2,6.8-2.3,6.8-6.4
		C926.3,551.5,923.1,548.9,918.3,549.5z"/>
	<path class="st13" d="M1070.6,93.9c-3.6,0.5-4.6,3.4-4.6,6.5c0,4,1.8,6.7,6.2,7.1c4.1-1,6-3.7,5.6-7.7S1075,93.2,1070.6,93.9z"/>
	<path class="st14" d="M969,107.3c4-0.2,6.4-3.1,6-7c-0.4-3.7-2.6-6.4-7.7-6.5c-2.7,1.2-5.6,3-5.2,7.2
		C962.5,105,965,107.5,969,107.3z"/>
	<path class="st18" d="M918.3,107.4c4.2,0,6.5-3,6.3-7.1c0-3.1-2.3-5.8-5.5-6.2c-4.3-0.6-6.5,2.1-7.4,6.2
		C912.2,104.1,914,107.4,918.3,107.4z"/>
	<path class="st19" d="M868.4,107.4c3.2-0.1,5.7-2.6,5.9-5.7c0.4-4.1-2-7-6.1-7.5c-4.5-0.5-6.2,2.8-7,6.7
		C862,104.9,864.1,107.7,868.4,107.4z"/>
	<path class="st13" d="M762.9,94.7c-3.3,0.9-4.4,3.8-4.1,6.9c0.4,3.9,2.2,6.6,6.7,6.4c4.1-1.2,5.6-4.3,4.9-8.1
		S767.2,93.5,762.9,94.7z"/>
	<path class="st13" d="M714.2,108.1c4.1-0.2,6-3.4,5.8-7.4c-0.2-3.2-1.9-5.7-5.2-6.1c-4.6-0.6-6.1,2.4-6.7,7.6
		C708.8,104.6,709.8,108.4,714.2,108.1z"/>
	<path class="st9" d="M1117.5,505.3c0.5,3.9,2.1,7.1,6.5,6.5c4.2-0.6,5.7-3.9,5.3-7.8c-0.3-3.2-2.4-5.6-5.7-5.7
		C1119.2,498.2,1117.6,501.3,1117.5,505.3z"/>
	<path class="st13" d="M1122.6,56.7c4.1-1,6-3.7,5.6-7.7s-2.8-6.5-7.1-5.8c-3.5,0.5-4.7,3.4-4.7,6.5
		C1116.4,53.7,1118.3,56.3,1122.6,56.7z"/>
	<path class="st13" d="M1071.8,56.7c4.1-0.1,6-3.3,5.8-7.4c-0.2-3.2-1.9-5.7-5.2-6.1c-4.6-0.6-6.1,2.4-6.6,6.4
		C1065.9,53.6,1067.7,56.8,1071.8,56.7z"/>
	<path class="st13" d="M1021.1,56.8c4-0.1,6.1-3.2,5.9-7.3c-0.2-3.2-1.7-5.7-5.1-6.2c-4.6-0.7-6.2,2.3-6.8,7.3
		C1015.7,53.3,1016.8,57,1021.1,56.8z"/>
	<path class="st8" d="M1072.7,512c4,0,6.2-3.1,6-7.1c-0.1-3.2-1.6-5.8-5-6.3c-4.5-0.7-6.2,2.2-7,7
		C1067.3,508.4,1068.4,512.1,1072.7,512z"/>
	<path class="st11" d="M918.2,57.2c4.1-0.3,6.7-2.4,6.9-6.5s-2.2-6.8-6.1-7.2c-4.8-0.4-8,2.2-7.7,7.2
		C911.5,54.8,914.3,56.9,918.2,57.2z"/>
	<path class="st9" d="M1023.1,498.7c-4.6-0.7-6.3,2.1-6.8,6c0,4,1.7,7.3,5.8,7.4c4.2,0,6.2-3,6-7.1
		C1028,501.8,1026.5,499.3,1023.1,498.7z"/>
	<path class="st11" d="M819.4,499.2c-4.7-0.8-8.1,1.6-8.3,6.7c-0.2,4.2,2.6,6.2,6.6,6.9c4.1,0.1,6.8-1.9,7.4-5.9
		c0.7-3.6-1.7-7-5.3-7.6C819.7,499.2,819.5,499.2,819.4,499.2z"/>
	<path class="st13" d="M764.6,57.5c4-0.1,6.1-3.2,5.9-7.3c-0.2-3.2-1.7-5.7-5.1-6.2c-4.6-0.7-6.2,2.3-6.8,7.3
		C759.1,53.9,760.3,57.6,764.6,57.5z"/>
	<path class="st13" d="M713.7,57.7c4.1-0.6,6.3-3,6.2-7.1s-2.2-6.8-6.5-6.5c-3.5,0.2-5,2.8-5.2,6C707.8,54,709.5,56.8,713.7,57.7z"
		/>
	<path class="st13" d="M1020.6,93.9c-3.5,0.2-5,2.8-5.2,6c-0.3,4,1.4,6.8,6.1,7.8c3.5-0.9,5.9-3.1,5.7-7.2
		C1027,96.3,1024.9,93.6,1020.6,93.9z"/>
	<path class="st13" d="M1122.2,6c3.6-0.1,5.6-2.6,5.9-6h-11.9C1116.8,2.6,1118,6.1,1122.2,6z"/>
	<path class="st8" d="M1070.7,6.1c4.4,0.2,6.4-2.3,6.8-6.1h-11.8C1065.7,3,1067.8,5.5,1070.7,6.1z"/>
	<path class="st9" d="M1020.9,6.2c3.7,0,5.8-2.6,6-6.2h-11.8C1015.5,3.5,1017.2,6.2,1020.9,6.2z"/>
	<path class="st11" d="M968.9,6.5c4-0.5,6.5-2.6,6.7-6.5h-13.8c0,0.1,0,0.2,0,0.3C962.1,4.2,964.9,6.3,968.9,6.5z"/>
	<path class="st9" d="M765.9,499.2c-4.5-0.2-6,2.9-6.3,7.9c0.9,2.4,1.9,6.2,6.5,5.6c4.2-0.5,5.8-3.8,5.4-7.7
		C771.2,501.8,769.2,499.4,765.9,499.2z"/>
	<path class="st16" d="M816,6.8c4,0.4,7.2-1.7,7.7-5.5c0.1-0.4,0.1-0.8,0.1-1.3h-14.1c0,0.2-0.1,0.5-0.1,0.8
		C810.4,3.3,811.9,6.3,816,6.8z"/>
	<path class="st9" d="M765.5,6.6c3.6-0.8,5-3.5,4.9-6.6h-11.9c0,0.2,0,0.4,0,0.7C759.3,4.5,761,7.6,765.5,6.6z"/>
	<path class="st8" d="M1123.9,461.3c4.2-0.6,5.7-3.9,5.3-7.8c-0.3-3.2-2.4-5.6-5.7-5.7c-4.3,0-6,3-6.2,8.1
		C1118.3,458.2,1119.3,461.9,1123.9,461.3z"/>
	<path class="st8" d="M1021.9,448c-4.3,0.3-5.7,3.5-5.7,7.5c0.8,3.8,2.5,6.9,7,5.9c4.2-0.9,5.4-4.4,4.8-8.1
		C1027.4,450.1,1025.2,447.7,1021.9,448z"/>
	<path class="st17" d="M963.4,454.9c0.7,3.9,2.5,6.9,6.9,6.6c3.1-0.2,5.6-2.7,5.7-5.8c0.3-3.9-1.7-7.1-5.8-7.5
		C965.6,447.7,964.1,451.1,963.4,454.9z"/>
	<path class="st5" d="M919,461.5c4,0.2,6.6-2.3,6.8-6.2s-2.2-6.6-6.1-7.1c-4.3-0.5-5.9,2.7-7.2,7.3
		C913.7,457.8,914.8,461.3,919,461.5z"/>
	<path class="st3" d="M867.6,448.3c-3.8,1-6.4,3-6.1,7.2s3,6.4,6.9,6.3c4.8-0.1,7.8-2.9,6.9-7.9
		C874.7,450.1,871.8,448.1,867.6,448.3z"/>
	<path class="st10" d="M811.2,455.6c0.3,3.9,2.8,6.5,6.8,6.3s6.3-3.1,6-7c-0.3-3.6-2.6-6.4-6.7-6.5
		C813.3,449.2,810.8,451.5,811.2,455.6z"/>
	<path class="st8" d="M764.3,448.8c-3.5,0.6-4.7,3.4-4.7,6.5c0,4,1.9,6.6,6.5,7c3.5-1.1,5.7-3.7,5.2-7.7S768.7,448.1,764.3,448.8z"
		/>
</g>
<path class="st20" d="M1131.6,2438v-133.2c-3.5-0.2-9.6-0.4-13.2-0.4c-44.2-0.9-86.7,8.8-128.5,22.2
	c-46.7,14.9-91.6,35.4-139.1,47.5c-193.6,49.3-365.7,7.8-515.1-125c-36.6-32.6-69.3-69.6-107.5-100.5
	c-66.8-54-143.3-85.1-228.2-96.1V2438H1131.6z"/>
<path class="st21" d="M64.6,1009.7c8.4-73.3,0-146.4-11.4-219.1C45.2,740,41.1,688.9,47.5,638c6.8-53.8,20.9-106.1,50.5-152.5
	c25.3-39.6,52.1-78.2,77.7-117.7c26.9-41.6,54.4-82.8,78.7-125.8c11.5-20.3,17.4-44.2,23.5-67.1c8.4-31.7,4.8-63.9,1.3-96.2
	c-2.9-26.9-9.2-53.3-18.6-78.7h-55.6c4.8,11.6,8.7,23.6,11.8,35.8c8.2,32.5,15.6,66.7,14,99.6c-1.4,29.5-11.5,60.5-25,87.1
	c-19.7,39-44.7,75.5-69.7,111.6c-33.7,48.6-70.7,94.9-95.3,149.5C21.1,526.9,9,572.2,2,618.8c-0.8,5.1-1.4,10.1-2,15.2V738
	c2.9,32.5,7.7,64.8,12.5,97.3c5.9,39.6,9.8,80,8.7,119.9c-1.4,54.5-8.5,108.6-21.2,161.6v137.3c6.3-12.7,12.2-25.9,17.6-39.5
	C43.9,1148.5,56.6,1079.5,64.6,1009.7z"/>
<path class="st21" d="M149.2,129.8c8-46.5,2.4-89.7-19.1-129.8H71.3c33.9,48.8,38.5,103.2,16.2,160.2c-16,40.8-38.4,79.4-61.1,117.2
	C18,291.5,9.1,305.3,0,319.1v93.4c28.2-44.3,57-88.1,85.6-132.1C115.8,234,139.7,185.3,149.2,129.8z"/>
</svg>
